<svg width="80" height="80" viewBox="0 0 80 80" fill="none" xmlns="http://www.w3.org/2000/svg">
<circle cx="40" cy="40" r="40" fill="#00FF38"/>
<g clip-path="url(#clip0_365_7)">
<path fill-rule="evenodd" clip-rule="evenodd" d="M29.9656 51.3921C29.5702 51.5747 29.2402 51.8359 28.9755 52.1759C28.2389 54.925 27.508 57.6525 26.7831 60.3581C26.8259 60.9888 27.1379 61.431 27.7188 61.6849C28.6299 61.938 29.5441 62.174 30.4613 62.3929C31.3393 59.0159 32.2344 55.642 33.1465 52.2713C33.1644 52.2043 33.1399 52.1619 33.073 52.144C32.0412 51.8404 31.0054 51.5897 29.9656 51.3921Z" fill="#FEFEFE"/>
<path fill-rule="evenodd" clip-rule="evenodd" d="M43.2381 18.5238C43.1377 18.6282 43.0683 18.7531 43.0301 18.8985C42.2647 21.891 41.4559 24.8755 40.6041 27.8521C41.3398 28.3684 42.0745 28.906 42.8082 29.4649C43.3526 29.9932 43.7413 30.6174 43.9743 31.3376C43.9804 33.7909 43.742 36.2199 43.2592 38.6245C42.538 42.2671 41.4034 45.7651 39.8555 49.1185C39.4922 49.8711 39.0974 50.6082 38.6712 51.3298C38.1746 51.88 37.5593 52.2353 36.8254 52.3955C35.8741 52.5617 34.9266 52.6845 33.9828 52.7637C33.0812 55.8607 32.2473 58.973 31.481 62.1005C34.2052 62.5186 36.8813 62.3031 39.5093 61.454C40.7056 61.0015 41.6138 60.2225 42.2337 59.1173C48.0506 49.7905 50.9696 39.6329 50.9907 28.6445C50.9806 27.7451 50.9706 26.8457 50.9605 25.9463C50.8671 24.893 50.4921 23.9496 49.8357 23.1162C48.9013 21.9874 47.8123 21.032 46.5685 20.2501C45.4942 19.5956 44.3841 19.0202 43.2381 18.5238Z" fill="#FEFEFE"/>
<path fill-rule="evenodd" clip-rule="evenodd" d="M39.1291 16.9924C38.7556 17.1647 38.4468 17.4137 38.2025 17.7395C37.4807 20.4335 36.7589 23.1275 36.037 25.8214C36.017 26.4503 36.2865 26.917 36.8455 27.2216C37.79 27.4837 38.7377 27.7287 39.6884 27.9565C40.5663 24.5795 41.4614 21.2057 42.3735 17.8349C42.3915 17.7679 42.367 17.7255 42.3 17.7076C41.2522 17.3816 40.1953 17.1432 39.1291 16.9924Z" fill="#FEFEFE"/>
</g>
<defs>
<clipPath id="clip0_365_7">
<rect width="46.0078" height="46.0078" fill="white" transform="matrix(-0.866025 0.5 0.5 0.866025 45.8438 9)"/>
</clipPath>
</defs>
</svg>
