<svg width="1920" height="1556" viewBox="0 0 1920 1556" fill="none" xmlns="http://www.w3.org/2000/svg">
<g clip-path="url(#clip0_302_26328)">
<rect width="1920" height="1080" transform="translate(0 32)" fill="white"/>
<rect x="415.889" y="-388.879" width="114.774" height="1107" transform="rotate(45 415.889 -388.879)" fill="#D9D9D9" stroke="#A0A9A8" stroke-width="3"/>
<rect x="824.553" y="-568.544" width="42" height="2086.49" transform="rotate(45 824.553 -568.544)" fill="#D9D9D9" stroke="#A0A9A8" stroke-width="3"/>
<rect x="792.186" y="-416.879" width="42" height="1860.86" transform="rotate(45 792.186 -416.879)" fill="#D9D9D9" stroke="#A0A9A8" stroke-width="3"/>
<rect x="892.496" y="-397.188" width="42" height="2273.53" transform="rotate(45 892.496 -397.188)" fill="#D9D9D9" stroke="#A0A9A8" stroke-width="3"/>
<rect x="1089.8" y="-468.246" width="42" height="2086.49" transform="rotate(45 1089.8 -468.246)" fill="#D9D9D9" stroke="#A0A9A8" stroke-width="3"/>
<rect x="1057.44" y="-316.581" width="42" height="1860.86" transform="rotate(45 1057.44 -316.581)" fill="#D9D9D9" stroke="#A0A9A8" stroke-width="3"/>
<rect x="1157.75" y="-296.89" width="42" height="2273.53" transform="rotate(45 1157.75 -296.89)" fill="#D9D9D9" stroke="#A0A9A8" stroke-width="3"/>
<rect x="1235.8" y="-255.246" width="42" height="2086.49" transform="rotate(45 1235.8 -255.246)" fill="#D9D9D9" stroke="#A0A9A8" stroke-width="3"/>
<rect x="1203.44" y="-105.702" width="45" height="1863.86" transform="rotate(45 1203.44 -105.702)" fill="#D9D9D9"/>
<rect x="1303.75" y="-86.0117" width="45" height="2276.53" transform="rotate(45 1303.75 -86.0117)" fill="#D9D9D9"/>
</g>
<path d="M-112.389 1212.24L1066.35 33.5021L1125.75 33.5006L-82.6908 1241.94L-112.389 1212.24Z" fill="#D9D9D9" stroke="#A0A9A8" stroke-width="3"/>
<path d="M-303.879 1523.56L1186.36 33.3204L1245.75 33.32L-274.18 1553.25L-303.879 1523.56Z" fill="#D9D9D9" stroke="#A0A9A8" stroke-width="3"/>
<defs>
<clipPath id="clip0_302_26328">
<rect width="1920" height="1080" fill="white" transform="translate(0 32)"/>
</clipPath>
</defs>
</svg>
