<svg width="170" height="135" viewBox="0 0 170 135" fill="none" xmlns="http://www.w3.org/2000/svg">
<path fill-rule="evenodd" clip-rule="evenodd" d="M40.0171 4.70207C40.157 4.70207 40.2973 4.70207 40.4372 4.70207C45.0897 4.56334 49.7111 4.84344 54.3014 5.54232C56.7856 6.51244 59.3064 7.49255 61.8637 8.48322C62.6086 9.06803 63.4489 9.55832 64.3845 9.95366C64.7361 10.3784 64.876 10.8687 64.8046 11.4241C62.0784 10.1331 59.2778 8.94284 56.4021 7.85302C54.3439 7.14259 52.2432 6.65259 50.1001 6.38258C47.3748 5.89775 44.5738 5.82776 41.6976 6.17251C40.1713 6.23507 38.771 6.5852 37.4963 7.22283C28.5421 9.70369 21.61 14.8855 16.7 22.7676C15.6929 24.5002 14.9224 26.3206 14.3893 28.2292C12.3916 32.6906 11.8315 37.312 12.7088 42.0934C12.9016 45.6654 13.7419 49.0264 15.2295 52.1765C19.2102 62.1071 26.3524 68.6191 36.6561 71.7125C37.485 71.9204 38.3252 71.9906 39.1768 71.9225C49.4489 74.0463 58.6918 71.8053 66.9053 65.2005C69.8688 62.4457 72.4598 59.3649 74.6776 55.9577C76.0258 53.702 77.0761 51.3216 77.8286 48.8155C79.7649 41.2839 79.415 33.8615 76.7783 26.5487C75.3217 24.054 73.9911 21.5332 72.787 18.9864C73.2072 18.4264 73.6273 18.4264 74.0474 18.9864C75.7868 21.4967 77.2572 24.1573 78.4588 26.9688C79.1558 29.2409 79.786 31.4814 80.3493 33.6909C80.3493 33.9711 80.3493 34.2509 80.3493 34.5311C80.2796 38.1749 80.3493 41.8162 80.5594 45.4545C81.0194 44.9533 81.3694 44.3928 81.6097 43.774C83.5369 40.6213 85.3573 37.4002 87.0714 34.111C88.0234 32.6263 88.8637 31.0861 89.5922 29.4896C92.7389 24.601 95.6798 19.5595 98.4148 14.365C103.387 4.95322 110.669 2.64251 120.261 7.4329C126.002 12.3526 127.332 18.3045 124.253 25.2883C120.879 30.6357 117.729 36.0974 114.8 41.6733C110.079 49.5721 105.457 57.5546 100.936 65.6206C99.3232 67.7246 98.2031 69.9651 97.5746 72.3426C99.5534 70.7794 101.514 69.2387 103.456 67.7212C107.265 65.8924 111.187 64.4917 115.22 63.52C115.36 63.52 115.5 63.52 115.64 63.52C122.025 63.0721 128.187 63.9124 134.126 66.0407C137.328 67.6427 140.409 69.4631 143.369 71.5024C147.413 75.2617 150.633 79.6029 153.031 84.5264C154.188 87.3677 155.029 90.3086 155.552 93.349C156.178 101.705 154.498 109.547 150.511 116.876C150.091 117.016 149.81 117.296 149.67 117.716C149.39 117.716 149.11 117.716 148.83 117.716C148.764 117.14 148.834 116.579 149.04 116.036C154.509 106.081 155.349 95.7177 151.561 84.9465C147.521 76.7057 141.289 70.7537 132.865 67.0911C131.612 66.8818 130.352 66.8117 129.084 66.881C128.894 66.4785 128.614 66.1281 128.244 65.8307C124.308 64.7518 120.387 64.5417 116.48 65.2005C110.933 65.6677 106.031 67.628 101.776 71.0823C98.5984 73.0669 95.8676 75.5877 93.5834 78.6446C91.3819 82.2077 89.6316 85.9888 88.3318 89.988C87.2428 95.0892 87.2428 100.131 88.3318 105.113C90.4135 115.035 95.8752 122.457 104.717 127.379C109.637 130.649 115.099 132.05 121.102 131.581C122.998 131.58 124.819 131.44 126.563 131.161C128.8 130.579 131.041 129.949 133.285 129.27C135.986 127.92 138.647 126.589 141.268 125.279C141.62 125.422 141.76 125.702 141.688 126.119C138.554 128.386 135.193 130.206 131.605 131.581C122.124 134.476 113.021 133.636 104.297 129.06C104.157 129.06 104.016 129.06 103.876 129.06C93.9787 122.838 87.9566 114.016 85.811 102.592C85.8089 98.9355 85.8786 95.2942 86.0211 91.6685C83.2751 95.4795 80.9644 99.5409 79.089 103.852C74.3369 111.389 69.7857 119.092 65.4348 126.959C60.2361 132.984 54.0044 134.314 46.7391 130.95C42.9752 128.521 40.8746 125.09 40.4372 120.657C40.3805 118.366 40.6607 116.126 41.2775 113.935C43.1315 110.366 45.0922 106.865 47.1592 103.432C47.5592 101.911 48.5394 101.211 50.1001 101.331C50.1283 101.944 49.9884 102.504 49.68 103.012C46.808 107.084 44.3574 111.426 42.3278 116.036C41.1678 123.171 43.8986 128.142 50.5203 130.95C55.5358 131.921 59.8072 130.591 63.3342 126.959C68.7021 117.762 73.9537 108.519 79.089 99.2308C85.1594 89.47 90.9009 79.5273 96.3142 69.4018C100.755 62.0634 105.097 54.641 109.338 47.135C113.704 39.9483 117.976 32.6662 122.152 25.2883C125.183 19.5721 124.553 14.3205 120.261 9.53354C118.853 8.46935 117.313 7.69884 115.64 7.22283C115.5 7.22283 115.36 7.22283 115.22 7.22283C112.142 5.93678 109.201 6.21688 106.397 8.06309C104.645 8.97729 103.175 10.2377 101.986 11.8442C96.478 21.3219 91.0861 30.8449 85.811 40.4129C81.0253 48.2844 76.4039 56.2669 71.9468 64.3602C66.728 72.6939 61.8268 81.2368 57.2423 89.988C56.6268 90.3687 56.2067 90.9287 55.9819 91.6685C55.3694 92.2071 54.8089 92.2071 54.3014 91.6685C57.8023 85.2267 61.3037 78.7845 64.8046 72.3426C66.2641 70.5521 67.5245 68.5913 68.5858 66.4609C68.4459 66.321 68.3055 66.1806 68.1656 66.0407C66.3045 67.6284 64.3437 69.0287 62.2838 70.242C59.9051 71.3125 57.5242 72.2931 55.1417 73.1829C55.0018 73.1829 54.8615 73.1829 54.7215 73.1829C50.2741 73.8946 45.7926 74.1744 41.2775 74.0232C25.3832 71.2234 15.5102 61.9806 11.6585 46.2947C10.9413 41.9565 10.8716 37.6153 11.4484 33.2708C12.2706 29.1216 13.6713 25.2005 15.6497 21.5072C21.4848 12.5694 29.6072 6.96769 40.0171 4.70207Z" fill="#FF7A00"/>
<path fill-rule="evenodd" clip-rule="evenodd" d="M63.1241 18.1462C63.1241 18.4264 63.1241 18.7062 63.1241 18.9865C62.6935 19.1533 62.6233 19.4331 62.914 19.8267C66.2826 22.6458 68.5933 26.1467 69.8461 30.3299C69.7575 33.8955 69.6873 37.5364 69.6361 41.2532C69.2033 45.2684 67.5926 48.6996 64.8046 51.5464C62.0082 53.7147 58.9274 55.325 55.5618 56.3778C55.2816 56.2379 55.0018 56.0976 54.7215 55.9577C56.2769 55.0792 57.6074 53.9587 58.7128 52.5967C59.2589 53.1038 59.8891 53.384 60.6033 53.4369C60.647 50.8271 61.4171 48.4463 62.914 46.2948C65.7928 38.2783 64.3223 31.2063 58.5027 25.0783C49.7329 18.492 41.1203 18.702 32.6648 25.7085C32.4699 25.9581 32.3997 26.2383 32.4548 26.5488C31.3238 27.5411 30.2033 28.5217 29.0938 29.4897C30.0147 27.6394 31.1347 25.9589 32.4548 24.4481C34.4605 22.8113 36.7014 21.4808 39.1768 20.4569C51.211 16.964 59.9639 20.8149 65.4348 32.0104C66.2654 34.4913 66.9653 37.0121 67.5354 39.5727C67.7094 39.7647 67.9194 39.9051 68.1656 39.9929C68.5673 39.4194 68.8471 38.7892 69.0059 38.1023C68.7538 35.7937 68.4736 33.483 68.1656 31.1702C67.6695 30.7437 67.2493 30.2539 66.9053 29.6997C66.5368 27.9738 65.9066 26.3631 65.0147 24.8683C63.9644 23.6079 62.914 22.3475 61.8637 21.0871C60.2597 20.1116 58.8594 18.9214 57.6624 17.516C52.9377 14.8818 47.8961 14.1117 42.5378 15.2053C38.9449 15.4452 35.7238 16.6359 32.8749 18.7764C32.3317 18.9823 31.7712 19.0524 31.1944 18.9865C38.3992 13.7609 46.3816 12.4304 55.1417 14.9953C56.8705 15.5091 58.4111 16.3493 59.7631 17.516C60.8399 17.9693 61.9599 18.1794 63.1241 18.1462Z" fill="white"/>
<path fill-rule="evenodd" clip-rule="evenodd" d="M32.4545 24.4481C32.9338 21.9298 34.3341 20.0393 36.6557 18.7764C34.8038 18.3701 33.1233 18.7201 31.6142 19.8267C30.3009 20.8358 28.9002 21.7462 27.4129 22.5575C27.0651 23.3944 26.505 24.0246 25.7324 24.4481C25.9727 23.7108 26.3231 23.0104 26.7827 22.3474C28.4708 21.419 29.9413 20.2985 31.1941 18.9864C31.7709 19.0524 32.3314 18.9822 32.8746 18.7764C35.7235 16.6358 38.9446 15.4452 42.5375 15.2053C47.8958 14.1117 52.9374 14.8818 57.6621 17.516C58.8591 18.9213 60.2594 20.1115 61.8634 21.0871C62.9137 22.3474 63.9641 23.6078 65.0144 24.8682C65.9063 26.363 66.5365 27.9738 66.9049 29.6997C67.249 30.2538 67.6692 30.7437 68.1653 31.1701C68.4733 33.4829 68.7535 35.7936 69.0056 38.1022C68.8468 38.7891 68.567 39.4193 68.1653 39.9928C67.9191 39.905 67.7091 39.7647 67.5351 39.5727C66.965 37.012 66.2651 34.4912 65.4345 32.0104C59.9636 20.8148 51.2107 16.9639 39.1765 20.4569C36.7011 21.4807 34.4602 22.8113 32.4545 24.4481Z" fill="#FF7A00"/>
<path fill-rule="evenodd" clip-rule="evenodd" d="M63.1236 14.365C64.9903 16.2681 66.951 18.0886 69.0054 19.8266C69.1869 20.335 69.4672 20.7551 69.8457 21.087C70.1259 21.3672 70.4057 21.647 70.6859 21.9273C71.7249 23.9212 72.7051 25.8819 73.6268 27.809C74.2268 29.4366 74.7167 31.1171 75.0973 32.8506C75.3775 37.0519 75.3775 41.2531 75.0973 45.4544C73.7071 49.0738 72.0967 52.5747 70.2658 55.9576C69.5487 56.5344 68.9886 57.2344 68.5853 58.0582C61.3347 65.7382 52.3717 69.2391 41.6971 68.5614C41.6971 68.4215 41.6971 68.2812 41.6971 68.1413C43.1046 68.2106 44.5048 68.1405 45.8984 67.9313C44.9678 67.4926 43.9877 67.2128 42.9575 67.091C45.2892 67.0028 47.5298 66.5125 49.6796 65.6206C50.6534 65.8294 51.634 65.9693 52.6204 66.0407C52.549 65.4853 52.6889 64.995 53.0406 64.5702C55.5454 63.6186 58.0661 62.7082 60.6029 61.8394C62.1985 60.4731 63.879 59.2128 65.6444 58.0582C65.9599 57.6902 66.17 57.2701 66.2746 56.7979C66.4145 56.9378 66.5548 57.0781 66.6947 57.218C66.8346 56.658 66.975 56.0975 67.1149 55.5375C67.3396 56.2815 67.69 56.4214 68.1652 55.9576C67.635 55.0858 67.7051 54.2456 68.3752 53.4368C68.7592 53.9217 69.1092 53.8515 69.4256 53.2268C68.3051 52.9466 68.3051 52.6667 69.4256 52.3865C69.2857 52.2466 69.1453 52.1063 69.0054 51.9664C70.9229 48.9453 72.043 45.6544 72.3665 42.0934C72.7866 42.0934 73.2067 42.0934 73.6268 42.0934C73.7735 38.9685 73.4932 35.8873 72.7866 32.8506C71.7489 33.3157 71.0489 34.0862 70.6859 35.1613C72.5068 43.5521 69.8457 49.9943 62.7035 54.4872C62.0032 55.2573 61.3032 56.0278 60.6029 56.7979C57.5536 58.3044 54.3325 59.3548 50.9399 59.9488C46.7466 60.4996 42.6151 60.9899 38.5462 61.4193C30.3138 59.2086 24.5719 54.167 21.3209 46.2947C21.1113 44.7604 21.0415 43.2202 21.1109 41.6733C22.9514 51.8467 28.9034 58.1486 38.9663 60.579C39.2255 60.1803 39.1558 59.8303 38.7562 59.5287C36.5279 58.7687 34.5671 57.5785 32.8744 55.9576C33.1547 55.6774 33.4345 55.3976 33.7147 55.1174C28.8534 50.7073 26.1923 45.1754 25.7323 38.5223C26.1595 35.92 26.9998 33.4694 28.253 31.1701C28.1392 30.3802 28.4194 29.8202 29.0933 29.4896C30.2029 28.5216 31.3233 27.541 32.4543 26.5487C32.3993 26.2382 32.4694 25.958 32.6644 25.7084C41.1199 18.7019 49.7325 18.4919 58.5022 25.0782C64.3218 31.2062 65.7923 38.2782 62.9136 46.2947C61.4167 48.4461 60.6466 50.827 60.6029 53.4368C59.8887 53.3839 59.2585 53.1037 58.7123 52.5966C57.6069 53.9586 56.2764 55.0791 54.7211 55.9576C55.0013 56.0975 55.2811 56.2378 55.5613 56.3777C58.927 55.3249 62.0078 53.7145 64.8042 51.5463C67.5921 48.6995 69.2029 45.2683 69.6356 41.2531C69.6869 37.5363 69.757 33.8954 69.8457 30.3298C70.7078 32.4103 71.0578 32.4103 70.896 30.3298C69.3327 25.7891 66.7418 22.0079 63.1236 18.9864C63.1236 18.7061 63.1236 18.4263 63.1236 18.1461C60.0534 15.9085 56.6923 14.0881 53.0406 12.6844C49.1342 12.1677 45.2829 11.8875 41.4871 11.8442C38.3941 11.7967 36.0136 12.7769 34.3449 14.7851C33.287 14.2427 32.3068 14.3826 31.404 15.2052C30.6805 15.1586 30.6108 14.9485 31.1939 14.575C30.6339 14.2948 30.0735 14.2948 29.5134 14.575C27.8035 17.1685 25.563 19.059 22.7914 20.2467C23.1056 19.4771 23.5258 18.7767 24.0518 18.1461C28.1245 14.6221 32.606 11.8211 37.4958 9.74355C44.7754 8.68861 51.8474 9.38855 58.7123 11.8442C60.1063 12.855 61.5767 13.6953 63.1236 14.365Z" fill="#FF7A00"/>
<path fill-rule="evenodd" clip-rule="evenodd" d="M32.4547 26.5487C33.7151 26.6886 34.2751 26.1286 34.1352 24.8682C36.1568 24.4018 37.9777 23.4914 39.5968 22.1374C49.2447 19.9237 56.5969 23.0747 61.6536 31.5902C64.1945 38.4156 63.2841 44.7175 58.9227 50.496C57.3372 51.4501 55.9369 52.6403 54.7214 54.0671C48.4968 57.2495 42.3348 57.1096 36.2358 53.6469C34.3452 51.4761 32.4547 49.3058 30.5641 47.135C26.9325 39.813 27.5627 32.951 32.4547 26.5487Z" fill="white"/>
<path fill-rule="evenodd" clip-rule="evenodd" d="M63.124 18.9865C66.7422 22.008 69.3331 25.7892 70.8964 30.3299C71.0581 32.4104 70.7082 32.4104 69.8461 30.3299C68.5933 26.1467 66.2825 22.6458 62.914 19.8267C62.6232 19.433 62.6934 19.1532 63.124 18.9865Z" fill="#FF7A00"/>
<path fill-rule="evenodd" clip-rule="evenodd" d="M40.437 48.8155C40.5769 48.8155 40.7172 48.8155 40.8571 48.8155C46.2944 50.7611 50.8457 49.5007 54.5113 45.0343C54.9886 44.092 55.339 43.1118 55.5616 42.0934C56.6682 34.2959 53.2371 29.9547 45.2685 29.0695C40.9151 29.5652 37.8343 31.8058 36.0257 35.7915C35.7463 38.6043 35.8165 41.4053 36.2357 44.1941C35.0224 44.3117 34.3922 43.7517 34.3452 42.5136C34.0523 39.9772 34.1225 37.4565 34.5552 34.9512C36.492 31.8255 39.1527 29.5148 42.5377 28.0191C52.6921 27.2511 57.6639 31.9423 57.4522 42.0934C54.3063 49.7234 48.7745 52.4542 40.8571 50.2859C40.5055 49.8612 40.3656 49.3709 40.437 48.8155Z" fill="#FF7A00"/>
<path fill-rule="evenodd" clip-rule="evenodd" d="M50.0999 6.38263C45.8587 6.26663 41.6575 6.54669 37.4961 7.22289C38.7708 6.58526 40.171 6.23512 41.6974 6.17257C44.5736 5.82781 47.3746 5.8978 50.0999 6.38263Z" fill="#A36A3C"/>
<path fill-rule="evenodd" clip-rule="evenodd" d="M32.4543 24.4481C31.1342 25.9589 30.0142 27.6394 29.0932 29.4896C28.4194 29.8203 28.1391 30.3803 28.253 31.1701C26.4964 33.2027 25.376 35.5831 24.892 38.3123C25.1634 41.3704 25.7234 44.381 26.5725 47.345C26.5687 47.9349 26.3586 48.4248 25.9423 48.8155C24.1034 46.8136 22.9833 44.4327 22.5813 41.6733C22.301 38.4522 22.301 35.2315 22.5813 32.0104C22.9942 30.8294 23.4841 29.7093 24.0517 28.6494C24.2924 27.2197 24.8525 25.9593 25.7322 24.8682C25.7322 24.7283 25.7322 24.588 25.7322 24.4481C26.5048 24.0246 27.0649 23.3944 27.4127 22.5575C28.9 21.7462 30.3007 20.8358 31.614 19.8267C33.1231 18.7201 34.8036 18.3701 36.6555 18.7764C34.3339 20.0393 32.9336 21.9298 32.4543 24.4481Z" fill="white"/>
<path fill-rule="evenodd" clip-rule="evenodd" d="M24.0515 28.6493C25.0194 27.3226 25.9294 25.9223 26.7823 24.4481C28.4523 23.5431 29.9228 22.423 31.1936 21.087C31.3335 21.2269 31.4739 21.3673 31.6138 21.5072C31.2054 22.2655 30.7151 22.9658 30.1433 23.6078C30.3063 25.4652 29.606 26.8659 28.0427 27.8091C26.7957 29.9013 25.5354 32.002 24.2615 34.111C24.0519 32.2956 23.9817 30.4752 24.0515 28.6493Z" fill="#FF7A00"/>
<path fill-rule="evenodd" clip-rule="evenodd" d="M63.1235 18.1462C61.9593 18.1794 60.8392 17.9693 59.7624 17.516C58.4105 16.3493 56.8699 15.5091 55.141 14.9953C46.3809 12.4304 38.3985 13.7609 31.1937 18.9865C29.9409 20.2985 28.4705 21.419 26.7824 22.3475C26.3228 23.0105 25.9724 23.7108 25.7321 24.4481C25.7321 24.588 25.7321 24.7284 25.7321 24.8683C21.3485 29.6237 19.8079 35.2257 21.1107 41.6734C21.0414 43.2203 21.1111 44.7605 21.3207 46.2948C24.5717 54.1671 30.3136 59.2087 38.546 61.4194C42.6149 60.99 46.7465 60.4997 50.9398 59.9489C54.3323 59.3549 57.5534 58.3045 60.6027 56.798C61.303 56.0279 62.003 55.2574 62.7033 54.4873C69.8455 49.9944 72.5066 43.5522 70.6858 35.1614C71.0488 34.0863 71.7487 33.3158 72.7864 32.8507C73.4931 35.8874 73.7733 38.9686 73.6267 42.0935C73.2065 42.0935 72.7864 42.0935 72.3663 42.0935C72.0428 45.6545 70.9227 48.9454 69.0053 51.9665C69.1452 52.1064 69.2855 52.2467 69.4254 52.3866C68.3049 52.6669 68.3049 52.9467 69.4254 53.2269C69.109 53.8516 68.7591 53.9218 68.3751 53.4369C67.705 54.2457 67.6348 55.0859 68.165 55.9577C67.6898 56.4215 67.3394 56.2816 67.1147 55.5376C66.9748 56.0976 66.8345 56.6581 66.6945 57.2181C66.5546 57.0782 66.4143 56.9379 66.2744 56.798C66.1698 57.2702 65.9597 57.6903 65.6442 58.0584C63.8789 59.2129 62.1983 60.4732 60.6027 61.8395C58.066 62.7083 55.5452 63.6187 53.0404 64.5703C52.6887 64.9951 52.5488 65.4854 52.6203 66.0408C51.6338 65.9694 50.6532 65.8295 49.6794 65.6207C47.5296 66.5126 45.289 67.0029 42.9573 67.0911C43.9875 67.2129 44.9676 67.4927 45.8982 67.9314C44.5047 68.1406 43.1044 68.2107 41.6969 68.1414C34.8178 67.2579 29.0057 64.317 24.2616 59.3187C21.99 56.9043 20.0297 54.2436 18.3799 51.3363C17.9854 48.2967 17.285 45.3558 16.2792 42.5136C15.1201 34.027 17.2905 26.6046 22.7912 20.2469C25.5628 19.0592 27.8033 17.1686 29.5132 14.5751C30.0733 14.2949 30.6337 14.2949 31.1937 14.5751C30.6106 14.9486 30.6804 15.1587 31.4038 15.2053C32.3067 14.3827 33.2868 14.2428 34.3447 14.7852C36.0135 12.777 38.3939 11.7968 41.4869 11.8443C45.2827 11.8876 49.134 12.1678 53.0404 12.6846C56.6921 14.0882 60.0532 15.9086 63.1235 18.1462Z" fill="white"/>
<path fill-rule="evenodd" clip-rule="evenodd" d="M70.6866 84.9465C71.9196 82.6202 73.0401 80.2393 74.0476 77.8043C74.9122 76.7846 75.6823 75.6646 76.3583 74.4433C77.0116 71.8742 78.2018 69.6336 79.9294 67.7212C78.2968 71.4179 76.6162 75.1293 74.8878 78.8546C76.0213 78.8819 76.9313 78.3916 77.6187 77.3842C78.7639 76.2137 79.4643 74.8134 79.7193 73.1829C80.3856 72.8148 81.0158 72.3947 81.6099 71.9225C82.9669 69.7429 84.4373 67.6422 86.0212 65.6206C86.3918 64.2388 86.6716 62.8381 86.8615 61.4193C87.3127 60.9496 87.8026 60.5295 88.3319 60.1589C89.4259 57.2613 91.0367 54.7405 93.1634 52.5966C95.1027 48.7394 96.7131 44.7482 97.9949 40.623C98.0713 39.655 97.7915 39.4449 97.1546 39.9928C96.2139 41.8766 94.8838 43.4168 93.1634 44.6142C92.3467 46.1308 91.3665 47.5311 90.2225 48.8155C89.3049 50.2296 88.7449 51.7702 88.542 53.4369C87.5408 55.4064 86.3506 57.2273 84.9709 58.8985C86.5674 55.4232 88.1777 51.9223 89.8024 48.3953C92.0673 44.4512 94.6578 40.7402 97.5747 37.262C98.3604 36.6881 99.2006 36.1978 100.096 35.7915C100.538 36.1856 100.818 36.6759 100.936 37.262C100.298 40.0924 99.948 42.9631 99.8854 45.8746C98.8616 47.0829 98.3016 48.4836 98.2049 50.0758C97.1181 51.866 95.8577 53.5465 94.4238 55.1174C92.2383 59.5384 89.7175 63.7397 86.8615 67.7212C86.4367 68.0729 85.9464 68.2128 85.391 68.1413C85.457 68.7182 85.3868 69.2786 85.181 69.8219C80.8301 74.3874 76.8389 79.289 73.2073 84.5263C72.1058 85.3292 71.1953 86.3098 70.4765 87.4672C70.2706 86.6081 70.3408 85.7678 70.6866 84.9465Z" fill="#FF7A00"/>
<path fill-rule="evenodd" clip-rule="evenodd" d="M115.219 7.22283C112.191 7.0594 109.25 7.3392 106.396 8.06308C109.2 6.21687 112.141 5.93677 115.219 7.22283Z" fill="#8D4D25"/>
<path fill-rule="evenodd" clip-rule="evenodd" d="M25.7322 24.8682C24.8524 25.9592 24.2924 27.2196 24.0517 28.6493C23.4841 29.7093 22.9942 30.8294 22.5812 32.0103C22.301 35.2315 22.301 38.4522 22.5812 41.6733C22.9833 44.4327 24.1034 46.8135 25.9423 48.8154C26.3586 48.4247 26.5687 47.9349 26.5725 47.345C25.7234 44.381 25.1633 41.3704 24.8919 38.3123C25.3759 35.5831 26.4964 33.2027 28.253 31.1701C26.9997 33.4694 26.1595 35.92 25.7322 38.5223C26.1922 45.1755 28.8533 50.7073 33.7146 55.1174C33.4344 55.3976 33.1546 55.6774 32.8744 55.9576C34.5671 57.5785 36.5278 58.7687 38.7562 59.5287C39.1557 59.8304 39.2254 60.1803 38.9662 60.579C28.9033 58.1486 22.9514 51.8467 21.1108 41.6733C19.808 35.2256 21.3486 29.6236 25.7322 24.8682Z" fill="#FF7A00"/>
<path fill-rule="evenodd" clip-rule="evenodd" d="M79.9292 67.7212C79.8633 67.1444 79.9334 66.584 80.1393 66.0407C81.7593 63.6326 83.3701 61.2517 84.9708 58.8986C86.3505 57.2273 87.5407 55.4065 88.5418 53.4369C88.7448 51.7702 89.3048 50.2296 90.2224 48.8155C91.3664 47.5312 92.3465 46.1309 93.1633 44.6142C94.8837 43.4168 96.2138 41.8767 97.1545 39.9928C97.7914 39.445 98.0712 39.655 97.9947 40.623C96.7129 44.7482 95.1026 48.7394 93.1633 52.5966C91.0366 54.7405 89.4258 57.2613 88.3318 60.1589C87.8024 60.5295 87.3126 60.9496 86.8613 61.4193C86.6714 62.8381 86.3916 64.2388 86.0211 65.6206C84.4372 67.6423 82.9668 69.7429 81.6097 71.9225C81.0157 72.3947 80.3855 72.8149 79.7192 73.1829C79.4641 74.8134 78.7638 76.2137 77.6185 77.3842C76.9312 78.3916 76.0212 78.8819 74.8877 78.8546C76.6161 75.1293 78.2966 71.4179 79.9292 67.7212Z" fill="#FF7A00"/>
<path fill-rule="evenodd" clip-rule="evenodd" d="M119.001 20.6669C119.067 21.2437 118.997 21.8042 118.791 22.3474C115.35 28.3922 111.919 34.4139 108.498 40.4129C103.245 48.9545 98.204 57.6373 93.3733 66.4608C89.3082 72.627 85.6669 79.0688 82.45 85.7867C74.9755 97.891 67.8333 110.215 61.0235 122.758C59.8597 123.9 58.459 124.6 56.8222 124.859C55.7311 124.766 55.7311 124.556 56.8222 124.228C56.6823 124.088 56.542 123.948 56.4021 123.808C57.1268 123.98 57.8272 123.91 58.5027 123.598C58.4149 123.352 58.2746 123.142 58.0826 122.968C59.0401 122.797 59.6005 122.237 59.7631 121.287C59.4745 120.799 59.4047 120.309 59.553 119.817C59.8333 120.377 60.1131 120.377 60.3933 119.817C61.7806 117.585 63.1808 115.344 64.5946 113.095C66.0112 109.565 67.9716 106.344 70.4764 103.432C72.8018 98.1095 75.4624 93.2082 78.4588 88.7276C81.7169 82.0711 85.288 75.9091 89.172 70.242C89.0842 69.9958 88.9439 69.7857 88.7519 69.6118C89.5086 68.2896 90.2787 66.9595 91.0626 65.6206C91.2025 65.7605 91.3428 65.9008 91.4828 66.0407C91.9067 65.4 92.1167 64.6996 92.1129 63.94C92.6684 63.8686 93.1586 64.0085 93.5834 64.3602C93.2141 62.5301 93.7741 60.9899 95.2639 59.7388C96.5159 56.5269 98.1964 53.586 100.305 50.9161C104.295 43.4966 108.496 36.2145 112.909 29.0694C113.714 27.6418 114.134 26.1012 114.17 24.448C115.205 22.794 116.116 21.1135 116.9 19.4065C117.615 19.6023 118.245 19.6023 118.791 19.4065C118.994 19.8048 119.064 20.2249 119.001 20.6669Z" fill="#FF7A00"/>
<path fill-rule="evenodd" clip-rule="evenodd" d="M136.226 72.7627C143.205 77.3362 147.826 83.6382 150.091 91.6685C151.231 99.7215 149.831 107.284 145.889 114.355C145.19 114.964 144.84 115.804 144.839 116.876C142.582 118.925 140.271 120.886 137.907 122.758C128.481 128.37 118.678 129.21 108.498 125.279C100.703 121.615 95.3113 115.733 92.3229 107.633C89.8089 98.0414 91.139 89.0788 96.3141 80.7452C99.5643 77.2157 103.206 74.1349 107.237 71.5023C117.086 67.199 126.749 67.6191 136.226 72.7627Z" fill="white"/>
<path fill-rule="evenodd" clip-rule="evenodd" d="M137.486 79.0647C137.999 78.6592 138.559 78.7294 139.167 79.2747C142.995 82.9424 145.306 87.3538 146.099 92.5088C144.978 89.988 143.858 87.4672 142.738 84.9465C141.079 82.8761 139.328 80.9157 137.486 79.0647Z" fill="#FF7A00"/>
<path fill-rule="evenodd" clip-rule="evenodd" d="M142.948 88.3076C146.461 95.3602 146.251 102.363 142.318 109.314C141.355 110.608 140.445 111.938 139.587 113.305C137.766 114.566 135.945 115.826 134.125 117.086C131.795 117.311 129.625 118.221 127.613 119.817C126.869 119.491 126.099 119.561 125.302 120.027C121.11 120.54 116.909 120.68 112.699 120.447C106.855 118.823 102.024 115.672 98.2041 110.994C96.7752 107.165 95.4447 103.314 94.2129 99.4409C94.9519 97.0437 95.6522 94.733 96.3135 92.5088C95.0296 105.99 100.701 115.093 113.329 119.817C114.004 119.618 114.074 119.338 113.539 118.977C111.521 118.038 109.56 116.988 107.657 115.826C107.849 115.652 107.989 115.442 108.077 115.196C107.401 114.315 106.91 113.335 106.607 112.255C101.472 106.563 100.212 100.121 102.826 92.929C103.034 91.9585 103.104 90.9783 103.036 89.9881C104.247 87.9967 105.578 86.0359 107.027 84.1063C107.816 83.8739 108.446 83.4538 108.917 82.8459C120.684 75.9428 130.557 78.0434 138.536 89.1478C140.438 93.8461 141.418 98.7477 141.477 103.852C141.582 104.325 141.792 104.745 142.107 105.113C143.625 102.592 144.324 99.8615 144.208 96.9202C144.14 93.9931 143.72 91.1224 142.948 88.3076Z" fill="#FF7A00"/>
<path fill-rule="evenodd" clip-rule="evenodd" d="M117.74 80.7452C121.591 80.4533 125.372 81.0834 129.084 82.6358C132.346 84.9251 134.937 87.7958 136.856 91.2484C139.938 102.235 136.367 110.148 126.143 114.986C119.541 116.626 113.659 115.226 108.498 110.784C107.469 109.056 106.279 107.445 104.927 105.953C102.583 100.208 102.653 94.4658 105.137 88.7277C107.566 86.7913 109.947 84.7608 112.279 82.6358C114.124 81.9338 115.945 81.3036 117.74 80.7452Z" fill="white"/>
<path fill-rule="evenodd" clip-rule="evenodd" d="M124.883 74.0232C130.218 75.6273 134.769 78.5682 138.537 82.8459C140.812 85.8548 142.282 89.2159 142.948 92.929C142.347 92.9622 141.787 92.8222 141.268 92.5088C135.592 79.4731 125.929 75.342 112.279 80.1151C111.052 80.9326 109.932 81.843 108.918 82.8459C108.447 83.4538 107.816 83.8739 107.027 84.1063C105.578 86.0359 104.248 87.9967 103.036 89.9881C103.036 89.428 103.036 88.8676 103.036 88.3076C104.405 86.3636 105.736 84.4033 107.027 82.4258C107.694 82.0577 108.324 81.6376 108.918 81.1654C108.349 80.6717 108.419 80.2516 109.128 79.905C109.268 80.0449 109.408 80.1852 109.548 80.3251C115.805 75.6861 122.458 75.0559 129.504 78.4346C131.455 79.1194 133.206 80.1697 134.756 81.5855C134.654 80.8973 134.304 80.2671 133.705 79.6949C128.473 75.2012 122.451 73.8005 115.64 75.4937C113.254 76.2671 110.874 77.0372 108.498 77.8044C110.256 76.5767 112.216 75.6667 114.38 75.0735C117.837 74.2849 121.338 73.935 124.883 74.0232Z" fill="white"/>
<path fill-rule="evenodd" clip-rule="evenodd" d="M103.036 88.3075C103.036 88.8676 103.036 89.428 103.036 89.9881C100.809 91.9643 99.759 94.4851 99.8846 97.5504C99.6905 101.008 100.181 104.369 101.355 107.633C101.215 107.914 101.075 108.193 100.935 108.474C99.9892 107.541 99.0788 106.561 98.2041 105.533C97.1626 100.098 96.9525 94.6359 97.5739 89.1478C99.7703 84.0096 103.412 80.2285 108.497 77.8044C110.873 77.0372 113.254 76.2671 115.639 75.4936C122.45 73.8005 128.472 75.2012 133.705 79.6949C134.304 80.2671 134.654 80.8973 134.755 81.5855C133.205 80.1697 131.454 79.1194 129.504 78.4345C122.457 75.0559 115.805 75.6861 109.548 80.3251C109.408 80.1852 109.267 80.0449 109.127 79.905C108.418 80.2516 108.348 80.6717 108.917 81.1654C108.323 81.6376 107.693 82.0577 107.027 82.4258C105.735 84.4033 104.405 86.3636 103.036 88.3075Z" fill="white"/>
<path fill-rule="evenodd" clip-rule="evenodd" d="M103.036 88.3075C101.496 89.3616 100.306 90.7619 99.4651 92.5088C99.2092 90.2565 99.2794 88.0155 99.6751 85.7867C100.117 85.8493 100.537 85.7796 100.936 85.5767C101.996 83.8861 103.397 82.5555 105.137 81.5854C105.277 81.7955 105.417 82.0056 105.557 82.2156C105.065 83.8298 104.295 85.3002 103.246 86.627C103.04 87.1702 102.97 87.7307 103.036 88.3075Z" fill="#FF7A00"/>
<path fill-rule="evenodd" clip-rule="evenodd" d="M115.22 12.6846C113.755 12.89 112.355 13.3803 111.018 14.155C112.646 14.5693 112.646 15.0595 111.018 15.6255C108.809 18.8655 106.919 22.2265 105.347 25.7085C104.079 26.9055 102.889 28.1659 101.775 29.4897C101.208 30.0989 100.508 30.3791 99.6749 30.3299C99.7849 30.9509 99.645 31.5109 99.2547 32.0104C98.4603 32.6474 97.62 33.2078 96.734 33.691C95.9676 35.7823 94.7774 37.6028 93.1629 39.1526C92.2898 42.2569 90.8194 45.0579 88.7515 47.5552C87.3424 51.346 85.2418 54.707 82.4496 57.6382C81.4421 60.0733 80.112 62.3143 78.4584 64.3603C77.5967 65.8038 76.9665 67.3444 76.5678 68.9817C77.0098 68.9191 77.4299 68.9888 77.8282 69.1918C75.9397 71.7789 74.6794 74.6501 74.0471 77.8044C73.0396 80.2394 71.9191 82.6203 70.686 84.9465C70.2672 84.9339 69.9869 85.144 69.8458 85.5767C69.2215 89.1352 67.751 92.2862 65.4344 95.0296C65.2945 95.8699 65.1542 96.7101 65.0143 97.5504C64.1833 99.0275 63.4132 100.568 62.7036 102.172C63.43 103.16 63.7102 104.28 63.5439 105.533C62.7498 105.448 62.1196 105.727 61.6533 106.373C61.421 108.942 60.2307 110.902 58.0822 112.255C57.1399 115.72 55.5992 118.871 53.4608 121.708C53.6007 121.848 53.741 121.988 53.8809 122.128C53.386 122.534 52.826 122.744 52.2004 122.758C52.5684 123.074 52.9886 123.284 53.4608 123.388C52.7256 123.942 51.8853 124.152 50.94 124.018C48.3634 121.823 47.3131 119.022 47.7891 115.616C51.7853 108.742 55.7765 101.88 59.7627 95.0296C60.8235 93.468 61.6638 91.7875 62.2835 89.9881C67.2507 82.0187 72.012 73.8963 76.5678 65.6207C78.6811 62.3781 80.6418 59.0171 82.4496 55.5376C90.0854 42.096 97.8578 28.6519 105.767 15.2053C108.253 11.8111 111.404 10.9709 115.22 12.6846Z" fill="#FF7A00"/>
<path fill-rule="evenodd" clip-rule="evenodd" d="M124.883 74.0231C126.788 73.9252 128.609 74.2752 130.344 75.0734C135.92 78.1673 140.121 82.5786 142.948 88.3075C143.721 91.1223 144.141 93.9931 144.209 96.9201C144.325 99.8614 143.625 102.592 142.108 105.113C141.793 104.745 141.582 104.324 141.478 103.852C141.419 98.7476 140.438 93.846 138.537 89.1477C130.557 78.0433 120.684 75.9427 108.918 82.8458C109.932 81.843 111.052 80.9325 112.279 80.115C125.929 75.3419 135.592 79.473 141.268 92.5087C141.787 92.8222 142.348 92.9621 142.948 92.9289C142.282 89.2158 140.812 85.8548 138.537 82.8458C134.769 78.5681 130.218 75.6272 124.883 74.0231Z" fill="#FF7A00"/>
<path fill-rule="evenodd" clip-rule="evenodd" d="M115.22 12.6844C118.666 14.3914 119.926 17.0525 119.001 20.6669C119.064 20.2249 118.994 19.8048 118.791 19.4065C118.245 19.6023 117.615 19.6023 116.9 19.4065C116.116 21.1135 115.205 22.794 114.17 24.448C114.134 26.1012 113.714 27.6418 112.909 29.0694C108.496 36.2145 104.295 43.4966 100.305 50.9161C98.1964 53.586 96.5159 56.5269 95.2639 59.7388C93.7741 60.9899 93.2141 62.5301 93.5834 64.3602C93.1587 64.0085 92.6684 63.8686 92.113 63.94C92.1167 64.6996 91.9067 65.4 91.4828 66.0407C91.3429 65.9008 91.2025 65.7605 91.0626 65.6205C90.2787 66.9595 89.5086 68.2896 88.7519 69.6118C88.9439 69.7857 89.0843 69.9958 89.1721 70.242C85.288 75.9091 81.7169 82.0711 78.4588 88.7276C75.4624 93.2082 72.8018 98.1094 70.4764 103.432C67.9716 106.344 66.0113 109.565 64.5946 113.095C63.1809 115.344 61.7806 117.585 60.3933 119.817C60.1131 120.377 59.8333 120.377 59.553 119.817C59.4047 120.309 59.4745 120.799 59.7631 121.287C59.6005 122.237 59.0401 122.797 58.0826 122.968C58.2746 123.142 58.4149 123.352 58.5027 123.598C57.8272 123.91 57.1268 123.98 56.4021 123.808C56.542 123.948 56.6823 124.088 56.8222 124.228C55.7311 124.556 55.7311 124.766 56.8222 124.859C54.7128 125.572 52.752 125.292 50.9404 124.018C51.8857 124.152 52.726 123.942 53.4612 123.388C52.989 123.284 52.5688 123.073 52.2008 122.758C52.8264 122.744 53.3864 122.534 53.8813 122.128C53.7414 121.988 53.6011 121.848 53.4612 121.708C55.5996 118.871 57.1403 115.72 58.0826 112.255C60.2311 110.902 61.4214 108.942 61.6537 106.373C62.12 105.727 62.7502 105.447 63.5443 105.533C63.7106 104.28 63.4304 103.159 62.704 102.172C63.4136 100.568 64.1837 99.0274 65.0147 97.5503C65.1546 96.71 65.2949 95.8697 65.4348 95.0295C67.7514 92.2861 69.2219 89.1351 69.8462 85.5766C69.9873 85.1439 70.2676 84.9338 70.6864 84.9464C70.3407 85.7678 70.2705 86.608 70.4764 87.4672C71.1952 86.3097 72.1056 85.3292 73.2072 84.5263C76.8388 79.289 80.83 74.3874 85.1808 69.8218C85.3867 69.2786 85.4569 68.7182 85.3909 68.1413C85.9463 68.2127 86.4366 68.0728 86.8614 67.7212C89.7174 63.7396 92.2382 59.5384 94.4237 55.1174C95.8576 53.5465 97.1179 51.866 98.2048 50.0758C98.3014 48.4835 98.8615 47.0828 99.8853 45.8745C99.9479 42.9631 100.298 40.0923 100.936 37.2619C100.818 36.6758 100.538 36.1856 100.095 35.7915C99.2005 36.1977 98.3603 36.688 97.5746 37.2619C94.6577 40.7402 92.0672 44.4512 89.8023 48.3953C88.1776 51.9223 86.5673 55.4232 84.9708 58.8985C83.3701 61.2516 81.7593 63.6325 80.1393 66.0407C79.9334 66.5839 79.8633 67.1444 79.9292 67.7212C78.2017 69.6336 77.0115 71.8742 76.3582 74.4432C75.6822 75.6645 74.9121 76.7846 74.0475 77.8043C74.6798 74.6499 75.9401 71.7788 77.8286 69.1916C77.4303 68.9887 77.0102 68.919 76.5682 68.9816C76.9669 67.3443 77.5971 65.8037 78.4588 64.3602C80.1124 62.3141 81.4425 60.0732 82.45 57.6381C85.2422 54.7069 87.3428 51.3459 88.7519 47.5551C90.8198 45.0578 92.2902 42.2568 93.1633 39.1525C94.7778 37.6026 95.968 35.7822 96.7344 33.6908C97.6204 33.2077 98.4607 32.6472 99.2551 32.0103C99.6454 31.5108 99.7853 30.9508 99.6753 30.3298C100.509 30.379 101.209 30.0987 101.776 29.4896C102.889 28.1657 104.08 26.9054 105.347 25.7084C106.919 22.2264 108.81 18.8654 111.019 15.6253C112.647 15.0594 112.647 14.5691 111.019 14.1549C112.355 13.3802 113.755 12.8899 115.22 12.6844Z" fill="white"/>
<path fill-rule="evenodd" clip-rule="evenodd" d="M97.5739 89.1477C96.9525 94.6358 97.1626 100.097 98.2041 105.533C99.0788 106.561 99.9892 107.541 100.935 108.474C101.075 108.193 101.215 107.914 101.355 107.633C100.181 104.369 99.6905 101.008 99.8846 97.5503C99.759 94.485 100.809 91.9642 103.036 89.988C103.104 90.9782 103.034 91.9584 102.825 92.9289C100.212 100.121 101.472 106.563 106.607 112.255C106.91 113.334 107.401 114.315 108.077 115.196C107.989 115.442 107.849 115.652 107.657 115.826C109.56 116.987 111.521 118.038 113.539 118.977C114.074 119.338 114.004 119.618 113.329 119.817C100.701 115.093 95.0296 105.99 96.3135 92.5087C96.7336 91.3882 97.1537 90.2682 97.5739 89.1477Z" fill="#FF7A00"/>
<path fill-rule="evenodd" clip-rule="evenodd" d="M109.338 94.6094C109.543 93.423 110.244 92.8629 111.438 92.9289C110.791 94.9724 110.511 97.073 110.598 99.2308C111.086 103.906 113.607 106.917 118.161 108.264C127.498 108.729 131.629 104.318 130.554 95.0295C127.524 88.8591 122.693 86.7585 116.06 88.7276C115.832 88.7024 115.692 88.5625 115.64 88.3075C115.931 87.8798 116.211 87.4597 116.48 87.0471C119.969 86.2409 123.33 86.5909 126.563 88.0974C133.161 93.0419 134.211 98.9934 129.714 105.953C125.183 110.584 120.072 111.354 114.379 108.264C109.921 104.738 108.24 100.187 109.338 94.6094Z" fill="#FF7A00"/>
<path fill-rule="evenodd" clip-rule="evenodd" d="M41.2769 113.935C40.6602 116.126 40.3799 118.366 40.4366 120.657C39.7749 118.318 40.0547 116.077 41.2769 113.935Z" fill="#C7934C"/>
</svg>
