<svg width="160" height="160" viewBox="0 0 160 160" fill="none" xmlns="http://www.w3.org/2000/svg">
<g clip-path="url(#clip0_302_27054)">
<path fill-rule="evenodd" clip-rule="evenodd" d="M79.5157 6.10203C79.6449 6.10203 79.7739 6.10203 79.9031 6.10203C85.5004 6.20382 91.0533 6.75266 96.5617 7.74852C103.66 8.97377 110.052 11.7825 115.738 16.1747C119.574 19.618 122.48 23.7181 124.455 28.4749C124.584 28.6041 124.713 28.6041 124.843 28.4749C125.463 27.8219 126.109 27.2085 126.78 26.6347C126.026 27.5573 125.315 28.5259 124.649 29.5403C125.234 31.2391 125.621 32.9824 125.811 34.7703C125.684 34.5964 125.555 34.4027 125.424 34.1892C125.169 34.541 124.878 34.8639 124.552 35.1577C124.631 35.4919 124.599 35.8148 124.455 36.1262C124.035 36.4501 123.647 36.8052 123.293 37.1916C123.174 38.5431 123.045 39.8667 122.906 41.1626C123.089 37.9531 122.799 34.7891 122.034 31.671C121.807 30.6334 121.452 29.6648 120.968 28.7655C120.147 26.0896 118.824 23.7005 116.998 21.5984C112.882 16.9033 107.813 13.7072 101.792 12.01C98.1274 10.8188 94.3825 10.0117 90.5568 9.58871C90.3829 9.46131 90.1892 9.33219 89.9757 9.2013C90.1706 9.0278 90.1706 8.89868 89.9757 8.81389C89.242 9.154 88.4672 9.28314 87.6513 9.2013C77.5806 8.21912 67.7016 9.15535 58.0145 12.01C45.5992 15.8378 38.5935 24.1995 36.9975 37.0948C36.5962 42.258 36.9836 47.359 38.1598 52.3974C39.7423 58.5658 41.9376 64.5061 44.7457 70.2182C45.1331 70.8639 45.5205 71.5097 45.9079 72.1553C46.0346 72.387 46.1315 72.387 46.1985 72.1553C46.1282 72.023 46.0637 71.8938 46.0048 71.7679C46.5098 71.415 46.8972 71.5118 47.167 72.0584C46.9462 72.4406 46.688 72.7959 46.3922 73.1238C46.4567 73.253 46.5214 73.382 46.5859 73.5112C46.3724 73.6422 46.1787 73.7712 46.0048 73.8986C45.6643 73.8256 45.3413 73.6964 45.0363 73.5112C44.9718 73.5757 44.9071 73.6404 44.8426 73.7049C45.1054 74.0315 45.3636 74.3542 45.6174 74.6735C45.2677 74.8162 44.945 75.0099 44.6489 75.2546C43.9717 75.0651 43.907 75.2267 44.4551 75.7388C44.0677 75.9002 43.6803 76.0617 43.2929 76.2231C43.3169 76.3407 43.3814 76.4052 43.4866 76.4168C43.4866 76.546 43.4866 76.675 43.4866 76.8042C42.5665 76.3891 42.2438 76.6473 42.5181 77.579C42.3583 77.7506 42.1646 77.8151 41.937 77.7727C41.8461 77.1639 41.5232 76.7118 40.9685 76.4168C41.6058 75.3038 42.3161 74.2384 43.0992 73.2207C42.2432 70.0551 40.9842 67.0527 39.322 64.2134C37.457 63.1356 35.5523 62.1348 33.6077 61.211C33.3171 60.7912 33.414 60.5007 33.8982 60.3393C35.3752 60.9286 36.828 61.5742 38.2566 62.2764C38.3211 62.2119 38.3858 62.1472 38.4503 62.0827C36.4921 57.4676 35.1041 52.6897 34.2857 47.7485C32.5499 46.4966 30.9034 45.1407 29.3462 43.6807C29.8212 43.523 30.2731 43.6199 30.7021 43.9713C31.763 44.7414 32.7961 45.5484 33.8014 46.3926C33.9641 45.3625 33.9318 44.3292 33.7045 43.2933C33.2765 38.9301 33.8252 34.7008 35.351 30.6057C34.9338 30.0271 34.4819 29.4783 33.9951 28.9592C34.1888 28.9592 34.3825 28.9592 34.5762 28.9592C34.8304 29.3425 35.1533 29.6652 35.5447 29.9277C36.4768 27.224 37.6714 24.6411 39.1283 22.1795C40.6088 20.0871 42.1905 18.0854 43.874 16.1747C49.2174 12.2097 55.093 9.53013 61.5012 8.13592C67.4244 6.74294 73.4293 6.06497 79.5157 6.10203Z" fill="#FF7A00"/>
<path fill-rule="evenodd" clip-rule="evenodd" d="M87.6513 9.20136C88.5873 9.37561 89.5558 9.50474 90.5569 9.58877C94.3825 10.0117 98.1274 10.8188 101.792 12.0101C107.813 13.7072 112.882 16.9033 116.998 21.5985C118.824 23.7005 120.147 26.0897 120.968 28.7655C121.035 29.1496 120.906 29.408 120.581 29.5403C117.9 23.4696 113.639 18.8529 107.797 15.6905C102.913 13.1803 97.7479 11.5661 92.3002 10.8478C81.797 9.27613 71.4014 9.79268 61.1138 12.3975C52.5512 14.5096 45.8037 19.1908 40.8716 26.4411C38.1758 31.7714 37.1105 37.3889 37.6755 43.2934C37.8487 47.1086 38.4619 50.8537 39.5157 54.5282C41.5463 60.3299 43.7092 66.0765 46.0048 71.768C46.0637 71.8939 46.1282 72.0231 46.1985 72.1554C46.1315 72.387 46.0346 72.387 45.9079 72.1554C45.5205 71.5097 45.1331 70.8639 44.7457 70.2183C41.9376 64.5062 39.7423 58.5658 38.1598 52.3975C36.9836 47.359 36.5962 42.258 36.9975 37.0948C38.5935 24.1995 45.5992 15.8379 58.0145 12.0101C67.7016 9.15541 77.5806 8.21918 87.6513 9.20136Z" fill="#F0F0F0"/>
<path fill-rule="evenodd" clip-rule="evenodd" d="M120.387 39.4192C120.536 39.2714 120.633 39.0776 120.678 38.838C120.816 39.1234 121.041 39.2526 121.356 39.2254C121.389 38.9694 121.324 38.7433 121.162 38.5475C121.537 38.4989 121.892 38.402 122.228 38.2569C122.324 39.8699 122.357 41.484 122.324 43.0995C121.828 49.2824 120.504 55.2872 118.354 61.1141C117.13 63.8461 116 66.6226 114.964 69.4434C114.996 69.5726 115.028 69.7016 115.061 69.8308C117.277 66.1072 119.021 62.1684 120.291 58.0148C121.814 52.5 122.686 46.8826 122.906 41.1625C123.045 39.8666 123.174 38.543 123.293 37.1915C123.647 36.8051 124.035 36.45 124.455 36.1262C124.599 35.8147 124.631 35.4918 124.552 35.1576C124.878 34.8638 125.169 34.5409 125.424 34.1891C125.555 34.4026 125.684 34.5963 125.811 34.7702C126.259 38.1173 126.323 41.4749 126.005 44.8429C125.785 45.3206 125.753 45.8372 125.908 46.3925C126.047 46.2871 126.144 46.1579 126.199 46.0051C126.841 45.558 127.487 45.1061 128.136 44.6492C128.292 44.7088 128.421 44.8057 128.523 44.9397C127.66 45.9389 126.723 46.875 125.714 47.7484C124.843 52.3629 123.713 56.9149 122.324 61.4046C122.389 61.5015 122.454 61.5983 122.518 61.6952C123.137 61.1172 123.654 61.1817 124.068 61.8889C123.293 62.3408 122.518 62.7929 121.743 63.2448C120.348 65.3215 119.153 67.5168 118.16 69.8308C118.162 71.3105 117.807 72.6986 117.094 73.9954C119.064 76.0938 120.775 78.3861 122.228 80.8719C124.692 80.5014 127.178 80.4045 129.685 80.5814C129.943 80.8396 129.943 81.098 129.685 81.3562C127.297 81.453 124.908 81.4854 122.518 81.453C123.576 84.3668 124.674 87.2723 125.811 90.1698C126.668 90.5608 127.572 90.7546 128.523 90.7509C128.523 91.0738 128.523 91.3965 128.523 91.7194C127.806 91.6262 127.096 91.497 126.392 91.332C126.328 91.3965 126.263 91.4612 126.199 91.5257C126.752 92.9694 127.172 94.4543 127.458 95.9809C127.726 98.132 128.081 100.263 128.523 102.373C130.353 103.062 132.161 103.805 133.947 104.601C134.954 105.006 135.858 105.555 136.659 106.247C136.354 106.466 136.031 106.499 135.69 106.344C133.233 105.422 130.811 104.421 128.426 103.342C128.545 107.39 128.189 111.393 127.361 115.351C127.382 115.534 127.446 115.695 127.554 115.836C128.956 116.53 130.183 117.434 131.235 118.547C131.17 118.644 131.106 118.741 131.041 118.838C129.686 118.161 128.394 117.386 127.167 116.514C125.991 120.848 124.377 125.013 122.324 129.008C123.153 130.159 124.057 131.257 125.036 132.301C124.764 132.362 124.505 132.297 124.262 132.107C123.551 131.396 122.841 130.686 122.131 129.976C122.002 129.847 121.873 129.847 121.743 129.976C118.291 135.368 114.126 140.178 109.249 144.407C108.347 146.73 106.7 148.248 104.31 148.959C103.475 149.216 102.636 149.442 101.792 149.637C101.943 149.943 101.943 149.943 101.485 149.943C101.218 149.831 101.028 149.943 101.017 149.831C96.4256 150.945 91.7767 151.59 87.0702 151.768C87.0702 152.182 87.0702 152.161 86.8568 152.229C86.3997 152.229 86.639 151.962 86.4891 151.962C81.9694 151.962 77.4495 151.962 72.9298 151.962C72.6854 152.229 72.8462 151.962 72.4762 151.962C72.2282 152.229 72.2282 151.772 72.155 151.768C66.3638 151.75 60.7464 150.813 55.3027 148.959C52.8304 148.166 51.3129 146.52 50.7506 144.02C49.2694 142.829 47.8166 141.602 46.3923 140.339C44.7282 142.7 43.114 145.089 41.5497 147.506C42.9408 144.951 44.3615 142.4 45.8112 139.855C42.6518 136.535 39.8431 132.951 37.385 129.104C36.5197 130.164 35.5835 131.164 34.5763 132.107C34.3859 132.221 34.2567 132.157 34.1889 131.913C35.0844 130.694 36.0529 129.532 37.0944 128.426C35.0001 124.403 33.4826 120.174 32.5424 115.739C31.527 116.521 30.4616 117.231 29.3463 117.87C29.1526 117.805 29.0234 117.676 28.9589 117.482C29.9287 116.528 30.9941 115.689 32.155 114.964C31.9886 113.296 31.8272 111.617 31.6707 109.928C31.735 107.535 31.6705 105.146 31.477 102.761C31.3594 102.785 31.2949 102.849 31.2833 102.954C28.3804 104.034 25.507 105.196 22.6635 106.441C22.2855 106.124 22.3179 105.833 22.7603 105.569C25.4718 104.235 28.2158 102.976 30.9927 101.792C31.2293 101.942 31.423 102.135 31.5739 102.373C31.9376 98.5665 32.6156 94.8214 33.6078 91.1383C32.51 91.2675 31.4125 91.3965 30.3148 91.5257C30.3148 91.2675 30.3148 91.0091 30.3148 90.7509C31.4071 90.513 32.5046 90.2871 33.6078 90.0729C34.0562 89.8581 34.3467 89.5028 34.4794 89.0075C35.4129 86.4981 36.4783 84.0444 37.6756 81.6468C36.6505 81.454 35.6174 81.3895 34.5763 81.453C32.8682 81.2607 31.1249 81.196 29.3463 81.2593C29.3463 81.0011 29.3463 80.7427 29.3463 80.4845C32.3816 80.5169 35.4164 80.4845 38.4504 80.3877C39.2703 79.0352 40.1097 77.7114 40.9685 76.4167C41.5233 76.7117 41.8462 77.1639 41.9371 77.7727C42.1647 77.8151 42.3584 77.7506 42.5182 77.579C42.2439 76.6472 42.5666 76.389 43.4867 76.8041C43.675 77.0465 43.8042 76.982 43.8741 76.6104C43.8042 76.2389 43.675 76.1744 43.4867 76.4167C43.3815 76.4051 43.317 76.3406 43.293 76.223C43.6804 76.0617 44.0678 75.9001 44.4552 75.7388C43.907 75.2266 43.9717 75.0651 44.6489 75.2545C44.9451 75.0099 45.2678 74.8161 45.6174 74.6734C47.5198 75.6572 49.4569 75.6896 51.4286 74.7702C53.6581 73.8964 55.4983 72.5084 56.9492 70.6056C57.4609 69.5871 57.816 68.5217 58.0145 67.4095C57.9309 66.3179 57.5113 65.3818 56.7555 64.6008C56.5217 69.2907 54.1651 72.3576 49.6852 73.8017C48.4351 74.1138 47.2083 74.1461 46.0049 73.8986C46.1788 73.7711 46.3725 73.6421 46.586 73.5112C46.5215 73.382 46.4568 73.253 46.3923 73.1238C46.6881 72.7958 46.9463 72.4406 47.1671 72.0584C46.8973 71.5117 46.5098 71.4149 46.0049 71.7678C43.7093 66.0764 41.5464 60.3298 39.5158 54.5281C38.462 50.8535 37.8487 47.1085 37.6756 43.2932C37.6756 42.6476 37.6756 42.0018 37.6756 41.3562C38.0219 41.4114 38.3448 41.3469 38.6441 41.1625C38.3179 40.9002 38.221 40.5773 38.3535 40.194C38.6731 40.7997 39.0282 40.8642 39.4189 40.3877C39.4551 40.7875 39.552 41.1749 39.7095 41.5499C39.833 37.3233 40.6724 33.2555 42.2276 29.3465C43.8718 25.8296 46.2284 22.8919 49.2978 20.533C58.1906 14.5962 68.005 11.7875 78.7409 12.1068C87.1508 11.7999 95.2864 13.1236 103.148 16.0777C110.2 18.7393 115.236 23.5174 118.257 30.4119C118.685 31.7159 119.04 33.0395 119.322 34.3828C119.354 36.6455 119.451 38.9054 119.613 41.1625C120.021 40.6478 120.279 40.0667 120.387 39.4192Z" fill="#FF7A00"/>
<path fill-rule="evenodd" clip-rule="evenodd" d="M80.0969 22.7602C80.0969 22.5665 80.0969 22.3728 80.0969 22.1791C81.5173 22.1791 82.938 22.1791 84.3584 22.1791C87.6756 22.3751 90.9686 22.7625 94.2373 23.3413C93.4087 26.4867 92.4078 29.5859 91.2349 32.6391C91.0294 33.6787 90.8035 34.7117 90.5569 35.7384C90.9821 35.9842 91.4017 35.9842 91.816 35.7384C92.6116 33.1422 93.1927 30.495 93.5594 27.7965C94.0876 26.5996 94.5395 25.3727 94.9153 24.1161C95.0458 23.9073 95.2396 23.7781 95.4964 23.7287C99.0025 24.3685 102.263 25.6276 105.278 27.5059C106.06 28.2226 106.77 28.9975 107.409 29.8304C106.885 30.8468 106.336 31.8476 105.763 32.8328C105.634 33.1557 105.634 33.4784 105.763 33.8013C106.618 32.8026 107.328 31.7049 107.893 30.5084C109.756 33.2442 110.628 36.2788 110.509 39.6125C110.29 45.9733 108.708 51.9782 105.763 57.627C105.363 59.6018 104.588 61.4097 103.438 63.0507C103.177 63.345 102.886 63.6032 102.567 63.8255C91.7581 57.1943 80.2003 55.4833 67.8935 58.6924C64.1833 59.7882 60.8581 61.5639 57.9177 64.0193C57.2142 63.5098 56.5686 62.9287 55.9807 62.2759C54.1236 58.9612 52.7677 55.4746 51.9129 51.8159C53.398 53.43 54.8829 55.0443 56.3681 56.6585C56.4004 56.594 56.4326 56.5293 56.4649 56.4648C54.7268 53.9842 52.9511 51.5305 51.1381 49.104C48.9509 43.9106 48.628 38.6161 50.1695 33.2202C50.4764 32.4115 50.9285 31.7014 51.5255 31.0895C52.0589 31.8335 52.5432 32.6083 52.9782 33.4139C53.3134 33.312 53.5718 33.1183 53.7531 32.8328C53.1917 31.8664 52.7074 30.8979 52.3003 29.9272C54.2751 27.6316 56.6964 25.9852 59.5642 24.9878C65.8625 23.0019 72.3193 22.001 78.9347 21.9854C78.9347 23.535 78.9347 25.0846 78.9347 26.6343C79.3221 26.6343 79.7095 26.6343 80.0969 26.6343C80.0969 25.3428 80.0969 24.0516 80.0969 22.7602Z" fill="#FCFCFC"/>
<path fill-rule="evenodd" clip-rule="evenodd" d="M120.581 29.5397C122.181 33.9588 122.762 38.4785 122.324 43.099C122.357 41.4835 122.324 39.8693 122.228 38.2564C121.892 38.4015 121.537 38.4983 121.162 38.5469C121.324 38.7428 121.389 38.9688 121.356 39.2249C121.041 39.252 120.816 39.1228 120.678 38.8375C120.633 39.0771 120.536 39.2708 120.387 39.4186C120.902 35.4302 120.288 31.6208 118.547 27.99C117.06 24.3722 114.768 21.3698 111.671 18.9828C105.029 15.047 97.8619 12.658 90.1695 11.8157C81.0011 10.9968 71.897 11.4488 62.8572 13.1716C56.0912 14.3461 50.2478 17.284 45.3269 21.9852C40.9015 27.288 38.9323 33.4221 39.4189 40.3871C39.0282 40.8636 38.6731 40.7991 38.3535 40.1934C38.221 40.5768 38.3179 40.8997 38.6441 41.1619C38.3448 41.3463 38.0219 41.4109 37.6756 41.3556C37.6756 42.0013 37.6756 42.6471 37.6756 43.2927C37.1105 37.3882 38.1759 31.7708 40.8717 26.4404C45.8038 19.1901 52.5513 14.5089 61.1138 12.3968C71.4015 9.792 81.797 9.27545 92.3003 10.8472C97.748 11.5654 102.913 13.1797 107.797 15.6898C113.639 18.8523 117.9 23.469 120.581 29.5397Z" fill="#FF7A00"/>
<path fill-rule="evenodd" clip-rule="evenodd" d="M120.387 39.4186C120.279 40.0661 120.021 40.6472 119.613 41.1619C119.451 38.9048 119.354 36.6449 119.322 34.3822C119.04 33.0389 118.685 31.7153 118.257 30.4113C115.236 23.5168 110.2 18.7387 103.148 16.0771C95.2864 13.123 87.1508 11.7993 78.7409 12.1062C68.005 11.7869 58.1906 14.5956 49.2978 20.5324C46.2284 22.8913 43.8717 25.829 42.2276 29.3459C40.6723 33.2549 39.833 37.3227 39.7094 41.5493C39.5519 41.1743 39.4551 40.7869 39.4189 40.3871C38.9323 33.422 40.9015 27.288 45.3269 21.9851C50.2477 17.2839 56.0912 14.3461 62.8571 13.1716C71.8969 11.4488 81.001 10.9968 90.1695 11.8156C97.8619 12.6579 105.029 15.047 111.671 18.9827C114.768 21.3697 117.06 24.3722 118.547 27.99C120.288 31.6208 120.901 35.4302 120.387 39.4186Z" fill="#EDEDED"/>
<path fill-rule="evenodd" clip-rule="evenodd" d="M84.3584 22.1789C82.938 22.1789 81.5173 22.1789 80.0969 22.1789C80.0969 22.3726 80.0969 22.5663 80.0969 22.7601C79.916 22.5532 79.8513 22.295 79.9032 21.9852C81.4242 21.9223 82.9091 21.9868 84.3584 22.1789Z" fill="#9E9E9E"/>
<path fill-rule="evenodd" clip-rule="evenodd" d="M61.5012 19.0801C62.1714 19.2274 62.2359 19.5179 61.6949 19.9517C61.5113 20.0453 61.3176 20.0775 61.1138 20.0486C61.0876 19.6507 61.2168 19.3278 61.5012 19.0801Z" fill="#CFCFCF"/>
<path fill-rule="evenodd" clip-rule="evenodd" d="M99.4673 18.499C100.437 18.5118 100.437 18.7055 99.4673 19.0801C99.2616 18.901 99.2616 18.7073 99.4673 18.499Z" fill="#979797"/>
<path fill-rule="evenodd" clip-rule="evenodd" d="M72.7361 17.918C72.9943 17.918 73.2527 17.918 73.5109 17.918C73.5109 18.1762 73.5109 18.4345 73.5109 18.6928C72.9298 18.7573 72.6716 18.4991 72.7361 17.918Z" fill="#EAEAEA"/>
<path fill-rule="evenodd" clip-rule="evenodd" d="M86.2953 17.3369C86.676 17.4238 86.7405 17.6175 86.489 17.918C86.3174 17.7582 86.2529 17.5645 86.2953 17.3369Z" fill="#AAAAAA"/>
<path fill-rule="evenodd" clip-rule="evenodd" d="M83.1961 16.7554C83.7126 16.6713 83.9386 16.865 83.8741 17.3365C83.3592 17.5678 83.1334 17.3741 83.1961 16.7554Z" fill="#CACACA"/>
<path fill-rule="evenodd" clip-rule="evenodd" d="M62.6635 16.3682C62.8572 16.3682 63.0509 16.3682 63.2446 16.3682C63.2446 16.6264 63.2446 16.8847 63.2446 17.143C62.5755 17.1882 62.3818 16.9299 62.6635 16.3682Z" fill="#E6E6E6"/>
<path fill-rule="evenodd" clip-rule="evenodd" d="M86.8765 15.9805C87.361 15.9826 87.3933 16.1117 86.9734 16.3679C86.8835 16.2527 86.8512 16.1236 86.8765 15.9805Z" fill="#E3E3E3"/>
<path fill-rule="evenodd" clip-rule="evenodd" d="M75.448 15.787C75.8674 15.7126 76.1903 15.8417 76.4165 16.1744C76.1903 16.5071 75.8674 16.6362 75.448 16.5618C75.448 16.3036 75.448 16.0453 75.448 15.787Z" fill="#D0D0D0"/>
<path fill-rule="evenodd" clip-rule="evenodd" d="M89.3947 14.2373C89.5884 14.2373 89.7821 14.2373 89.9758 14.2373C90.0072 14.63 89.9749 15.0174 89.879 15.3995C89.3986 15.7075 89.0435 15.6106 88.8136 15.109C88.9715 14.7906 89.1652 14.5001 89.3947 14.2373Z" fill="#EDEDED"/>
<path fill-rule="evenodd" clip-rule="evenodd" d="M86.8766 13.6562C87.3895 13.9715 87.3895 14.2944 86.8766 14.6248C86.3611 14.3008 86.3611 13.978 86.8766 13.6562Z" fill="#D0D0D0"/>
<path fill-rule="evenodd" clip-rule="evenodd" d="M48.523 25.085C49.1175 25.1746 49.2144 25.4329 48.8136 25.8598C48.3541 25.7015 48.2573 25.4433 48.523 25.085Z" fill="#BDBDBD"/>
<path fill-rule="evenodd" clip-rule="evenodd" d="M45.8111 25.4717C46.2977 25.6104 46.2977 25.8041 45.8111 26.0528C45.6054 25.8736 45.6054 25.6799 45.8111 25.4717Z" fill="#E5E5E5"/>
<path fill-rule="evenodd" clip-rule="evenodd" d="M111.864 25.2783C112.178 25.3339 112.372 25.5276 112.445 25.8594C112.187 26.1176 111.929 26.1176 111.671 25.8594C111.792 25.6818 111.857 25.4881 111.864 25.2783Z" fill="#C4C4C4"/>
<path fill-rule="evenodd" clip-rule="evenodd" d="M114.964 27.6025C115.319 27.6295 115.384 27.7587 115.157 27.9899C115.003 27.9014 114.938 27.7722 114.964 27.6025Z" fill="#CCCCCC"/>
<path fill-rule="evenodd" clip-rule="evenodd" d="M79.1283 28.959C79.5157 28.959 79.9031 28.959 80.2905 28.959C80.2905 30.9605 80.2905 32.9623 80.2905 34.9638C80.0323 34.9638 79.7739 34.9638 79.5157 34.9638C79.1331 33.0372 79.0039 31.0357 79.1283 28.959Z" fill="#FF7A00"/>
<path fill-rule="evenodd" clip-rule="evenodd" d="M110.896 29.54C111.462 29.6685 111.591 29.9914 111.283 30.5086C110.762 30.3087 110.632 29.9859 110.896 29.54Z" fill="#CACACA"/>
<path fill-rule="evenodd" clip-rule="evenodd" d="M47.9419 29.7341C48.7739 29.6912 48.9031 29.9495 48.3293 30.5089C48.0173 30.35 47.8881 30.0916 47.9419 29.7341Z" fill="#C5C5C5"/>
<path fill-rule="evenodd" clip-rule="evenodd" d="M64.9879 24.5039C65.5762 24.9998 65.9314 25.6454 66.0533 26.441C66.7795 29.1856 67.6188 31.8974 68.5714 34.5765C68.6677 35.024 68.6999 35.4759 68.6683 35.9325C68.2809 35.9325 67.8935 35.9325 67.5061 35.9325C66.8467 32.4559 65.975 29.0337 64.8911 25.6661C64.7597 25.2597 64.7921 24.8723 64.9879 24.5039Z" fill="#FF7A00"/>
<path fill-rule="evenodd" clip-rule="evenodd" d="M44.4553 33.6074C45.5545 33.6772 45.6837 34.0646 44.8427 34.7696C44.2676 34.5246 44.1386 34.1372 44.4553 33.6074Z" fill="#EAEAEA"/>
<path fill-rule="evenodd" clip-rule="evenodd" d="M114.189 33.9951C114.658 33.9354 115.11 34.0001 115.545 34.1888C115.233 34.8462 114.717 35.1045 113.995 34.9636C113.969 34.6165 114.034 34.2938 114.189 33.9951Z" fill="#E4E4E4"/>
<path fill-rule="evenodd" clip-rule="evenodd" d="M104.891 34.3828C105.158 34.4723 105.288 34.666 105.278 34.9639C104.693 36.716 103.95 38.3948 103.051 40.0002C102.633 40.2294 102.246 40.1649 101.889 39.8065C101.759 39.6128 101.759 39.4191 101.889 39.2254C102.795 37.5408 103.795 35.9266 104.891 34.3828Z" fill="#FF7A00"/>
<path fill-rule="evenodd" clip-rule="evenodd" d="M54.5278 34.9634C54.9933 34.9427 55.3483 35.1364 55.5932 35.5445C56.3031 36.7102 56.8197 37.937 57.1428 39.2249C56.9326 39.3785 56.7066 39.5077 56.4648 39.6123C56.0854 39.3706 55.7948 39.0477 55.5932 38.6438C55.1339 37.5639 54.6496 36.4985 54.1404 35.4477C54.311 35.3105 54.44 35.149 54.5278 34.9634Z" fill="#FF7A00"/>
<path fill-rule="evenodd" clip-rule="evenodd" d="M58.2082 40.7744C60.6376 45.1808 62.8005 49.7005 64.6973 54.3337C62.2103 50.2648 59.8214 46.1323 57.5302 41.9366C57.4626 41.3883 57.6885 41.0009 58.2082 40.7744Z" fill="white"/>
<path fill-rule="evenodd" clip-rule="evenodd" d="M100.63 41.5498C101.102 41.6246 101.489 41.8506 101.792 42.2278C99.7351 46.1166 97.5075 49.8938 95.109 53.5595C96.8138 49.5178 98.654 45.5146 100.63 41.5498Z" fill="white"/>
<path fill-rule="evenodd" clip-rule="evenodd" d="M108.571 47.942C108.715 47.9166 108.844 47.9489 108.959 48.0388C108.698 49.2098 108.214 50.2751 107.506 51.2349C105.434 53.2423 103.432 55.3084 101.501 57.4335C103.754 54.2329 106.11 51.0691 108.571 47.942Z" fill="#FF7A00"/>
<path fill-rule="evenodd" clip-rule="evenodd" d="M47.3608 48.7168C47.8983 48.7815 48.0273 49.0397 47.7482 49.4916C47.4361 49.3328 47.3069 49.0744 47.3608 48.7168Z" fill="#9E9E9E"/>
<path fill-rule="evenodd" clip-rule="evenodd" d="M44.0679 52.9785C44.3677 53.0407 44.4969 53.2344 44.4553 53.5596C43.923 53.5786 43.794 53.3849 44.0679 52.9785Z" fill="#DDDDDD"/>
<path fill-rule="evenodd" clip-rule="evenodd" d="M111.09 55.1094C111.445 55.1363 111.51 55.2655 111.283 55.4968C111.129 55.4083 111.064 55.2791 111.09 55.1094Z" fill="#BEBEBE"/>
<path fill-rule="evenodd" clip-rule="evenodd" d="M110.896 57.627C111.352 57.5954 111.804 57.6275 112.252 57.7238C112.52 58.3979 112.262 58.753 111.477 58.7892C111.273 58.7543 111.079 58.6898 110.896 58.5955C110.789 58.3043 110.789 57.9816 110.896 57.627Z" fill="#E1E1E1"/>
<path fill-rule="evenodd" clip-rule="evenodd" d="M50.8474 59.1768C51.0412 59.1768 51.2349 59.1768 51.4286 59.1768C51.4286 59.435 51.4286 59.6934 51.4286 59.9516C50.7595 59.9967 50.5658 59.7385 50.8474 59.1768Z" fill="#D8D8D8"/>
<path fill-rule="evenodd" clip-rule="evenodd" d="M120.968 28.7646C121.452 29.664 121.807 30.6325 122.034 31.6702C122.799 34.7883 123.089 37.9523 122.906 41.1617C122.686 46.8818 121.814 52.4993 120.29 58.014C119.021 62.1676 117.277 66.1064 115.06 69.83C115.028 69.7008 114.996 69.5718 114.964 69.4426C116 66.6219 117.13 63.8453 118.353 61.1133C120.504 55.2865 121.828 49.2816 122.324 43.0988C122.762 38.4784 122.181 33.9586 120.581 29.5395C120.906 29.4072 121.035 29.1488 120.968 28.7646Z" fill="#E6E6E6"/>
<path fill-rule="evenodd" clip-rule="evenodd" d="M46.9734 64.6006C47.1917 64.7211 47.3854 64.8824 47.5545 65.0848C47.1692 65.1854 46.9755 65.024 46.9734 64.6006Z" fill="#A0A0A0"/>
<path fill-rule="evenodd" clip-rule="evenodd" d="M95.7869 65.1816C96.438 65.3178 96.5025 65.5762 95.9807 65.9565C95.5657 65.775 95.501 65.5167 95.7869 65.1816Z" fill="#C4C4C4"/>
<path fill-rule="evenodd" clip-rule="evenodd" d="M45.6175 74.6732C45.3637 74.354 45.1055 74.0313 44.8427 73.7047C44.9072 73.6402 44.9719 73.5755 45.0364 73.511C45.3414 73.6962 45.6643 73.8254 46.0049 73.8984C47.2084 74.146 48.4351 74.1136 49.6853 73.8016C54.1651 72.3575 56.5217 69.2906 56.7555 64.6006C57.5113 65.3816 57.9309 66.3178 58.0146 67.4093C57.816 68.5216 57.461 69.5869 56.9492 70.6054C55.4983 72.5082 53.6581 73.8963 51.4286 74.7701C49.4569 75.6894 47.5198 75.6571 45.6175 74.6732Z" fill="#F0F0F0"/>
<path fill-rule="evenodd" clip-rule="evenodd" d="M114.189 65.3752C114.546 65.3213 114.805 65.4505 114.964 65.7626C114.641 66.0208 114.318 66.0208 113.995 65.7626C114.065 65.6303 114.13 65.5011 114.189 65.3752Z" fill="#D2D2D2"/>
<path fill-rule="evenodd" clip-rule="evenodd" d="M102.954 65.5693C103.164 65.5926 103.294 65.7218 103.341 65.9567C103.416 67.5738 104.029 68.9297 105.182 70.0245C106.543 71.7404 108.383 72.935 110.702 73.6081C111.671 73.7373 112.639 73.7373 113.608 73.6081C114.331 73.3791 115.042 73.1854 115.738 73.027C114.004 74.8983 111.873 75.544 109.346 74.964C106.56 74.0517 104.397 72.3405 102.857 69.8308C102.183 68.3653 102.215 66.9446 102.954 65.5693Z" fill="#F3F3F3"/>
<path fill-rule="evenodd" clip-rule="evenodd" d="M67.6998 66.3438C68.1643 66.6114 68.1966 66.9344 67.7966 67.3123C67.7009 66.9958 67.6688 66.6729 67.6998 66.3438Z" fill="#C4C4C4"/>
<path fill-rule="evenodd" clip-rule="evenodd" d="M104.697 66.1504C105.168 66.5609 105.394 67.0775 105.375 67.7C105.018 67.2415 104.792 66.7251 104.697 66.1504Z" fill="#A7A7A7"/>
<path fill-rule="evenodd" clip-rule="evenodd" d="M93.6562 68.4742C93.7994 68.4488 93.9286 68.4812 94.0436 68.571C93.6886 68.9261 93.3333 69.2814 92.9782 69.6364C92.849 69.5072 92.849 69.3782 92.9782 69.249C93.2448 69.0156 93.4706 68.7574 93.6562 68.4742Z" fill="#BDBDBD"/>
<path fill-rule="evenodd" clip-rule="evenodd" d="M105.666 68.668C106.272 69.0164 106.66 69.5331 106.828 70.2176C105.799 70.2182 105.411 69.7016 105.666 68.668Z" fill="#EFEFEF"/>
<path fill-rule="evenodd" clip-rule="evenodd" d="M54.7216 67.7002C55.1372 67.7382 55.1694 67.9319 54.8184 68.2813C53.0158 70.4256 50.7237 71.5555 47.9419 71.6711C49.8429 71.3389 51.5863 70.6288 53.1719 69.5404C53.8067 69.0046 54.3231 68.3911 54.7216 67.7002Z" fill="#B3B3B3"/>
<path fill-rule="evenodd" clip-rule="evenodd" d="M107.022 70.4113C107.099 70.2127 107.228 70.1804 107.409 70.3144C107.955 70.8132 108.536 71.2651 109.152 71.6703C108.345 71.4586 107.635 71.039 107.022 70.4113Z" fill="#969696"/>
<path fill-rule="evenodd" clip-rule="evenodd" d="M112.058 70.7988C112.729 70.9168 112.923 71.2719 112.639 71.8642C112.018 71.7253 111.372 71.5963 110.702 71.4768C111.301 71.4975 111.753 71.2717 112.058 70.7988Z" fill="#E4E4E4"/>
<path fill-rule="evenodd" clip-rule="evenodd" d="M114.964 75.8351C114.32 76.4286 113.545 76.7837 112.639 76.9005C108.276 76.8336 104.693 75.1225 101.889 71.7673C101.05 70.6698 100.598 69.443 100.533 68.0869C101.361 70.9828 103.072 73.2104 105.666 74.7697C107.129 75.6304 108.678 76.2762 110.315 76.7068C110.96 76.836 111.606 76.836 112.252 76.7068C113.177 76.4695 114.081 76.1789 114.964 75.8351Z" fill="#B9B9B9"/>
<path fill-rule="evenodd" clip-rule="evenodd" d="M58.7894 67.7002C59.0716 68.6451 58.9101 69.5491 58.3051 70.4121C57.836 71.1567 57.3194 71.8668 56.7555 72.5428C56.5934 72.8347 56.3673 72.9316 56.0775 72.8334C57.5727 71.4246 58.4765 69.7136 58.7894 67.7002Z" fill="#C4C4C4"/>
<path fill-rule="evenodd" clip-rule="evenodd" d="M86.1017 71.7678C86.4114 71.7158 86.6696 71.7805 86.8765 71.9615C81.0067 73.1632 75.1955 72.9371 69.4431 71.2835C68.8308 71.0098 68.2497 70.6869 67.6998 70.315C67.4681 70.1883 67.4681 70.0914 67.6998 70.0244C73.6928 72.0339 79.8266 72.615 86.1017 71.7678Z" fill="#E1E1E1"/>
<path fill-rule="evenodd" clip-rule="evenodd" d="M92.4939 73.5106C92.6655 73.2634 92.8592 73.2634 93.075 73.5106C92.8958 73.7163 92.7021 73.7163 92.4939 73.5106Z" fill="#CECECE"/>
<path fill-rule="evenodd" clip-rule="evenodd" d="M60.7264 70.0244C63.1332 71.872 65.8451 73.0665 68.862 73.6079C73.4708 74.4657 78.1198 74.7886 82.8088 74.5765C85.6243 74.376 88.4006 73.9886 91.1381 73.4142C82.2034 76.0941 73.3575 75.8357 64.6005 72.6394C63.417 72.2092 62.3193 71.6281 61.3076 70.8961C60.9897 70.6774 60.796 70.3868 60.7264 70.0244Z" fill="#DADADA"/>
<path fill-rule="evenodd" clip-rule="evenodd" d="M96.368 74.2855C97.3534 74.2437 97.5471 74.5989 96.9491 75.3509C96.6369 75.4904 96.3463 75.4582 96.0774 75.2541C96.1061 74.9974 96.074 74.7713 95.9806 74.5761C96.158 74.5222 96.287 74.4254 96.368 74.2855Z" fill="#E9E9E9"/>
<path fill-rule="evenodd" clip-rule="evenodd" d="M53.9467 74.4793C54.3107 74.4586 54.3752 74.5554 54.1404 74.7699C52.5989 75.7787 50.9201 76.3598 49.1041 76.5132C50.8382 76.0764 52.4523 75.3984 53.9467 74.4793Z" fill="#BDBDBD"/>
<path fill-rule="evenodd" clip-rule="evenodd" d="M114.964 75.8354C115.061 75.5284 115.255 75.4315 115.545 75.5448C115.401 75.7461 115.207 75.843 114.964 75.8354Z" fill="#797979"/>
<path fill-rule="evenodd" clip-rule="evenodd" d="M43.4867 76.8034C43.4867 76.6742 43.4867 76.5452 43.4867 76.416C43.675 76.1737 43.8042 76.2382 43.8741 76.6097C43.8042 76.9812 43.675 77.0457 43.4867 76.8034Z" fill="#CECECE"/>
<path fill-rule="evenodd" clip-rule="evenodd" d="M54.7216 76.8037C55.391 77.0044 55.4557 77.3273 54.9153 77.7722C54.4883 77.5239 54.4236 77.201 54.7216 76.8037Z" fill="#E0E0E0"/>
<path fill-rule="evenodd" clip-rule="evenodd" d="M116.513 77.1914C116.772 77.1914 117.03 77.1914 117.288 77.1914C117.24 77.7667 116.918 78.0249 116.32 77.9662C116.307 77.6836 116.371 77.4254 116.513 77.1914Z" fill="#D6D6D6"/>
<path fill-rule="evenodd" clip-rule="evenodd" d="M107.99 79.1282C107.397 78.8278 106.881 78.408 106.441 77.8691C107.081 78.0849 107.597 78.5047 107.99 79.1282Z" fill="#AFAFAF"/>
<path fill-rule="evenodd" clip-rule="evenodd" d="M44.4553 77.9658C44.766 78.1183 44.8952 78.3765 44.8427 78.7406C44.0525 78.7341 43.9233 78.4758 44.4553 77.9658Z" fill="#E2E2E2"/>
<path fill-rule="evenodd" clip-rule="evenodd" d="M105.666 82.2273C104.607 81.2657 103.574 80.265 102.567 79.2248C102.696 79.0956 102.825 79.0956 102.954 79.2248C103.974 80.1467 104.878 81.1473 105.666 82.2273Z" fill="#AEAEAE"/>
<path fill-rule="evenodd" clip-rule="evenodd" d="M114.964 79.709C115.435 79.831 115.565 80.0892 115.351 80.4838C114.906 80.3157 114.777 80.0573 114.964 79.709Z" fill="#E6E6E6"/>
<path fill-rule="evenodd" clip-rule="evenodd" d="M115.351 82.4213C115.463 82.1747 115.592 82.1747 115.738 82.4213C115.647 82.6078 115.518 82.6078 115.351 82.4213Z" fill="#E0E0E0"/>
<path fill-rule="evenodd" clip-rule="evenodd" d="M105.666 82.2275C106.368 82.7302 106.885 83.3758 107.216 84.1646C106.606 83.5912 106.09 82.9456 105.666 82.2275Z" fill="#B1B1B1"/>
<path fill-rule="evenodd" clip-rule="evenodd" d="M58.2083 82.8086C58.954 82.8475 59.1477 83.2026 58.7894 83.874C57.8639 83.8881 57.6701 83.533 58.2083 82.8086Z" fill="#DFDFDF"/>
<path fill-rule="evenodd" clip-rule="evenodd" d="M43.6804 82.6152C44.1449 82.8829 44.1773 83.2058 43.7773 83.5838C43.1923 83.3277 43.1599 83.0048 43.6804 82.6152Z" fill="#D3D3D3"/>
<path fill-rule="evenodd" clip-rule="evenodd" d="M42.1307 84.7461C42.5424 84.9142 42.5745 85.1079 42.2276 85.3272C41.9016 85.1963 41.8692 85.0026 42.1307 84.7461Z" fill="#DADADA"/>
<path fill-rule="evenodd" clip-rule="evenodd" d="M114.964 85.1328C115.322 86.3923 115.128 86.5215 114.383 85.5202C114.596 85.3893 114.79 85.2603 114.964 85.1328Z" fill="#DFDFDF"/>
<path fill-rule="evenodd" clip-rule="evenodd" d="M119.613 85.1328C119.947 85.1993 120.044 85.393 119.903 85.7139C119.702 85.5698 119.605 85.3761 119.613 85.1328Z" fill="#C5C5C5"/>
<path fill-rule="evenodd" clip-rule="evenodd" d="M118.838 87.8446C118.411 87.6046 117.992 87.3463 117.579 87.0697C117.44 86.243 117.666 86.114 118.257 86.6823C118.462 87.0763 118.656 87.4637 118.838 87.8446Z" fill="#DBDBDB"/>
<path fill-rule="evenodd" clip-rule="evenodd" d="M121.55 86.4893C121.906 86.5162 121.97 86.6454 121.743 86.8767C121.589 86.7881 121.524 86.6589 121.55 86.4893Z" fill="#7F7F7F"/>
<path fill-rule="evenodd" clip-rule="evenodd" d="M50.0726 112.058C49.8824 111.387 49.8179 110.677 49.8789 109.927C50.5505 97.9 55.2639 87.795 64.0194 79.6125C64.665 79.0959 65.3108 78.5795 65.9564 78.0629C66.4473 77.6883 66.9639 77.4299 67.5061 77.2881C58.8138 84.0923 53.4224 92.7122 51.3317 103.148C50.5685 106.065 50.1488 109.035 50.0726 112.058Z" fill="#E2E2E2"/>
<path fill-rule="evenodd" clip-rule="evenodd" d="M49.1041 94.8179C49.0395 94.8179 48.9749 94.8179 48.9103 94.8179C48.8919 93.9098 49.247 93.1995 49.9757 92.6872C51.8432 88.9526 54.3614 85.7241 57.5302 83.002C55.0043 85.7097 52.7443 88.6798 50.7505 91.9124C50.4116 92.4443 50.2179 93.0254 50.1694 93.6557C49.6379 93.8959 49.2828 94.2833 49.1041 94.8179Z" fill="#D7D7D7"/>
<path fill-rule="evenodd" clip-rule="evenodd" d="M115.739 88.0386C116.306 87.7337 116.79 87.8627 117.191 88.426C117.086 90.2207 116.763 90.2207 116.223 88.426C116.086 88.2553 115.924 88.1263 115.739 88.0386Z" fill="#ECECEC"/>
<path fill-rule="evenodd" clip-rule="evenodd" d="M36.9007 100.629C36.7384 100.563 36.6737 100.434 36.707 100.242C37.974 92.2189 41.622 85.5037 47.6513 80.0967C45.519 82.8639 43.5174 85.7695 41.6464 88.8134C40.5113 91.1212 39.4138 93.4456 38.3535 95.7868C37.692 97.3513 37.2077 98.9654 36.9007 100.629Z" fill="#E9E9E9"/>
<path fill-rule="evenodd" clip-rule="evenodd" d="M118.838 87.8447C119.179 87.9923 119.373 88.2507 119.419 88.6195C119.078 88.4719 118.884 88.2135 118.838 87.8447Z" fill="#7D7D7D"/>
<path fill-rule="evenodd" clip-rule="evenodd" d="M111.283 88.2324C111.763 88.2803 111.763 88.4093 111.283 88.6198C111.097 88.5288 111.097 88.3996 111.283 88.2324Z" fill="#F0F0F0"/>
<path fill-rule="evenodd" clip-rule="evenodd" d="M117.676 104.503C117.738 105.767 117.674 106.993 117.482 108.184C117.296 99.5909 114.875 91.7135 110.218 84.5517C108.714 82.6596 107.067 80.8839 105.278 79.2248C105.408 79.0956 105.537 79.0956 105.666 79.2248C109.57 82.8024 112.702 86.967 115.061 91.7188C116.689 95.824 117.56 100.085 117.676 104.503Z" fill="#E4E4E4"/>
<path fill-rule="evenodd" clip-rule="evenodd" d="M107.99 79.1279C110.657 81.1179 112.82 83.5715 114.479 86.4887C116.463 90.0042 118.077 93.6846 119.322 97.5299C119.566 99.3344 119.695 101.142 119.709 102.954C118.907 99.5144 117.874 96.1569 116.61 92.881C116.335 92.695 116.045 92.5336 115.739 92.3967C115.956 92.3485 116.15 92.2516 116.32 92.1061C115.368 89.2999 114.109 86.6526 112.542 84.1642C111.128 82.3948 109.611 80.7161 107.99 79.1279Z" fill="#E5E5E5"/>
<path fill-rule="evenodd" clip-rule="evenodd" d="M41.1622 101.792C40.978 101.517 40.9135 101.194 40.9685 100.823C41.1657 99.8111 41.4241 98.8102 41.7433 97.8209C41.6788 97.7241 41.6141 97.6272 41.5496 97.5304C41.5517 97.7127 41.4549 97.8419 41.2591 97.9178C40.6086 97.3952 40.2859 97.5889 40.2905 98.4989C39.9659 98.6076 39.7077 98.8013 39.5157 99.08C38.9427 100.791 38.523 102.534 38.2566 104.31C38.0724 104.035 38.0079 103.712 38.0629 103.342C39.5672 94.5285 43.4092 86.9096 49.5884 80.4844C49.7176 80.6136 49.7176 80.7426 49.5884 80.8718C46.5958 84.5836 44.1422 88.6513 42.2276 93.0752C41.7699 94.152 41.2856 95.2174 40.7748 96.2713C40.9861 96.6126 41.1798 96.9679 41.3559 97.3367C41.5829 97.2555 41.7766 97.1265 41.937 96.9493C43.9955 91.1184 47.1595 85.9852 51.4286 81.5498C51.5578 81.4205 51.6868 81.4205 51.816 81.5498C49.6687 83.8113 47.8286 86.2973 46.2954 89.0074C44.9664 91.8969 43.6749 94.8024 42.4213 97.7241C41.9417 99.0659 41.5219 100.422 41.1622 101.792Z" fill="#E9E9E9"/>
<path fill-rule="evenodd" clip-rule="evenodd" d="M119.419 88.6201C119.758 88.8446 119.952 89.1675 120 89.5886C119.661 89.3641 119.467 89.0412 119.419 88.6201Z" fill="#8C8C8C"/>
<path fill-rule="evenodd" clip-rule="evenodd" d="M121.937 102.373C121.983 102.623 121.918 102.817 121.743 102.954C121.669 102.163 121.508 101.388 121.259 100.63C120.17 100.365 119.944 99.7836 120.581 98.8863C120.407 98.1142 120.246 97.3394 120.097 96.5619C119.024 93.8362 118.12 91.0597 117.385 88.2326C116.181 85.3068 114.405 82.7887 112.058 80.6781C112.09 80.6136 112.123 80.5489 112.155 80.4844C114.769 82.8013 116.77 85.5776 118.16 88.8137C120.031 93.1664 121.29 97.6863 121.937 102.373Z" fill="#E4E4E4"/>
<path fill-rule="evenodd" clip-rule="evenodd" d="M120 89.5879C120.311 89.7403 120.44 89.9985 120.387 90.3627C120.16 90.1663 120.031 89.9081 120 89.5879Z" fill="#A7A7A7"/>
<path fill-rule="evenodd" clip-rule="evenodd" d="M38.2567 88.4258C38.4645 88.5713 38.4969 88.765 38.3535 89.0069C36.9869 91.8799 35.8894 94.85 35.0605 97.9173C35.4092 94.5147 36.4746 91.3509 38.2567 88.4258Z" fill="#D7D7D7"/>
<path fill-rule="evenodd" clip-rule="evenodd" d="M106.828 91.9131C107.366 91.9778 107.495 92.236 107.215 92.6879C106.903 92.5291 106.774 92.2707 106.828 91.9131Z" fill="#DCDCDC"/>
<path fill-rule="evenodd" clip-rule="evenodd" d="M44.6489 99.8552C44.4865 99.7889 44.4218 99.6599 44.4552 99.4678C44.9024 96.7753 45.6772 94.1926 46.7796 91.7196C46.5191 91.3664 46.4222 90.979 46.489 90.5573C47.0374 90.4686 47.4893 90.2102 47.845 89.7825C48.43 88.739 49.1079 87.7705 49.8789 86.877C50.3781 87.3457 50.5718 87.9268 50.46 88.6203C49.9192 88.6296 49.5641 88.3714 49.3946 87.8455C48.048 90.2681 46.8858 92.7863 45.9079 95.4C45.3962 96.8673 44.9764 98.3524 44.6489 99.8552Z" fill="#E1E1E1"/>
<path fill-rule="evenodd" clip-rule="evenodd" d="M48.9104 92.1064C49.2446 92.1729 49.3414 92.3666 49.201 92.6876C48.9997 92.5434 48.9029 92.3497 48.9104 92.1064Z" fill="#C1C1C1"/>
<path fill-rule="evenodd" clip-rule="evenodd" d="M120.387 90.3633C120.609 90.6732 120.835 90.9961 121.065 91.3318C121.456 90.7096 122.005 90.3869 122.712 90.3633C122.606 91.2514 122.154 91.5743 121.356 91.3318C122.16 93.3297 122.741 95.3959 123.099 97.5304C123.133 97.7225 123.068 97.8515 122.906 97.9178C122.404 96.139 121.791 94.3956 121.065 92.6877C120.941 92.217 120.65 91.8941 120.194 91.7192C120.363 91.284 120.428 90.832 120.387 90.3633Z" fill="#E0E0E0"/>
<path fill-rule="evenodd" clip-rule="evenodd" d="M108.378 93.6562C108.856 93.8228 108.888 94.0812 108.475 94.4311C108.132 94.2021 108.1 93.9439 108.378 93.6562Z" fill="#C7C7C7"/>
<path fill-rule="evenodd" clip-rule="evenodd" d="M107.215 84.165C109.492 86.9703 111.332 90.0695 112.736 93.4629C113.71 93.7393 113.872 94.2882 113.22 95.1093C113.346 95.3883 113.41 95.6788 113.414 95.981C113.414 96.1102 113.349 96.1747 113.22 96.1747C113.189 95.3373 112.77 94.8207 111.961 94.6251C111.829 94.1528 111.926 93.7331 112.252 93.366C110.922 90.0773 109.243 87.0102 107.215 84.165Z" fill="#E0E0E0"/>
<path fill-rule="evenodd" clip-rule="evenodd" d="M47.3608 94.0439C47.5545 94.0439 47.7482 94.0439 47.9419 94.0439C47.9907 94.7087 47.7325 94.9024 47.1671 94.6251C47.2886 94.4474 47.3533 94.2537 47.3608 94.0439Z" fill="#E8E8E8"/>
<path fill-rule="evenodd" clip-rule="evenodd" d="M113.414 107.216C113.475 107.902 113.41 108.547 113.22 109.153C113.114 106.62 112.856 104.102 112.445 101.598C111.86 101.675 111.666 101.481 111.864 101.017C111.735 100.759 111.606 100.501 111.477 100.242C111.648 100.039 111.777 99.8133 111.864 99.5643C110.116 93.8408 107.469 88.5786 103.922 83.7774C104.088 83.6238 104.25 83.6883 104.407 83.9711C107.982 88.5398 110.533 93.6407 112.058 99.2738C113.975 99.3983 114.266 100.108 112.93 101.405C112.897 101.663 112.865 101.921 112.833 102.179C113.154 103.845 113.347 105.524 113.414 107.216Z" fill="#DBDBDB"/>
<path fill-rule="evenodd" clip-rule="evenodd" d="M41.7433 94.8184C42.0991 94.8453 42.1636 94.9745 41.937 95.2058C41.7824 95.1172 41.7179 94.988 41.7433 94.8184Z" fill="#E0E0E0"/>
<path fill-rule="evenodd" clip-rule="evenodd" d="M48.9104 94.8184C48.9749 94.8184 49.0396 94.8184 49.1041 94.8184C48.8965 95.2798 48.6706 95.7319 48.4261 96.1743C48.4143 95.6608 48.5759 95.2089 48.9104 94.8184Z" fill="#7E7E7E"/>
<path fill-rule="evenodd" clip-rule="evenodd" d="M50.0726 96.1746C49.9434 96.1746 49.8789 96.1101 49.8789 95.9809C50.5329 94.3503 51.3398 92.8007 52.3002 91.332C52.4294 91.5257 52.4294 91.7194 52.3002 91.9131C51.5033 93.3134 50.7608 94.7341 50.0726 96.1746Z" fill="#DEDEDE"/>
<path fill-rule="evenodd" clip-rule="evenodd" d="M50.8474 95.7866C51.137 95.7701 51.3307 95.8991 51.4285 96.174C51.0613 96.3946 50.8676 96.2656 50.8474 95.7866Z" fill="#D6D6D6"/>
<path fill-rule="evenodd" clip-rule="evenodd" d="M105.085 96.1748C105.825 96.3896 106.148 96.8417 106.053 97.5307C105.575 97.7969 105.22 97.6677 104.988 97.1433C104.864 96.8014 104.896 96.4785 105.085 96.1748Z" fill="#E5E5E5"/>
<path fill-rule="evenodd" clip-rule="evenodd" d="M49.879 95.9805C49.879 96.1097 49.9435 96.1742 50.0727 96.1742C49.4292 97.6518 48.8481 99.1369 48.3293 100.629C48.2648 100.629 48.2001 100.629 48.1356 100.629C48.5678 99.0083 49.1489 97.4586 49.879 95.9805Z" fill="#AAAAAA"/>
<path fill-rule="evenodd" clip-rule="evenodd" d="M113.414 95.9805C114.306 98.406 114.79 100.924 114.867 103.535C114.527 101.029 113.978 98.5755 113.22 96.1742C113.35 96.1742 113.414 96.1097 113.414 95.9805Z" fill="#9D9D9D"/>
<path fill-rule="evenodd" clip-rule="evenodd" d="M43.4866 97.3369C43.7656 97.7088 43.7011 98.0317 43.2929 98.3054C43.1453 98.0869 43.0161 97.8609 42.9055 97.6275C43.1451 97.5825 43.3388 97.4857 43.4866 97.3369Z" fill="#E4E4E4"/>
<path fill-rule="evenodd" clip-rule="evenodd" d="M47.9419 97.3364C48.1116 97.3111 48.2408 97.3756 48.3293 97.5301C48.0409 98.5269 47.9117 98.4624 47.9419 97.3364Z" fill="#7C7C7C"/>
<path fill-rule="evenodd" clip-rule="evenodd" d="M123.099 97.5303C123.534 98.7032 123.76 99.9299 123.777 101.211C123.456 100.121 123.166 99.0233 122.906 97.9177C123.068 97.8514 123.133 97.7224 123.099 97.5303Z" fill="#A8A8A8"/>
<path fill-rule="evenodd" clip-rule="evenodd" d="M109.927 115.739C109.798 113.995 109.669 112.252 109.54 110.509C109.088 102.792 106.99 95.5603 103.245 88.8138C100.654 84.8669 97.458 81.477 93.6561 78.6443C93.9289 78.5833 94.1871 78.6478 94.4309 78.838C101.874 84.321 106.684 91.5849 108.862 100.63C109.191 100.805 109.546 100.87 109.927 100.823C109.838 101.291 109.58 101.647 109.152 101.889C110.081 106.466 110.339 111.083 109.927 115.739Z" fill="#E7E7E7"/>
<path fill-rule="evenodd" clip-rule="evenodd" d="M44.4552 99.4678C44.4219 99.6599 44.4866 99.7889 44.6489 99.8552C44.119 102.221 43.6994 104.609 43.3899 107.022C43.2607 106.312 43.2607 105.602 43.3899 104.892C43.6667 103.041 44.0217 101.233 44.4552 99.4678Z" fill="#B9B9B9"/>
<path fill-rule="evenodd" clip-rule="evenodd" d="M46.3923 99.8545C46.7797 99.8545 47.1671 99.8545 47.5545 99.8545C47.5545 100.048 47.5545 100.242 47.5545 100.436C47.2775 100.42 47.0191 100.485 46.7797 100.629C46.4676 100.47 46.3384 100.212 46.3923 99.8545Z" fill="#C4C4C4"/>
<path fill-rule="evenodd" clip-rule="evenodd" d="M36.707 100.242C36.6737 100.434 36.7384 100.563 36.9007 100.63C36.8602 100.905 36.7633 101.163 36.6101 101.404C36.4573 100.976 36.4896 100.589 36.707 100.242Z" fill="#595959"/>
<path fill-rule="evenodd" clip-rule="evenodd" d="M127.361 100.436C127.717 100.462 127.781 100.592 127.555 100.823C127.4 100.734 127.335 100.605 127.361 100.436Z" fill="#8F8F8F"/>
<path fill-rule="evenodd" clip-rule="evenodd" d="M48.1357 100.63C48.2002 100.63 48.2649 100.63 48.3294 100.63C48.3939 101.276 48.4586 101.921 48.5231 102.567C48.2649 102.567 48.0065 102.567 47.7482 102.567C47.7482 102.761 47.7482 102.954 47.7482 103.148C47.619 103.148 47.5545 103.084 47.5545 102.954C47.5509 102.652 47.4864 102.362 47.3608 102.083C47.744 101.667 48.0022 101.183 48.1357 100.63Z" fill="#E6E6E6"/>
<path fill-rule="evenodd" clip-rule="evenodd" d="M33.9951 103.147C34.351 103.174 34.4155 103.304 34.1888 103.535C34.0342 103.446 33.9697 103.317 33.9951 103.147Z" fill="#B2B2B2"/>
<path fill-rule="evenodd" clip-rule="evenodd" d="M45.4237 103.729C45.7671 103.886 45.864 104.145 45.7142 104.503C45.2548 104.345 45.1579 104.087 45.4237 103.729Z" fill="#EEEEEE"/>
<path fill-rule="evenodd" clip-rule="evenodd" d="M51.8159 103.729C52.1718 103.755 52.2363 103.885 52.0096 104.116C51.855 104.027 51.7905 103.898 51.8159 103.729Z" fill="#7B7B7B"/>
<path fill-rule="evenodd" clip-rule="evenodd" d="M120.581 103.923C121.303 103.977 121.529 104.364 121.259 105.085C121.179 105.174 121.082 105.238 120.968 105.279C120.645 104.889 120.516 104.438 120.581 103.923Z" fill="#E2E2E2"/>
<path fill-rule="evenodd" clip-rule="evenodd" d="M40.9686 100.823C40.9136 101.194 40.9781 101.517 41.1623 101.792C40.6823 103.842 40.2625 105.908 39.9032 107.99C39.9257 105.533 40.2809 103.144 40.9686 100.823Z" fill="#C8C8C8"/>
<path fill-rule="evenodd" clip-rule="evenodd" d="M105.472 104.504C105.827 104.628 105.891 104.822 105.666 105.085C105.494 104.925 105.43 104.732 105.472 104.504Z" fill="#D4D4D4"/>
<path fill-rule="evenodd" clip-rule="evenodd" d="M123.874 104.697C124.506 104.741 124.7 105.032 124.455 105.569C124.271 105.688 124.11 105.656 123.971 105.472C123.876 105.222 123.844 104.963 123.874 104.697Z" fill="#E6E6E6"/>
<path fill-rule="evenodd" clip-rule="evenodd" d="M47.5545 102.954C47.5545 103.083 47.619 103.148 47.7482 103.148C47.5051 104.724 47.2469 106.273 46.9734 107.797C47.0193 107.547 46.9548 107.353 46.7797 107.216C46.9503 105.757 47.2085 104.336 47.5545 102.954Z" fill="#757575"/>
<path fill-rule="evenodd" clip-rule="evenodd" d="M121.937 102.373C122.335 103.819 122.464 105.304 122.325 106.828C122.19 105.519 121.996 104.227 121.743 102.954C121.919 102.817 121.983 102.623 121.937 102.373Z" fill="#848484"/>
<path fill-rule="evenodd" clip-rule="evenodd" d="M38.063 103.342C38.008 103.713 38.0725 104.035 38.2567 104.31C38.0688 105.335 37.9072 106.368 37.7724 107.41C37.6293 106.01 37.7261 104.654 38.063 103.342Z" fill="#A9A9A9"/>
<path fill-rule="evenodd" clip-rule="evenodd" d="M105.278 105.666C106.097 105.579 106.42 105.902 106.247 106.635C105.722 106.497 105.399 106.174 105.278 105.666Z" fill="#E6E6E6"/>
<path fill-rule="evenodd" clip-rule="evenodd" d="M45.0364 106.247C45.3922 106.274 45.4567 106.403 45.2301 106.634C45.0755 106.546 45.011 106.417 45.0364 106.247Z" fill="#9C9C9C"/>
<path fill-rule="evenodd" clip-rule="evenodd" d="M120 105.859C120.41 106.167 120.474 106.554 120.194 107.022C120.007 106.654 119.942 106.267 120 105.859Z" fill="#E6E6E6"/>
<path fill-rule="evenodd" clip-rule="evenodd" d="M126.392 106.828C126.586 106.828 126.78 106.828 126.973 106.828C126.973 107.086 126.973 107.345 126.973 107.603C126.715 107.603 126.457 107.603 126.199 107.603C126.186 107.32 126.25 107.062 126.392 106.828Z" fill="#E7E7E7"/>
<path fill-rule="evenodd" clip-rule="evenodd" d="M106.053 107.022C106.319 106.991 106.578 107.024 106.828 107.119C107.056 107.667 106.862 107.86 106.247 107.7C105.884 107.515 105.82 107.289 106.053 107.022Z" fill="#E6E6E6"/>
<path fill-rule="evenodd" clip-rule="evenodd" d="M111.477 107.021C111.784 107.119 111.881 107.312 111.768 107.603C111.566 107.458 111.469 107.265 111.477 107.021Z" fill="#DDDDDD"/>
<path fill-rule="evenodd" clip-rule="evenodd" d="M46.7797 107.216C46.9548 107.353 47.0193 107.547 46.9734 107.797C46.807 108.108 46.7747 108.431 46.8765 108.765C46.0506 108.269 46.0184 107.752 46.7797 107.216Z" fill="#D2D2D2"/>
<path fill-rule="evenodd" clip-rule="evenodd" d="M113.414 107.216C113.668 108.09 113.668 108.994 113.414 109.928C113.234 109.697 113.17 109.439 113.22 109.153C113.41 108.548 113.475 107.902 113.414 107.216Z" fill="#696969"/>
<path fill-rule="evenodd" clip-rule="evenodd" d="M46.7796 109.152C47.0647 109.466 47.1939 109.853 47.167 110.315C47.0911 110.963 46.9942 111.609 46.8765 112.252C46.7798 111.221 46.7474 110.188 46.7796 109.152Z" fill="#CDCDCD"/>
<path fill-rule="evenodd" clip-rule="evenodd" d="M117.676 104.504C117.9 106.795 117.932 109.119 117.772 111.477C117.708 111.542 117.643 111.606 117.579 111.671C117.482 110.51 117.45 109.348 117.482 108.184C117.674 106.994 117.738 105.767 117.676 104.504Z" fill="#868686"/>
<path fill-rule="evenodd" clip-rule="evenodd" d="M119.613 109.152C120.089 109.418 120.283 109.838 120.194 110.411C119.801 113.147 119.543 113.114 119.419 110.315C119.433 109.91 119.498 109.522 119.613 109.152Z" fill="#ECECEC"/>
<path fill-rule="evenodd" clip-rule="evenodd" d="M43.6804 110.315C43.852 110.068 44.0457 110.068 44.2615 110.315C44.0824 110.521 43.8887 110.521 43.6804 110.315Z" fill="#D7D7D7"/>
<path fill-rule="evenodd" clip-rule="evenodd" d="M39.6126 110.509C39.8063 110.509 40 110.509 40.1937 110.509C40.2475 110.866 40.1183 111.125 39.8063 111.284C39.6263 111.053 39.5618 110.795 39.6126 110.509Z" fill="#E7E7E7"/>
<path fill-rule="evenodd" clip-rule="evenodd" d="M123.68 111.864C124.35 111.897 124.414 112.09 123.874 112.445C123.702 112.286 123.638 112.092 123.68 111.864Z" fill="#D8D8D8"/>
<path fill-rule="evenodd" clip-rule="evenodd" d="M49.8789 109.928C49.8179 110.678 49.8824 111.388 50.0726 112.058C50.159 113.128 50.0621 114.161 49.782 115.158C49.6224 113.38 49.6548 111.637 49.8789 109.928Z" fill="#A5A5A5"/>
<path fill-rule="evenodd" clip-rule="evenodd" d="M109.54 110.509C109.669 112.252 109.798 113.995 109.927 115.739C109.9 116.912 109.771 118.074 109.54 119.225C109.475 118.967 109.411 118.709 109.346 118.451C109.526 115.807 109.59 113.16 109.54 110.509Z" fill="#C5C5C5"/>
<path fill-rule="evenodd" clip-rule="evenodd" d="M45.8111 117.288C46.1939 117.468 46.2584 117.726 46.0048 118.063C45.5899 117.881 45.5252 117.623 45.8111 117.288Z" fill="#E3E3E3"/>
<path fill-rule="evenodd" clip-rule="evenodd" d="M44.2615 118.45C44.4891 118.408 44.6828 118.472 44.8426 118.644C44.542 118.895 44.3483 118.831 44.2615 118.45Z" fill="#A2A2A2"/>
<path fill-rule="evenodd" clip-rule="evenodd" d="M46.7797 118.837C47.0693 118.821 47.263 118.95 47.3608 119.225C46.9935 119.445 46.7998 119.316 46.7797 118.837Z" fill="#848484"/>
<path fill-rule="evenodd" clip-rule="evenodd" d="M121.743 119.226C122.23 119.364 122.23 119.558 121.743 119.807C121.538 119.628 121.538 119.434 121.743 119.226Z" fill="#DADADA"/>
<path fill-rule="evenodd" clip-rule="evenodd" d="M53.753 121.55C54.2905 121.615 54.4195 121.873 54.1404 122.325C53.8283 122.166 53.6991 121.907 53.753 121.55Z" fill="#A2A2A2"/>
<path fill-rule="evenodd" clip-rule="evenodd" d="M120.387 122.519C120.743 122.545 120.808 122.675 120.581 122.906C120.427 122.817 120.362 122.688 120.387 122.519Z" fill="#979797"/>
<path fill-rule="evenodd" clip-rule="evenodd" d="M109.927 123.293C110.217 123.277 110.411 123.406 110.508 123.681C110.141 123.901 109.948 123.772 109.927 123.293Z" fill="#E1E1E1"/>
<path fill-rule="evenodd" clip-rule="evenodd" d="M47.5545 125.617C47.7482 125.617 47.9419 125.617 48.1356 125.617C48.1356 125.811 48.1356 126.005 48.1356 126.198C47.5415 126.272 47.3478 126.078 47.5545 125.617Z" fill="#C4C4C4"/>
<path fill-rule="evenodd" clip-rule="evenodd" d="M119.031 126.005C119.412 126.092 119.477 126.285 119.225 126.586C119.054 126.426 118.989 126.232 119.031 126.005Z" fill="#818181"/>
<path fill-rule="evenodd" clip-rule="evenodd" d="M107.603 128.91C107.958 129.034 108.022 129.228 107.797 129.491C107.625 129.331 107.561 129.138 107.603 128.91Z" fill="#CBCBCB"/>
<path fill-rule="evenodd" clip-rule="evenodd" d="M116.707 129.879C117.014 129.976 117.111 130.17 116.998 130.46C116.796 130.316 116.7 130.122 116.707 129.879Z" fill="#D7D7D7"/>
<path fill-rule="evenodd" clip-rule="evenodd" d="M118.257 132.203C118.503 132.315 118.503 132.444 118.257 132.591C118.07 132.499 118.07 132.37 118.257 132.203Z" fill="#E4E4E4"/>
<path fill-rule="evenodd" clip-rule="evenodd" d="M54.5278 135.884C54.8837 135.911 54.9482 136.04 54.7215 136.271C54.567 136.183 54.5025 136.053 54.5278 135.884Z" fill="#A4A4A4"/>
<path fill-rule="evenodd" clip-rule="evenodd" d="M50.8475 136.853C51.2281 136.939 51.2926 137.133 51.0412 137.434C50.8695 137.274 50.805 137.08 50.8475 136.853Z" fill="#E3E3E3"/>
<path fill-rule="evenodd" clip-rule="evenodd" d="M105.666 138.208C105.913 138.38 105.913 138.573 105.666 138.789C105.46 138.61 105.46 138.416 105.666 138.208Z" fill="#CFCFCF"/>
<path fill-rule="evenodd" clip-rule="evenodd" d="M106.828 143.051C107.209 143.138 107.273 143.331 107.022 143.632C106.631 143.509 106.566 143.316 106.828 143.051Z" fill="#B7B7B7"/>
<path fill-rule="evenodd" clip-rule="evenodd" d="M59.5642 146.925C59.435 146.925 59.3705 146.989 59.3705 147.119C59.0453 147.043 58.7224 146.946 58.402 146.828C58.8305 146.675 59.2179 146.708 59.5642 146.925Z" fill="#646464"/>
<path fill-rule="evenodd" clip-rule="evenodd" d="M97.9177 147.699C97.4435 147.511 96.9269 147.446 96.368 147.506C97.946 147.204 99.5601 147.043 101.211 147.021C100.12 147.289 99.0226 147.515 97.9177 147.699Z" fill="#ADADAD"/>
<path fill-rule="evenodd" clip-rule="evenodd" d="M59.3705 147.119C59.3705 146.989 59.435 146.925 59.5642 146.925C63.4418 147.544 67.3159 147.931 71.1865 148.087C70.0225 148.055 68.8603 148.087 67.6998 148.184C67.5223 148.238 67.3933 148.335 67.3124 148.474C64.6398 148.169 61.9927 147.717 59.3705 147.119Z" fill="#CBCBCB"/>
<path fill-rule="evenodd" clip-rule="evenodd" d="M96.3681 147.506C96.9269 147.446 97.4435 147.511 97.9177 147.699C87.7507 149.666 77.5489 149.924 67.3124 148.474C67.3933 148.334 67.5224 148.237 67.6998 148.184C68.8603 148.087 70.0225 148.055 71.1865 148.087C79.5929 148.442 87.9867 148.248 96.3681 147.506Z" fill="#EBEBEB"/>
<path fill-rule="evenodd" clip-rule="evenodd" d="M77.1052 139.359C78.0188 139.331 78.9305 139.359 79.8405 139.445C78.9968 140.114 78.028 140.37 76.9342 140.214C76.3644 140.185 75.7945 140.157 75.2247 140.129C75.0243 140.057 74.8533 139.943 74.7118 139.787C75.5314 139.632 76.3292 139.49 77.1052 139.359Z" fill="white"/>
<path fill-rule="evenodd" clip-rule="evenodd" d="M80.3534 139.531C81.0601 139.362 81.8011 139.305 82.5758 139.36C83.6127 139.319 84.6384 139.404 85.6531 139.616C85.2371 139.981 84.7526 140.18 84.1999 140.215C83.1485 140.099 82.0943 140.013 81.0372 139.958C80.7835 139.845 80.5556 139.702 80.3534 139.531Z" fill="white"/>
<path fill-rule="evenodd" clip-rule="evenodd" d="M82.5758 139.36C81.801 139.305 81.0601 139.362 80.3533 139.531C80.2605 139.52 80.2036 139.463 80.1824 139.36C81.006 139.135 81.8039 139.135 82.5758 139.36Z" fill="white"/>
<path fill-rule="evenodd" clip-rule="evenodd" d="M77.2761 137.65C79.3853 137.622 81.4937 137.65 83.6015 137.736C84.9329 137.768 86.2435 137.939 87.5335 138.249C87.3152 138.554 87.0302 138.753 86.6787 138.847C82.3894 138.135 78.1155 138.192 73.8569 139.018C73.4136 139.004 73.0717 138.805 72.8312 138.42C74.3279 138.104 75.8094 137.847 77.2761 137.65Z" fill="white"/>
<path fill-rule="evenodd" clip-rule="evenodd" d="M87.5335 137.308C87.4766 137.194 87.4195 137.08 87.3625 136.966C87.8701 136.824 88.383 136.796 88.9012 136.881C88.5304 137.257 88.0746 137.4 87.5335 137.308Z" fill="white"/>
<path fill-rule="evenodd" clip-rule="evenodd" d="M86.1658 136.795C86.5529 136.918 86.9517 136.975 87.3625 136.966C87.4195 137.08 87.4766 137.194 87.5335 137.308C86.9818 137.278 86.4689 137.164 85.9949 136.966C86.1089 136.966 86.1658 136.909 86.1658 136.795Z" fill="white"/>
<path fill-rule="evenodd" clip-rule="evenodd" d="M86.1659 136.796C86.1659 136.91 86.109 136.967 85.995 136.967C81.3353 136.365 76.7195 136.593 72.1474 137.65C71.618 137.433 71.5609 137.177 71.9765 136.881C72.7172 136.824 73.4582 136.767 74.1989 136.71C74.7798 136.383 75.4067 136.212 76.0794 136.197C79.2187 135.827 82.3529 135.855 85.4821 136.283C85.6159 136.588 85.8438 136.759 86.1659 136.796Z" fill="white"/>
<path fill-rule="evenodd" clip-rule="evenodd" d="M77.789 134.231C80.0148 134.199 82.2373 134.256 84.4563 134.402C84.4563 134.63 84.4563 134.858 84.4563 135.086C82.3735 135.192 80.322 135.078 78.3018 134.744C78.0078 134.989 77.6659 135.132 77.2761 135.172C76.6625 135.207 76.0642 135.292 75.481 135.428C75.3966 135.149 75.3682 134.864 75.3956 134.573C76.2252 134.52 77.0231 134.406 77.789 134.231Z" fill="white"/>
<path fill-rule="evenodd" clip-rule="evenodd" d="M83.9435 132.692C84.1714 132.692 84.3994 132.692 84.6273 132.692C84.6273 132.977 84.6273 133.262 84.6273 133.547C84.1341 133.599 83.6781 133.543 83.2596 133.376C83.6585 133.376 84.0575 133.376 84.4563 133.376C84.4563 133.205 84.4563 133.034 84.4563 132.863C84.2356 132.904 84.0647 132.847 83.9435 132.692Z" fill="white"/>
<path fill-rule="evenodd" clip-rule="evenodd" d="M83.9434 132.692C84.0646 132.847 84.2356 132.904 84.4563 132.863C84.4563 133.034 84.4563 133.205 84.4563 133.376C84.0575 133.376 83.6584 133.376 83.2596 133.376C80.693 133.356 78.1287 133.413 75.5665 133.547C75.5665 133.319 75.5665 133.091 75.5665 132.863C78.354 132.536 81.1462 132.48 83.9434 132.692Z" fill="white"/>
<path fill-rule="evenodd" clip-rule="evenodd" d="M79.1566 130.983C80.3735 130.88 81.5418 130.994 82.6613 131.325C82.7325 131.11 82.8749 130.996 83.0886 130.983C83.6015 130.983 84.1144 130.983 84.6273 130.983C84.6273 131.268 84.6273 131.553 84.6273 131.838C84.0277 131.924 83.4863 131.811 83.0032 131.496C80.605 131.595 78.2116 131.766 75.823 132.009C75.7542 131.774 75.6688 131.546 75.5665 131.325C76.7537 131.108 77.9504 130.994 79.1566 130.983Z" fill="white"/>
<path fill-rule="evenodd" clip-rule="evenodd" d="M79.1566 130.982C80.4673 130.755 81.7779 130.755 83.0886 130.982C82.8749 130.996 82.7325 131.11 82.6612 131.324C81.5418 130.993 80.3735 130.879 79.1566 130.982Z" fill="white"/>
<path fill-rule="evenodd" clip-rule="evenodd" d="M81.0372 129.957C81.027 129.864 80.97 129.807 80.8663 129.786C79.932 129.893 79.0203 130.007 78.1309 130.128C77.3307 130.157 76.5328 130.214 75.7375 130.299C75.7375 130.014 75.7375 129.729 75.7375 129.444C78.6469 129.233 81.5532 129.233 84.4564 129.444C84.4564 129.672 84.4564 129.9 84.4564 130.128C83.3198 130.019 82.1802 129.962 81.0372 129.957Z" fill="white"/>
<path fill-rule="evenodd" clip-rule="evenodd" d="M81.0371 129.957C80.084 130.12 79.1154 130.177 78.1309 130.128C79.0202 130.007 79.9319 129.893 80.8662 129.786C80.9699 129.807 81.0269 129.864 81.0371 129.957Z" fill="white"/>
<path fill-rule="evenodd" clip-rule="evenodd" d="M77.9599 127.564C80.0723 127.529 82.1807 127.586 84.2853 127.735C84.2853 127.962 84.2853 128.191 84.2853 128.418C81.3758 128.38 78.4696 128.437 75.5665 128.589C75.5665 128.361 75.5665 128.133 75.5665 127.906C76.3912 127.821 77.1889 127.707 77.9599 127.564Z" fill="white"/>
<path fill-rule="evenodd" clip-rule="evenodd" d="M78.1309 125.854C80.2417 125.846 82.3501 125.903 84.4563 126.025C84.4563 126.253 84.4563 126.481 84.4563 126.709C81.4904 126.676 78.5272 126.733 75.5665 126.88C75.5665 126.652 75.5665 126.424 75.5665 126.196C76.4572 126.178 77.312 126.064 78.1309 125.854Z" fill="white"/>
<path fill-rule="evenodd" clip-rule="evenodd" d="M76.7632 124.315C79.3845 124.315 82.006 124.315 84.6273 124.315C84.6273 124.6 84.6273 124.885 84.6273 125.17C81.5998 124.918 78.5795 124.975 75.5665 125.341C75.5665 125.056 75.5665 124.771 75.5665 124.486C76.004 124.538 76.403 124.481 76.7632 124.315Z" fill="white"/>
<path fill-rule="evenodd" clip-rule="evenodd" d="M75.7375 123.632C75.7375 123.404 75.7375 123.176 75.7375 122.948C75.9583 122.988 76.1292 122.931 76.2504 122.777C78.9827 122.594 81.718 122.565 84.4564 122.691C84.6068 122.923 84.6639 123.18 84.6273 123.461C81.6569 123.199 78.6936 123.256 75.7375 123.632Z" fill="white"/>
<path fill-rule="evenodd" clip-rule="evenodd" d="M76.2504 122.777C76.1292 122.932 75.9582 122.989 75.7375 122.948C75.7375 123.176 75.7375 123.404 75.7375 123.632C75.5749 123.39 75.518 123.105 75.5666 122.777C75.7944 122.777 76.0225 122.777 76.2504 122.777Z" fill="white"/>
<path fill-rule="evenodd" clip-rule="evenodd" d="M77.789 120.897C80.1878 120.847 82.5812 120.932 84.9692 121.153C84.8551 121.324 84.7413 121.495 84.6273 121.666C81.6035 121.706 78.5834 121.792 75.5665 121.922C75.5665 121.694 75.5665 121.466 75.5665 121.238C76.3375 121.173 77.0783 121.059 77.789 120.897Z" fill="white"/>
<path fill-rule="evenodd" clip-rule="evenodd" d="M77.7889 119.186C79.6134 119.158 81.437 119.186 83.2596 119.272C84.1891 119.314 85.101 119.456 85.9949 119.699C85.8518 120.042 85.5954 120.213 85.2256 120.212C81.8565 119.953 78.4943 120.01 75.1391 120.383C74.676 120.128 74.6476 119.872 75.0536 119.614C75.9982 119.525 76.9099 119.383 77.7889 119.186Z" fill="white"/>
<path fill-rule="evenodd" clip-rule="evenodd" d="M76.7632 117.648C79.3852 117.62 82.0065 117.648 84.6272 117.734C85.4947 117.807 86.3495 117.949 87.1916 118.161C87.0357 118.545 86.7509 118.716 86.3368 118.674C82.2807 118.165 78.2348 118.222 74.1988 118.845C73.8745 118.806 73.6467 118.635 73.515 118.332C74.6078 118.047 75.6906 117.819 76.7632 117.648Z" fill="white"/>
<path fill-rule="evenodd" clip-rule="evenodd" d="M77.6181 115.939C80.3576 115.895 83.093 115.981 85.824 116.195C86.0519 116.423 86.2799 116.651 86.5078 116.879C82.2077 116.44 77.9338 116.554 73.686 117.221C73.971 116.936 74.2558 116.651 74.5408 116.366C75.5937 116.238 76.6195 116.095 77.6181 115.939Z" fill="white"/>
<path fill-rule="evenodd" clip-rule="evenodd" d="M83.2596 114.571C83.6812 114.377 84.1372 114.348 84.6273 114.485C84.7413 114.656 84.8552 114.827 84.9692 114.998C84.3994 115.112 83.8294 115.112 83.2596 114.998C83.4774 114.831 83.4774 114.689 83.2596 114.571Z" fill="white"/>
<path fill-rule="evenodd" clip-rule="evenodd" d="M77.4471 114.229C79.1567 114.229 80.8663 114.229 82.5758 114.229C82.5758 114.457 82.5758 114.685 82.5758 114.913C80.1732 114.898 77.7798 114.984 75.3956 115.17C75.4932 114.964 75.6073 114.764 75.7375 114.571C76.3309 114.469 76.9009 114.355 77.4471 114.229Z" fill="white"/>
<path fill-rule="evenodd" clip-rule="evenodd" d="M81.0372 113.204C81.027 113.111 80.97 113.054 80.8663 113.033C80.3295 113.133 79.8166 113.247 79.3277 113.375C78.4113 113.356 77.4996 113.413 76.5923 113.546C76.1853 113.548 75.9003 113.377 75.7375 113.033C77.4777 112.624 79.2444 112.453 81.0372 112.52C82.006 112.548 82.9747 112.577 83.9435 112.605C84.2182 112.785 84.3321 113.041 84.2854 113.375C83.1927 113.418 82.11 113.361 81.0372 113.204Z" fill="white"/>
<path fill-rule="evenodd" clip-rule="evenodd" d="M81.0372 113.203C80.4854 113.359 79.9156 113.416 79.3276 113.374C79.8166 113.247 80.3294 113.133 80.8663 113.032C80.97 113.053 81.027 113.11 81.0372 113.203Z" fill="white"/>
<path fill-rule="evenodd" clip-rule="evenodd" d="M78.8147 110.981C80.2702 111.026 81.7518 111.026 83.2596 110.981C83.7155 110.981 84.1713 110.981 84.6273 110.981C84.6273 111.209 84.6273 111.437 84.6273 111.665C81.6046 111.634 78.5843 111.691 75.5665 111.836C75.5665 111.608 75.5665 111.38 75.5665 111.152C76.3191 111.105 77.0598 111.162 77.789 111.323C77.9934 111.264 77.9934 111.178 77.789 111.066C78.1263 110.982 78.4682 110.953 78.8147 110.981Z" fill="white"/>
<path fill-rule="evenodd" clip-rule="evenodd" d="M78.8147 110.98C80.2964 110.753 81.7779 110.753 83.2596 110.98C81.7517 111.025 80.2702 111.025 78.8147 110.98Z" fill="white"/>
<path fill-rule="evenodd" clip-rule="evenodd" d="M78.1309 109.271C77.3156 109.509 76.4608 109.623 75.5665 109.613C76.3818 109.376 77.2366 109.261 78.1309 109.271Z" fill="white"/>
<path fill-rule="evenodd" clip-rule="evenodd" d="M78.1309 109.271C80.2964 109.271 82.4617 109.271 84.6273 109.271C84.6273 109.556 84.6273 109.841 84.6273 110.126C84.2284 110.126 83.8294 110.126 83.4306 110.126C83.1242 109.988 82.7823 109.902 82.4048 109.87C82.6421 109.718 82.6137 109.632 82.3193 109.613C82.1383 109.636 81.9959 109.721 81.8919 109.87C80.4371 109.899 79.0125 109.985 77.618 110.126C77.0453 110.154 76.4755 110.126 75.9084 110.041C75.7578 109.92 75.644 109.777 75.5665 109.613C76.4608 109.623 77.3156 109.509 78.1309 109.271Z" fill="white"/>
<path fill-rule="evenodd" clip-rule="evenodd" d="M83.4306 110.126C81.4931 110.126 79.5555 110.126 77.618 110.126C79.0125 109.984 80.4371 109.899 81.892 109.87C81.9959 109.721 82.1383 109.636 82.3194 109.613C82.6138 109.632 82.6421 109.718 82.4048 109.87C82.7823 109.902 83.1242 109.988 83.4306 110.126Z" fill="white"/>
<path fill-rule="evenodd" clip-rule="evenodd" d="M77.2761 107.561C79.6188 107.513 81.9552 107.571 84.2854 107.732C84.2563 107.958 84.3133 108.158 84.4563 108.331C81.5432 108.152 78.637 108.238 75.7375 108.587C75.7009 108.306 75.758 108.05 75.9085 107.818C76.3983 107.786 76.854 107.701 77.2761 107.561Z" fill="white"/>
<path fill-rule="evenodd" clip-rule="evenodd" d="M78.1309 105.852C80.2429 105.821 82.3513 105.878 84.4563 106.023C84.4563 106.25 84.4563 106.479 84.4563 106.706C81.4899 106.667 78.5267 106.724 75.5665 106.877C75.5665 106.649 75.5665 106.421 75.5665 106.194C76.4476 106.107 77.3024 105.993 78.1309 105.852Z" fill="white"/>
<path fill-rule="evenodd" clip-rule="evenodd" d="M84.4563 104.313C84.6189 104.556 84.6759 104.841 84.6273 105.168C84.2452 105.219 83.9033 105.162 83.6016 104.997C83.8865 104.997 84.1714 104.997 84.4563 104.997C84.4563 104.769 84.4563 104.541 84.4563 104.313Z" fill="white"/>
<path fill-rule="evenodd" clip-rule="evenodd" d="M84.4563 104.313C84.4563 104.541 84.4563 104.769 84.4563 104.997C84.1713 104.997 83.8865 104.997 83.6015 104.997C81.0344 104.969 78.4701 105.026 75.9084 105.168C75.9084 104.94 75.9084 104.712 75.9084 104.484C78.7496 104.098 81.5989 104.041 84.4563 104.313Z" fill="white"/>
<path fill-rule="evenodd" clip-rule="evenodd" d="M84.1144 102.604C84.2854 102.604 84.4563 102.604 84.6273 102.604C84.6273 102.889 84.6273 103.173 84.6273 103.458C84.1341 103.511 83.6781 103.454 83.2596 103.287C83.6585 103.287 84.0575 103.287 84.4563 103.287C84.4517 102.997 84.3377 102.769 84.1144 102.604Z" fill="white"/>
<path fill-rule="evenodd" clip-rule="evenodd" d="M84.1144 102.604C84.3377 102.77 84.4517 102.998 84.4563 103.288C84.0575 103.288 83.6585 103.288 83.2596 103.288C80.739 103.222 78.2316 103.336 75.7375 103.63C75.5747 103.366 75.5178 103.081 75.5665 102.775C78.4126 102.623 81.262 102.566 84.1144 102.604Z" fill="white"/>
<path fill-rule="evenodd" clip-rule="evenodd" d="M78.6438 100.894C80.3544 100.866 82.064 100.894 83.7725 100.98C84.0811 101.146 84.3661 101.346 84.6273 101.578C82.5878 101.602 80.5363 101.602 78.4728 101.578C78.1263 101.606 77.7844 101.577 77.4471 101.493C77.369 101.422 77.3119 101.337 77.2761 101.236C77.7558 101.122 78.2116 101.008 78.6438 100.894Z" fill="white"/>
<path fill-rule="evenodd" clip-rule="evenodd" d="M77.2762 101.749C76.7602 101.784 76.2473 101.841 75.7375 101.92C75.7375 101.692 75.7375 101.464 75.7375 101.236C76.2072 101.183 76.6631 101.24 77.1052 101.407C77.1673 101.524 77.2242 101.638 77.2762 101.749Z" fill="white"/>
<path fill-rule="evenodd" clip-rule="evenodd" d="M78.6438 100.895C78.2116 101.008 77.7558 101.122 77.2761 101.236C77.3119 101.337 77.369 101.422 77.4471 101.493C77.7844 101.578 78.1263 101.606 78.4728 101.578C78.1126 101.744 77.7136 101.801 77.2761 101.749C77.2242 101.638 77.1672 101.524 77.1052 101.407C76.6631 101.24 76.2071 101.183 75.7375 101.236C75.7375 101.464 75.7375 101.692 75.7375 101.92C75.5749 101.678 75.518 101.393 75.5666 101.065C76.5923 101.009 77.6181 100.951 78.6438 100.895Z" fill="white"/>
<path fill-rule="evenodd" clip-rule="evenodd" d="M77.789 99.1844C80.0149 99.1524 82.2374 99.2094 84.4564 99.3554C84.4564 99.5832 84.4564 99.8113 84.4564 100.039C81.6306 99.8091 78.8098 99.866 75.994 100.21C75.5622 100.155 75.5336 99.9265 75.9085 99.5263C76.5587 99.4231 77.1854 99.3092 77.789 99.1844Z" fill="white"/>
<path fill-rule="evenodd" clip-rule="evenodd" d="M75.5665 97.8174C75.5665 98.0453 75.5665 98.2733 75.5665 98.5012C75.7944 98.5012 76.0224 98.5012 76.2503 98.5012C76.0077 98.6638 75.7229 98.7207 75.3955 98.6722C75.347 98.3448 75.4039 98.06 75.5665 97.8174Z" fill="white"/>
<path fill-rule="evenodd" clip-rule="evenodd" d="M63.0867 97.8174C63.2007 97.8174 63.3145 97.8174 63.4286 97.8174C63.3412 98.1072 63.2272 98.392 63.0867 98.6722C62.4242 98.9404 61.7689 99.2254 61.1207 99.527C60.7772 99.3591 60.6917 99.1312 60.8642 98.8431C61.641 98.5397 62.3818 98.1978 63.0867 97.8174Z" fill="white"/>
<path fill-rule="evenodd" clip-rule="evenodd" d="M76.2504 98.5014C76.0225 98.5014 75.7944 98.5014 75.5665 98.5014C75.5665 98.2735 75.5665 98.0455 75.5665 97.8176C78.5817 97.4606 81.602 97.4037 84.6273 97.6466C84.6273 97.8745 84.6273 98.1026 84.6273 98.3304C81.829 98.281 79.0366 98.338 76.2504 98.5014Z" fill="white"/>
<path fill-rule="evenodd" clip-rule="evenodd" d="M99.8424 98.8433C99.9947 99.1878 99.8523 99.4158 99.415 99.5271C98.9774 99.351 98.55 99.1515 98.1329 98.9288C97.3707 97.9215 96.345 97.4657 95.0556 97.5611C88.6864 95.1506 82.1331 94.3813 75.3955 95.2532C74.6862 95.154 74.0593 95.2679 73.515 95.5951C73.3584 95.5127 73.1875 95.4558 73.0021 95.4241C72.3016 95.7845 71.5608 96.0124 70.7797 96.108C70.5462 95.7915 70.2612 95.7346 69.9249 95.937C70.1133 96.0526 70.2843 96.1664 70.4378 96.2789C68.8289 96.6812 67.2334 97.1371 65.651 97.6466C65.0783 97.6748 64.5085 97.6462 63.9414 97.5611C74.1592 93.4067 84.4735 93.1217 94.8847 96.7063C96.5484 97.403 98.2011 98.1153 99.8424 98.8433Z" fill="white"/>
<path fill-rule="evenodd" clip-rule="evenodd" d="M100.355 96.4491C100.345 96.5419 100.288 96.5989 100.184 96.6201C95.6162 94.1285 90.7723 92.5328 85.653 91.8333C85.368 91.7192 85.0832 91.6054 84.7982 91.4914C85.7607 91.3168 86.7294 91.2884 87.7045 91.4059C92.0333 92.1839 96.1363 93.6087 100.013 95.6798C100.198 95.9072 100.312 96.1636 100.355 96.4491Z" fill="white"/>
<path fill-rule="evenodd" clip-rule="evenodd" d="M100.013 97.3044C100.261 97.4128 100.375 97.6123 100.355 97.9028C100.351 98.0857 100.294 98.2281 100.184 98.3302C89.3749 92.5428 78.1487 91.6596 66.5058 95.6803C65.1409 96.1363 63.8302 96.6777 62.5738 97.3044C61.74 97.5501 60.9422 97.892 60.1804 98.3302C59.9602 98.0226 59.9602 97.7378 60.1804 97.4754C68.0803 93.6672 76.4003 92.1002 85.1402 92.7741C90.3803 93.3717 95.3381 94.8818 100.013 97.3044Z" fill="white"/>
<path fill-rule="evenodd" clip-rule="evenodd" d="M92.3204 97.475C92.5351 97.4683 92.706 97.5538 92.8332 97.7314C92.4551 97.8663 92.1132 97.8377 91.8075 97.6459C92.0282 97.6864 92.1992 97.6295 92.3204 97.475Z" fill="white"/>
<path fill-rule="evenodd" clip-rule="evenodd" d="M92.3204 97.475C92.1992 97.6295 92.0282 97.6865 91.8075 97.646C89.8442 97.6114 87.9068 97.355 85.995 96.8767C83.0925 96.6308 80.1862 96.5739 77.2761 96.7057C74.6239 97.0767 71.9741 97.4471 69.3266 97.8169C68.8351 97.7316 68.8066 97.6178 69.2412 97.475C76.9339 95.4341 84.627 95.4341 92.3204 97.475Z" fill="white"/>
<path fill-rule="evenodd" clip-rule="evenodd" d="M77.1052 91.4914C77.1242 91.5969 77.1811 91.6824 77.2761 91.7479C71.3231 92.3175 65.6815 93.9416 60.3514 96.6202C60.2476 96.599 60.1907 96.542 60.1804 96.4492C60.2847 96.2969 60.3416 96.1259 60.3514 95.9363C61.3282 95.2199 62.4111 94.6786 63.5996 94.3122C65.3702 93.6556 67.1368 93.0572 68.8992 92.5172C71.5747 91.7511 74.31 91.4092 77.1052 91.4914Z" fill="white"/>
<path fill-rule="evenodd" clip-rule="evenodd" d="M70.7797 96.1078C70.7212 96.2511 70.6074 96.3082 70.4378 96.2787C70.2843 96.1663 70.1133 96.0524 69.9249 95.9368C70.2612 95.7344 70.5462 95.7914 70.7797 96.1078Z" fill="white"/>
<path fill-rule="evenodd" clip-rule="evenodd" d="M75.3955 95.2524C74.7868 95.3772 74.16 95.4912 73.515 95.5943C74.0593 95.2671 74.6862 95.1532 75.3955 95.2524Z" fill="white"/>
<path fill-rule="evenodd" clip-rule="evenodd" d="M79.8405 94.3977C80.1461 94.349 80.4311 94.4059 80.6952 94.5687C80.5528 94.6256 80.4103 94.6827 80.2678 94.7396C80.0326 94.7082 79.8902 94.5941 79.8405 94.3977Z" fill="white"/>
<path fill-rule="evenodd" clip-rule="evenodd" d="M84.7983 91.4916C85.0833 91.6056 85.3681 91.7194 85.6531 91.8335C83.6301 91.7584 81.6356 91.6444 79.6696 91.4916C81.3774 91.3088 83.087 91.3088 84.7983 91.4916Z" fill="white"/>
</g>
<defs>
<clipPath id="clip0_302_27054">
<rect width="160" height="160" fill="white"/>
</clipPath>
</defs>
</svg>
