<svg width="266" height="134" viewBox="0 0 266 134" fill="none" xmlns="http://www.w3.org/2000/svg">
<path fill-rule="evenodd" clip-rule="evenodd" d="M118.468 36.6685C116.214 39.4794 114.107 42.4129 112.15 45.469C111.728 45.469 111.518 45.2736 111.518 44.8823C111.903 44.3595 112.114 43.7728 112.15 43.1222C113.718 42.3571 114.455 41.1837 114.361 39.602C113.618 40.597 112.881 41.5745 112.15 42.5355C111.728 42.5355 111.307 42.5355 110.886 42.5355C112.588 38.8575 112.167 38.6621 109.622 41.9488C110.484 38.6873 109.22 38.1006 105.831 40.1887C103.42 42.935 103.736 43.1304 106.779 40.7754C107.374 43.1234 108.743 44.8835 110.886 46.0557C107.954 49.2596 104.374 51.7044 100.145 53.3894C97.2056 55.1419 96.2579 57.5867 97.3017 60.7231C98.0605 65.0442 100.693 67.7823 105.2 68.9369C104.866 69.6533 104.444 70.3374 103.936 70.9904C106.879 71.2667 109.722 71.7554 112.466 72.4571C115.647 72.1526 118.174 70.7838 120.048 68.3502C120.402 68.6565 120.823 68.8519 121.311 68.9369C122.311 68.2393 123.469 67.7506 124.786 67.4702C124.576 67.2748 124.365 67.0788 124.154 66.8835C126.734 66.5725 129.261 66.0838 131.736 65.4167C131.736 67.7635 131.736 70.1103 131.736 72.4571C133.21 72.4571 134.685 72.4571 136.159 72.4571C136.049 69.8046 136.471 69.6087 137.423 71.8704C140.195 72.4202 142.932 73.0069 145.637 73.6305C146.058 74.4126 146.479 75.1952 146.9 75.9773C146.855 77.7943 146.75 79.7498 146.584 81.8443C145.396 80.4802 144.343 80.4802 143.425 81.8443C141.312 81.7921 139.101 81.6947 136.791 81.5509C135.211 80.0842 133.632 78.6174 132.052 77.1507C131.738 78.506 131.633 79.8747 131.736 81.2576C129.65 82.9344 128.913 82.543 129.525 80.0842C129.283 80.4104 128.967 80.6058 128.577 80.6709C127.945 80.6709 127.314 80.6709 126.682 80.6709C126.968 80.1088 127.389 79.6195 127.945 79.2041C127.235 79.0581 126.603 78.7647 126.05 78.3241C126.685 77.7984 126.685 77.4077 126.05 77.1507C124.486 78.2901 124.486 79.4635 126.05 80.6709C125.98 81.0329 125.769 81.3262 125.418 81.5509C119.93 81.6495 114.455 81.9429 108.99 82.431C108.225 83.1468 108.225 83.8314 108.99 84.4844C108.675 84.7778 108.359 85.0711 108.043 85.3645C107.68 83.7094 106.837 82.3406 105.515 81.2576C104.043 82.1564 102.78 81.9605 101.724 80.6709C99.575 81.4271 97.2581 81.8185 94.7743 81.8443C91.8483 81.7269 89.0051 81.3362 86.2447 80.6709C86.2447 77.9328 86.2447 75.1952 86.2447 72.4571C72.8941 72.1086 59.6257 72.1086 46.4394 72.4571C45.5467 74.0523 45.1252 75.8124 45.1758 77.7374C44.5572 75.904 44.3462 73.9485 44.5439 71.8704C45.4929 70.484 45.2819 69.2127 43.9121 68.0569C44.3121 61.5762 45.1543 61.4782 46.4394 67.7635C46.6498 66.9815 46.8609 66.1988 47.0713 65.4167C46.2353 62.7056 45.6035 59.9675 45.1758 57.203C45.6477 53.5396 47.5432 50.7041 50.8622 48.6958C58.4467 47.5999 66.0287 46.4265 73.6081 45.1756C80.2202 42.6927 86.9599 40.5419 93.8266 38.722C101.228 37.8331 108.599 36.7571 115.941 35.4951C117.099 35.545 117.941 35.9363 118.468 36.6685Z" fill="white"/>
<path fill-rule="evenodd" clip-rule="evenodd" d="M160.168 38.4287C159.129 38.3031 158.182 38.4991 157.325 39.0154C157.01 40.7649 156.905 42.525 157.009 44.2957C153.64 44.2957 150.269 44.2957 146.9 44.2957C146.9 47.4245 146.9 50.554 146.9 53.6829C155.335 53.4875 163.759 53.6834 172.173 54.2696C171.364 55.5615 171.364 56.8323 172.173 58.0831C173.845 58.3747 175.53 58.4727 177.228 58.3764C177.228 63.2654 177.228 68.1549 177.228 73.0439C176.761 72.967 176.339 73.065 175.964 73.3372C177.451 75.1947 179.346 76.4661 181.65 77.1508C182.373 78.3242 183.32 78.7155 184.494 78.3242C184.717 79.6777 185.349 79.8737 186.389 78.9109C187.974 79.7106 189.553 79.9059 191.128 79.4976C189.634 79.1544 188.37 78.4697 187.337 77.4441C187.936 77.1608 188.568 77.0634 189.232 77.1508C192.042 78.9308 195.201 79.9089 198.71 80.0843C199.886 79.2969 201.149 78.7102 202.501 78.3242C202.922 78.3242 203.133 78.1288 203.133 77.7375C205.415 78.3306 207.732 78.4286 210.083 78.0308C208.273 77.9235 206.588 77.6301 205.028 77.1508C206.982 76.1358 209.509 75.8424 212.61 76.2707C212.189 76.8574 211.768 77.4441 211.346 78.0308C212.087 78.2767 212.719 78.6674 213.242 79.2042C212.529 81.5974 212.423 84.0416 212.926 86.538C213.455 85.6585 213.982 85.4631 214.506 85.9513C212.038 96.0654 205.298 101.932 194.287 103.552C193.234 103.454 192.181 103.357 191.128 103.259C189.654 101.89 188.179 100.521 186.705 99.152C187.547 99.152 188.39 99.152 189.232 99.152C188.077 98.499 187.55 97.6189 187.653 96.5118C189.509 97.6025 191.51 98.0912 193.655 97.9786C191.339 97.1003 189.234 95.9269 187.337 94.4584C188.978 94.5323 190.452 95.119 191.76 96.2185C193.655 96.6098 195.551 96.6098 197.446 96.2185C194.462 95.5168 191.724 94.3434 189.232 92.6983C190.7 92.8778 192.174 93.2686 193.655 93.8717C200.191 94.2513 200.191 93.6646 193.655 92.1116C196.182 91.9162 198.71 91.7203 201.237 91.5249C202.213 91.3548 203.055 90.964 203.764 90.3515C200.369 90.9364 196.999 90.7411 193.655 89.7648C196.955 89.7531 200.114 89.1664 203.133 88.0047C201.027 87.8093 198.92 87.6134 196.814 87.418C197.778 86.826 198.831 86.5327 199.973 86.538C200.872 86.4153 201.714 86.122 202.501 85.6579C199.56 85.3652 196.611 85.2672 193.655 85.3646C195.293 84.8101 197.399 84.3214 199.973 83.8978C197.657 83.7024 195.34 83.5065 193.023 83.3111C195.062 82.6077 197.167 82.3143 199.342 82.4311C200.135 82.454 200.767 82.1606 201.237 81.551C197.452 81.2583 193.661 81.1603 189.864 81.2577C179.261 80.8798 170.521 76.9683 163.643 69.5237C162.061 67.5765 161.429 65.425 161.748 63.07C162.195 62.5531 162.722 62.1624 163.327 61.8966C163.911 62.3678 164.542 62.4657 165.223 62.19C166.864 60.8306 167.39 59.1685 166.802 57.203C166.504 58.5401 165.872 59.7135 164.907 60.7232C164.714 58.0608 164.187 57.8654 163.327 60.1365C162.517 61.4947 161.253 62.2768 159.536 62.4833C151.275 60.1829 143.061 58.0321 134.895 56.0296C135.612 54.2349 136.454 52.4748 137.422 50.7494C137.106 50.1627 136.791 49.576 136.475 48.9893C135.69 51.0322 134.742 52.9876 133.631 54.8563C133.714 55.3702 133.504 55.7615 133 56.0296C126.798 59.1585 120.69 62.3854 114.677 65.7102C107.113 68.1309 101.532 66.0774 97.9331 59.5498C97.4781 58.6041 97.583 57.724 98.249 56.9097C99.5126 56.5184 100.776 56.5184 102.04 56.9097C100.987 57.1051 99.9341 57.301 98.8808 57.4964C101.436 57.9986 103.753 58.976 105.831 60.4299C107.726 60.8212 109.622 60.8212 111.517 60.4299C113.108 59.0517 114.582 57.585 115.94 56.0296C116.151 56.421 116.362 56.8117 116.572 57.203C121.953 51.18 120.479 47.7572 112.149 46.9358C113.963 45.35 115.648 43.6879 117.204 41.9489C121.957 36.7126 128.065 34.1704 135.527 34.3218C143.873 35.4823 152.087 36.8511 160.168 38.4287Z" fill="white"/>
<path fill-rule="evenodd" clip-rule="evenodd" d="M20.5345 47.8157C22.1993 46.3026 23.5679 44.5425 24.6414 42.5354C25.0546 41.8337 25.3705 41.8337 25.5891 42.5354C23.2141 46.5308 21.4241 50.6377 20.2186 54.856C21.637 51.631 23.5325 48.6975 25.905 46.0556C25.6946 47.6203 25.4836 49.1844 25.2732 50.7492C26.3265 49.1844 27.3791 47.6203 28.4323 46.0556C28.5555 47.0571 28.5555 48.0351 28.4323 48.9891C29.3592 47.3663 30.5174 45.8995 31.9074 44.5888C32.7244 44.3013 33.5672 44.2034 34.4347 44.2955C34.3324 45.4847 34.4379 46.6581 34.7506 47.8157C36.2746 45.2248 38.275 42.976 40.753 41.0686C44.8321 39.6711 48.7286 39.9645 52.4418 41.9487C53.72 43.2799 54.2463 44.8446 54.0214 46.6423C51.429 46.2134 49.2176 46.8001 47.3872 48.4024C45.16 51.4127 44.0019 54.7375 43.9122 58.3762C44.3336 57.9849 44.7544 57.5942 45.1758 57.2028C45.6036 59.9674 46.2354 62.7055 47.0713 65.4166C46.8609 66.1987 46.6499 66.9813 46.4395 67.7634C45.1543 61.4781 44.3121 61.5761 43.9122 68.0568C45.282 69.2126 45.493 70.4839 44.544 71.8703C44.6432 71.0648 44.5377 70.2821 44.2281 69.5235C43.5906 70.4182 43.2746 71.3962 43.2803 72.457C42.7287 74.961 42.5183 77.5038 42.6485 80.0841C42.1247 75.2984 41.8088 70.4094 41.7008 65.4166C40.8674 66.4433 40.5515 67.6167 40.753 68.9368C40.4523 71.5728 40.0315 74.1156 39.4893 76.5639C39.5721 76.1303 39.4666 75.739 39.1734 75.3905C38.963 76.1726 38.752 76.9552 38.5416 77.7373C38.366 77.1999 38.05 76.8091 37.5939 76.5639C37.7518 74.9716 37.8573 73.4069 37.9098 71.8703C36.1211 77.4269 34.8574 83.0979 34.1188 88.8846C33.6942 83.7521 34.0101 78.6672 35.0665 73.6304C34.8479 72.9287 34.532 72.9287 34.1188 73.6304C33.1805 76.3339 32.4432 79.0714 31.9074 81.8442C31.3868 79.6077 31.0709 77.2609 30.9597 74.8038C30.209 75.4275 29.8931 76.2101 30.0119 77.1506C29.346 79.8535 28.9245 82.591 28.7483 85.3644C28.1259 82.939 27.9155 80.3962 28.1164 77.7373C28.2175 76.7405 28.1126 75.7625 27.8005 74.8038C26.9577 78.3287 26.1148 81.8489 25.2732 85.3644C25.1689 80.8538 25.4849 76.3556 26.2209 71.8703C26.1154 71.0882 26.0105 70.3056 25.905 69.5235C25.1942 71.4502 24.5624 73.4057 24.0095 75.3905C23.904 74.5104 23.7991 73.6304 23.6936 72.7503C24.321 68.8723 25.0577 65.0587 25.905 61.3097C22.7295 69.4431 21.1499 77.8523 21.1663 86.5378C20.7449 89.6666 20.3241 92.7961 19.9026 95.9249C19.3776 88.3994 19.0617 80.7723 18.9549 73.0437C18.3174 73.9384 18.0015 74.9164 18.0072 75.9772C17.3848 73.5518 17.1744 71.009 17.3753 68.3501C17.5548 67.2266 17.3444 66.2491 16.7435 65.4166C16.8509 64.641 16.6405 63.9563 16.1117 63.3632C17.4947 62.966 17.7051 62.2813 16.7435 61.3097C17.9737 60.2678 18.1841 59.0944 17.3753 57.7895C16.9008 58.3035 16.5849 58.8902 16.4276 59.5496C16.0201 58.8773 15.4937 58.2906 14.848 57.7895C16.3827 56.9793 16.1717 56.3926 14.2162 56.0294C15.5196 49.2073 18.8898 43.4383 24.3255 38.7218C25.2947 38.1803 26.3479 37.887 27.4846 37.8418C30.7038 38.5447 33.8629 39.4247 36.962 40.4819C32.9581 40.5207 28.9568 40.5207 24.9573 40.4819C22.9076 42.6263 21.4329 45.0711 20.5345 47.8157Z" fill="white"/>
<path fill-rule="evenodd" clip-rule="evenodd" d="M204.396 45.4689C206.184 45.7405 207.869 46.1313 209.451 46.6423C203.777 47.0418 198.091 47.3352 192.391 47.5223C194.455 48.1431 196.351 49.0231 198.078 50.1625C196.035 49.5118 193.929 49.0231 191.76 48.6957C189.294 47.0817 186.767 45.615 184.178 44.2955C181.309 41.8859 177.939 40.2238 174.068 39.3086C169.452 38.7559 164.818 38.4625 160.168 38.4285C152.087 36.8509 143.873 35.4821 135.527 34.3216C128.065 34.1703 121.957 36.7124 117.204 41.9487C116.688 40.8879 117.109 40.0079 118.468 39.3086C117.891 38.479 117.891 37.5989 118.468 36.6684C117.941 35.9362 117.098 35.5449 115.94 35.495C108.598 36.757 101.227 37.833 93.8262 38.7219C86.9595 40.5418 80.2197 42.6926 73.6077 45.1755C66.0282 46.4264 58.4463 47.5998 50.8618 48.6957C47.5428 50.704 45.6473 53.5395 45.1753 57.2029C44.7539 57.5942 44.3331 57.9849 43.9117 58.3763C44.0014 54.7375 45.1596 51.4127 47.3867 48.4024C49.2172 46.8001 51.4286 46.2134 54.021 46.6423C54.2459 44.8446 53.7196 43.2799 52.4414 41.9487C48.7281 39.9645 44.8316 39.6711 40.7525 41.0686C38.2745 42.976 36.2741 45.2248 34.7502 47.8157C34.4374 46.6581 34.3319 45.4847 34.4343 44.2955C33.5668 44.2034 32.7239 44.3014 31.9069 44.5888C30.5169 45.8995 29.3588 47.3663 28.4319 48.9891C28.5551 48.0351 28.5551 47.0571 28.4319 46.0556C27.3786 47.6203 26.326 49.1844 25.2727 50.7492C25.4831 49.1844 25.6942 47.6203 25.9046 46.0556C23.532 48.6975 21.6366 51.631 20.2181 54.8561C21.4236 50.6377 23.2136 46.5308 25.5886 42.5354C25.37 41.8337 25.0541 41.8337 24.6409 42.5354C23.5674 44.5425 22.1989 46.3026 20.534 47.8157C21.4325 45.0711 22.9072 42.6263 24.9568 40.482C28.9563 40.5207 32.9577 40.5207 36.9616 40.482C33.8624 39.4247 30.7033 38.5447 27.4841 37.8418C26.3475 37.887 25.2942 38.1803 24.325 38.7219C18.8894 43.4383 15.5192 49.2073 14.2157 56.0295C11.8748 63.0223 10.8222 70.2587 11.0566 77.7373C11.1956 84.8017 11.7219 91.8421 12.6362 98.8584C13.1043 101.889 14.8943 103.845 18.0067 104.725C23.9074 102.903 29.5938 103.392 35.0661 106.192C42.2626 107.234 46.2646 104.398 47.0708 97.685C47.6976 97.7859 48.1184 97.59 48.3345 97.0983C52.5469 97.0983 56.7587 97.0983 60.9711 97.0983C62.6562 97.4897 64.3406 97.8804 66.0257 98.2717C63.6456 101.355 64.9093 103.116 69.8167 103.552C71.4278 103.483 72.6915 102.897 73.6077 101.792C74.4499 101.401 75.2927 101.01 76.135 100.619C77.0897 101.474 77.7215 102.549 78.0305 103.845C79.2771 104.136 80.5407 104.234 81.8214 104.139C81.0064 104.981 79.9537 105.567 78.6623 105.899C79.3996 107.659 80.1363 109.419 80.8737 111.179C81.6767 111.991 82.6245 112.577 83.7169 112.939C85.5208 113.704 87.4163 113.704 89.4034 112.939C88.6085 113.242 87.9767 112.851 87.5079 111.766C88.3179 112.008 88.9497 111.617 89.4034 110.592C90.7985 116.511 94.5894 118.955 100.776 117.926C99.0912 117.731 97.4067 117.535 95.7217 117.339C94.8106 117.118 94.1787 116.63 93.8262 115.873C96.555 116.583 99.2928 116.583 102.04 115.873C101.311 115.176 101.311 114.59 102.04 114.113C103.793 118.024 106.952 119.295 111.517 117.926C113.379 117.453 115.063 116.671 116.572 115.579C115.67 115.24 114.827 115.338 114.045 115.873C113.848 115.299 113.427 114.908 112.781 114.699C112.025 114.902 112.025 115.196 112.781 115.579C112.064 116.019 111.432 115.921 110.886 115.286C111.421 114.166 111.632 112.993 111.517 111.766C113.147 111.828 114.621 111.437 115.94 110.592C118.032 111.755 119.927 113.124 121.627 114.699C120.346 114.604 119.082 114.702 117.836 114.993C117.307 115.586 117.096 116.27 117.204 117.046C112.821 120.11 108.082 120.697 102.988 118.806C96.8065 121.375 92.0678 119.811 88.7715 114.113C85.8443 115.082 83.1066 114.788 80.5578 113.233C79.0407 110.904 77.7771 108.46 76.7668 105.899C74.0727 105.741 71.335 105.643 68.553 105.605C64.599 104.778 62.7035 102.529 62.8666 98.8584C58.2334 98.8584 53.5995 98.8584 48.9663 98.8584C47.7608 106.327 43.1276 109.357 35.0661 107.952C29.614 105.102 23.9276 104.613 18.0067 106.486C12.5894 104.85 10.167 101.33 10.7407 95.9249C7.5632 79.9227 8.82686 64.2778 14.5316 48.9891C16.6508 43.9622 19.9155 39.7574 24.325 36.3751C33.0417 37.8911 41.8873 38.8691 50.8618 39.3086C53.9938 40.3318 55.6789 42.3852 55.9164 45.4689C66.1912 45.615 75.8797 43.5615 84.9806 39.3086C101.715 35.0239 118.775 32.7751 136.159 32.5615C142.343 33.221 148.45 34.2964 154.482 35.7884C165.479 35.2615 175.799 37.4129 185.441 42.242C186.89 42.9989 188.153 43.9769 189.232 45.1755C194.283 45.4689 199.337 45.5663 204.396 45.4689Z" fill="#FF7A00"/>
<path fill-rule="evenodd" clip-rule="evenodd" d="M20.5346 47.8164C20.5592 48.5533 20.2433 49.14 19.5868 49.5765C19.2172 48.6976 19.5331 48.1109 20.5346 47.8164Z" fill="#FF7A00"/>
<path fill-rule="evenodd" clip-rule="evenodd" d="M36.962 50.1628C36.9646 48.7887 37.4909 47.6153 38.5416 46.6426C38.5467 48.0043 38.0203 49.1777 36.962 50.1628Z" fill="#FF7A00"/>
<path fill-rule="evenodd" clip-rule="evenodd" d="M112.15 43.1221C112.114 43.7727 111.903 44.3594 111.518 44.8822C110.75 44.1318 110.961 43.5451 112.15 43.1221Z" fill="#FF7A00"/>
<path fill-rule="evenodd" clip-rule="evenodd" d="M112.15 43.1227C112.15 42.9274 112.15 42.7314 112.15 42.536C112.881 41.575 113.618 40.5976 114.361 39.6025C114.455 41.1843 113.718 42.3577 112.15 43.1227Z" fill="#FF7A00"/>
<path fill-rule="evenodd" clip-rule="evenodd" d="M110.886 42.5354C109.986 43.4336 109.565 43.2383 109.623 41.9487C112.167 38.662 112.588 38.8574 110.886 42.5354Z" fill="#FF7A00"/>
<path fill-rule="evenodd" clip-rule="evenodd" d="M109.622 41.9494C109.564 43.239 109.985 43.4344 110.885 42.5361C111.307 42.5361 111.728 42.5361 112.149 42.5361C112.149 42.7315 112.149 42.9275 112.149 43.1228C110.96 43.5458 110.75 44.1325 111.517 44.8829C111.517 45.2742 111.728 45.4696 112.149 45.4696C111.933 45.9613 111.512 46.1572 110.885 46.0563C108.742 44.8841 107.374 43.124 106.779 40.776C103.736 43.131 103.42 42.9357 105.831 40.1893C109.22 38.1013 110.484 38.688 109.622 41.9494Z" fill="#FF7A00"/>
<path fill-rule="evenodd" clip-rule="evenodd" d="M36.9622 50.1631C35.9525 53.5612 34.6889 56.8861 33.1712 60.137C33.1529 56.537 34.4166 53.2127 36.9622 50.1631Z" fill="#FF7A00"/>
<path fill-rule="evenodd" clip-rule="evenodd" d="M37.5938 53.6826C37.971 53.8205 38.1814 54.1138 38.2257 54.5627C37.3253 57.4187 36.3776 60.2542 35.3824 63.0698C35.5183 59.8471 36.255 56.7176 37.5938 53.6826Z" fill="#FF7A00"/>
<path fill-rule="evenodd" clip-rule="evenodd" d="M43.9122 58.377C43.5856 60.5606 43.0593 62.7115 42.3327 64.8306C42.0275 62.4651 42.5538 60.3136 43.9122 58.377Z" fill="#FF7A00"/>
<path fill-rule="evenodd" clip-rule="evenodd" d="M145.637 73.6305C142.932 73.0068 140.195 72.4201 137.423 71.8704C136.471 69.6086 136.049 69.8046 136.159 72.4571C134.685 72.4571 133.21 72.4571 131.736 72.4571C131.736 70.1103 131.736 67.7635 131.736 65.4167C129.262 66.0838 126.734 66.5725 124.154 66.8834C124.365 67.0788 124.576 67.2747 124.786 67.4701C123.47 67.7506 122.311 68.2393 121.311 68.9369C120.823 68.8518 120.402 68.6564 120.048 68.3502C118.174 70.7838 115.647 72.1526 112.466 72.4571C109.722 71.7554 106.879 71.2666 103.936 70.9903C104.445 70.3373 104.866 69.6532 105.2 68.9369C108.982 70.0733 112.457 69.4866 115.625 67.1768C115.576 67.9031 115.681 68.4898 115.941 68.9369C118.074 66.955 120.391 65.1949 122.891 63.6566C123.101 63.7546 123.312 63.8519 123.523 63.9499C122.891 64.5366 122.259 65.1233 121.627 65.71C124.139 64.8405 126.667 63.7651 129.209 62.4832C129.419 62.5812 129.63 62.6786 129.841 62.7765C129.209 63.3632 128.577 63.9499 127.945 64.5366C130.173 63.7059 132.49 62.8258 134.896 61.8965C135.651 62.0995 135.651 62.3928 134.896 62.7765C133.738 63.2154 132.685 63.8021 131.736 64.5366C131.947 64.6346 132.158 64.732 132.368 64.83C135.887 62.8399 139.678 61.9598 143.741 62.1898C142.899 62.5812 142.056 62.9719 141.214 63.3632C141.53 63.4612 141.846 63.5586 142.162 63.6566C144.767 63.0276 147.399 62.9302 150.059 63.3632C149.217 63.7546 148.374 64.1453 147.532 64.5366C150.275 64.2227 153.013 64.3207 155.746 64.83C154.482 65.3187 153.219 65.808 151.955 66.2967C153.85 66.4921 155.746 66.688 157.641 66.8834C156.451 67.0101 155.398 67.4015 154.482 68.0568C157.43 68.1542 159.747 69.3276 161.432 71.577C161.011 71.7724 160.59 71.9683 160.169 72.1637C165.22 76.0248 170.801 79.0562 176.912 81.2575C180.618 88.1418 183.988 95.1822 187.021 102.379C188.338 109.083 185.284 112.603 177.86 112.939C177.018 112.744 176.175 112.548 175.333 112.353C178.174 111.742 180.912 110.862 183.546 109.712C184.706 108.626 185.233 107.356 185.126 105.899C182.912 109.126 179.858 110.104 175.964 108.832C178.682 108.643 180.999 107.665 182.915 105.899C182.809 105.703 182.704 105.508 182.599 105.312C180.756 106.423 178.755 106.716 176.596 106.192C178.129 105.52 179.603 104.738 181.019 103.845C179.378 104.093 177.693 104.093 175.964 103.845C177.133 103.204 178.186 102.422 179.124 101.499C177.438 101.499 175.754 101.499 174.069 101.499C174.911 100.912 175.754 100.325 176.596 99.7385C174.652 99.586 172.757 99.8793 170.91 100.619C170.488 100.423 170.068 100.227 169.646 100.032C172.491 99.4141 175.019 98.2407 177.228 96.5117C177.123 96.3163 177.018 96.1204 176.912 95.925C175.035 96.5088 173.14 97.0955 171.226 97.6851C170.573 97.6569 170.363 97.4616 170.594 97.0984C172.297 96.6936 173.666 95.8135 174.701 94.4582C172.444 94.9282 170.128 95.1236 167.751 95.0449C169.336 94.2112 170.811 93.2332 172.173 92.1115C170.882 92.0833 169.618 92.3766 168.382 92.9915C168.844 91.6321 169.898 90.3607 171.542 89.178C170.141 89.581 168.667 90.0697 167.119 90.6447C166.908 90.4493 166.697 90.2534 166.487 90.058C169.984 87.676 169.773 87.2847 165.855 88.8846C165.645 88.6892 165.434 88.4933 165.223 88.2979C167.783 86.2122 167.679 85.8209 164.907 87.1245C163.817 86.451 163.922 85.7663 165.223 85.0711C165.013 84.9731 164.802 84.8757 164.591 84.7777C160.485 87.2794 160.064 86.9861 163.328 83.8977C163.117 83.7997 162.906 83.7023 162.696 83.6043C161.147 84.1793 159.673 84.668 158.273 85.0711C158.063 84.8757 157.852 84.6797 157.641 84.4844C161.006 82.0015 160.901 81.5127 157.325 83.0176C157.01 82.8223 156.694 82.6263 156.378 82.4309C156.891 81.66 157.523 80.9753 158.273 80.3775C157.22 80.5729 156.167 80.7688 155.114 80.9642C155.779 79.9574 155.358 79.3707 153.85 79.2041C154.451 78.7828 154.556 78.2941 154.166 77.7373C153.305 79.0774 152.357 79.1753 151.323 78.0307C151.745 77.6394 152.165 77.2486 152.587 76.8573C151.745 76.8573 150.902 76.8573 150.059 76.8573C151.763 74.6431 151.448 74.3497 149.112 75.9772C148.124 75.6241 148.23 75.1353 149.428 74.5105C148.585 74.5105 147.743 74.5105 146.9 74.5105C147.501 74.0892 147.606 73.6005 147.216 73.0438C146.792 73.485 146.266 73.6809 145.637 73.6305Z" fill="white"/>
<path fill-rule="evenodd" clip-rule="evenodd" d="M42.6481 80.0845C42.7157 81.1869 42.3998 81.3822 41.7003 80.6711C41.5917 76.6546 41.2758 72.7431 40.7526 68.9372C40.5511 67.6171 40.867 66.4437 41.7003 65.417C41.8084 70.4098 42.1243 75.2988 42.6481 80.0845Z" fill="#FF7A00"/>
<path fill-rule="evenodd" clip-rule="evenodd" d="M142.477 69.5234C144.041 69.6684 144.041 70.0591 142.477 70.6968C141.869 70.4211 141.869 70.0298 142.477 69.5234Z" fill="#FF7A00"/>
<path fill-rule="evenodd" clip-rule="evenodd" d="M126.05 80.6714C126.261 80.6714 126.472 80.6714 126.682 80.6714C127.314 80.6714 127.946 80.6714 128.578 80.6714C128.314 81.095 127.893 81.3884 127.314 81.5515C134.137 86.5173 140.349 92.0909 145.953 98.2724C149.381 104.84 153.277 111.098 157.642 117.047C156.832 119.26 155.148 120.532 152.587 120.86C149.23 121.455 146.282 120.673 143.742 118.513C144.872 118.208 145.925 118.404 146.901 119.1C149.007 119.492 151.113 119.492 153.219 119.1C153.64 118.709 154.061 118.318 154.483 117.927C152.597 118.296 150.702 118.198 148.796 117.633C150.138 117.253 151.402 116.763 152.587 116.167C150.194 116.073 147.878 115.682 145.637 114.993C146.74 114.717 147.794 114.326 148.796 113.82C147.111 113.625 145.427 113.429 143.742 113.233C147.852 111.529 147.43 110.747 142.478 110.886C143.11 110.398 143.742 109.908 144.373 109.42C144.057 109.224 143.742 109.028 143.426 108.833C142.02 109.876 140.44 110.169 138.687 109.713C139.855 109.072 140.908 108.29 141.846 107.366C140.194 107.678 138.51 107.874 136.791 107.953C137.96 107.312 139.013 106.53 139.951 105.606C138.923 105.721 137.87 105.721 136.791 105.606C137.634 104.824 138.477 104.041 139.319 103.259C137.771 103.967 136.086 104.358 134.264 104.433C135.432 103.791 136.486 103.009 137.423 102.086C137.213 101.988 137.002 101.891 136.791 101.793C131.755 104.256 131.334 103.767 135.528 100.326C134.418 100.244 133.366 100.537 132.369 101.206C131.833 100.29 132.044 99.41 133 98.5657C131.947 98.7611 130.895 98.9571 129.841 99.1524C130.999 98.2788 131.525 97.2034 131.421 95.9256C127.36 99.3748 126.623 98.9835 129.21 94.7522C129.104 94.5568 128.999 94.3609 128.894 94.1655C128.299 95.0813 127.562 95.864 126.682 96.5123C126.472 96.3169 126.261 96.121 126.05 95.9256C128.744 92.1126 128.429 91.7213 125.103 94.7522C125.226 93.7982 125.226 92.8202 125.103 91.8187C124.003 93.2585 122.634 94.1385 120.996 94.4589C122.696 93.103 123.433 91.4409 123.207 89.4719C122.605 90.6189 121.762 91.5969 120.68 92.4054C120.987 90.67 121.197 88.9099 121.312 87.1251C120.502 88.9456 119.344 90.5098 117.837 91.8187C117.626 91.7207 117.415 91.6233 117.205 91.5254C118.176 90.1683 118.492 88.7016 118.153 87.1251C116.86 88.2258 115.702 89.3992 114.677 90.6453C114.467 90.4499 114.256 90.254 114.046 90.0586C114.708 88.911 115.024 87.7376 114.993 86.5384C113.914 87.7371 112.651 88.7151 111.202 89.4719C110.781 90.0586 110.781 90.6453 111.202 91.232C116.106 94.0458 120.845 97.0773 125.419 100.326C130.881 106.65 136.567 112.81 142.478 118.807C141.742 119.443 140.9 119.932 139.951 120.274C137.423 120.665 134.896 120.665 132.369 120.274C128.55 118.699 124.969 116.841 121.628 114.7C119.928 113.125 118.032 111.756 115.941 110.593C114.348 109.501 112.768 108.328 111.202 107.073C110.781 106.682 110.781 106.291 111.202 105.899C118.097 110.324 125.153 114.528 132.369 118.513C133.632 118.905 134.896 118.905 136.16 118.513C134.706 117.171 133.021 116.193 131.105 115.58C131.526 115.189 131.947 114.798 132.369 114.407C131.105 114.211 129.841 114.015 128.578 113.82C129.318 113.574 129.95 113.183 130.473 112.647C128.999 112.451 127.524 112.255 126.05 112.06C129.362 110.997 129.151 110.411 125.419 110.3C125.84 109.908 126.261 109.518 126.682 109.126C125.001 109.477 123.316 109.38 121.628 108.833C122.517 108.397 123.359 107.908 124.155 107.366C122.474 107.717 120.789 107.62 119.1 107.073C119.432 106.667 119.853 106.374 120.364 106.193C119.052 106.08 117.788 105.787 116.573 105.313C116.946 104.551 117.578 104.062 118.468 103.846C116.994 103.651 115.52 103.455 114.046 103.259C115.032 102.707 115.875 102.023 116.573 101.206C116.188 100.616 115.767 100.714 115.309 101.499C114.256 101.891 113.203 101.891 112.15 101.499C113.306 100.846 113.833 99.9662 113.73 98.8591C112.719 99.7603 111.561 100.054 110.255 99.7391C112.897 97.1107 112.581 96.6214 109.307 98.2724C108.781 98.1744 108.254 98.077 107.727 97.979C110.188 95.742 109.872 95.4486 106.78 97.099C105.792 96.7458 105.898 96.2571 107.096 95.6322C106.885 95.5343 106.674 95.4369 106.464 95.3389C105.307 96.1773 104.043 96.4706 102.673 96.2189C103.625 95.7279 103.941 95.0432 103.62 94.1655C102.836 94.9705 101.888 95.5572 100.777 95.9256C100.777 94.9476 100.777 93.9701 100.777 92.9921C99.935 93.7742 99.0921 94.5568 98.2499 95.3389C98.1166 94.2887 98.1166 93.3113 98.2499 92.4054C96.997 93.2749 95.8388 94.2529 94.7748 95.3389C94.2353 93.6334 94.7616 92.2646 96.3544 91.232C96.2489 91.0366 96.144 90.8407 96.0385 90.6453C94.9852 91.6233 93.9326 92.6008 92.8794 93.5788C92.6866 92.372 92.6866 91.1986 92.8794 90.0586C89.1604 94.9024 88.5286 94.5111 90.9839 88.8852C91.9531 88.1137 92.269 87.3316 91.9316 86.5384C90.3046 88.1923 88.8306 89.9524 87.5088 91.8187C87.2984 91.7207 87.0874 91.6233 86.877 91.5254C87.8582 89.7377 88.3845 87.8796 88.4566 85.9517C86.8669 87.7318 85.6032 89.6878 84.6656 91.8187C84.4906 89.7893 84.7016 87.8333 85.2974 85.9517C84.0893 87.2172 83.0361 88.5866 82.1383 90.0586C82.0327 89.5699 81.9279 89.0806 81.8223 88.5919C82.3758 86.6716 82.9028 84.8141 83.4019 83.0182C81.8053 85.2013 80.5416 87.5481 79.6109 90.0586C79.6621 87.6549 80.1884 85.3081 81.1905 83.0182C80.6503 82.553 80.1234 82.7484 79.6109 83.6049C78.7643 85.1902 77.9221 86.7549 77.0836 88.2985C76.8271 85.6813 77.0381 83.1391 77.7155 80.6714C76.4859 82.7589 75.4327 84.9103 74.5563 87.1251C74.3807 84.9579 74.3807 82.8064 74.5563 80.6714C73.4449 82.4949 72.9186 84.4504 72.9767 86.5384C72.3594 84.9033 72.149 83.1432 72.3449 81.2581C72.4391 80.6409 72.3342 80.0542 72.029 79.498C70.6491 82.4838 69.8069 85.6126 69.5017 88.8852C69.4941 75.7778 68.4415 75.7778 66.3425 88.8852C65.6993 86.9826 65.3834 85.0271 65.3948 83.0182C65.6229 80.8475 65.7278 78.696 65.7107 76.5646C63.9094 80.6961 63.0671 84.9983 63.1834 89.4719C62.8713 88.5133 62.7664 87.5352 62.8675 86.5384C62.9724 83.2083 62.8668 79.8835 62.5516 76.5646C61.8009 77.1882 61.485 77.9709 61.6038 78.9113C61.2178 81.4283 60.7963 83.9704 60.3402 86.5384C59.5049 83.8566 58.9786 81.1185 58.7606 78.3246C57.9632 80.5617 57.5418 82.9085 57.4969 85.365C56.8461 82.8581 56.4247 80.3159 56.2333 77.7379C55.4814 80.0149 55.06 82.3617 54.9696 84.7783C54.3934 82.2585 53.972 79.7163 53.706 77.1513C53.4956 79.8894 53.2845 82.6269 53.0741 85.365C51.8642 82.3817 51.2323 79.2522 51.1786 75.9779C50.4451 78.8621 50.0243 81.7956 49.915 84.7783C49.1732 81.6982 48.7518 78.5687 48.6513 75.3912C47.981 78.0923 47.5602 80.8304 47.3877 83.6049C46.5221 79.9428 46.2061 76.2272 46.4399 72.4577C59.6262 72.1092 72.8946 72.1092 86.2451 72.4577C86.2451 75.1958 86.2451 77.9333 86.2451 80.6714C89.0056 81.3368 91.8488 81.7275 94.7748 81.8448C97.2586 81.819 99.5755 81.4277 101.725 80.6714C102.78 81.961 104.044 82.157 105.516 81.2581C106.838 82.3412 107.681 83.71 108.043 85.365C108.359 85.0717 108.675 84.7783 108.991 84.485C108.226 83.832 108.226 83.1473 108.991 82.4315C114.455 81.9434 119.93 81.6501 125.419 81.5515C125.77 81.3268 125.98 81.0334 126.05 80.6714Z" fill="white"/>
<path fill-rule="evenodd" clip-rule="evenodd" d="M44.544 71.8702C44.3462 73.9483 44.5573 75.9038 45.1758 77.7372C45.2801 79.5079 45.1746 81.268 44.8599 83.0175C44.6495 82.6262 44.4385 82.2354 44.2281 81.8441C44.1188 78.6079 43.8029 75.479 43.2803 72.4569C43.2747 71.3962 43.5906 70.4182 44.2281 69.5234C44.5377 70.282 44.6432 71.0647 44.544 71.8702Z" fill="#FF7A00"/>
<path fill-rule="evenodd" clip-rule="evenodd" d="M123.522 75.9775C125.086 76.1225 125.086 76.5132 123.522 77.1509C122.914 76.8752 122.914 76.4839 123.522 75.9775Z" fill="#FF7A00"/>
<path fill-rule="evenodd" clip-rule="evenodd" d="M17.3749 68.3506C17.174 71.0095 17.3843 73.5523 18.0067 75.9777C18.2083 77.2977 17.8923 78.4711 17.059 79.4979C16.5409 75.6761 16.6464 71.9605 17.3749 68.3506Z" fill="#FF7A00"/>
<path fill-rule="evenodd" clip-rule="evenodd" d="M126.682 80.6706C126.472 80.6706 126.261 80.6706 126.05 80.6706C124.487 79.4632 124.487 78.2898 126.05 77.1504C126.686 77.4074 126.686 77.7981 126.05 78.3238C126.604 78.7644 127.236 79.0577 127.946 79.2038C127.389 79.6192 126.968 80.1085 126.682 80.6706Z" fill="#FF7A00"/>
<path fill-rule="evenodd" clip-rule="evenodd" d="M146.9 75.9775C151.93 79.5722 156.457 83.6791 160.484 88.2982C164.928 96.5531 169.035 104.962 172.805 113.526C171.714 115.805 169.819 117.272 167.118 117.926C165.223 118.318 163.327 118.318 161.432 117.926C164.303 117.512 167.041 116.73 169.646 115.58C170.598 115.089 170.914 114.404 170.593 113.526C169.141 114.718 167.561 115.11 165.855 114.7C166.697 114.113 167.54 113.526 168.382 112.94C168.066 112.744 167.75 112.548 167.434 112.353C165.551 113.378 163.55 113.671 161.432 113.233C168.309 110.564 168.099 109.587 160.8 110.299C161.968 109.658 163.021 108.876 163.959 107.953C162.109 108.22 160.214 108.22 158.273 107.953C159.536 107.171 160.8 106.388 162.064 105.606C160.214 105.873 158.318 105.873 156.377 105.606C157.545 104.965 158.599 104.182 159.536 103.259C157.666 103.447 155.771 103.447 153.85 103.259C158.141 100.808 157.719 100.026 152.586 100.912C154.247 99.9582 155.721 98.7849 157.009 97.392C154.739 97.9535 152.422 98.3442 150.059 98.5654C152.426 97.8614 154.321 96.5906 155.745 94.7519C155.64 94.5565 155.535 94.3606 155.429 94.1652C154.083 95.3644 152.503 95.8531 150.691 95.6319C152.241 94.6111 153.189 93.3397 153.534 91.8184C151.757 93.2804 149.757 94.1605 147.531 94.4585C151.969 90.1645 151.548 89.6758 146.268 92.9918C146.057 92.7964 145.846 92.6005 145.636 92.4051C146.255 91.5362 146.993 90.7535 147.847 90.0583C148.269 89.667 148.269 89.2762 147.847 88.8849C146.373 89.8629 144.899 90.8404 143.425 91.8184C143.846 90.645 144.267 89.4716 144.688 88.2982C143.747 89.373 142.589 89.8618 141.213 89.765C144.724 86.4548 144.514 85.9661 140.581 88.2982C140.371 88.1028 140.16 87.9069 139.95 87.7115C140.792 87.0544 141.108 86.2723 140.897 85.3647C140.061 86.8661 138.903 87.2568 137.422 86.5381C138.67 86.0834 139.197 85.3008 139.002 84.1913C135.896 86.7628 135.054 86.3715 136.474 83.0179C135.394 83.8657 134.235 84.3544 132.999 84.4847C134.667 82.2218 134.245 81.9284 131.736 83.6046C131.551 82.7111 131.551 81.9284 131.736 81.2578C131.633 79.875 131.738 78.5062 132.052 77.1509C133.631 78.6177 135.211 80.0844 136.79 81.5512C139.1 81.6949 141.312 81.7923 143.425 81.8445C144.342 80.4804 145.395 80.4804 146.584 81.8445C146.749 79.75 146.855 77.7945 146.9 75.9775Z" fill="white"/>
<path fill-rule="evenodd" clip-rule="evenodd" d="M28.1165 77.7371C27.285 80.9716 27.285 84.2964 28.1165 87.711C28.7035 87.0134 28.9139 86.2313 28.7483 85.3642C28.9246 82.5909 29.346 79.8533 30.012 77.1504C30.5339 79.78 30.8498 82.5181 30.9597 85.3642C31.6724 84.2817 31.9884 83.1084 31.9075 81.844C32.4433 79.0713 33.1806 76.3337 34.1189 73.6302C34.5321 72.9285 34.848 72.9285 35.0666 73.6302C34.0102 78.667 33.6943 83.752 34.1189 88.8844C34.8575 83.0978 36.1211 77.4268 37.9099 71.8701C37.8574 73.4067 37.7519 74.9714 37.5939 76.5637C36.1338 83.6598 35.6068 90.8962 36.0144 98.2716C36.8332 100.775 38.4128 102.73 40.7531 104.139C38.6782 104.817 36.5716 104.915 34.4348 104.432C30.465 102.518 26.2526 101.638 21.7982 101.792C21.3901 96.7156 21.1797 91.6313 21.1664 86.5376C21.15 77.8521 22.7295 69.443 25.9051 61.3096C25.0578 65.0586 24.3211 68.8721 23.6937 72.7502C23.7992 73.6302 23.9041 74.5103 24.0096 75.3903C24.5625 73.4055 25.1943 71.4501 25.9051 69.5233C26.0106 70.3054 26.1155 71.0881 26.221 71.8701C25.4849 76.3555 25.169 80.8537 25.2733 85.3642C26.1149 81.8487 26.9577 78.3285 27.8006 74.8036C28.1127 75.7623 28.2176 76.7403 28.1165 77.7371Z" fill="#FF7A00"/>
<path fill-rule="evenodd" clip-rule="evenodd" d="M31.907 81.8441C31.9879 83.1084 31.672 84.2818 30.9593 85.3643C30.8493 82.5182 30.5334 79.7801 30.0115 77.1505C29.8927 76.21 30.2087 75.4274 30.9593 74.8037C31.0705 77.2608 31.3864 79.6076 31.907 81.8441Z" fill="#FF7A00"/>
<path fill-rule="evenodd" clip-rule="evenodd" d="M103.304 83.0175C103.771 82.9407 104.192 83.0387 104.568 83.3109C103.957 84.2954 103.115 84.6867 102.04 84.4843C102.597 84.0689 103.018 83.5796 103.304 83.0175Z" fill="#FF7A00"/>
<path fill-rule="evenodd" clip-rule="evenodd" d="M117.205 117.047C117.097 116.271 117.308 115.586 117.837 114.993C119.083 114.703 120.347 114.605 121.628 114.7C124.969 116.841 128.55 118.699 132.369 120.274C134.896 120.665 137.423 120.665 139.951 120.274C140.9 119.932 141.742 119.443 142.478 118.807C136.567 112.81 130.881 106.65 125.419 100.326C120.845 97.0773 116.106 94.0459 111.202 91.2321C110.781 90.6454 110.781 90.0587 111.202 89.472C112.651 88.7151 113.914 87.7371 114.993 86.5385C115.024 87.7377 114.708 88.9111 114.046 90.0587C114.256 90.254 114.467 90.45 114.678 90.6454C115.702 89.3992 116.86 88.2258 118.153 87.1252C118.492 88.7016 118.176 90.1684 117.205 91.5254C117.415 91.6234 117.626 91.7208 117.837 91.8188C119.344 90.5098 120.502 88.9457 121.312 87.1252C121.197 88.9099 120.987 90.67 120.68 92.4055C121.762 91.597 122.605 90.619 123.207 89.472C123.433 91.4409 122.696 93.103 120.996 94.4589C122.634 94.1386 124.003 93.2585 125.103 91.8188C125.226 92.8202 125.226 93.7983 125.103 94.7522C128.429 91.7214 128.745 92.1127 126.05 95.9256C126.261 96.121 126.472 96.317 126.682 96.5123C127.562 95.864 128.299 95.0814 128.894 94.1656C128.999 94.3609 129.104 94.5569 129.21 94.7522C126.623 98.9835 127.36 99.3748 131.421 95.9256C131.525 97.2035 130.999 98.2789 129.841 99.1525C130.895 98.9571 131.947 98.7612 133.001 98.5658C132.044 99.41 131.834 100.29 132.369 101.206C133.366 100.537 134.418 100.244 135.528 100.326C131.334 103.767 131.755 104.256 136.792 101.793C137.002 101.891 137.213 101.988 137.423 102.086C136.486 103.009 135.433 103.792 134.264 104.433C136.086 104.358 137.771 103.968 139.319 103.259C138.477 104.041 137.634 104.824 136.792 105.606C137.87 105.721 138.923 105.721 139.951 105.606C139.013 106.53 137.96 107.312 136.792 107.953C138.51 107.874 140.195 107.678 141.846 107.366C140.909 108.29 139.855 109.072 138.687 109.713C140.44 110.17 142.02 109.876 143.426 108.833C143.742 109.028 144.058 109.224 144.374 109.42C143.742 109.908 143.11 110.398 142.478 110.886C147.43 110.747 147.852 111.529 143.742 113.233C145.427 113.429 147.111 113.625 148.796 113.82C147.794 114.326 146.74 114.717 145.637 114.993C147.878 115.682 150.195 116.073 152.587 116.167C151.402 116.763 150.138 117.253 148.796 117.633C150.702 118.198 152.597 118.296 154.483 117.927C154.061 118.318 153.641 118.709 153.219 119.1C151.113 119.492 149.007 119.492 146.901 119.1C145.925 118.404 144.872 118.208 143.742 118.514C146.282 120.673 149.23 121.455 152.587 120.86C155.148 120.532 156.833 119.26 157.642 117.047C153.277 111.098 149.381 104.841 145.953 98.2724C140.349 92.091 134.137 86.5173 127.314 81.5515C127.893 81.3884 128.314 81.0951 128.578 80.6715C128.968 80.6064 129.284 80.411 129.526 80.0848C128.913 82.5436 129.651 82.935 131.737 81.2582C131.552 81.9288 131.552 82.7114 131.737 83.605C134.247 81.9288 134.668 82.2221 133.001 84.485C134.236 84.3548 135.395 83.8661 136.476 83.0183C135.055 86.3718 135.897 86.7632 139.003 84.1917C139.198 85.3011 138.671 86.0838 137.423 86.5385C138.904 87.2572 140.063 86.8664 140.898 85.3651C141.109 86.2727 140.793 87.0548 139.951 87.7119C140.161 87.9072 140.372 88.1032 140.583 88.2986C144.515 85.9664 144.725 86.4552 141.214 89.7653C142.591 89.8621 143.749 89.3734 144.689 88.2986C144.268 89.472 143.847 90.6454 143.426 91.8188C144.9 90.8407 146.375 89.8633 147.849 88.8853C148.27 89.2766 148.27 89.6673 147.849 90.0587C146.994 90.7539 146.256 91.5366 145.637 92.4055C145.848 92.6008 146.059 92.7968 146.269 92.9922C151.549 89.6761 151.971 90.1649 147.533 94.4589C149.758 94.1609 151.758 93.2808 153.535 91.8188C153.19 93.3401 152.242 94.6114 150.692 95.6323C152.505 95.8535 154.084 95.3648 155.431 94.1656C155.536 94.3609 155.641 94.5569 155.746 94.7522C154.322 96.591 152.427 97.8617 150.06 98.5658C152.423 98.3446 154.74 97.9539 157.01 97.3924C155.722 98.7852 154.248 99.9586 152.587 100.913C157.72 100.026 158.142 100.809 153.851 103.259C155.772 103.447 157.667 103.447 159.537 103.259C158.6 104.183 157.547 104.965 156.378 105.606C158.319 105.874 160.215 105.874 162.065 105.606C160.801 106.388 159.537 107.171 158.274 107.953C160.215 108.22 162.11 108.22 163.96 107.953C163.023 108.876 161.969 109.658 160.801 110.3C168.1 109.587 168.31 110.564 161.433 113.233C163.551 113.672 165.552 113.378 167.435 112.353C167.751 112.549 168.067 112.745 168.383 112.94C167.541 113.527 166.698 114.113 165.856 114.7C167.562 115.11 169.142 114.719 170.594 113.527C170.915 114.404 170.599 115.089 169.647 115.58C167.042 116.73 164.305 117.512 161.433 117.927C163.328 118.318 165.224 118.318 167.119 117.927C169.82 117.272 171.715 115.805 172.806 113.527C169.036 104.963 164.929 96.5534 160.485 88.2986C156.459 83.6795 151.931 79.5726 146.901 75.9779C146.479 75.1958 146.059 74.4132 145.637 73.6311C146.266 73.6816 146.793 73.4856 147.217 73.0444C147.607 73.6012 147.502 74.0899 146.901 74.5112C147.743 74.5112 148.586 74.5112 149.428 74.5112C148.23 75.136 148.125 75.6247 149.112 75.9779C151.448 74.3504 151.764 74.6437 150.06 76.8579C150.902 76.8579 151.745 76.8579 152.587 76.8579C152.166 77.2493 151.745 77.64 151.324 78.0313C152.358 79.176 153.306 79.078 154.167 77.738C154.557 78.2948 154.452 78.7835 153.851 79.2047C155.359 79.3714 155.779 79.9581 155.115 80.9648C156.168 80.7695 157.221 80.5735 158.274 80.3781C157.524 80.976 156.892 81.6607 156.378 82.4316C156.694 82.627 157.01 82.8229 157.326 83.0183C160.902 81.5134 161.006 82.0021 157.642 84.485C157.852 84.6804 158.063 84.8764 158.274 85.0717C159.674 84.6687 161.148 84.1799 162.697 83.605C162.907 83.703 163.118 83.8004 163.328 83.8983C160.064 86.9867 160.486 87.2801 164.592 84.7784C164.802 84.8764 165.013 84.9737 165.224 85.0717C163.923 85.767 163.817 86.4516 164.908 87.1252C167.679 85.8215 167.784 86.2129 165.224 88.2986C165.434 88.4939 165.645 88.6899 165.856 88.8853C169.774 87.2853 169.984 87.6767 166.488 90.0587C166.698 90.254 166.909 90.45 167.119 90.6454C168.668 90.0704 170.142 89.5817 171.542 89.1786C169.898 90.3614 168.845 91.6328 168.383 92.9922C169.619 92.3773 170.883 92.0839 172.174 92.1121C170.811 93.2339 169.336 94.2119 167.751 95.0456C170.129 95.1242 172.445 94.9288 174.701 94.4589C173.667 95.8142 172.298 96.6942 170.594 97.099C170.363 97.4622 170.574 97.6576 171.226 97.6857C173.14 97.0961 175.036 96.5094 176.913 95.9256C177.018 96.121 177.123 96.317 177.229 96.5123C175.019 98.2413 172.492 99.4147 169.647 100.033C170.068 100.228 170.489 100.424 170.91 100.619C172.757 99.88 174.653 99.5866 176.597 99.7392C175.755 100.326 174.912 100.913 174.069 101.499C175.755 101.499 177.439 101.499 179.124 101.499C178.186 102.423 177.133 103.205 175.965 103.846C177.694 104.094 179.378 104.094 181.02 103.846C179.604 104.739 178.13 105.521 176.597 106.193C178.755 106.717 180.756 106.423 182.599 105.313C182.705 105.508 182.81 105.704 182.915 105.9C180.999 107.666 178.682 108.644 175.965 108.833C179.859 110.105 182.913 109.127 185.126 105.9C185.234 107.356 184.707 108.627 183.547 109.713C180.913 110.862 178.174 111.742 175.333 112.353C176.175 112.549 177.018 112.745 177.86 112.94C185.284 112.604 188.338 109.084 187.022 102.379C183.989 95.1829 180.619 88.1425 176.913 81.2582C170.802 79.0569 165.221 76.0254 160.169 72.1644C160.591 71.969 161.011 71.773 161.433 71.5777C159.748 69.3283 157.431 68.1549 154.483 68.0575C155.398 67.4021 156.452 67.0108 157.642 66.8841C155.746 66.6887 153.851 66.4927 151.955 66.2974C153.219 65.8087 154.483 65.3194 155.746 64.8306C153.014 64.3214 150.275 64.2234 147.533 64.5373C148.375 64.146 149.218 63.7552 150.06 63.3639C147.4 62.9309 144.768 63.0283 142.162 63.6572C141.846 63.5593 141.53 63.4619 141.214 63.3639C142.057 62.9726 142.899 62.5818 143.742 62.1905C139.678 61.9605 135.887 62.8405 132.369 64.8306C132.158 64.7327 131.947 64.6353 131.737 64.5373C132.685 63.8027 133.739 63.216 134.896 62.7772C135.652 62.3935 135.652 62.1001 134.896 61.8971C132.49 62.8265 130.174 63.7065 127.946 64.5373C128.578 63.9506 129.21 63.3639 129.841 62.7772C129.631 62.6792 129.42 62.5818 129.21 62.4838C126.667 63.7658 124.14 64.8412 121.628 65.7107C122.26 65.124 122.891 64.5373 123.523 63.9506C123.313 63.8526 123.102 63.7552 122.891 63.6572C120.391 65.1956 118.074 66.9557 115.941 68.9375C115.682 68.4905 115.577 67.9038 115.625 67.1774C112.457 69.4873 108.982 70.074 105.2 68.9375C100.693 67.7829 98.0611 65.0448 97.3023 60.7237C96.2585 57.5873 97.2062 55.1425 100.145 53.39C104.374 51.705 107.955 49.2602 110.887 46.0563C111.513 46.1572 111.934 45.9612 112.15 45.4696C114.108 42.4135 116.214 39.48 118.469 36.6691C117.892 37.5996 117.892 38.4797 118.469 39.3093C117.11 40.0086 116.689 40.8886 117.205 41.9494C115.649 43.6884 113.964 45.3505 112.15 46.9363C120.48 47.7577 121.954 51.1805 116.573 57.2036C116.363 56.8122 116.152 56.4215 115.941 56.0302C114.583 57.5855 113.109 59.0522 111.518 60.4304C109.623 60.8217 107.727 60.8217 105.832 60.4304C103.754 58.9766 101.437 57.9991 98.8818 57.4969C99.9351 57.3015 100.988 57.1056 102.041 56.9102C100.777 56.5189 99.5137 56.5189 98.25 56.9102C97.5841 57.7245 97.4792 58.6046 97.9341 59.5503C101.533 66.078 107.114 68.1314 114.678 65.7107C120.691 62.3859 126.799 59.159 133.001 56.0302C133.505 55.762 133.715 55.3707 133.632 54.8568C134.054 55.2481 134.475 55.6388 134.896 56.0302C143.062 58.0326 151.276 60.1834 159.537 62.4838C161.254 62.2773 162.518 61.4953 163.328 60.137C164.039 60.6346 164.039 61.2213 163.328 61.8971C162.723 62.1629 162.196 62.5537 161.749 63.0705C161.43 65.4255 162.062 67.577 163.644 69.5242C170.522 76.9688 179.262 80.8804 189.865 81.2582C193.024 81.6495 196.184 82.0403 199.343 82.4316C197.169 82.3148 195.063 82.6082 193.024 83.3116C195.341 83.507 197.658 83.703 199.974 83.8983C197.4 84.3219 195.294 84.8106 193.656 85.3651C195.762 85.7564 197.869 86.1471 199.974 86.5385C198.832 86.5332 197.779 86.8265 196.815 87.4185C198.921 87.6139 201.028 87.8098 203.134 88.0052C200.115 89.1669 196.956 89.7536 193.656 89.7653C197 90.7416 200.37 90.9369 203.765 90.352C203.056 90.9645 202.214 91.3553 201.238 91.5254C198.711 91.7208 196.184 91.9167 193.656 92.1121C200.192 93.6651 200.192 94.2518 193.656 93.8722C192.175 93.2691 190.701 92.8783 189.233 92.6988C191.725 94.3439 194.463 95.5173 197.447 96.219C195.552 96.6103 193.656 96.6103 191.761 96.219C190.453 95.1195 188.979 94.5328 187.338 94.4589C189.235 95.9274 191.341 97.1008 193.656 97.9791C191.511 98.0917 189.51 97.603 187.654 96.5123C187.551 97.6194 188.078 98.4995 189.233 99.1525C188.391 99.1525 187.548 99.1525 186.706 99.1525C188.18 100.521 189.655 101.891 191.129 103.259C192.182 103.357 193.235 103.455 194.288 103.553C205.3 101.933 212.039 96.0659 214.507 85.9518C215.835 83.1374 216.993 80.2039 217.982 77.1513C217.733 79.8689 217.733 82.607 217.982 85.3651C218.715 81.866 219.241 78.3458 219.561 74.8045C220.083 77.4341 220.399 80.1722 220.509 83.0183C221.146 82.1236 221.462 81.1455 221.457 80.0848C221.352 76.9495 221.457 73.8206 221.773 70.6976C222.5 74.3762 222.921 78.0918 223.036 81.8449C224.588 73.1201 223.956 64.5156 221.141 56.0302C219.389 53.0356 217.388 50.2001 215.138 47.523C213.337 46.7668 211.442 46.4734 209.452 46.643C207.87 46.132 206.185 45.7412 204.397 45.4696C207.831 44.7603 210.78 43.0982 213.243 40.4826C215.172 39.1954 217.279 38.2174 219.561 37.5492C226.612 37.3731 233.562 36.7864 240.412 35.7891C242.842 36.7683 244.842 38.235 246.414 40.1893C255.061 56.2994 258.01 73.3137 255.26 91.2321C254.923 95.7004 253.869 100.003 252.1 104.139C250.895 104.978 249.526 105.369 247.993 105.313C244.908 104.45 241.748 103.864 238.516 103.553C235.462 103.813 232.513 104.497 229.67 105.606C222.003 106.415 217.79 103.188 217.034 95.9256C215.413 95.8341 213.833 96.0301 212.295 96.5123C205.869 102.282 198.181 105.607 189.233 106.486C188.609 110.272 186.292 112.716 182.283 113.82C179.569 114.386 176.831 114.874 174.069 115.287C169.966 119.946 164.912 121.119 158.906 118.807C154.338 123.353 149.283 123.939 143.742 120.567C137.923 123.753 132.236 123.46 126.682 119.687C124.772 118.799 123.087 117.626 121.628 116.167C120.097 116.088 118.623 116.381 117.205 117.047Z" fill="#FF7A00"/>
<path fill-rule="evenodd" clip-rule="evenodd" d="M241.043 70.6976C240.933 69.3124 240.722 67.9436 240.411 66.5907C242.074 69.5002 243.233 72.629 243.886 75.9779C244.323 72.5973 244.007 69.2725 242.938 66.004C242.951 65.2847 243.161 64.698 243.57 64.2439C243.896 66.2381 244.423 68.1936 245.15 70.1109C245.462 69.1522 245.567 68.1742 245.466 67.1774C245.366 66.3719 245.472 65.5892 245.781 64.8306C246.127 66.7092 246.759 68.4693 247.677 70.1109C247.816 65.8656 247.29 61.7587 246.097 57.7902C246.097 57.5949 246.097 57.3989 246.097 57.2035C246.237 55.6799 246.553 55.6799 247.045 57.2035C247.789 60.9426 248.631 64.6581 249.572 68.3508C249.552 62.468 248.604 56.699 246.729 51.0432C247.01 50.0095 247.326 50.1074 247.677 51.3366C251.659 63.3744 253.133 75.6951 252.1 88.2986C251.721 92.4917 250.983 96.5986 249.888 100.619C247.589 101.182 245.273 101.182 242.938 100.619C243.044 93.3805 242.938 86.1448 242.622 78.9114C242.482 76.0295 241.956 73.2914 241.043 70.6976Z" fill="#FF7A00"/>
<path fill-rule="evenodd" clip-rule="evenodd" d="M189.865 81.2581C193.661 81.1607 197.452 81.2587 201.238 81.5515C200.767 82.161 200.136 82.4544 199.342 82.4315C196.183 82.0402 193.024 81.6494 189.865 81.2581Z" fill="#FF7A00"/>
<path fill-rule="evenodd" clip-rule="evenodd" d="M202.501 78.3245C201.15 78.7106 199.886 79.2973 198.71 80.0846C198.5 79.6933 198.289 79.3026 198.078 78.9112C196.484 78.1837 194.799 77.4991 193.024 76.8578C193.34 76.7598 193.656 76.6624 193.972 76.5645C196.722 77.5701 199.565 78.1568 202.501 78.3245Z" fill="#FF7A00"/>
<path fill-rule="evenodd" clip-rule="evenodd" d="M189.233 77.1504C189.654 77.1504 190.075 77.1504 190.496 77.1504C192.911 78.102 195.439 78.6887 198.078 78.9105C198.289 79.3018 198.5 79.6926 198.71 80.0839C195.202 79.9085 192.043 78.9304 189.233 77.1504Z" fill="#FF7A00"/>
<path fill-rule="evenodd" clip-rule="evenodd" d="M181.651 75.3904C182.314 76.5837 183.366 77.3658 184.81 77.7371C185.419 77.4614 185.419 77.0701 184.81 76.5637C186.29 76.4024 186.29 75.9137 184.81 75.097C185.021 74.999 185.232 74.9016 185.442 74.8037C187.016 75.9254 188.701 76.7081 190.497 77.1504C190.076 77.1504 189.655 77.1504 189.233 77.1504C188.569 77.063 187.937 77.1604 187.338 77.4438C188.371 78.4693 189.635 79.154 191.129 79.4972C189.554 79.9056 187.975 79.7102 186.39 78.9105C185.35 79.8733 184.718 79.6774 184.495 78.3238C183.321 78.7152 182.374 78.3238 181.651 77.1504C181.23 76.5637 180.809 75.977 180.388 75.3904C180.033 73.8139 180.455 73.8139 181.651 75.3904Z" fill="#FF7A00"/>
<path fill-rule="evenodd" clip-rule="evenodd" d="M181.651 75.3906C182.704 75.782 183.757 76.1727 184.81 76.564C185.418 77.0703 185.418 77.4617 184.81 77.7374C183.366 77.366 182.313 76.584 181.651 75.3906Z" fill="#FF7A00"/>
<path fill-rule="evenodd" clip-rule="evenodd" d="M221.456 80.0843C221.462 81.1451 221.146 82.1231 220.508 83.0178C220.398 80.1717 220.082 77.4336 219.561 74.804C219.466 74.1868 219.571 73.6001 219.877 73.0439C220.087 73.2393 220.298 73.4353 220.508 73.6306C220.62 75.893 220.936 78.0444 221.456 80.0843Z" fill="#FF7A00"/>
<path fill-rule="evenodd" clip-rule="evenodd" d="M177.228 73.0439C177.914 74.2683 178.966 75.0504 180.387 75.3907C180.809 75.9774 181.229 76.5641 181.651 77.1508C179.347 76.4661 177.451 75.1947 175.964 73.3372C176.34 73.065 176.761 72.967 177.228 73.0439Z" fill="#FF7A00"/>
<path fill-rule="evenodd" clip-rule="evenodd" d="M172.173 71.8701C174.567 73.8643 177.094 75.7224 179.755 77.4438C177.833 77.2519 176.148 76.4698 174.701 75.097C173.46 74.2457 172.618 73.1702 172.173 71.8701Z" fill="#FF7A00"/>
<path fill-rule="evenodd" clip-rule="evenodd" d="M243.57 64.2435C243.161 64.6976 242.951 65.2843 242.938 66.0036C244.007 69.2721 244.323 72.5969 243.886 75.9775C243.233 72.6286 242.074 69.4997 240.411 66.5903C239.772 65.4744 239.667 64.301 240.095 63.0701C240.516 63.8522 240.937 64.6348 241.359 65.4169C241.99 64.4389 242.622 63.4614 243.254 62.4834C243.559 63.0396 243.664 63.6263 243.57 64.2435Z" fill="#FF7A00"/>
<path fill-rule="evenodd" clip-rule="evenodd" d="M167.751 71.2838C168.001 70.6824 168.422 70.5845 169.014 70.9905C170.488 72.3592 171.963 73.7286 173.437 75.0973C173.016 75.4887 172.595 75.4887 172.173 75.0973C170.781 73.7057 169.307 72.4343 167.751 71.2838Z" fill="#FF7A00"/>
<path fill-rule="evenodd" clip-rule="evenodd" d="M101.409 61.8965C102.029 62.2726 102.661 62.6633 103.304 63.0699C105.471 62.4515 107.577 62.6475 109.622 63.6566C110.044 63.5586 110.465 63.4612 110.886 63.3632C110.13 62.9795 110.13 62.6862 110.886 62.4832C112.993 62.6786 115.098 62.8745 117.204 63.0699C116.847 63.534 116.32 63.534 115.625 63.0699C115.028 63.3075 114.606 63.6988 114.361 64.2433C113.05 63.4248 111.892 63.6202 110.886 64.83C108.991 64.0479 107.095 64.0479 105.2 64.83C103.351 64.3812 102.087 63.4031 101.409 61.8965Z" fill="#FF7A00"/>
<path fill-rule="evenodd" clip-rule="evenodd" d="M246.097 57.79C247.29 61.7585 247.816 65.8654 247.677 70.1107C246.759 68.4691 246.127 66.709 245.781 64.8304C245.472 65.589 245.366 66.3717 245.466 67.1772C244.985 65.017 244.563 62.7682 244.202 60.4302C244.412 60.1368 244.623 59.8435 244.834 59.5501C245.308 60.0641 245.624 60.6508 245.781 61.3102C246.094 60.1527 246.2 58.9793 246.097 57.79Z" fill="#FF7A00"/>
<path fill-rule="evenodd" clip-rule="evenodd" d="M163.328 61.8967C164.039 61.2208 164.039 60.6341 163.328 60.1366C164.187 57.8655 164.714 58.0609 164.907 60.7233C165.872 59.7136 166.504 58.5402 166.803 57.2031C167.39 59.1686 166.864 60.8307 165.223 62.1901C164.543 62.4658 163.911 62.3678 163.328 61.8967Z" fill="#FF7A00"/>
<path fill-rule="evenodd" clip-rule="evenodd" d="M232.829 38.4285C233.494 38.341 234.126 38.4384 234.724 38.7218C235.683 39.7104 236.736 40.5904 237.884 41.3619C238.254 41.2393 238.57 41.0434 238.831 40.7753C239.686 41.4705 240.424 42.2531 241.043 43.122C241.253 43.0241 241.464 42.9267 241.675 42.8287C240.88 41.8073 240.248 40.7318 239.779 39.6019C241.304 40.4297 242.358 41.6031 242.938 43.122C241.196 44.0303 239.616 43.8349 238.2 42.5353C236.264 43.7152 236.158 44.4973 237.884 44.8821C237.041 46.0555 237.041 47.2289 237.884 48.4023C239.518 48.9773 241.203 49.1727 242.938 48.989C242.938 50.5538 242.938 52.1179 242.938 53.6826C243.57 53.6826 244.202 53.6826 244.834 53.6826C244.894 55.0238 245.315 56.1972 246.097 57.2028C246.097 57.3982 246.097 57.5941 246.097 57.7895C246.2 58.9787 246.094 60.1521 245.781 61.3097C245.624 60.6502 245.308 60.0635 244.834 59.5496C244.623 59.8429 244.412 60.1363 244.202 60.4296C244.563 62.7676 244.985 65.0165 245.466 67.1767C245.567 68.1735 245.462 69.1515 245.15 70.1102C244.423 68.1928 243.896 66.2374 243.57 64.2432C243.664 63.626 243.559 63.0393 243.254 62.4831C242.622 63.4611 241.991 64.4386 241.359 65.4166C240.937 64.6345 240.516 63.8519 240.095 63.0698C239.667 64.3007 239.772 65.4741 240.411 66.59C240.722 67.9429 240.933 69.3117 241.043 70.6969C240.82 73.9836 240.82 77.2104 241.043 80.3774C240.699 80.7981 240.278 81.0914 239.779 81.2574C239.82 81.0005 239.715 80.8045 239.463 80.6707C239.253 81.0621 239.042 81.4528 238.831 81.8441C238.766 80.1902 238.45 79.0168 237.884 78.3239C237.462 80.2794 237.041 82.2355 236.62 84.1909C235.286 70.1982 234.548 70.1982 234.409 84.1909C233.569 79.5032 232.727 74.8096 231.881 70.1102C231.567 71.8597 231.461 73.6198 231.565 75.3905C231.745 76.514 231.534 77.4914 230.934 78.3239C230.803 74.3461 230.277 70.4352 229.354 66.59C229.039 70.1049 228.933 73.6251 229.038 77.1506C228.571 79.2304 227.729 81.1859 226.511 83.0175C226.078 73.4561 224.498 64.0689 221.772 54.856C220.395 50.3337 217.762 46.6182 213.874 43.7087C213.222 44.6123 212.38 44.9056 211.347 44.5888C215.747 39.7063 221.222 38.1416 227.774 39.8952C231.165 42.5741 232.955 45.9963 233.145 50.1624C233.662 45.9376 232.293 42.32 229.038 39.3085C230.204 38.6467 231.467 38.3534 232.829 38.4285Z" fill="white"/>
<path fill-rule="evenodd" clip-rule="evenodd" d="M169.014 56.0293C169.813 57.3623 169.708 58.731 168.698 60.1362C168.687 58.7885 168.792 57.4192 169.014 56.0293Z" fill="#FF7A00"/>
<path fill-rule="evenodd" clip-rule="evenodd" d="M227.774 53.0967C228.85 54.476 229.166 56.0407 228.722 57.7903C228.203 56.2549 227.887 54.6902 227.774 53.0967Z" fill="#FF7A00"/>
<path fill-rule="evenodd" clip-rule="evenodd" d="M134.895 56.0296C134.474 55.6383 134.053 55.2476 133.632 54.8562C134.743 52.9876 135.69 51.0321 136.475 48.9893C136.791 49.576 137.107 50.1627 137.423 50.7494C136.454 52.4748 135.612 54.2349 134.895 56.0296Z" fill="#FF7A00"/>
<path fill-rule="evenodd" clip-rule="evenodd" d="M111.518 47.8161C117.173 46.9413 118.963 48.8968 116.888 53.683C114.772 55.4842 112.771 57.3417 110.886 59.2567C109.833 59.648 108.78 59.648 107.727 59.2567C105.271 57.4315 102.533 56.0627 99.5131 55.1498C103.772 52.9831 107.774 50.5383 111.518 47.8161Z" fill="white"/>
<path fill-rule="evenodd" clip-rule="evenodd" d="M112.781 49.5764C113.656 48.8131 114.604 48.8131 115.625 49.5764C116.046 50.7498 116.046 51.9232 115.625 53.0966C113.643 55.7267 111.01 56.9981 107.727 56.9101C108.569 56.7147 109.412 56.5188 110.254 56.3234C111.412 54.8567 112.571 53.3899 113.729 51.9232C114.218 50.8366 113.902 50.0539 112.781 49.5764Z" fill="#FF7A00"/>
<path fill-rule="evenodd" clip-rule="evenodd" d="M184.178 44.2959C186.767 45.6153 189.295 47.0821 191.76 48.6961C193.93 49.0235 196.036 49.5122 198.078 50.1628C198.545 50.2397 198.967 50.1417 199.342 49.8695C198.586 49.4858 198.586 49.1924 199.342 48.9894C200.395 49.4782 201.448 49.9675 202.501 50.4562C200.167 51.8537 197.85 52.7337 195.551 53.0963C194.25 51.2066 192.46 49.8372 190.181 48.9894C190.466 50.1746 190.992 51.348 191.76 52.5096C190.147 53.1849 189.305 52.5982 189.233 50.7495C188.601 48.9894 187.337 47.816 185.442 47.2293C184.178 46.5687 182.915 46.4707 181.651 46.936C181.996 46.3933 182.417 45.9046 182.915 45.4693C183.615 46.1088 184.247 46.1088 184.81 45.4693C184.257 45.0286 183.625 44.7353 182.915 44.5892C183.29 44.317 183.711 44.219 184.178 44.2959Z" fill="white"/>
<path fill-rule="evenodd" clip-rule="evenodd" d="M227.143 46.056C226.141 45.7615 225.825 45.1748 226.195 44.2959C226.851 44.7324 227.167 45.3191 227.143 46.056Z" fill="#FF7A00"/>
<path fill-rule="evenodd" clip-rule="evenodd" d="M227.143 46.0559C228.024 46.9676 228.445 46.7723 228.406 45.4692C228.128 43.8769 227.285 42.6061 225.879 41.6557C226.089 41.5577 226.3 41.4603 226.511 41.3623C230.005 44.1374 231.585 47.6576 231.249 51.9229C230.858 50.4374 230.227 49.0686 229.354 47.816C229.248 48.1093 229.144 48.4027 229.038 48.696C230.077 50.6668 230.393 52.7202 229.986 54.8564C229.315 51.8308 228.367 48.8973 227.143 46.0559Z" fill="#FF7A00"/>
<path fill-rule="evenodd" clip-rule="evenodd" d="M131.736 40.1885C133.069 40.5123 133.595 41.295 133.316 42.5353C132.624 41.8353 132.098 41.0527 131.736 40.1885Z" fill="#FF7A00"/>
<path fill-rule="evenodd" clip-rule="evenodd" d="M160.169 38.4284C164.819 38.4624 169.453 38.7558 174.069 39.3084C177.94 40.2237 181.309 41.8858 184.178 44.2954C183.711 44.2185 183.29 44.3165 182.915 44.5887C183.625 44.7348 184.257 45.0282 184.81 45.4688C184.247 46.1083 183.615 46.1083 182.915 45.4688C182.417 45.9041 181.996 46.3928 181.651 46.9355C182.915 46.4703 184.178 46.5682 185.442 47.2289C186.495 48.5976 187.759 49.771 189.233 50.749C189.305 52.5977 190.147 53.1844 191.76 52.5091C192.624 54.0533 193.151 53.8574 193.34 51.9224C193.866 52.5091 194.393 53.0958 194.919 53.6825C195.303 53.6098 195.513 53.4144 195.551 53.0958C197.85 52.7333 200.167 51.8532 202.501 50.4557C201.448 49.967 200.395 49.4777 199.342 48.989C198.586 49.192 198.586 49.4853 199.342 49.869C198.967 50.1412 198.545 50.2392 198.078 50.1624C196.351 49.023 194.456 48.1429 192.392 47.5222C198.091 47.3351 203.778 47.0417 209.451 46.6422C211.441 46.4726 213.336 46.766 215.138 47.5222C217.387 50.1993 219.388 53.0348 221.14 56.0293C223.956 64.5148 224.587 73.1193 223.036 81.8441C222.921 78.091 222.5 74.3754 221.772 70.6968C221.457 73.8198 221.351 76.9487 221.456 80.084C220.936 78.044 220.62 75.8926 220.508 73.6303C220.298 73.4349 220.087 73.239 219.877 73.0436C219.571 73.5998 219.466 74.1865 219.561 74.8037C219.241 78.345 218.715 81.8652 217.981 85.3643C217.733 82.6062 217.733 79.8681 217.981 77.1505C216.993 80.2031 215.834 83.1366 214.506 85.951C213.982 85.4628 213.456 85.6582 212.926 86.5376C212.423 84.0412 212.529 81.5971 213.242 79.2039C212.719 78.6671 212.087 78.2763 211.347 78.0305C211.768 77.4438 212.189 76.8571 212.61 76.2704C209.509 75.8421 206.982 76.1355 205.029 77.1505C203.169 77.0642 201.379 76.6735 199.658 75.9771C199.342 76.0751 199.026 76.1724 198.71 76.2704C200.069 77.0983 201.543 77.5876 203.133 77.7372C203.133 78.1285 202.923 78.3239 202.501 78.3239C199.565 78.1561 196.722 77.5694 193.972 76.5638C193.656 76.6618 193.34 76.7591 193.024 76.8571C194.799 77.4984 196.484 78.1831 198.078 78.9106C195.439 78.6888 192.911 78.1021 190.496 77.1505C188.701 76.7081 187.016 75.9254 185.442 74.8037C185.231 74.9017 185.02 74.9991 184.81 75.097C186.29 75.9137 186.29 76.4024 184.81 76.5638C183.757 76.1724 182.704 75.7817 181.651 75.3904C180.454 73.8139 180.033 73.8139 180.387 75.3904C178.966 75.0501 177.914 74.268 177.228 73.0436C177.228 68.1546 177.228 63.2651 177.228 58.3761C175.53 58.4723 173.845 58.3744 172.173 58.0828C171.365 56.8319 171.365 55.5611 172.173 54.2692C163.759 53.6831 155.335 53.4872 146.9 53.6825C146.9 50.5537 146.9 47.4242 146.9 44.2954C150.27 44.2954 153.64 44.2954 157.01 44.2954C156.905 42.5247 157.011 40.7646 157.325 39.0151C158.182 38.4988 159.13 38.3028 160.169 38.4284Z" fill="white"/>
<path fill-rule="evenodd" clip-rule="evenodd" d="M205.028 77.1509C206.588 77.6303 208.273 77.9236 210.083 78.031C207.732 78.4288 205.415 78.3308 203.133 77.7376C201.543 77.588 200.069 77.0987 198.71 76.2709C199.026 76.1729 199.342 76.0755 199.658 75.9775C201.379 76.674 203.169 77.0647 205.028 77.1509Z" fill="#FF7A00"/>
<path fill-rule="evenodd" clip-rule="evenodd" d="M206.924 51.9228C208.038 51.4335 209.091 51.7268 210.083 52.8028C208.957 52.8744 207.905 52.5811 206.924 51.9228Z" fill="#FF7A00"/>
<path fill-rule="evenodd" clip-rule="evenodd" d="M195.551 53.0961C195.513 53.4147 195.303 53.6101 194.919 53.6828C194.393 53.0961 193.866 52.5094 193.34 51.9227C193.151 53.8577 192.624 54.0536 191.76 52.5094C190.992 51.3478 190.465 50.1744 190.181 48.9893C192.46 49.837 194.25 51.2064 195.551 53.0961Z" fill="#FF7A00"/>
<path fill-rule="evenodd" clip-rule="evenodd" d="M185.442 47.2295C187.337 47.8162 188.601 48.9896 189.233 50.7497C187.759 49.7717 186.495 48.5983 185.442 47.2295Z" fill="#FF7A00"/>
<path fill-rule="evenodd" clip-rule="evenodd" d="M131.736 40.1891C130.594 39.3637 129.33 38.679 127.945 38.1357C127.344 37.7144 127.239 37.2257 127.629 36.6689C128.419 37.2985 129.262 37.2985 130.156 36.6689C131.098 37.1483 132.045 37.637 133 38.1357C133.952 38.6268 134.268 39.3114 133.947 40.1891C132.14 37.9444 131.403 37.9444 131.736 40.1891Z" fill="#FF7A00"/>
<path fill-rule="evenodd" clip-rule="evenodd" d="M106.463 83.6045C106.806 83.6397 107.016 83.8351 107.094 84.1912C104.181 87.1939 103.971 86.9985 106.463 83.6045Z" fill="#FF7A00"/>
<path fill-rule="evenodd" clip-rule="evenodd" d="M193.656 85.3645C196.612 85.2672 199.56 85.3651 202.501 85.6579C201.714 86.122 200.872 86.4153 199.974 86.5379C197.868 86.1466 195.761 85.7559 193.656 85.3645Z" fill="#FF7A00"/>
<path fill-rule="evenodd" clip-rule="evenodd" d="M40.7532 68.9375C41.2764 72.7434 41.5923 76.6549 41.701 80.6715C42.4004 81.3825 42.7163 81.1872 42.6487 80.0848C42.5185 77.5045 42.7289 74.9617 43.2805 72.4577C43.8031 75.4798 44.119 78.6086 44.2283 81.8449C44.4387 82.2362 44.6497 82.6269 44.8601 83.0183C45.1748 81.2687 45.2803 79.5086 45.176 77.738C45.1255 75.813 45.5469 74.0529 46.4397 72.4577C46.2059 76.2272 46.5218 79.9428 47.3874 83.605C47.5599 80.8305 47.9807 78.0923 48.6511 75.3912C48.7515 78.5687 49.173 81.6982 49.9147 84.7784C50.024 81.7956 50.4448 78.8621 51.1784 75.9779C51.2321 79.2522 51.8639 82.3817 53.0739 85.3651C53.2843 82.6269 53.4953 79.8894 53.7057 77.1513C53.9717 79.7163 54.3931 82.2585 54.9694 84.7784C55.0597 82.3617 55.4811 80.015 56.233 77.738C56.4245 80.3159 56.8459 82.8581 57.4967 85.3651C57.5415 82.9085 57.963 80.5618 58.7603 78.3247C58.9783 81.1185 59.5046 83.8567 60.3399 86.5385C60.7961 83.9705 61.2175 81.4283 61.6036 78.9114C62.025 81.4535 62.4458 83.9963 62.8672 86.5385C62.7661 87.5353 62.871 88.5133 63.1831 89.4719C63.0669 84.9984 63.9091 80.6961 65.7105 76.5646C65.7275 78.6961 65.6226 80.8475 65.3945 83.0183C65.3832 85.0271 65.6991 86.9826 66.3423 88.8852C68.4412 75.7778 69.4938 75.7778 69.5014 88.8852C69.8066 85.6126 70.6488 82.4838 72.0287 79.4981C72.3339 80.0543 72.4388 80.641 72.3447 81.2582C71.5163 83.7123 71.5163 86.2545 72.3447 88.8852C72.9316 88.1877 73.142 87.4056 72.9765 86.5385C72.9184 84.4504 73.4447 82.4949 74.5561 80.6715C74.3804 82.8065 74.3804 84.9579 74.5561 87.1251C75.4324 84.9104 76.4857 82.7589 77.7152 80.6715C77.0379 83.1391 76.8269 85.6813 77.0834 88.2985C77.9218 86.7549 78.764 85.1902 79.6107 83.605C80.1231 82.7484 80.6501 82.553 81.1903 83.0183C80.1882 85.3081 79.6619 87.6549 79.6107 90.0586C80.5414 87.5482 81.805 85.2014 83.4017 83.0183C82.9025 84.8141 82.3756 86.6716 81.8221 88.5919C81.9276 89.0806 82.0325 89.5699 82.138 90.0586C83.0358 88.5866 84.0891 87.2173 85.2972 85.9518C84.7013 87.8333 84.4903 89.7893 84.6653 91.8187C85.603 89.6878 86.8666 87.7318 88.4563 85.9518C88.3843 87.8796 87.858 89.7377 86.8767 91.5254C87.0871 91.6234 87.2982 91.7208 87.5086 91.8187C88.8303 89.9524 90.3044 88.1924 91.9314 86.5385C92.2688 87.3317 91.9528 88.1137 90.9836 88.8852C88.5283 94.5111 89.1602 94.9024 92.8791 90.0586C92.6864 91.1986 92.6864 92.372 92.8791 93.5788C93.9324 92.6008 94.985 91.6234 96.0382 90.6453C96.1438 90.8407 96.2486 91.0367 96.3542 91.232C94.7613 92.2646 94.235 93.6334 94.7746 95.3389C95.8386 94.2529 96.9967 93.2749 98.2496 92.4054C98.1163 93.3113 98.1163 94.2887 98.2496 95.3389C99.0919 94.5569 99.9347 93.7742 100.777 92.9921C100.777 93.9702 100.777 94.9476 100.777 95.9256C101.888 95.5572 102.835 94.9705 103.62 94.1655C103.941 95.0432 103.625 95.7279 102.672 96.219C104.043 96.4707 105.307 96.1773 106.463 95.3389C106.674 95.4369 106.885 95.5343 107.095 95.6323C105.897 96.2571 105.792 96.7458 106.779 97.099C109.872 95.4486 110.187 95.742 107.727 97.9791C108.253 98.077 108.78 98.1744 109.307 98.2724C112.581 96.6214 112.897 97.1108 110.254 99.7392C111.56 100.054 112.719 99.7603 113.729 98.8591C113.832 99.9662 113.305 100.846 112.15 101.499C113.203 101.891 114.256 101.891 115.309 101.499C115.766 100.714 116.187 100.616 116.573 101.206C115.875 102.023 115.032 102.707 114.045 103.259C115.519 103.455 116.994 103.651 118.468 103.846C117.577 104.062 116.945 104.551 116.573 105.313C117.788 105.787 119.051 106.08 120.364 106.193C119.853 106.374 119.432 106.667 119.1 107.073C120.789 107.62 122.473 107.717 124.155 107.366C123.359 107.908 122.517 108.397 121.627 108.833C123.316 109.38 125.001 109.477 126.682 109.126C126.261 109.518 125.84 109.908 125.418 110.3C129.151 110.411 129.362 110.997 126.05 112.06C127.524 112.255 128.999 112.451 130.473 112.647C129.95 113.183 129.318 113.574 128.577 113.82C129.841 114.015 131.105 114.211 132.368 114.407C131.947 114.798 131.526 115.189 131.105 115.58C133.021 116.193 134.706 117.171 136.159 118.514C134.896 118.905 133.632 118.905 132.368 118.514C125.152 114.528 118.097 110.324 111.202 105.899C110.781 106.291 110.781 106.682 111.202 107.073C112.768 108.328 114.347 109.501 115.941 110.593C114.622 111.437 113.148 111.829 111.518 111.766C111.633 112.993 111.422 114.167 110.886 115.287C111.433 115.922 112.065 116.019 112.782 115.58C112.026 115.196 112.026 114.903 112.782 114.7C113.427 114.908 113.849 115.3 114.045 115.873C111.414 116.888 108.675 117.181 105.832 116.753C103.395 115.145 103.395 114.362 105.832 114.407C104.879 113.916 104.564 113.231 104.884 112.353C105.587 113.426 106.535 113.916 107.727 113.82C106.775 113.329 106.459 112.644 106.779 111.766C107.423 112.463 108.161 113.05 108.991 113.527C109.404 112.562 110.036 111.389 110.886 110.006C109.709 106.081 107.603 102.659 104.568 99.7392C103.115 99.3531 101.641 99.0598 100.145 98.8591C98.5194 98.8315 97.2558 99.4182 96.3542 100.619C96.5646 101.206 96.986 101.597 97.6178 101.793C98.3735 101.59 98.3735 101.296 97.6178 100.913C99.3029 100.521 100.987 100.521 102.672 100.913C104.405 103.391 105.353 106.031 105.516 108.833C104.255 110.151 102.676 110.738 100.777 110.593C100.843 111.886 101.263 113.059 102.041 114.113C101.312 114.59 101.312 115.177 102.041 115.873C99.2934 116.583 96.5557 116.583 93.8268 115.873C92.4059 114.799 91.6691 113.43 91.6154 111.766C92.2473 112.353 92.8791 112.94 93.5109 113.527C93.7213 113.135 93.9324 112.745 94.1428 112.353C94.846 113.426 95.7937 113.916 96.986 113.82C95.2314 112.545 95.3369 112.252 97.3019 112.94C98.503 111.07 97.9761 109.603 95.7223 108.54C97.9938 108.899 98.2048 108.215 96.3542 106.486C96.5646 106.095 96.7756 105.704 96.986 105.313C95.9492 103.519 95.4228 101.563 95.4064 99.4458C92.0167 95.8975 88.5416 95.7015 84.9812 98.8591C86.8774 98.7025 88.8784 98.7025 90.9836 98.8591C92.2839 101.493 92.9157 104.232 92.8791 107.073C92.4551 107.514 91.9288 107.71 91.2995 107.66C90.6247 108.208 89.7825 108.404 88.7722 108.246C88.7299 109.102 88.9403 109.884 89.404 110.593C88.9504 111.617 88.3186 112.008 87.5086 111.766C87.9774 112.852 88.6092 113.243 89.404 112.94C87.4169 113.704 85.5215 113.704 83.7176 112.94C87.0625 112.833 87.0625 112.54 83.7176 112.06C82.562 111.407 82.035 110.527 82.138 109.42C82.6669 110.304 83.4042 110.597 84.3494 110.3C83.1938 109.647 82.6669 108.767 82.7698 107.66C83.4017 108.246 84.0335 108.833 84.6653 109.42C84.7708 109.224 84.8757 109.028 84.9812 108.833C82.4596 104.52 82.7755 104.324 85.929 108.246C85.9568 106.92 85.4305 105.747 84.3494 104.726C83.7732 102.268 83.7732 99.7257 84.3494 97.099C82.2435 93.9702 79.5052 93.3835 76.1356 95.3389C77.5674 95.8165 79.042 96.1098 80.5584 96.219C81.1593 96.6402 81.2642 97.1289 80.8744 97.6857C79.1564 97.1319 77.3664 96.9365 75.5038 97.099C75.7142 98.2724 75.9252 99.4458 76.1356 100.619C75.2934 101.011 74.4505 101.401 73.6083 101.793C72.5936 101.03 71.5403 100.247 70.4492 99.4458C70.0277 99.6412 69.6069 99.8371 69.1855 100.033C68.8898 98.9524 67.8372 98.3657 66.0264 98.2724C64.3413 97.8811 62.6568 97.4903 60.9717 97.099C64.9984 96.9506 68.9998 97.1465 72.9765 97.6857C74.5738 97.2932 74.5738 96.8045 72.9765 96.219C63.2792 96.084 53.5913 95.7907 43.9124 95.3389C43.0701 95.5343 42.2273 95.7303 41.385 95.9256C43.6419 96.6332 45.9582 97.0245 48.3352 97.099C48.1191 97.5907 47.6983 97.7866 47.0715 97.6857C46.2293 97.6857 45.3864 97.6857 44.5442 97.6857C44.5897 101.884 43.0101 102.666 39.8055 100.033C39.2608 99.1014 38.8394 98.1234 38.5418 97.099C38.2038 90.2276 38.5197 83.3826 39.4896 76.5646C40.0317 74.1163 40.4525 71.5735 40.7532 68.9375Z" fill="#FF7A00"/>
<path fill-rule="evenodd" clip-rule="evenodd" d="M72.3449 81.2578C72.149 83.1429 72.3594 84.903 72.9767 86.5381C73.1422 87.4052 72.9318 88.1873 72.3449 88.8849C71.5166 86.2541 71.5166 83.712 72.3449 81.2578Z" fill="#FF7A00"/>
<path fill-rule="evenodd" clip-rule="evenodd" d="M62.8666 86.5383C62.4452 83.9962 62.0244 81.4534 61.603 78.9112C61.4842 77.9708 61.8001 77.1881 62.5507 76.5645C62.866 79.8834 62.9715 83.2082 62.8666 86.5383Z" fill="#FF7A00"/>
<path fill-rule="evenodd" clip-rule="evenodd" d="M107.727 85.9512C108.373 86.7679 108.162 87.5499 107.095 88.298C106.885 88.1026 106.674 87.9066 106.463 87.7113C106.901 87.114 107.322 86.5273 107.727 85.9512Z" fill="#FF7A00"/>
<path fill-rule="evenodd" clip-rule="evenodd" d="M111.517 85.3643C111.916 87.1531 111.074 88.5219 108.99 89.4711C108.345 89.1766 108.239 88.7859 108.674 88.2977C110.185 87.7756 111.133 86.7976 111.517 85.3643Z" fill="#FF7A00"/>
<path fill-rule="evenodd" clip-rule="evenodd" d="M230.933 78.3238C230.745 79.5582 230.955 80.7316 231.565 81.844C232.392 79.6057 232.392 77.4549 231.565 75.3903C231.461 73.6197 231.567 71.8596 231.881 70.11C232.727 74.8095 233.569 79.5031 234.408 84.1908C234.548 70.198 235.285 70.198 236.62 84.1908C236.454 85.0579 236.665 85.84 237.252 86.5376C237.879 83.827 238.09 81.0895 237.884 78.3238C238.45 79.0167 238.766 80.1901 238.831 81.844C239.042 81.4527 239.253 81.0619 239.463 80.6706C239.715 80.8044 239.82 81.0003 239.779 81.2573C239.884 86.9318 239.779 92.6035 239.463 98.2716C239.227 98.809 238.911 99.2983 238.515 99.7383C234.772 99.513 231.402 100.393 228.406 102.378C228.196 102.183 227.985 101.987 227.774 101.792C228.905 93.6284 229.326 85.4146 229.038 77.1504C228.933 73.6249 229.039 70.1048 229.354 66.5898C230.277 70.4351 230.803 74.346 230.933 78.3238Z" fill="#FF7A00"/>
<path fill-rule="evenodd" clip-rule="evenodd" d="M231.566 75.3906C232.392 77.4552 232.392 79.6061 231.566 81.8443C230.955 80.7319 230.745 79.5585 230.934 78.3241C231.535 77.4916 231.745 76.5142 231.566 75.3906Z" fill="#FF7A00"/>
<path fill-rule="evenodd" clip-rule="evenodd" d="M215.138 92.9921C218.001 92.7392 220.739 93.0326 223.352 93.8721C219.751 94.1901 216.171 94.3855 212.61 94.4588C213.6 94.1021 214.443 93.6128 215.138 92.9921Z" fill="#FF7A00"/>
<path fill-rule="evenodd" clip-rule="evenodd" d="M16.7435 65.4166C17.3443 66.2491 17.5547 67.2265 17.3753 68.3501C16.6468 71.96 16.5413 75.6756 17.0594 79.4973C17.8928 78.4706 18.2087 77.2972 18.0071 75.9771C18.0014 74.9164 18.3174 73.9384 18.9549 73.0437C19.0617 80.7722 19.3776 88.3993 19.9026 95.9249C19.7232 97.8475 19.9336 99.705 20.5345 101.499C17.7443 103.008 15.7433 102.323 14.5321 99.4451C12.1419 86.9419 11.9315 74.4253 13.9002 61.8964C14.1978 60.872 14.6193 59.894 15.1639 58.9629C15.21 60.5223 14.9996 62.0865 14.5321 63.6565C14.1106 67.568 14.1106 71.4789 14.5321 75.3904C15.4211 72.1366 16.1584 68.8118 16.7435 65.4166Z" fill="#FF7A00"/>
<path fill-rule="evenodd" clip-rule="evenodd" d="M60.9715 97.099C56.7591 97.099 52.5473 97.099 48.3349 97.099C45.9579 97.0245 43.6417 96.6331 41.3848 95.9256C42.227 95.7302 43.0699 95.5342 43.9121 95.3389C53.5911 95.7906 63.2789 96.084 72.9762 96.2189C74.5735 96.8044 74.5735 97.2932 72.9762 97.6857C68.9995 97.1465 64.9981 96.9505 60.9715 97.099Z" fill="white"/>
<path fill-rule="evenodd" clip-rule="evenodd" d="M83.7173 112.939C82.6249 112.577 81.6771 111.99 80.8741 111.179C80.1367 109.419 79.4 107.659 78.6627 105.899C79.9541 105.567 81.0068 104.98 81.8218 104.139C80.5411 104.234 79.2775 104.136 78.0309 103.845C77.7219 102.549 77.0901 101.474 76.1354 100.618C75.925 99.445 75.7139 98.2716 75.5035 97.0982C77.3662 96.9357 79.1561 97.131 80.8741 97.6849C81.2639 97.1281 81.159 96.6394 80.5582 96.2181C79.0418 96.109 77.5671 95.8157 76.1354 95.3381C79.5049 93.3826 82.2433 93.9693 84.3491 97.0982C83.7729 99.7248 83.7729 102.268 84.3491 104.725C85.4302 105.746 85.9565 106.92 85.9287 108.245C82.7753 104.323 82.4593 104.519 84.981 108.832C84.8755 109.028 84.7706 109.223 84.6651 109.419C84.0332 108.832 83.4014 108.245 82.7696 107.659C82.6666 108.766 83.1935 109.646 84.3491 110.299C83.4039 110.596 82.6666 110.303 82.1377 109.419C82.0348 110.526 82.5617 111.406 83.7173 112.059C87.0622 112.539 87.0622 112.832 83.7173 112.939Z" fill="white"/>
<path fill-rule="evenodd" clip-rule="evenodd" d="M226.511 83.0179C227.729 81.1863 228.571 79.2308 229.038 77.1509C229.326 85.4152 228.905 93.629 227.774 101.792C227.985 101.988 228.196 102.184 228.406 102.379C231.402 100.394 234.772 99.5135 238.515 99.7388C238.911 99.2988 239.227 98.8095 239.463 98.2721C239.779 92.604 239.884 86.9324 239.779 81.2578C240.278 81.0918 240.699 80.7984 241.043 80.3778C240.82 77.2108 240.82 73.9839 241.043 70.6973C241.956 73.2911 242.482 76.0292 242.622 78.911C242.938 86.1444 243.044 93.3802 242.938 100.619C245.273 101.182 247.589 101.182 249.888 100.619C250.983 96.5982 251.721 92.4913 252.1 88.2982C253.133 75.6948 251.659 63.3741 247.677 51.3362C247.326 50.1071 247.01 50.0091 246.729 51.0429C248.604 56.6986 249.552 62.4676 249.572 68.3505C248.631 64.6578 247.789 60.9422 247.045 57.2032C246.553 55.6795 246.237 55.6795 246.097 57.2032C245.315 56.1976 244.894 55.0242 244.834 53.683C244.202 53.683 243.57 53.683 242.938 53.683C242.938 52.1183 242.938 50.5541 242.938 48.9894C241.203 49.1731 239.517 48.9777 237.884 48.4027C237.041 47.2293 237.041 46.0559 237.884 44.8825C236.158 44.4977 236.264 43.7156 238.199 42.5357C239.616 43.8353 241.196 44.0307 242.938 43.1224C243.818 44.1627 244.555 45.3361 245.15 46.6426C244.893 43.7232 243.524 41.2784 241.043 39.3089C240.451 38.9029 240.03 39.0009 239.779 39.6023C240.248 40.7322 240.88 41.8077 241.675 42.8291C241.464 42.9271 241.253 43.0245 241.043 43.1224C240.424 42.2535 239.686 41.4709 238.831 40.7756C238.57 41.0438 238.254 41.2397 237.884 41.3623C236.736 40.5908 235.683 39.7108 234.724 38.7222C234.125 38.4388 233.494 38.3414 232.829 38.4289C237.3 36.3736 241.196 37.1563 244.518 40.7756C249.498 48.7823 252.447 57.3868 253.363 66.5904C254.081 77.7869 253.659 88.9342 252.1 100.032C251.591 102.266 250.116 103.439 247.677 103.552C241.577 101.113 235.574 101.211 229.67 103.846C226.348 104.682 223.505 103.998 221.14 101.792C219.831 99.7558 218.883 97.6044 218.297 95.3386C219.139 95.3386 219.982 95.3386 220.824 95.3386C220.727 97.4067 221.569 99.0694 223.352 100.326C224.531 100.743 225.479 100.449 226.195 99.4455C226.511 93.9733 226.616 88.4971 226.511 83.0179Z" fill="white"/>
<path fill-rule="evenodd" clip-rule="evenodd" d="M237.884 78.3242C238.091 81.0899 237.88 83.8274 237.252 86.538C236.665 85.8404 236.455 85.0583 236.62 84.1912C237.042 82.2357 237.463 80.2797 237.884 78.3242Z" fill="#FF7A00"/>
<path fill-rule="evenodd" clip-rule="evenodd" d="M239.779 39.6022C240.03 39.0008 240.451 38.9028 241.043 39.3088C243.524 41.2784 244.893 43.7231 245.15 46.6425C244.555 45.336 243.818 44.1626 242.938 43.1224C242.358 41.6034 241.304 40.43 239.779 39.6022Z" fill="#FF7A00"/>
<path fill-rule="evenodd" clip-rule="evenodd" d="M81.8219 104.138C81.9242 102.949 81.8187 101.776 81.506 100.618C81.3676 101.462 81.0517 102.244 80.5582 102.965C79.9921 103.555 79.5713 103.555 79.2946 102.965C79.745 101.63 80.061 100.261 80.2423 98.8582C80.8577 100.253 81.2791 100.057 81.506 98.2715C82.5017 100.282 82.6066 102.238 81.8219 104.138Z" fill="#FF7A00"/>
<path fill-rule="evenodd" clip-rule="evenodd" d="M66.026 98.2715C67.8368 98.3648 68.8894 98.9515 69.1851 100.032C69.6066 99.8362 70.0274 99.6403 70.4488 99.4449C71.54 100.246 72.5932 101.029 73.6079 101.792C72.6918 102.896 71.4281 103.483 69.817 103.552C64.9096 103.115 63.6459 101.355 66.026 98.2715Z" fill="white"/>
<path fill-rule="evenodd" clip-rule="evenodd" d="M93.8266 115.873C94.1791 116.63 94.811 117.119 95.7221 117.34C97.4071 117.535 99.0916 117.731 100.777 117.927C94.5898 118.956 90.7988 116.511 89.4038 110.593C88.94 109.884 88.7296 109.102 88.7719 108.246C89.7822 108.403 90.6245 108.207 91.2992 107.659C91.9285 107.71 92.4549 107.514 92.8788 107.073C92.9155 104.231 92.2836 101.493 90.9833 98.8589C88.8781 98.7022 86.8771 98.7022 84.981 98.8589C88.5413 95.7012 92.0164 95.8972 95.4061 99.4456C95.4226 101.562 95.9489 103.518 96.9857 105.313C96.7753 105.704 96.5643 106.095 96.3539 106.486C98.2045 108.214 97.9935 108.899 95.7221 108.539C97.9758 109.603 98.5027 111.07 97.3016 112.94C95.3366 112.251 95.2311 112.545 96.9857 113.82C95.7934 113.915 94.8457 113.426 94.1425 112.353C93.9321 112.744 93.721 113.135 93.5106 113.526C92.8788 112.94 92.247 112.353 91.6152 111.766C91.6689 113.43 92.4056 114.799 93.8266 115.873Z" fill="white"/>
<path fill-rule="evenodd" clip-rule="evenodd" d="M14.2161 56.0293C16.1716 56.3925 16.3826 56.9792 14.8479 57.7894C15.4936 58.2904 16.0199 58.8771 16.4275 59.5495C16.5848 58.89 16.9007 58.3033 17.3752 57.7894C18.184 59.0942 17.9736 60.2676 16.7434 61.3096C17.705 62.2812 17.4946 62.9658 16.1116 63.363C16.6404 63.9562 16.8508 64.6409 16.7434 65.4165C16.1583 68.8117 15.421 72.1365 14.532 75.3903C14.1106 71.4788 14.1106 67.5679 14.532 63.6564C14.9995 62.0864 15.2099 60.5222 15.1638 58.9628C14.6192 59.8939 14.1977 60.8719 13.9002 61.8963C11.9314 74.4252 12.1418 86.9418 14.532 99.445C15.7432 102.323 17.7442 103.008 20.5344 101.498C19.9335 99.7049 19.7231 97.8474 19.9025 95.9248C20.324 92.7959 20.7448 89.6665 21.1662 86.5376C21.1795 91.6313 21.3899 96.7157 21.798 101.792C26.2524 101.638 30.4648 102.518 34.4346 104.432C36.5714 104.915 38.678 104.817 40.7529 104.139C38.4126 102.73 36.833 100.775 36.0142 98.2716C35.6066 90.8962 36.1336 83.6599 37.5937 76.5637C38.0499 76.809 38.3658 77.1997 38.5415 77.7371C38.7519 76.9551 38.9629 76.1724 39.1733 75.3903C39.4665 75.7388 39.572 76.1302 39.4892 76.5637C38.5194 83.3818 38.2034 90.2268 38.5415 97.0982C38.8391 98.1226 39.2605 99.1006 39.8051 100.032C43.0098 102.665 44.5893 101.883 44.5438 97.6849C45.3861 97.6849 46.2289 97.6849 47.0712 97.6849C46.265 104.398 42.2629 107.233 35.0664 106.192C29.5941 103.392 23.9077 102.903 18.007 104.725C14.8946 103.845 13.1047 101.889 12.6365 98.8583C11.7222 91.8419 11.1959 84.8016 11.0569 77.7371C10.8225 70.2585 11.8751 63.0222 14.2161 56.0293Z" fill="white"/>
<path fill-rule="evenodd" clip-rule="evenodd" d="M28.1168 77.7373C27.9159 80.3962 28.1263 82.939 28.7486 85.3644C28.9141 86.2315 28.7037 87.0136 28.1168 87.7112C27.2853 84.2966 27.2853 80.9718 28.1168 77.7373Z" fill="#FF7A00"/>
<path fill-rule="evenodd" clip-rule="evenodd" d="M91.2992 107.659C90.1695 107.826 89.1163 107.631 88.1401 107.072C86.7261 104.841 85.6734 102.494 84.981 100.032C86.9049 100.027 88.8004 99.8319 90.6674 99.4453C90.9922 100.626 91.0971 101.799 90.9833 102.966C90.7729 102.574 90.5619 102.183 90.3515 101.792C90.2087 103.315 89.8928 104.781 89.4038 106.192C90.0027 106.476 90.6346 106.573 91.2992 106.486C91.8818 103.088 91.8818 103.479 91.2992 107.659Z" fill="white"/>
<path fill-rule="evenodd" clip-rule="evenodd" d="M100.777 101.792C101.406 101.741 101.932 101.937 102.356 102.379C103.828 104.612 104.144 106.959 103.304 109.419C102.231 110.112 101.178 110.112 100.145 109.419C99.2142 107.218 98.1609 105.067 96.9857 102.965C98.3321 102.573 99.5958 102.182 100.777 101.792Z" fill="white"/>
<path fill-rule="evenodd" clip-rule="evenodd" d="M102.04 105.312C102.909 106.496 102.803 107.669 101.724 108.833C101.81 107.703 101.915 106.53 102.04 105.312Z" fill="#FF7A00"/>
<path fill-rule="evenodd" clip-rule="evenodd" d="M114.045 115.873C114.827 115.338 115.67 115.24 116.572 115.579C115.064 116.671 113.379 117.453 111.518 117.926C106.953 119.295 103.794 118.023 102.04 114.113C101.263 113.058 100.842 111.885 100.777 110.592C102.675 110.737 104.255 110.151 105.515 108.832C105.352 106.03 104.405 103.39 102.672 100.912C100.987 100.52 99.3026 100.52 97.6175 100.912C98.3732 101.295 98.3732 101.589 97.6175 101.792C96.9857 101.596 96.5643 101.205 96.3539 100.618C97.2555 99.4175 98.5192 98.8308 100.145 98.8584C101.64 99.059 103.114 99.3524 104.568 99.7384C107.602 102.658 109.709 106.08 110.886 110.006C110.036 111.388 109.404 112.561 108.99 113.526C108.16 113.049 107.423 112.462 106.779 111.766C106.459 112.643 106.775 113.328 107.727 113.819C106.535 113.915 105.587 113.425 104.884 112.352C104.563 113.23 104.879 113.915 105.831 114.406C103.394 114.361 103.394 115.144 105.831 116.753C108.675 117.18 111.414 116.887 114.045 115.873Z" fill="white"/>
</svg>
