<svg width="160" height="145" viewBox="0 0 160 145" fill="none" xmlns="http://www.w3.org/2000/svg">
<g clip-path="url(#clip0_110_2570)">
<path fill-rule="evenodd" clip-rule="evenodd" d="M146.518 143.842C144.09 143.842 141.661 143.842 139.233 143.842C139.233 141.414 139.233 146.27 139.233 143.842C138.063 145.698 136.721 145.443 135.208 143.842C135.016 141.417 135.144 146.431 135.208 144C132.852 143.62 130.424 143.493 127.923 143.617C127.923 146.045 128 141.815 128 144.243C127.048 145.818 125.976 145.306 124.5 144.243C123.956 141.731 123.353 147.227 123.514 144.626C121.159 144.246 118.731 144.119 116.23 144.243C116.23 146.543 116 141.7 116 144C115.32 146.008 114.549 145.484 112.801 144.243C112.257 141.731 112.123 146.984 112.284 144.383C109.928 144.004 107.5 143.876 105 144C105 141.572 105 146.428 105 144C103.667 146.025 102.223 146.025 101 144C101 141.572 100.668 146.428 100.668 144C98.1117 144 95.556 144 93 144C93 146.428 93.227 141.815 93.227 144.243C92.1385 146.111 90.4676 146.113 89 144.5C88.6312 141.967 89.2879 145.579 89.401 143C87.1006 143 84.8003 143 82.5 143C82.5636 145.431 82.1917 141.575 82 144C80.5941 146.045 78.9059 146.045 77.5 144C77.3083 141.575 76.9364 145.431 77 143C74.6997 143 72.8003 144 70.5 144C70.6629 146.728 70.5463 141.36 70 144C68.4745 145.168 67.4025 144.679 66.5 143C66.5 140.572 66.5 145.428 66.5 143C63.944 143 61.3883 143 58.8323 143C58.8323 140.572 58.8323 145.428 58.8323 143C57.6089 145.025 56.3327 145.025 55 143C55 140.572 55 145.428 55 143C52.6117 143 50.0716 143.004 47.7157 143.383C47.8767 145.984 47.5444 141.489 47 144C45.4745 145.168 44.4025 145.179 43.5 143.5C43.5 141.072 43.3867 145.811 43.3867 143.383C40.8862 143.26 38.4583 143.387 36.1024 143.767C36.2634 146.368 36.0444 141.489 35.5 144C33.9745 145.168 33.4025 145.446 32.5 143.767C32.5 141.339 32.5 145.428 32.5 143C29.1772 143 24.3228 143 21 143C20.1527 142.849 20.5587 133.571 20.3835 132.7C20.3835 129.377 20.3835 126.054 20.3835 122.732C17.9555 122.732 15.5271 122.732 13.0992 122.732C11.4203 121.829 11.1646 120.615 12.3324 119.089C14.8436 118.545 17.3992 118.353 20.0001 118.514C20.3797 116.158 20.5073 113.73 20.3835 111.23C17.9555 111.23 15.5271 111.23 13.0992 111.23C11.4203 110.327 11.1646 109.113 12.3324 107.588C14.8436 107.043 17.3992 106.852 20.0001 107.013C20.3797 104.657 20.5073 102.229 20.3835 99.7284C17.9555 99.7284 15.5271 99.7284 13.0992 99.7284C11.4203 98.8259 11.1646 97.6117 12.3324 96.0862C14.8436 95.5418 17.3992 95.3501 20.0001 95.5111C20.3797 93.1552 20.5073 90.7272 20.3835 88.2268C17.9555 88.2268 15.5271 88.2268 13.0992 88.2268C11.0741 86.8941 11.0741 85.6163 13.0992 84.3929C15.5271 84.3929 17.9555 84.3929 20.3835 84.3929C20.3835 81.8369 20.3835 79.2812 20.3835 76.7252C17.9555 76.7252 15.5271 76.7252 13.0992 76.7252C11.0672 75.4355 11.0672 74.0936 13.0992 72.6996C15.5241 72.5079 17.9521 72.4443 20.3835 72.5079C20.3835 70.2076 20.3835 67.9073 20.3835 65.607C17.6557 65.7699 14.972 65.5782 12.3324 65.0319C11.173 63.4746 11.4287 62.2604 13.0992 61.3897C15.5271 61.3897 17.9555 61.3897 20.3835 61.3897C20.5073 58.8893 20.3797 56.4613 20.0001 54.1054C17.3992 54.2664 14.8436 54.0747 12.3324 53.5303C11.1646 52.0048 11.4203 50.7906 13.0992 49.8881C15.5271 49.8881 17.9555 49.8881 20.3835 49.8881C20.5073 47.3877 20.3797 44.9597 20.0001 42.6038C17.3992 42.7648 14.8436 42.5731 12.3324 42.0287C11.1646 40.5032 11.4203 39.289 13.0992 38.3865C15.5271 38.3865 17.9555 38.3865 20.3835 38.3865C20.5073 35.8861 20.3797 33.4581 20.0001 31.1022C17.3992 31.2632 14.8436 31.0715 12.3324 30.5271C11.1646 29.0016 11.4203 27.7874 13.0992 26.8849C15.5271 26.8849 17.9555 26.8849 20.3835 26.8849C20.5073 24.3845 20.3797 21.9565 20.0001 19.6006C17.3992 19.7616 14.8436 19.5699 12.3324 19.0255C11.1646 17.5 11.4203 16.2858 13.0992 15.3833C15.5271 15.3833 17.9555 15.3833 20.3835 15.3833C20.3835 12.9553 20.3835 10.527 20.3835 8.09899C21.521 6.20391 22.8629 6.07624 24.4091 7.7156C24.6008 48.4822 24.6648 89.2489 24.6008 130.016C65.3678 129.952 106.134 130.016 146.901 130.208C148.502 131.721 148.374 142.671 146.518 143.842Z" fill="#FF7A00"/>
<path fill-rule="evenodd" clip-rule="evenodd" d="M126.198 23.0511C126.406 23.0281 126.533 22.9005 126.581 22.6678C125.198 22.2886 123.792 22.1605 122.364 22.2844C121.296 22.1095 120.785 21.4704 120.83 20.3674C120.794 19.4427 121.178 18.74 121.98 18.2588C125.431 18.0031 128.881 18.0031 132.332 18.2588C132.651 18.5782 132.971 18.8979 133.29 19.2173C133.546 22.7954 133.546 26.374 133.29 29.9521C131.817 31.5734 130.539 31.4454 129.456 29.5687C129.329 28.4186 129.201 27.2684 129.073 26.1182C122.626 33.5747 116.045 40.9231 109.329 48.163C108.121 48.268 106.971 48.0127 105.878 47.3962C98.338 44.0097 90.7984 40.6229 83.2583 37.2364C76.6997 42.452 70.3098 47.8835 64.089 53.5304C63.6178 53.8298 63.1067 54.0215 62.5554 54.1055C53.8575 51.2699 45.1673 48.3945 36.4851 45.4793C34.2995 44.3935 34.0441 42.988 35.7184 41.262C37.2887 41.1861 38.8223 41.4418 40.319 42.0288C46.9152 44.4832 53.5608 46.7835 60.2551 48.9297C61.1495 49.1855 62.0444 49.1855 62.9388 48.9297C69.073 43.5623 75.2072 38.1949 81.3414 32.8275C81.7888 32.7635 82.2358 32.6998 82.6832 32.6358C91.0679 35.9966 99.3743 39.5747 107.603 43.3706C108.478 42.8814 109.245 42.2423 109.904 41.4537C115.283 35.2451 120.715 29.1109 126.198 23.0511Z" fill="#FF7A00"/>
<path fill-rule="evenodd" clip-rule="evenodd" d="M122.364 22.2843C123.793 22.1605 125.199 22.2885 126.582 22.6677C126.534 22.9004 126.406 23.0281 126.198 23.0511C124.92 22.7954 123.642 22.54 122.364 22.2843Z" fill="#878787"/>
<path fill-rule="evenodd" clip-rule="evenodd" d="M124.665 38.3866C129.267 38.3225 133.868 38.3866 138.467 38.5783C138.659 38.77 138.85 38.9616 139.042 39.1533C139.298 66.6295 139.298 94.1053 139.042 121.581C138.899 121.933 138.707 122.252 138.467 122.54C133.866 122.796 129.266 122.796 124.665 122.54C124.346 122.221 124.026 121.901 123.706 121.581C123.451 94.2333 123.451 66.8848 123.706 39.5367C124.107 39.202 124.426 38.8186 124.665 38.3866Z" fill="#FF7A00"/>
<path fill-rule="evenodd" clip-rule="evenodd" d="M134.633 42.6039C132.662 42.9827 130.617 43.1103 128.499 42.9873C128.499 68.1631 128.499 93.3386 128.499 118.514C127.733 93.342 127.478 68.0385 127.732 42.6039C130.032 42.6039 132.332 42.6039 134.633 42.6039Z" fill="#363636"/>
<path fill-rule="evenodd" clip-rule="evenodd" d="M134.475 41C134.941 66.9334 135.097 92.9334 134.942 119C132.294 119 129.647 119 127 119C127 93.1312 127 67.2628 127 41.3939C129.582 41.5204 132.073 41.3892 134.475 41Z" fill="#FF7A00"/>
<path fill-rule="evenodd" clip-rule="evenodd" d="M78.6581 52.5719C83.1326 52.5078 87.6055 52.5719 92.0766 52.7636C92.7793 52.9553 93.2268 53.4027 93.4185 54.1054C93.6742 76.5976 93.6742 99.0893 93.4185 121.581C93.0991 121.901 92.7793 122.221 92.46 122.54C87.8593 122.796 83.2587 122.796 78.6581 122.54C78.1976 122.194 77.8779 121.747 77.6996 121.198C77.4439 98.834 77.4439 76.4695 77.6996 54.1054C77.9534 53.5365 78.2731 53.0254 78.6581 52.5719Z" fill="#FF7A00"/>
<path fill-rule="evenodd" clip-rule="evenodd" d="M88.6264 118.514C86.5818 118.514 84.5368 118.514 82.4922 118.514C82.4922 98.1949 82.4922 77.8754 82.4922 57.5559C84.5368 57.5559 86.5818 57.5559 88.6264 57.5559C88.6264 77.8754 88.6264 98.1949 88.6264 118.514Z" fill="#FF7A00"/>
<path fill-rule="evenodd" clip-rule="evenodd" d="M56.0385 61.0064C60.3854 60.9424 64.7307 61.0064 69.0737 61.1981C69.5211 61.6455 69.9681 62.0926 70.4155 62.54C70.6712 82.2204 70.6712 101.901 70.4155 121.582C70.0962 121.901 69.7764 122.221 69.4571 122.54C64.8564 122.796 60.2558 122.796 55.6551 122.54C55.1947 122.194 54.8749 121.747 54.6967 121.198C54.441 101.645 54.441 82.0927 54.6967 62.54C55.2242 62.078 55.6712 61.5669 56.0385 61.0064Z" fill="#FF7A00"/>
<path fill-rule="evenodd" clip-rule="evenodd" d="M102.044 66.7572C106.391 66.6931 110.737 66.7572 115.08 66.9489C115.399 67.2682 115.719 67.588 116.038 67.9073C116.294 85.9265 116.294 103.946 116.038 121.965C115.846 122.157 115.655 122.348 115.463 122.54C110.862 122.796 106.262 122.796 101.661 122.54C101.342 122.221 101.022 121.901 100.703 121.581C100.447 103.818 100.447 86.0542 100.703 68.2907C100.967 67.5815 101.414 67.07 102.044 66.7572Z" fill="#FF7A00"/>
<path fill-rule="evenodd" clip-rule="evenodd" d="M65.24 118.514C63.4507 118.514 61.6618 118.514 59.8726 118.514C59.4911 101.034 59.3634 83.5262 59.4892 65.9905C61.5338 65.9905 63.5788 65.9905 65.6234 65.9905C65.7491 83.5262 65.6214 101.034 65.24 118.514Z" fill="#FF7A00"/>
<path fill-rule="evenodd" clip-rule="evenodd" d="M112 72C112 87.6668 112 103.333 112 119C109.667 119 107.333 119 105 119C105 103.333 105 87.6668 105 72C107.333 72 109.667 72 112 72Z" fill="#FF7A00"/>
<path fill-rule="evenodd" clip-rule="evenodd" d="M33.035 78.2588C37.3819 78.1947 41.7272 78.2588 46.0702 78.4505C46.7729 78.6421 47.2203 79.0896 47.412 79.7923C47.6677 93.7219 47.6677 107.652 47.412 121.581C47.0927 121.901 46.7729 122.221 46.4536 122.54C41.8529 122.796 37.2523 122.796 32.6516 122.54C32.4599 122.348 32.2682 122.157 32.0766 121.965C31.8208 107.78 31.8208 93.5942 32.0766 79.4089C32.4772 79.0742 32.7966 78.6908 33.035 78.2588Z" fill="#FF7A00"/>
<path fill-rule="evenodd" clip-rule="evenodd" d="M36.1025 82.8594C38.4029 82.8594 40.7032 82.8594 43.0035 82.8594C43.0035 94.7444 43.0035 106.629 43.0035 118.514C40.7032 118.514 38.4029 118.514 36.1025 118.514C36.1025 106.629 36.1025 94.7444 36.1025 82.8594Z" fill="#FF7A00"/>
</g>
<defs>
<clipPath id="clip0_110_2570">
<rect width="160" height="145" fill="white"/>
</clipPath>
</defs>
</svg>
