<svg width="193" height="193" viewBox="0 0 193 193" fill="none" xmlns="http://www.w3.org/2000/svg">
<path fill-rule="evenodd" clip-rule="evenodd" d="M51.6414 162.631C88.7408 162.22 125.841 162.22 162.94 162.631C125.821 163.03 88.7208 163.03 51.6414 162.631Z" fill="#FF7A00"/>
<path fill-rule="evenodd" clip-rule="evenodd" d="M162.94 162.632C125.841 162.221 88.7408 162.221 51.6414 162.632C51.474 162.614 51.3713 162.511 51.3331 162.324C88.8438 161.913 126.354 161.913 163.865 162.324C163.611 162.597 163.302 162.7 162.94 162.632Z" fill="#DDDDDD"/>
<path fill-rule="evenodd" clip-rule="evenodd" d="M49.7915 159.857C89.0494 159.806 128.307 159.857 167.565 160.011C147.858 160.37 128.126 160.524 108.37 160.474C88.7399 160.474 69.2136 160.268 49.7915 159.857Z" fill="#FF7A00"/>
<path fill-rule="evenodd" clip-rule="evenodd" d="M170.031 158.315C166.078 158.622 162.07 158.725 158.007 158.624C156.625 158.369 155.187 158.215 153.691 158.161C159.137 158.145 164.583 158.197 170.031 158.315Z" fill="#FF7A00"/>
<path fill-rule="evenodd" clip-rule="evenodd" d="M144.442 157.391C145.867 157.054 146.432 157.568 146.137 158.932C144.62 159.419 144.055 158.905 144.442 157.391Z" fill="#FF7A00"/>
<path fill-rule="evenodd" clip-rule="evenodd" d="M51.0247 158.007C80.6928 157.912 110.496 158.014 140.434 158.315C110.579 158.726 80.6734 158.726 50.7164 158.315C50.7547 158.128 50.8573 158.026 51.0247 158.007Z" fill="#FF7A00"/>
<path fill-rule="evenodd" clip-rule="evenodd" d="M153.383 157.699C159.397 157.597 165.358 157.7 171.264 158.007C170.853 158.11 170.442 158.213 170.031 158.316C164.583 158.197 159.136 158.146 153.691 158.162C155.186 158.215 156.625 158.369 158.007 158.624C156.466 158.624 154.924 158.624 153.383 158.624C153.383 158.316 153.383 158.007 153.383 157.699Z" fill="#FF7A00"/>
<path fill-rule="evenodd" clip-rule="evenodd" d="M148.758 157.391C150.183 157.054 150.748 157.568 150.454 158.932C148.936 159.419 148.371 158.905 148.758 157.391Z" fill="#1E1E1E"/>
<path fill-rule="evenodd" clip-rule="evenodd" d="M140.434 158.316C110.496 158.015 80.6928 157.912 51.0248 158.007C80.8794 157.597 110.785 157.597 140.742 158.007C140.704 158.194 140.601 158.297 140.434 158.316Z" fill="#FF7A00"/>
<path fill-rule="evenodd" clip-rule="evenodd" d="M153.383 157.699C159.396 157.289 165.459 157.289 171.573 157.699C171.534 157.886 171.432 157.988 171.264 158.007C165.358 157.7 159.397 157.597 153.383 157.699Z" fill="#FF7A00"/>
<path fill-rule="evenodd" clip-rule="evenodd" d="M170.031 142.901C171.928 142.545 173.881 142.494 175.889 142.746C173.943 143.28 171.99 143.331 170.031 142.901Z" fill="#636363"/>
<path fill-rule="evenodd" clip-rule="evenodd" d="M168.49 140.434C171.423 140.333 174.301 140.436 177.122 140.742C174.362 141.085 171.587 141.136 168.798 140.896C168.627 140.778 168.524 140.624 168.49 140.434Z" fill="#4B4B4B"/>
<path fill-rule="evenodd" clip-rule="evenodd" d="M168.49 140.434C171.519 140.077 174.602 140.025 177.739 140.28C177.571 140.501 177.365 140.655 177.122 140.742C174.301 140.436 171.423 140.333 168.49 140.434Z" fill="#CACACA"/>
<path fill-rule="evenodd" clip-rule="evenodd" d="M170.031 137.35C173.114 137.556 176.197 137.761 179.28 137.967C175.985 138.069 172.697 137.967 169.415 137.659C169.555 137.413 169.761 137.31 170.031 137.35Z" fill="#BFBFBF"/>
<path fill-rule="evenodd" clip-rule="evenodd" d="M173.731 135.192C175.889 135.398 178.047 135.603 180.205 135.809C177.935 135.911 175.674 135.808 173.422 135.501C173.461 135.314 173.563 135.211 173.731 135.192Z" fill="#A7A7A7"/>
<path fill-rule="evenodd" clip-rule="evenodd" d="M74.7644 127.177C100.917 127.69 127.123 127.999 153.383 128.102C127.074 128.102 100.765 128.102 74.4561 128.102C74.383 127.704 74.4857 127.395 74.7644 127.177Z" fill="#848484"/>
<path fill-rule="evenodd" clip-rule="evenodd" d="M173.731 135.192C173.563 135.211 173.461 135.313 173.422 135.5C175.674 135.808 177.935 135.911 180.205 135.809C179.97 136.045 179.662 136.2 179.28 136.271C177.225 136.374 175.17 136.477 173.114 136.579C172.007 136.675 170.98 136.932 170.031 137.35C169.761 137.31 169.555 137.413 169.415 137.659C172.697 137.967 175.985 138.069 179.28 137.967C179.246 138.157 179.143 138.311 178.972 138.429C174.975 138.89 170.967 138.993 166.948 138.738C165.844 137.582 164.919 136.297 164.173 134.884C166.324 134.407 168.482 133.945 170.648 133.496C171.291 133.252 171.857 132.892 172.343 132.417C172.574 132.067 172.523 131.759 172.189 131.492C169.101 132.618 165.915 133.08 162.632 132.88C160.826 130.403 158.874 128.039 156.774 125.789C161.403 126.487 166.027 126.384 170.648 125.48C171.576 125.24 172.45 124.88 173.268 124.401C173.092 126.563 172.886 128.721 172.652 130.876C174.852 131.088 177.061 131.345 179.28 131.647C177.73 131.785 176.188 131.99 174.656 132.263C174.245 132.571 174.245 132.88 174.656 133.188C182.021 133.406 182.021 133.817 174.656 134.421C174.387 134.744 174.078 135 173.731 135.192Z" fill="#FF7A00"/>
<path fill-rule="evenodd" clip-rule="evenodd" d="M160.474 95.4212C163.4 95.0642 166.38 95.0127 169.415 95.2671C169.796 95.3386 170.104 95.4928 170.339 95.7295C167.061 95.4508 163.772 95.3482 160.474 95.4212Z" fill="#9B9B9B"/>
<path fill-rule="evenodd" clip-rule="evenodd" d="M39.0008 50.7168C39.1312 50.9527 39.2342 51.2095 39.3091 51.4876C39.0538 71.3647 38.8997 91.2505 38.8466 111.145C38.7952 91.4641 38.641 71.8355 38.3842 52.2583C38.354 51.6254 38.5596 51.1114 39.0008 50.7168Z" fill="#FF7A00"/>
<path fill-rule="evenodd" clip-rule="evenodd" d="M42.0839 35.3008C49.3806 35.3008 56.6769 35.3008 63.9736 35.3008C63.8734 38.5913 65.415 40.6468 68.5982 41.4669C68.8985 42.1584 69.0015 42.8777 68.9065 43.6251C68.5982 43.6251 68.2899 43.6251 67.9816 43.6251C68.0442 43.0424 67.8389 42.5799 67.365 42.2377C66.2354 41.9288 65.259 41.3633 64.4361 40.542C63.7575 39.2798 63.1924 37.9951 62.7404 36.6882C56.266 36.4825 49.7915 36.4825 43.3171 36.6882C42.522 40.0521 40.415 42.0561 36.9968 42.7001C36.5963 48.3539 36.1339 54.0061 35.6094 59.657C35.2499 53.699 35.1985 47.7385 35.4553 41.7752C39.6448 41.6451 41.8545 39.487 42.0839 35.3008Z" fill="#FF7A00"/>
<path fill-rule="evenodd" clip-rule="evenodd" d="M69.8315 34.9923C70.1102 34.7738 70.2128 34.4654 70.1398 34.0674C58.1661 33.9651 46.2448 34.0677 34.3762 34.3757C34.0685 43.1609 33.9658 51.9992 34.0679 60.8901C34.6845 60.8901 35.3011 60.8901 35.9177 60.8901C35.9177 62.0207 35.9177 63.1509 35.9177 64.2815C34.0864 64.7227 32.8017 64.1061 32.0639 62.4316C31.8583 52.7715 31.8583 43.111 32.0639 33.4508C32.3586 33.1181 32.6155 32.7587 32.8347 32.3717C45.552 31.8615 58.2956 31.7588 71.0647 32.0634C71.6298 32.2176 71.9896 32.5774 72.1438 33.1425C72.3494 36.5339 72.3494 39.9252 72.1438 43.3166C71.5145 43.6012 70.8464 43.7039 70.1398 43.6249C70.1906 42.6945 70.1392 41.7695 69.9856 40.8502C68.2776 40.4876 66.8387 39.6653 65.6693 38.3837C65.127 37.4255 64.8702 36.3979 64.8986 35.3006C66.6023 35.3996 68.2468 35.2969 69.8315 34.9923Z" fill="#FF7A00"/>
<path fill-rule="evenodd" clip-rule="evenodd" d="M52.258 41.7752C54.0767 41.6371 55.6182 42.2025 56.8826 43.4709C54.3135 43.6765 51.744 43.6765 49.1749 43.4709C50.0965 42.6517 51.124 42.0863 52.258 41.7752Z" fill="#FF7A00"/>
<path fill-rule="evenodd" clip-rule="evenodd" d="M35.3011 35.3008C37.151 35.3008 39.0008 35.3008 40.8506 35.3008C40.8383 38.9632 39.04 40.6077 35.4553 40.2337C35.3014 38.5926 35.2499 36.9484 35.3011 35.3008Z" fill="#FF7A00"/>
<path fill-rule="evenodd" clip-rule="evenodd" d="M34.3762 34.3759C46.2448 34.0679 58.1661 33.9653 70.1398 34.0676C70.2129 34.4656 70.1102 34.7739 69.8315 34.9925C58.1205 34.3778 46.3018 34.1721 34.3762 34.3759Z" fill="#D8D8D8"/>
<path fill-rule="evenodd" clip-rule="evenodd" d="M155.232 20.1945C154.935 20.571 154.986 20.982 155.387 21.4277C155.592 23.8942 155.592 26.3606 155.387 28.8271C155.284 28.5188 155.181 28.2105 155.078 27.9022C154.865 28.2839 154.711 28.2839 154.616 27.9022C154.943 27.5706 154.943 27.2623 154.616 26.9772C152.906 27.5297 151.159 27.6839 149.375 27.4397C156.49 24.7992 156.696 21.8189 149.991 18.4988C147.901 17.5762 145.742 17.3193 143.517 17.728C146.037 18.4481 148.503 19.3216 150.916 20.3487C153.748 22.1842 153.748 24.0341 150.916 25.8982C148.436 27.1913 145.866 28.219 143.208 28.9812C145.372 29.0832 147.53 29.0832 149.683 28.9812C139.065 31.7289 128.48 31.6259 117.927 28.6729C117.281 28.5016 117.23 28.3475 117.773 28.2105C118.706 28.6334 119.682 28.839 120.702 28.8271C122.496 29.1824 124.346 29.2338 126.252 28.9812C125.818 28.5899 125.305 28.4358 124.71 28.5188C121.573 28.0036 118.746 26.7704 116.232 24.8191C115.592 23.9814 115.386 23.0565 115.615 22.0443C116.18 21.4791 116.746 20.9139 117.311 20.3487C119.62 19.3343 121.984 18.4607 124.402 17.728C123.493 17.372 122.569 17.3207 121.627 17.5739C119.802 17.9253 118.055 18.4905 116.386 19.2696C115.722 19.0288 115.106 18.926 114.536 18.9613C115.562 18.2429 116.692 17.6777 117.927 17.2656C128.171 14.7217 138.448 14.6189 148.758 16.9573C151.265 17.4275 153.423 18.5066 155.232 20.1945Z" fill="#FF7A00"/>
<path fill-rule="evenodd" clip-rule="evenodd" d="M124.71 28.5188C123.435 28.8225 122.099 28.9252 120.702 28.8271C119.682 28.839 118.706 28.6334 117.773 28.2105C117.23 28.3475 117.281 28.5017 117.927 28.673C128.48 31.6259 139.065 31.7289 149.683 28.9813C147.53 29.0833 145.372 29.0833 143.208 28.9813C145.866 28.219 148.436 27.1913 150.916 25.8982C153.748 24.0341 153.748 22.1842 150.916 20.3487C148.503 19.3216 146.037 18.4481 143.517 17.7281C145.742 17.3193 147.901 17.5762 149.991 18.4988C156.696 21.8189 156.49 24.7992 149.375 27.4397C151.159 27.6839 152.906 27.5298 154.616 26.9773C154.943 27.2623 154.943 27.5706 154.616 27.9022C150.514 30.5534 145.992 31.9407 141.05 32.0643C136.426 32.27 131.801 32.27 127.176 32.0643C122.495 31.7422 118.076 30.5088 113.919 28.3647C113.559 28.0049 113.2 27.6453 112.84 27.2856C112.609 26.9356 112.66 26.6273 112.994 26.3607C114.085 26.8953 115.215 27.3064 116.386 27.5939C117.419 27.6448 118.446 27.5934 119.469 27.4397C119.152 27.2815 118.844 27.1273 118.544 26.9773C116.562 26.3812 114.969 25.2507 113.765 23.5859C113.547 22.824 113.65 22.1046 114.073 21.4278C114.812 20.6365 115.583 19.917 116.386 19.2696C118.055 18.4905 119.802 17.9253 121.627 17.5739C122.569 17.3207 123.493 17.372 124.402 17.7281C121.984 18.4607 119.62 19.3343 117.311 20.3487C116.746 20.9139 116.18 21.4791 115.615 22.0444C115.386 23.0565 115.592 23.9814 116.232 24.8191C118.746 26.7704 121.573 28.0036 124.71 28.5188Z" fill="#E4E4E4"/>
<path fill-rule="evenodd" clip-rule="evenodd" d="M114.536 18.9608C115.106 18.9256 115.722 19.0284 116.386 19.2692C115.583 19.9166 114.812 20.636 114.073 21.4273C113.65 22.1042 113.548 22.8236 113.765 23.5854C114.969 25.2502 116.562 26.3807 118.544 26.9768C117.825 27.1824 117.105 27.3879 116.386 27.5934C115.215 27.3059 114.085 26.8949 112.994 26.3602C112.66 26.6269 112.609 26.9352 112.84 27.2851C113.2 27.6448 113.56 28.0045 113.919 28.3642C118.076 30.5084 122.495 31.7417 127.177 32.0639C131.801 32.2695 136.426 32.2695 141.05 32.0639C145.992 31.9403 150.514 30.553 154.616 27.9017C154.711 28.2835 154.866 28.2835 155.078 27.9017C155.181 28.2101 155.284 28.5184 155.387 28.8267C155.592 26.3602 155.592 23.8938 155.387 21.4273C154.986 20.9816 154.935 20.5705 155.232 20.1941C155.383 20.4942 155.537 20.8025 155.695 21.119C155.798 33.3486 155.901 45.5779 156.003 57.8075C157.261 58.0541 158.546 58.2083 159.857 58.27C162.352 58.8123 163.945 60.3023 164.636 62.7404C164.79 72.9139 164.841 83.088 164.79 93.2628C164.071 93.2628 163.351 93.2628 162.632 93.2628C162.683 83.2937 162.632 73.3252 162.478 63.357C161.536 61.0626 159.841 60.0862 157.391 60.4281C157.066 60.856 157.014 61.3185 157.236 61.8155C158.228 62.1121 159.204 62.4716 160.165 62.8946C160.385 63.2815 160.641 63.641 160.936 63.9736C161.192 73.7075 161.14 83.4191 160.782 93.1086C152.278 94.0563 143.748 94.3646 135.192 94.0335C134.782 93.6226 134.782 93.2113 135.192 92.8003C140.742 92.6976 146.292 92.5947 151.841 92.492C152.727 91.5514 152.624 90.7291 151.533 90.0255C131.904 89.8199 112.275 89.8199 92.6462 90.0255C91.5881 90.7553 91.4854 91.5776 92.3379 92.492C97.3734 92.5947 102.409 92.6976 107.445 92.8003C107.856 93.2113 107.856 93.6226 107.445 94.0335C102.409 94.1362 97.3734 94.2392 92.3379 94.3418C91.4854 95.2563 91.5881 96.0785 92.6462 96.8083C112.069 96.911 131.493 97.0139 150.916 97.1166C150.748 97.3377 150.543 97.4918 150.3 97.5791C150.2 98.2641 150.406 98.8295 150.916 99.2747C152.553 100.368 154.351 100.831 156.311 100.662C160.985 100.452 165.661 100.298 170.339 100.2C171.037 100.127 171.706 99.9727 172.343 99.7372C172.482 99.1486 172.225 98.7888 171.573 98.6581C166.965 97.7832 162.34 97.6805 157.699 98.3498C156.128 98.7993 156.231 99.0562 158.007 99.1206C157.463 99.4169 156.846 99.5198 156.157 99.4289C153.525 99.0639 153.423 98.4987 155.849 97.7332C160.777 97.1752 165.71 97.1237 170.648 97.5791C171.84 97.8837 173.073 98.192 174.347 98.504C174.553 98.4013 174.758 98.2983 174.964 98.1957C173.792 97.2603 172.456 96.7463 170.956 96.6541C165.083 96.2256 159.226 96.2771 153.383 96.8083C155.662 95.9426 158.026 95.4801 160.474 95.4209C163.772 95.3478 167.061 95.4505 170.339 95.7292C172.696 95.9074 174.957 96.4725 177.122 97.4249C177.595 98.2339 177.955 99.1073 178.201 100.046C178.407 102.306 178.407 104.567 178.201 106.828C177.482 107.445 176.762 108.061 176.043 108.678C175.155 113.599 174.332 118.532 173.577 123.477C172.394 124.106 171.11 124.466 169.723 124.556C165.384 125.242 161.068 125.139 156.774 124.248C156.22 122.785 156.117 121.295 156.466 119.777C156.304 119.564 156.098 119.41 155.849 119.315C159.488 119.149 159.488 118.84 155.849 118.39C155.578 117.972 155.475 117.509 155.541 117.002C159.646 116.846 159.646 116.59 155.541 116.232C155.269 115.814 155.166 115.351 155.232 114.844C159.338 114.688 159.338 114.431 155.232 114.073C154.961 113.655 154.858 113.193 154.924 112.686C157.795 112.528 157.795 112.271 154.924 111.915C154.666 111.604 154.563 111.244 154.616 110.836C156.069 110.937 157.508 110.834 158.932 110.528C158.566 110.242 158.155 110.139 157.699 110.22C156.669 110.099 155.642 109.945 154.616 109.757C154.103 108.79 153.281 108.431 152.149 108.678C153.041 114.496 153.966 120.302 154.924 126.097C128.41 126.2 101.895 126.303 75.381 126.406C74.9937 126.534 74.7881 126.791 74.7644 127.176C74.4857 127.395 74.383 127.703 74.4561 128.101C100.765 128.101 127.074 128.101 153.383 128.101C154.85 128.172 156.134 128.686 157.236 129.643C160.92 134.868 164.722 140.007 168.644 145.058C168.749 146.844 167.875 147.82 166.023 147.987C132.829 148.09 99.6345 148.193 66.4401 148.296C65.7106 148.431 64.9914 148.585 64.2819 148.758C63.493 148.724 62.7737 148.929 62.1238 149.375C67.6696 149.683 73.2191 149.786 78.7724 149.683C79.6923 150.756 80.8229 151.527 82.1637 151.995C92.6462 152.201 103.129 152.201 113.611 151.995C115.064 151.774 116.194 151.055 117.002 149.837C133.651 149.734 150.3 149.631 166.948 149.529C168.382 149.3 169.564 148.632 170.494 147.525C171.102 149.929 170.537 151.984 168.798 153.691C170.014 153.996 171.247 154.099 172.498 153.999C172.577 154.706 172.474 155.374 172.189 156.003C131.082 156.106 89.9741 156.209 48.8666 156.311C48.0043 157.483 47.0279 158.562 45.9377 159.549C45.835 160.268 45.7321 160.988 45.6294 161.707C42.9539 164.639 40.2303 167.517 37.4593 170.339C30.7762 162.32 22.5547 156.462 12.7947 152.766C12.4799 152.611 12.4285 152.406 12.6406 152.149C14.4904 149.683 16.3402 147.216 18.1901 144.75C18.5967 144.137 19.162 143.778 19.8858 143.671C20.95 142.52 21.8235 141.235 22.5064 139.817C23.1519 139.192 23.8713 138.678 24.6645 138.276C25.7746 131.345 27.83 124.665 30.8307 118.236C31.3958 117.259 32.1666 116.488 33.143 115.923C34.9814 115.041 36.8827 114.373 38.8466 113.919C38.3916 93.3963 38.2374 72.8424 38.3842 52.258C38.641 71.8351 38.7951 91.4638 38.8466 111.145C38.8997 91.2501 39.0538 71.3644 39.3091 51.4872C39.2342 51.2091 39.1312 50.9523 39.0008 50.7164C39.8357 48.1877 41.5829 46.6977 44.242 46.246C55.752 46.0404 67.2623 46.0404 78.7724 46.246C81.4315 46.6977 83.1787 48.1877 84.0136 50.7164C84.0126 71.8829 84.0126 93.0531 84.0136 114.228C83.5767 116.052 82.4461 117.234 80.6222 117.773C75.3945 118.162 70.1533 118.367 64.8986 118.39C64.3282 118.959 64.2255 119.575 64.5902 120.24C70.1533 120.527 75.7029 120.424 81.2388 119.931C83.5511 118.852 85.2468 117.157 86.3259 114.844C86.7334 97.083 86.9388 79.3042 86.9425 61.5072C94.3708 61.2519 101.822 61.0977 109.295 61.0447C109.339 59.4085 110.161 58.5348 111.761 58.4241C111.761 57.0882 111.761 55.752 111.761 54.4161C108.839 54.7682 107.092 56.4127 106.52 59.349C99.974 59.7578 93.4484 59.7578 86.9425 59.349C86.8398 56.3686 86.7368 53.3885 86.6342 50.4081C85.6525 47.5763 83.8027 45.5212 81.0846 44.242C80.879 39.3091 80.879 34.3762 81.0846 29.4433C84.3428 28.8068 86.1412 26.8542 86.48 23.5854C93.2628 23.5854 100.046 23.5854 106.828 23.5854C107.066 26.6998 108.71 28.5497 111.761 29.135C111.862 27.7834 111.759 26.4474 111.453 25.127C110.972 24.9501 110.51 24.7446 110.065 24.5104C110.02 23.5637 109.763 22.6902 109.295 21.8898C99.6345 21.6842 89.9741 21.6842 80.3139 21.8898C80.0571 22.1467 79.7999 22.4036 79.5431 22.6605C79.389 29.6481 79.3375 36.6364 79.389 43.6254C78.5667 43.6254 77.7448 43.6254 76.9225 43.6254C76.9749 43.2178 76.8723 42.858 76.6142 42.5463C75.6097 42.481 74.6336 42.3268 73.6853 42.0839C73.5314 40.9579 73.4803 39.8277 73.5311 38.6925C74.6617 38.6925 75.792 38.6925 76.9225 38.6925C76.9225 38.1785 76.9225 37.6649 76.9225 37.1509C75.8949 37.1509 74.867 37.1509 73.8394 37.1509C73.8394 36.226 73.8394 35.3011 73.8394 34.3762C74.7699 34.4271 75.6948 34.3756 76.6142 34.222C76.7684 34.0679 76.9225 33.9137 77.0767 33.7596C77.1793 29.546 77.2823 25.3325 77.385 21.119C77.6418 20.451 78.1042 19.9885 78.7724 19.7316C90.2824 19.6289 101.793 19.5261 113.303 19.4233C113.687 19.1793 114.098 19.0252 114.536 18.9608Z" fill="#FF7A00"/>
<path fill-rule="evenodd" clip-rule="evenodd" d="M36.8427 161.707C38.6481 161.816 39.3162 162.741 38.8467 164.482C37.2826 165.827 36.2035 165.519 35.6094 163.557C35.6618 162.686 36.0728 162.069 36.8427 161.707Z" fill="#E5E5E5"/>
<path fill-rule="evenodd" clip-rule="evenodd" d="M81.8554 149.991C92.6982 149.581 103.592 149.581 114.536 149.991C103.622 150.4 92.7285 150.4 81.8554 149.991Z" fill="#FF7A00"/>
<path fill-rule="evenodd" clip-rule="evenodd" d="M64.2819 148.758C64.2477 148.948 64.145 149.102 63.9736 149.22C68.9596 149.272 73.8925 149.426 78.7723 149.682C73.2191 149.785 67.6696 149.682 62.1238 149.374C62.7737 148.929 63.493 148.724 64.2819 148.758Z" fill="#D4D4D4"/>
<path fill-rule="evenodd" clip-rule="evenodd" d="M17.7277 148.449C18.4765 148.475 19.0931 148.784 19.5775 149.374C18.4544 149.958 17.8378 149.65 17.7277 148.449Z" fill="#DBDBDB"/>
<path fill-rule="evenodd" clip-rule="evenodd" d="M19.8858 145.983C24.6533 146.826 28.8668 148.83 32.5263 151.995C29.146 150.412 25.6519 148.973 22.0439 147.679C20.8062 147.44 20.652 147.595 21.5814 148.142C21.787 148.347 21.787 148.553 21.5814 148.758C20.5406 148.497 19.5643 148.086 18.6525 147.525C18.8559 146.811 19.267 146.298 19.8858 145.983Z" fill="#E1E1E1"/>
<path fill-rule="evenodd" clip-rule="evenodd" d="M75.381 141.667C89.6664 141.615 103.951 141.667 118.236 141.821C119.006 142.181 119.571 142.746 119.931 143.517C120.288 144.725 120.442 145.958 120.394 147.216C104.67 147.216 88.9465 147.216 73.2228 147.216C73.1081 144.984 73.8274 143.134 75.381 141.667Z" fill="#F7F7F7"/>
<path fill-rule="evenodd" clip-rule="evenodd" d="M24.2021 140.742C33.5179 142.034 40.9687 146.453 46.5543 153.999C46.9203 154.475 47.0229 154.989 46.8626 155.541C45.9528 156.488 45.0794 157.464 44.242 158.47C44.0364 158.675 43.831 158.675 43.6254 158.47C38.1113 151.599 31.1229 146.872 22.6605 144.288C22.5195 144.16 22.4168 144.006 22.3522 143.825C23.0998 142.873 23.7165 141.845 24.2021 140.742Z" fill="#F5F5F5"/>
<path fill-rule="evenodd" clip-rule="evenodd" d="M43.0088 152.149C43.6396 152.698 44.3077 153.212 45.0128 153.691C45.3726 155.592 44.6018 156.363 42.7005 156.003C42.2553 155.656 42.05 155.194 42.0839 154.616C42.2556 153.831 42.5639 153.112 43.0088 152.458C43.0088 152.355 43.0088 152.252 43.0088 152.149Z" fill="#FF7A00"/>
<path fill-rule="evenodd" clip-rule="evenodd" d="M39.9257 151.225C40.8183 151.749 41.3834 152.469 41.6214 153.383C40.8648 152.784 40.2997 152.065 39.9257 151.225Z" fill="#6C6C6C"/>
<path fill-rule="evenodd" clip-rule="evenodd" d="M43.0088 152.149C43.0088 152.252 43.0088 152.355 43.0088 152.457C41.9158 151.731 41.1451 150.806 40.6965 149.683C41.5304 150.464 42.3012 151.287 43.0088 152.149Z" fill="#5A5A5A"/>
<path fill-rule="evenodd" clip-rule="evenodd" d="M149.683 138.584C151.433 138.532 153.18 138.584 154.924 138.738C155.307 139.094 155.616 139.505 155.849 139.971C154.102 140.177 152.355 140.177 150.608 139.971C150.102 139.623 149.794 139.16 149.683 138.584Z" fill="#F2F2F2"/>
<path fill-rule="evenodd" clip-rule="evenodd" d="M142.592 138.584C144.137 138.532 145.678 138.584 147.216 138.738C147.69 139.08 147.896 139.542 147.833 140.125C146.278 140.226 144.736 140.123 143.208 139.817C142.86 139.471 142.654 139.06 142.592 138.584Z" fill="#F1F1F1"/>
<path fill-rule="evenodd" clip-rule="evenodd" d="M135.501 138.584C137.056 138.484 138.597 138.586 140.125 138.893C140.331 139.201 140.536 139.509 140.742 139.818C139.211 140.176 137.669 140.227 136.117 139.972C135.644 139.629 135.438 139.167 135.501 138.584Z" fill="#F0F0F0"/>
<path fill-rule="evenodd" clip-rule="evenodd" d="M128.101 138.584C129.749 138.532 131.393 138.584 133.034 138.738C133.279 139.072 133.484 139.432 133.651 139.817C132.016 140.175 130.372 140.227 128.718 139.971C128.244 139.629 128.039 139.166 128.101 138.584Z" fill="#EEEEEE"/>
<path fill-rule="evenodd" clip-rule="evenodd" d="M120.086 138.584C121.947 138.482 123.797 138.585 125.635 138.892C125.865 139.273 125.968 139.684 125.943 140.125C124.082 140.227 122.232 140.124 120.394 139.817C120.164 139.436 120.061 139.025 120.086 138.584Z" fill="#F1F1F1"/>
<path fill-rule="evenodd" clip-rule="evenodd" d="M81.2388 138.584C93.1604 138.532 105.082 138.584 117.002 138.738C117.274 139.156 117.377 139.619 117.311 140.125C104.259 140.125 91.2073 140.125 78.1558 140.125C78.1558 139.714 78.1558 139.303 78.1558 138.892C79.151 138.61 80.1786 138.508 81.2388 138.584Z" fill="#EDEDED"/>
<path fill-rule="evenodd" clip-rule="evenodd" d="M75.0727 138.584C75.5499 138.683 75.7556 138.991 75.6893 139.509C75.6551 139.699 75.5524 139.853 75.381 139.971C72.1968 140.125 69.011 140.176 65.8235 140.125C65.7609 139.542 65.9662 139.08 66.4401 138.738C69.3157 138.584 72.1934 138.532 75.0727 138.584Z" fill="#F0F0F0"/>
<path fill-rule="evenodd" clip-rule="evenodd" d="M141.359 136.117C145.368 136.065 149.376 136.117 153.383 136.271C153.654 136.689 153.757 137.152 153.691 137.659C149.784 137.71 145.879 137.659 141.975 137.504C141.501 137.162 141.296 136.7 141.359 136.117Z" fill="#F1F1F1"/>
<path fill-rule="evenodd" clip-rule="evenodd" d="M138.584 136.426C138.584 136.837 138.584 137.248 138.584 137.659C137.042 137.659 135.501 137.659 133.959 137.659C133.758 137.256 133.552 136.845 133.343 136.426C135.106 136.03 136.853 136.03 138.584 136.426Z" fill="#E9E9E9"/>
<path fill-rule="evenodd" clip-rule="evenodd" d="M100.045 129.643C99.8192 130.015 99.7165 130.426 99.7372 130.876C102.204 130.876 104.67 130.876 107.137 130.876C107.272 130.856 107.375 130.907 107.445 131.03C107.197 131.373 106.991 131.733 106.828 132.109C106.585 132.022 106.379 131.868 106.212 131.647C103.231 131.441 100.251 131.441 97.2707 131.647C96.9994 132.065 96.8965 132.527 96.9624 133.034C96.6859 133.373 96.4291 133.373 96.1917 133.034C96.0082 132.603 96.0597 132.192 96.3458 131.801C95.7536 131.449 95.1369 131.398 94.496 131.647C94.085 132.058 94.085 132.469 94.496 132.88C94.0474 133.381 93.5334 133.741 92.9544 133.959C90.2805 133.908 87.6084 133.959 84.9385 134.113C84.767 134.231 84.6644 134.385 84.6302 134.576C84.3514 134.794 84.2488 135.103 84.3219 135.501C87.2554 135.601 90.1328 135.499 92.9544 135.192C93.2332 134.974 93.3358 134.665 93.2627 134.267C93.5507 134.597 93.6537 135.008 93.5711 135.501C94.496 135.501 95.4209 135.501 96.3458 135.501C99.895 135.602 103.389 135.499 106.828 135.192C106.931 135.192 107.034 135.192 107.137 135.192C107.419 135.194 107.573 134.886 107.599 134.267C107.75 134.666 107.802 135.077 107.753 135.501C108.267 135.501 108.781 135.501 109.295 135.501C109.348 134.773 109.451 134.053 109.603 133.342C112.482 133.291 115.36 133.342 118.236 133.497C115.333 133.544 112.661 133.698 110.22 133.959C109.841 134.425 109.841 134.887 110.22 135.346C113.404 135.501 116.59 135.552 119.777 135.501C120.849 135.853 121.979 135.904 123.168 135.655C122.776 135.353 122.776 135.096 123.168 134.884C123.203 135.074 123.305 135.228 123.477 135.346C125.789 135.398 128.101 135.449 130.414 135.501C132.838 135.5 135.151 135.294 137.351 134.884C137.573 134.755 137.727 134.55 137.813 134.267C138.058 135.008 138.418 135.676 138.892 136.271C138.822 136.394 138.719 136.445 138.584 136.425C136.853 136.029 135.106 136.029 133.343 136.425C133.552 136.845 133.758 137.256 133.959 137.659C133.979 137.794 133.928 137.897 133.805 137.967C133.294 137.561 132.934 137.047 132.726 136.425C132.469 136.323 132.212 136.22 131.955 136.117C131.391 136.309 130.929 136.412 130.568 136.425C128.588 136.226 126.584 136.123 124.556 136.117C122.54 136.118 120.639 136.324 118.852 136.734C118.037 136.197 117.112 135.991 116.077 136.117C111.809 136.016 107.596 136.118 103.437 136.425C103.334 136.425 103.231 136.425 103.129 136.425C102.846 136.424 102.692 136.732 102.666 137.35C102.515 136.952 102.464 136.54 102.512 136.117C101.998 136.117 101.484 136.117 100.97 136.117C101.076 136.729 100.871 137.14 100.354 137.35C100.406 136.943 100.304 136.583 100.045 136.271C96.3458 136.066 92.6461 136.066 88.9465 136.271C88.315 136.649 88.2124 137.112 88.6381 137.659C92.3144 137.918 96.2194 138.072 100.354 138.121C93.9296 138.173 87.5578 138.327 81.2388 138.584C80.1785 138.507 79.1509 138.61 78.1557 138.892C77.7611 138.397 77.9152 138.088 78.6182 137.967C78.8562 138.012 79.0618 138.114 79.2348 138.275C81.372 138.075 83.4789 137.869 85.5551 137.659C85.802 137.183 85.9047 136.67 85.8634 136.117C83.6026 136.117 81.3415 136.117 79.0806 136.117C77.9501 136.117 76.8198 136.117 75.6893 136.117C73.3233 136.066 70.9595 136.117 68.5982 136.271C68.0923 136.619 67.784 137.082 67.6733 137.659C70.1881 137.914 72.7573 138.068 75.381 138.121C76.8692 138.408 76.9718 138.871 75.6893 139.509C75.7556 138.991 75.5499 138.683 75.0727 138.584C72.2492 138.328 69.3718 138.174 66.4401 138.121C67.3785 138.01 67.4815 137.805 66.7484 137.505C67.3446 136.343 68.2696 135.572 69.5231 135.192C69.2685 134.899 69.2173 134.591 69.369 134.267C69.8863 133.6 70.5544 133.189 71.373 133.034C75.0742 133.086 78.7739 133.034 82.472 132.88C82.7433 132.462 82.8463 131.999 82.7803 131.493C79.2847 131.441 75.7904 131.493 72.2979 131.647C72.1302 131.868 71.9245 132.022 71.6813 132.109C71.6471 131.919 71.5444 131.765 71.373 131.647C72.0386 131.32 72.5526 130.858 72.9145 130.259C73.4457 130.66 74.1138 130.866 74.9185 130.876C75.7161 130.859 76.4869 130.756 77.2308 130.568C78.0241 130.893 78.846 130.944 79.6973 130.722C79.3298 129.91 79.5351 129.653 80.3139 129.951C80.2201 130.151 80.1175 130.357 80.0056 130.568C81.0131 130.872 82.041 130.975 83.0886 130.876C84.0829 131.103 85.1108 131.308 86.1717 131.493C85.7191 131.887 85.5135 132.401 85.5551 133.034C88.3298 133.034 91.1046 133.034 93.8794 133.034C93.8794 132.52 93.8794 132.006 93.8794 131.493C94.9069 131.287 95.9348 131.082 96.9624 130.876C96.9624 130.568 96.9624 130.259 96.9624 129.951C97.5732 130.976 98.3954 131.13 99.4289 130.413C99.0614 129.601 99.2667 129.344 100.045 129.643Z" fill="#FF7A00"/>
<path fill-rule="evenodd" clip-rule="evenodd" d="M103.437 136.426C107.596 136.119 111.809 136.016 116.077 136.118C116.324 136.593 116.427 137.107 116.386 137.659C112.015 137.761 107.699 137.658 103.437 137.351C107.548 137.351 111.659 137.351 115.769 137.351C115.769 137.043 115.769 136.734 115.769 136.426C111.659 136.426 107.548 136.426 103.437 136.426Z" fill="#D4D4D4"/>
<path fill-rule="evenodd" clip-rule="evenodd" d="M130.568 136.425C130.794 136.798 130.897 137.209 130.876 137.659C126.97 137.71 123.064 137.659 119.161 137.505C118.929 137.298 118.826 137.041 118.852 136.734C120.639 136.324 122.54 136.118 124.556 136.117C126.584 136.123 128.588 136.226 130.568 136.425Z" fill="#F0F0F0"/>
<path fill-rule="evenodd" clip-rule="evenodd" d="M103.129 136.426C103.231 136.426 103.334 136.426 103.437 136.426C107.548 136.426 111.659 136.426 115.769 136.426C115.769 136.734 115.769 137.042 115.769 137.351C111.659 137.351 107.548 137.351 103.437 137.351C103.158 137.132 103.056 136.824 103.129 136.426Z" fill="#FCFCFC"/>
<path fill-rule="evenodd" clip-rule="evenodd" d="M100.354 137.35C96.4732 137.653 92.5679 137.755 88.6382 137.659C88.2124 137.112 88.3151 136.649 88.9465 136.271C92.6462 136.066 96.3459 136.066 100.046 136.271C100.304 136.583 100.406 136.943 100.354 137.35Z" fill="#EDEDED"/>
<path fill-rule="evenodd" clip-rule="evenodd" d="M79.0807 136.117C81.3415 136.117 83.6026 136.117 85.8634 136.117C85.9047 136.67 85.8021 137.183 85.5551 137.659C83.2943 137.659 81.0332 137.659 78.7724 137.659C78.7311 137.106 78.8337 136.593 79.0807 136.117Z" fill="#EAEAEA"/>
<path fill-rule="evenodd" clip-rule="evenodd" d="M75.6893 136.118C75.7553 136.625 75.6523 137.087 75.381 137.505C72.8137 137.659 70.2446 137.711 67.6733 137.659C67.784 137.083 68.0923 136.62 68.5983 136.272C70.9596 136.118 73.3234 136.067 75.6893 136.118Z" fill="#ECECEC"/>
<path fill-rule="evenodd" clip-rule="evenodd" d="M96.6541 134.268C96.6541 134.576 96.6541 134.884 96.6541 135.192C100.046 135.192 103.437 135.192 106.828 135.192C103.389 135.499 99.8951 135.602 96.3458 135.501C96.2632 135.008 96.3662 134.597 96.6541 134.268Z" fill="#B4B4B4"/>
<path fill-rule="evenodd" clip-rule="evenodd" d="M84.6302 134.576C87.2831 135.184 90.0579 135.389 92.9544 135.193C90.1328 135.499 87.2554 135.602 84.3219 135.501C84.2488 135.103 84.3515 134.795 84.6302 134.576Z" fill="#BABABA"/>
<path fill-rule="evenodd" clip-rule="evenodd" d="M139.509 133.959C140.86 133.859 142.196 133.962 143.517 134.267C143.747 134.648 143.849 135.06 143.825 135.501C142.588 135.552 141.354 135.5 140.125 135.346C139.652 135.004 139.446 134.542 139.509 133.959Z" fill="#E9E9E9"/>
<path fill-rule="evenodd" clip-rule="evenodd" d="M137.351 134.884C135.151 135.294 132.838 135.499 130.414 135.5C128.101 135.449 125.789 135.398 123.477 135.346C123.305 135.228 123.203 135.074 123.169 134.884C123.169 134.575 123.169 134.267 123.169 133.959C127.794 133.907 132.419 133.959 137.042 134.113C137.274 134.32 137.377 134.577 137.351 134.884Z" fill="#EBEBEB"/>
<path fill-rule="evenodd" clip-rule="evenodd" d="M110.22 133.959C113.309 133.857 116.393 133.96 119.469 134.268C119.699 134.649 119.801 135.06 119.777 135.501C116.59 135.552 113.404 135.501 110.22 135.347C109.841 134.887 109.841 134.425 110.22 133.959Z" fill="#EBEBEB"/>
<path fill-rule="evenodd" clip-rule="evenodd" d="M107.137 135.193C107.034 135.193 106.931 135.193 106.828 135.193C103.437 135.193 100.046 135.193 96.6542 135.193C96.6542 134.884 96.6542 134.576 96.6542 134.268C100.093 133.961 103.587 133.858 107.137 133.96C107.137 134.37 107.137 134.782 107.137 135.193Z" fill="#F3F3F3"/>
<path fill-rule="evenodd" clip-rule="evenodd" d="M92.9545 133.96C93.1601 133.96 93.2628 134.062 93.2628 134.268C93.3358 134.666 93.2332 134.974 92.9545 135.193C90.0579 135.39 87.2832 135.184 84.6302 134.576C84.6644 134.386 84.7671 134.232 84.9385 134.114C87.6084 133.96 90.2805 133.908 92.9545 133.96Z" fill="#F6F6F6"/>
<path fill-rule="evenodd" clip-rule="evenodd" d="M75.381 133.959C77.5391 133.959 79.6973 133.959 81.8554 133.959C81.9214 134.466 81.8184 134.928 81.5471 135.346C79.2884 135.501 77.0276 135.552 74.7643 135.501C74.7311 134.88 74.9364 134.366 75.381 133.959Z" fill="#E7E7E7"/>
<path fill-rule="evenodd" clip-rule="evenodd" d="M70.4481 133.959C71.0647 133.959 71.6813 133.959 72.2979 133.959C72.3223 134.4 72.2196 134.811 71.9896 135.192C71.2981 135.493 70.5788 135.595 69.8315 135.501C69.7982 134.88 70.0035 134.366 70.4481 133.959Z" fill="#E5E5E5"/>
<path fill-rule="evenodd" clip-rule="evenodd" d="M144.133 131.801C146.038 131.395 147.991 131.395 149.991 131.801C150.987 132.893 151.707 134.126 152.149 135.5C150.399 135.551 148.652 135.5 146.908 135.346C145.94 134.171 145.015 132.989 144.133 131.801Z" fill="#F1F1F1"/>
<path fill-rule="evenodd" clip-rule="evenodd" d="M134.268 131.493C136.428 131.442 138.586 131.493 140.742 131.647C141.216 131.989 141.421 132.452 141.359 133.034C138.986 133.136 136.622 133.033 134.268 132.726C133.865 132.305 133.865 131.894 134.268 131.493Z" fill="#E7E7E7"/>
<path fill-rule="evenodd" clip-rule="evenodd" d="M131.184 131.801C131.472 132.13 131.575 132.541 131.493 133.034C128.149 133.135 124.86 133.032 121.627 132.726C121.627 132.417 121.627 132.109 121.627 131.801C124.813 131.801 127.999 131.801 131.184 131.801Z" fill="#F5F5F5"/>
<path fill-rule="evenodd" clip-rule="evenodd" d="M109.911 131.493C112.585 131.442 115.257 131.493 117.927 131.647C118.423 131.97 118.628 132.433 118.544 133.034C115.563 133.034 112.583 133.034 109.603 133.034C109.562 132.482 109.664 131.968 109.911 131.493Z" fill="#E4E4E4"/>
<path fill-rule="evenodd" clip-rule="evenodd" d="M106.828 132.11C106.828 132.418 106.828 132.726 106.828 133.035C103.54 133.035 100.251 133.035 96.9624 133.035C96.8965 132.528 96.9994 132.065 97.2708 131.647C100.251 131.442 103.231 131.442 106.212 131.647C106.379 131.868 106.585 132.023 106.828 132.11Z" fill="#E8E8E8"/>
<path fill-rule="evenodd" clip-rule="evenodd" d="M86.1717 131.493C88.7409 131.493 91.3103 131.493 93.8794 131.493C93.8794 132.007 93.8794 132.521 93.8794 133.035C91.1046 133.035 88.3299 133.035 85.5551 133.035C85.5135 132.401 85.7191 131.887 86.1717 131.493Z" fill="#E4E4E4"/>
<path fill-rule="evenodd" clip-rule="evenodd" d="M71.373 133.034C71.3906 132.693 71.4932 132.384 71.6813 132.11C71.9245 132.022 72.1302 131.868 72.2979 131.647C75.7904 131.493 79.2848 131.441 82.7803 131.493C82.8463 132 82.7433 132.462 82.472 132.88C78.7739 133.034 75.0742 133.086 71.373 133.034Z" fill="#E3E3E3"/>
<path fill-rule="evenodd" clip-rule="evenodd" d="M131.185 131.801C127.999 131.801 124.813 131.801 121.627 131.801C121.627 132.109 121.627 132.418 121.627 132.726C121.339 132.397 121.236 131.986 121.319 131.493C124.663 131.392 127.951 131.495 131.185 131.801Z" fill="#B2B2B2"/>
<path fill-rule="evenodd" clip-rule="evenodd" d="M121.319 129.643C123.274 129.592 125.227 129.643 127.177 129.797C127.435 130.109 127.537 130.469 127.485 130.876C125.429 130.876 123.374 130.876 121.319 130.876C121.319 130.465 121.319 130.054 121.319 129.643Z" fill="#E8E8E8"/>
<path fill-rule="evenodd" clip-rule="evenodd" d="M141.05 129.643C143.519 129.592 145.985 129.643 148.45 129.797C148.714 130.01 148.919 130.267 149.066 130.568C146.503 130.927 143.934 130.979 141.359 130.722C141.101 130.411 140.998 130.051 141.05 129.643Z" fill="#F2F2F2"/>
<path fill-rule="evenodd" clip-rule="evenodd" d="M130.568 129.643C133.036 129.592 135.503 129.643 137.967 129.797C138.225 130.109 138.328 130.469 138.276 130.876C135.706 130.876 133.137 130.876 130.568 130.876C130.568 130.465 130.568 130.054 130.568 129.643Z" fill="#F2F2F2"/>
<path fill-rule="evenodd" clip-rule="evenodd" d="M109.911 129.643C112.688 129.592 115.463 129.643 118.236 129.797C118.494 130.109 118.596 130.469 118.544 130.876C115.667 130.876 112.789 130.876 109.911 130.876C109.911 130.465 109.911 130.054 109.911 129.643Z" fill="#F3F3F3"/>
<path fill-rule="evenodd" clip-rule="evenodd" d="M100.046 129.643C102.409 129.643 104.773 129.643 107.137 129.643C107.137 130.054 107.137 130.465 107.137 130.876C104.67 130.876 102.204 130.876 99.7372 130.876C99.7166 130.426 99.8192 130.015 100.046 129.643Z" fill="#F1F1F1"/>
<path fill-rule="evenodd" clip-rule="evenodd" d="M96.9624 129.951C96.9624 130.259 96.9624 130.567 96.9624 130.876C94.5986 130.876 92.2352 130.876 89.8714 130.876C89.819 130.468 89.9216 130.108 90.1797 129.797C92.4957 129.543 94.7565 129.595 96.9624 129.951Z" fill="#EFEFEF"/>
<path fill-rule="evenodd" clip-rule="evenodd" d="M83.0887 130.876C82.0411 130.974 81.0132 130.872 80.0056 130.568C80.1175 130.357 80.2202 130.151 80.3139 129.951C82.5177 129.645 84.7785 129.542 87.0967 129.643C87.1491 130.05 87.0464 130.41 86.7884 130.722C85.5595 130.876 84.3262 130.927 83.0887 130.876Z" fill="#F2F2F2"/>
<path fill-rule="evenodd" clip-rule="evenodd" d="M77.2308 130.568C76.4869 130.756 75.7161 130.859 74.9185 130.876C74.1139 130.866 73.4458 130.661 72.9146 130.26C72.9488 130.07 73.0514 129.915 73.2229 129.797C74.5551 129.643 75.8909 129.592 77.2308 129.643C77.2308 129.951 77.2308 130.26 77.2308 130.568Z" fill="#EFEFEF"/>
<path fill-rule="evenodd" clip-rule="evenodd" d="M153.999 124.401C154.292 124.839 154.395 125.352 154.308 125.943C127.896 125.994 101.484 125.943 75.0727 125.789C101.381 125.635 127.69 125.583 153.999 125.635C153.999 125.224 153.999 124.812 153.999 124.401Z" fill="#1D1D1D"/>
<path fill-rule="evenodd" clip-rule="evenodd" d="M71.9896 125.019C72.5705 125.084 72.9815 125.392 73.2229 125.943C72.6232 127.249 71.8009 128.38 70.7564 129.335C70.215 128.814 70.0609 128.197 70.2939 127.485C70.9272 126.7 71.4923 125.877 71.9896 125.019Z" fill="#E4E4E4"/>
<path fill-rule="evenodd" clip-rule="evenodd" d="M63.6653 122.86C64.1891 122.811 64.7031 122.862 65.2068 123.014C64.7444 123.477 64.2819 123.939 63.8195 124.401C63.6672 123.898 63.616 123.384 63.6653 122.86Z" fill="#EBEBEB"/>
<path fill-rule="evenodd" clip-rule="evenodd" d="M74.1478 122.552C100.149 122.5 126.149 122.552 152.149 122.706C152.66 123.151 152.865 123.716 152.766 124.401C126.868 124.453 100.97 124.401 75.0727 124.247C74.4231 123.858 74.1148 123.292 74.1478 122.552Z" fill="#EEEEEE"/>
<path fill-rule="evenodd" clip-rule="evenodd" d="M80.3139 113.611C80.2797 113.802 80.177 113.956 80.0056 114.074C76.1018 114.228 72.1965 114.279 68.2899 114.228C72.2581 114.012 76.2661 113.806 80.3139 113.611Z" fill="#BABABA"/>
<path fill-rule="evenodd" clip-rule="evenodd" d="M92.0296 113.303C101.999 113.251 111.967 113.303 121.935 113.457C122.346 113.868 122.346 114.279 121.935 114.69C112.07 114.896 102.204 114.896 92.3379 114.69C92.0666 114.272 91.9636 113.809 92.0296 113.303Z" fill="#F1F1F1"/>
<path fill-rule="evenodd" clip-rule="evenodd" d="M44.8586 111.761C45.026 111.779 45.1287 111.882 45.1669 112.069C44.1594 112.373 43.1315 112.476 42.0839 112.377C43.0088 112.172 43.9337 111.966 44.8586 111.761Z" fill="#898989"/>
<path fill-rule="evenodd" clip-rule="evenodd" d="M157.699 110.22C158.155 110.139 158.566 110.242 158.932 110.528C157.508 110.834 156.069 110.937 154.616 110.837C155.643 110.631 156.671 110.426 157.699 110.22Z" fill="#878787"/>
<path fill-rule="evenodd" clip-rule="evenodd" d="M113.303 100.97C115.344 101.004 116.628 102.032 117.157 104.054C117.683 103.154 118.249 102.28 118.852 101.433C119.523 101.062 120.243 100.908 121.01 100.97C121.059 101.394 121.007 101.805 120.856 102.204C119.9 103.674 119.078 105.216 118.39 106.828C118.236 107.748 118.185 108.673 118.236 109.603C117.529 109.682 116.861 109.579 116.232 109.295C116.129 108.267 116.026 107.239 115.923 106.212C115.178 104.824 114.356 103.488 113.457 102.204C113.306 101.805 113.254 101.394 113.303 100.97Z" fill="#EFEFEF"/>
<path fill-rule="evenodd" clip-rule="evenodd" d="M105.595 100.97C107.627 100.874 109.631 100.977 111.607 101.279C111.841 101.978 111.789 102.646 111.453 103.283C110.224 103.436 108.991 103.488 107.753 103.437C107.753 103.745 107.753 104.053 107.753 104.362C108.888 104.311 110.019 104.362 111.145 104.516C111.556 105.132 111.556 105.749 111.145 106.366C110.019 106.519 108.888 106.571 107.753 106.52C107.753 106.828 107.753 107.136 107.753 107.445C109.089 107.445 110.425 107.445 111.761 107.445C111.761 108.164 111.761 108.884 111.761 109.603C109.627 109.699 107.52 109.596 105.441 109.295C105.193 106.496 105.245 103.721 105.595 100.97Z" fill="#E6E6E6"/>
<path fill-rule="evenodd" clip-rule="evenodd" d="M98.1957 100.97C102.195 100.705 104.096 102.555 103.899 106.52C102.296 109.707 99.8806 110.478 96.6541 108.832C94.2225 105.62 94.7365 102.999 98.1957 100.97Z" fill="#F0F0F0"/>
<path fill-rule="evenodd" clip-rule="evenodd" d="M98.504 103.129C101.387 103.088 102.21 104.373 100.97 106.983C99.0133 107.997 97.8831 107.432 97.5791 105.287C97.6392 104.449 97.9475 103.73 98.504 103.129Z" fill="#FF7A00"/>
<path fill-rule="evenodd" clip-rule="evenodd" d="M139.817 100.046C140.948 100.046 142.078 100.046 143.209 100.046C143.275 100.718 143.018 101.232 142.438 101.587C140.981 100.831 139.491 100.779 137.967 101.433C144.8 102.306 147.832 106.16 147.062 112.995C144.418 119.192 139.948 121.094 133.651 118.698C129.843 116.271 128.352 112.828 129.181 108.37C129.776 106.614 130.649 105.021 131.801 103.591C130.979 103.797 130.157 104.002 129.335 104.208C130.641 102.702 132.234 102.137 134.113 102.512C134.413 103.096 134.619 103.712 134.73 104.362C135.189 104.16 135.548 103.852 135.809 103.437C135.415 102.758 135.415 102.091 135.809 101.433C137.089 100.73 138.425 100.268 139.817 100.046Z" fill="#F6F6F6"/>
<path fill-rule="evenodd" clip-rule="evenodd" d="M137.042 105.903C141.468 105.752 143.266 107.807 142.438 112.069C142.197 112.864 141.734 113.48 141.05 113.919C140.572 113.212 140.161 112.442 139.817 111.607C138.898 111.453 137.973 111.402 137.042 111.453C136.917 112.408 137.276 113.128 138.121 113.611C138.274 114.115 138.325 114.629 138.276 115.153C135.484 114.982 133.942 113.491 133.651 110.682C133.892 108.44 135.023 106.847 137.042 105.903Z" fill="#FF7A00"/>
<path fill-rule="evenodd" clip-rule="evenodd" d="M137.351 106.212C138.094 106.742 138.916 107.153 139.817 107.445C139.753 107.626 139.65 107.78 139.509 107.908C140.638 108.665 140.638 109.487 139.509 110.374C137.316 110.542 136.236 109.566 136.272 107.445C136.484 106.875 136.844 106.463 137.351 106.212Z" fill="#EBEBEB"/>
<path fill-rule="evenodd" clip-rule="evenodd" d="M149.683 100.354C154.396 102.261 159.329 103.083 164.482 102.82C168.997 102.836 173.415 102.219 177.739 100.97C177.851 101.713 177.542 102.176 176.814 102.358C170.96 103.967 165 104.481 158.932 103.899C156.121 103.584 153.346 103.173 150.608 102.666C151.433 103.387 152.358 103.952 153.383 104.362C152.793 104.531 152.176 104.583 151.533 104.516C152.525 105.02 153.552 105.431 154.616 105.749C153.794 105.852 152.972 105.955 152.149 106.057C156.091 107.027 160.099 107.593 164.173 107.753C168.536 107.541 172.853 107.079 177.122 106.365C175.152 107.604 172.994 108.324 170.648 108.524C165.921 108.729 161.193 108.729 156.466 108.524C154.036 108.513 151.827 107.844 149.837 106.52C149.284 104.473 149.233 102.418 149.683 100.354Z" fill="#E2E2E2"/>
<path fill-rule="evenodd" clip-rule="evenodd" d="M158.007 99.1203C158.501 99.0623 158.913 99.2165 159.24 99.5827C158.153 99.8318 157.125 99.7804 156.157 99.4286C156.846 99.5195 157.463 99.4166 158.007 99.1203Z" fill="#7B7B7B"/>
<path fill-rule="evenodd" clip-rule="evenodd" d="M130.26 98.5039C130.683 98.4555 131.094 98.507 131.493 98.6581C132.671 101.313 134.367 101.673 136.58 99.7372C136.631 99.8398 136.683 99.9428 136.734 100.045C136.349 100.649 135.835 101.112 135.192 101.433C133.548 101.638 131.904 101.638 130.26 101.433C129.057 100.444 129.057 99.4677 130.26 98.5039Z" fill="#E6E6E6"/>
<path fill-rule="evenodd" clip-rule="evenodd" d="M170.956 96.6543C172.456 96.7465 173.792 97.2604 174.964 98.1958C174.758 98.2985 174.553 98.4015 174.347 98.5041C173.073 98.1921 171.84 97.8838 170.648 97.5792C171.374 97.6295 172.094 97.5783 172.806 97.4251C172.081 97.3511 171.464 97.0943 170.956 96.6543Z" fill="#CACACA"/>
<path fill-rule="evenodd" clip-rule="evenodd" d="M150.3 97.5792C150.056 97.9211 149.902 98.332 149.837 98.8124C149.686 98.4137 149.635 98.0025 149.683 97.5792C74.354 97.3707 74.5597 97.3707 150.3 97.5792Z" fill="#FF7A00"/>
<path fill-rule="evenodd" clip-rule="evenodd" d="M54.4161 146.6C54.4969 147.056 54.3942 147.467 54.1078 147.833C53.5868 147.211 53.0731 146.594 52.5663 145.983C52.8324 146.722 52.8324 147.441 52.5663 148.141C51.7471 147.325 51.0793 146.4 50.5623 145.367C50.9538 146.446 51.1592 147.576 51.1789 148.758C50.5796 147.645 49.8603 146.618 49.0208 145.675C49.3491 146.665 49.5548 147.693 49.6374 148.758C49.0972 147.78 48.4806 146.855 47.7875 145.983C48.2694 147.159 48.5777 148.392 48.7125 149.683C47.7875 148.347 46.8626 147.011 45.9377 145.675C46.4162 146.848 46.8786 148.081 47.3251 149.375C47.0615 149.619 46.8043 149.517 46.5543 149.066C45.9377 148.244 45.3211 147.422 44.7045 146.6C44.9443 147.54 45.4068 148.413 46.0918 149.221C45.9892 149.272 45.8862 149.323 45.7835 149.375C40.563 144.063 34.2939 140.569 26.9768 138.892C26.6216 137.013 26.7757 135.163 27.4393 133.343C28.9013 128.648 30.5456 124.024 32.3722 119.469C33.3634 118.115 34.6481 117.19 36.226 116.694C36.4317 116.797 36.637 116.9 36.8426 117.002C36.342 117.425 36.1878 117.939 36.3802 118.544C38.3219 116.549 40.5827 115.11 43.1629 114.228C43.5227 114.33 43.8822 114.433 44.242 114.536C43.2567 115.475 42.7942 116.606 42.8546 117.927C44.7917 115.68 47.001 113.779 49.4832 112.224C50.5296 111.992 51.5572 112.043 52.5663 112.378C52.669 112.686 52.7719 112.995 52.8746 113.303C52.2971 114.559 51.629 115.792 50.8706 117.002C50.6215 117.643 50.673 118.26 51.0248 118.852C56.5971 111.307 61.7871 103.496 66.5942 95.421C67.9483 92.8066 69.5925 92.6012 71.5272 94.8044C71.7328 95.832 71.7328 96.8599 71.5272 97.8875C67.8947 104.433 64.5033 111.113 61.353 117.927C59.1702 122.677 57.5775 127.61 56.5743 132.726C56.5425 133.508 56.6967 134.228 57.0367 134.884C58.1812 133.226 59.62 131.89 61.353 130.876C62.9297 127.758 65.242 125.343 68.2899 123.631C69.6335 123.3 70.8668 123.505 71.9896 124.248C70.9839 125.047 70.2132 126.023 69.6773 127.177C69.8438 128.4 69.9468 129.633 69.9856 130.876C69.4624 131.554 69 132.274 68.5982 133.034C68.3596 133.408 68.1028 133.408 67.8275 133.034C67.6752 133.538 67.624 134.052 67.6733 134.576C67.349 134.622 67.0407 134.571 66.7484 134.422C66.4025 133.767 65.94 133.202 65.361 132.726C65.3746 133.275 65.5802 133.788 65.9776 134.268C66.1833 134.884 66.1833 135.501 65.9776 136.118C63.5451 139.697 60.7192 142.934 57.4992 145.829C56.9304 146.177 56.3138 146.331 55.6494 146.292C55.6494 146.6 55.6494 146.908 55.6494 147.217C55.1255 147.208 54.7143 147.003 54.4161 146.6Z" fill="#FAFAFA"/>
<path fill-rule="evenodd" clip-rule="evenodd" d="M54.4161 146.6C53.9275 146.445 53.7733 146.137 53.9537 145.675C54.274 145.904 54.4282 146.212 54.4161 146.6Z" fill="#1F1F1F"/>
<path fill-rule="evenodd" clip-rule="evenodd" d="M52.5663 145.983C52.1541 145.732 51.8458 145.372 51.6414 144.904C52.2512 144.914 52.5595 145.274 52.5663 145.983Z" fill="#414141"/>
<path fill-rule="evenodd" clip-rule="evenodd" d="M60.8906 107.445C61.8457 107.038 62.668 107.295 63.357 108.215C62.5992 107.895 61.7769 107.638 60.8906 107.445Z" fill="#FF7A00"/>
<path fill-rule="evenodd" clip-rule="evenodd" d="M64.8986 100.971C65.7322 100.658 66.4515 100.915 67.0567 101.741C66.3738 101.508 65.6542 101.251 64.8986 100.971Z" fill="#FF7A00"/>
<path fill-rule="evenodd" clip-rule="evenodd" d="M70.1398 95.1123C70.4209 96.3656 70.0097 97.4446 68.9065 98.3495C67.8833 98.5764 66.9583 98.3711 66.1318 97.7329C66.6494 97.6111 67.1631 97.6626 67.6733 97.8871C68.1167 97.8195 68.5276 97.6654 68.9065 97.4246C69.3647 96.6615 69.7757 95.8908 70.1398 95.1123Z" fill="#FF7A00"/>
<path fill-rule="evenodd" clip-rule="evenodd" d="M115.153 92.6463C119.162 92.5948 123.17 92.6463 127.177 92.8004C127.588 93.2114 127.588 93.6227 127.177 94.0336C123.169 94.2393 119.161 94.2393 115.153 94.0336C114.774 93.5743 114.774 93.1118 115.153 92.6463Z" fill="#FF7A00"/>
<path fill-rule="evenodd" clip-rule="evenodd" d="M92.3378 89.2548C112.12 88.8957 131.955 88.8442 151.841 89.1007C141.968 89.4595 132.051 89.6137 122.089 89.5631C112.151 89.5619 102.233 89.4592 92.3378 89.2548Z" fill="#FF7A00"/>
<path fill-rule="evenodd" clip-rule="evenodd" d="M49.1749 87.4051C57.3971 87.3536 65.6184 87.4051 73.8394 87.5592C76.7159 89.1877 77.3837 91.5 75.8434 94.4961C75.4152 95.0286 74.9013 95.4398 74.3019 95.7293C73.7093 95.0236 73.2984 94.2017 73.0687 93.2629C70.8905 91.0585 68.5782 90.9043 66.1318 92.8004C65.2583 93.8265 64.5391 94.957 63.9736 96.1918C59.1434 96.3974 54.3135 96.3974 49.4832 96.1918C46.5506 94.5932 45.7798 92.2809 47.1709 89.2549C47.8069 88.5661 48.4747 87.9495 49.1749 87.4051Z" fill="#F5F5F5"/>
<path fill-rule="evenodd" clip-rule="evenodd" d="M60.5822 89.8711C61.0499 89.8745 61.4097 90.0798 61.6613 90.4877C62.1136 91.4922 62.4731 92.5201 62.7404 93.5708C62.0698 93.5147 61.4532 93.309 60.8906 92.9542C60.3285 93.3688 59.7119 93.523 59.0407 93.4166C59.4656 92.193 59.9792 91.0109 60.5822 89.8711Z" fill="#FF7A00"/>
<path fill-rule="evenodd" clip-rule="evenodd" d="M60.5823 91.4131C61.1881 91.5512 61.2908 91.8595 60.8906 92.338C60.6174 92.0837 60.5148 91.7753 60.5823 91.4131Z" fill="#E6E6E6"/>
<path fill-rule="evenodd" clip-rule="evenodd" d="M62.4321 89.8711C63.3598 89.8473 64.0279 90.2583 64.4361 91.1043C64.8255 90.3961 65.3909 90.1393 66.1318 90.3335C65.2374 91.2483 64.6208 92.3274 64.282 93.5708C63.9838 92.1523 63.3672 90.919 62.4321 89.8711Z" fill="#FF7A00"/>
<path fill-rule="evenodd" clip-rule="evenodd" d="M55.6494 89.8718C58.7007 89.7738 59.4199 90.9555 57.8075 93.4174C57.0953 93.5706 56.376 93.6218 55.6494 93.5715C55.6494 92.3383 55.6494 91.1051 55.6494 89.8718Z" fill="#FF7A00"/>
<path fill-rule="evenodd" clip-rule="evenodd" d="M56.5743 90.7959C57.6743 90.8757 58.0853 91.4924 57.8075 92.6457C57.3965 92.6457 56.9853 92.6457 56.5743 92.6457C56.5743 92.0291 56.5743 91.4125 56.5743 90.7959Z" fill="#EFEFEF"/>
<path fill-rule="evenodd" clip-rule="evenodd" d="M51.9497 89.8711C54.8228 89.9198 55.4394 91.1019 53.7995 93.4166C50.9017 93.5045 50.2851 92.3227 51.9497 89.8711Z" fill="#FF7A00"/>
<path fill-rule="evenodd" clip-rule="evenodd" d="M52.258 90.796C53.5458 90.5931 54.0082 91.1068 53.6454 92.3375C53.2409 93.0029 52.7272 93.1055 52.1038 92.6458C51.8948 91.999 51.9463 91.3824 52.258 90.796Z" fill="#DDDDDD"/>
<path fill-rule="evenodd" clip-rule="evenodd" d="M92.0296 86.1717C111.967 86.1202 131.904 86.1717 151.841 86.3258C152.663 87.0451 152.663 87.7647 151.841 88.484C132.007 88.6896 112.172 88.6896 92.3379 88.484C91.6174 87.8075 91.5147 87.0368 92.0296 86.1717Z" fill="#F8F8F8"/>
<path fill-rule="evenodd" clip-rule="evenodd" d="M152.149 84.3223C152.184 84.5125 152.286 84.6666 152.458 84.7847C151.812 85.0505 151.504 85.41 151.533 85.8638C132.019 85.6079 112.493 85.4538 92.9545 85.4013C112.378 85.2987 131.801 85.1957 151.224 85.093C131.852 85.0415 112.532 84.8874 93.2628 84.6306C112.914 84.732 132.543 84.6293 152.149 84.3223Z" fill="#FF7A00"/>
<path fill-rule="evenodd" clip-rule="evenodd" d="M152.149 84.3223C132.543 84.6294 112.914 84.732 93.2628 84.6306C91.6694 84.3719 91.3611 83.6012 92.3379 82.3183C112.172 82.1127 132.007 82.1127 151.841 82.3183C152.514 82.9035 152.617 83.5713 152.149 84.3223Z" fill="#F9F9F9"/>
<path fill-rule="evenodd" clip-rule="evenodd" d="M67.0567 80.0059C66.5813 80.2103 66.0673 80.4159 65.5152 80.6225C66.7314 80.928 67.9647 81.0307 69.2148 80.9308C67.9403 81.2345 66.6041 81.3371 65.2068 81.2391C65.2068 80.8281 65.2068 80.4168 65.2068 80.0059C65.8235 80.0059 66.4401 80.0059 67.0567 80.0059Z" fill="#969696"/>
<path fill-rule="evenodd" clip-rule="evenodd" d="M43.9337 71.9893C44.1393 72.9142 44.3447 73.8391 44.5503 74.764C44.5987 75.1873 44.5472 75.5986 44.3962 75.9972C44.2935 75.8946 44.1905 75.7916 44.0878 75.6889C43.934 74.46 43.8825 73.2268 43.9337 71.9893Z" fill="#787878"/>
<path fill-rule="evenodd" clip-rule="evenodd" d="M80.9305 112.686C80.8279 112.994 80.6222 113.2 80.3139 113.303C80.1465 113.284 80.0438 113.181 80.0056 112.994C80.2615 92.7613 80.4157 72.5157 80.4681 52.2578C80.5196 72.4522 80.6737 92.5951 80.9305 112.686Z" fill="#FF7A00"/>
<path fill-rule="evenodd" clip-rule="evenodd" d="M147.525 70.7565C149.48 70.7053 151.433 70.7565 153.383 70.9106C153.794 71.5273 153.794 72.1439 153.383 72.7605C152.787 72.8379 152.222 72.992 151.687 73.2229C151.584 75.0728 151.481 76.9226 151.379 78.7725C150.659 79.5947 149.94 79.5947 149.22 78.7725C149.118 76.9226 149.015 75.0728 148.912 73.2229C148.388 72.9436 147.823 72.8409 147.216 72.9146C147.154 72.1593 147.257 71.44 147.525 70.7565Z" fill="#F0F0F0"/>
<path fill-rule="evenodd" clip-rule="evenodd" d="M139.509 70.7568C140.256 70.6619 140.975 70.7648 141.667 71.0651C142.584 72.3428 143.561 73.576 144.596 74.7648C144.699 73.5316 144.802 72.2984 144.904 71.0651C145.521 70.6542 146.137 70.6542 146.754 71.0651C146.96 73.6343 146.96 76.2037 146.754 78.7728C146.405 79.3003 145.942 79.4545 145.367 79.2353C144.185 77.8479 143.003 76.4605 141.821 75.0731C141.718 76.409 141.615 77.7452 141.513 79.0811C140.814 79.5235 140.197 79.4209 139.663 78.7728C139.509 76.1029 139.458 73.4308 139.509 70.7568Z" fill="#F6F6F6"/>
<path fill-rule="evenodd" clip-rule="evenodd" d="M133.651 70.7564C135.196 70.7053 136.737 70.7568 138.276 70.9106C138.929 71.3801 139.032 71.9453 138.584 72.6063C137.363 72.8613 136.13 73.0154 134.884 73.0687C134.473 73.3771 134.473 73.6854 134.884 73.9937C135.912 74.0963 136.94 74.1993 137.967 74.302C138.378 74.8159 138.378 75.3296 137.967 75.8435C136.841 75.9973 135.711 76.0485 134.576 75.9977C134.576 76.306 134.576 76.6143 134.576 76.9226C135.813 76.8714 137.047 76.9229 138.276 77.0767C138.929 77.5463 139.032 78.1114 138.584 78.7724C132.835 80.474 130.626 78.4188 131.955 72.6063C132.375 71.8284 132.94 71.2118 133.651 70.7564Z" fill="#F0F0F0"/>
<path fill-rule="evenodd" clip-rule="evenodd" d="M102.82 70.7566C103.901 70.6006 104.878 70.8059 105.749 71.3732C106.876 73.6762 107.853 76.04 108.678 78.4642C108.309 79.2775 107.693 79.5344 106.828 79.235C105.587 77.8402 104.045 77.4804 102.204 78.1559C101.621 79.3296 100.747 79.638 99.583 79.0808C100.304 76.1948 101.383 73.42 102.82 70.7566Z" fill="#F1F1F1"/>
<path fill-rule="evenodd" clip-rule="evenodd" d="M103.745 73.5312C104.35 74.0304 104.761 74.6985 104.978 75.5352C104.337 75.7844 103.721 75.7329 103.129 75.3811C103.513 74.819 103.719 74.2024 103.745 73.5312Z" fill="#FF7A00"/>
<path fill-rule="evenodd" clip-rule="evenodd" d="M92.6462 70.7564C94.3961 70.7053 96.1433 70.7568 97.8874 70.9106C99.6167 71.9209 100.182 73.411 99.5831 75.381C99.1974 76.2693 98.5296 76.8344 97.5791 77.0767C96.6542 77.1794 95.7292 77.2824 94.8043 77.385C94.7433 78.4256 94.2293 79.0937 93.2628 79.389C92.7914 79.3801 92.4316 79.1744 92.1837 78.7724C91.9781 76.306 91.9781 73.8395 92.1837 71.3731C92.4048 71.2053 92.5589 70.9997 92.6462 70.7564Z" fill="#F2F2F2"/>
<path fill-rule="evenodd" clip-rule="evenodd" d="M96.9625 73.2227C97.4141 73.8535 97.3115 74.4189 96.6542 74.9184C96.0375 75.124 95.4209 75.124 94.8043 74.9184C94.5463 74.6067 94.4436 74.2469 94.496 73.8393C95.2051 73.3145 96.0274 73.1092 96.9625 73.2227Z" fill="#FF7A00"/>
<path fill-rule="evenodd" clip-rule="evenodd" d="M96.9624 73.223C96.0273 73.1096 95.2051 73.3149 94.496 73.8397C94.496 73.5314 94.496 73.223 94.496 72.9147C95.3854 72.8204 96.2077 72.9231 96.9624 73.223Z" fill="#5D5D5D"/>
<path fill-rule="evenodd" clip-rule="evenodd" d="M117.619 70.448C118.639 70.3888 119.41 70.7998 119.931 71.6812C120.047 71.3988 120.201 71.1417 120.394 70.9104C121.113 70.7048 121.833 70.7048 122.552 70.9104C123.256 72.0456 123.872 73.2274 124.402 74.456C124.886 73.2591 125.4 72.0774 125.943 70.9104C127.808 70.308 128.887 70.9761 129.181 72.9144C129.857 74.936 130.268 76.9915 130.414 79.0806C129.425 79.5813 128.603 79.3759 127.947 78.4639C127.639 77.2307 127.331 75.9975 127.022 74.7643C126.464 76.0641 126.002 77.4003 125.635 78.7723C124.657 79.6463 123.784 79.5436 123.014 78.4639C122.601 77.2276 122.19 75.9944 121.781 74.7643C121.678 76.1002 121.575 77.4364 121.473 78.7723C121.144 79.322 120.681 79.4761 120.085 79.2347C119.406 77.8073 118.841 76.3172 118.39 74.7643C118.109 76.2429 117.698 77.6818 117.157 79.0806C116.1 79.6312 115.329 79.3741 114.844 78.3098C115.385 76.1964 115.951 74.0897 116.54 71.9895C116.847 71.4275 117.207 70.9135 117.619 70.448Z" fill="#F1F1F1"/>
<path fill-rule="evenodd" clip-rule="evenodd" d="M107.753 70.7567C108.499 70.6926 109.219 70.7956 109.911 71.065C110.452 71.8374 110.914 72.6593 111.299 73.5315C111.826 72.6319 112.391 71.7581 112.994 70.9109C113.603 70.7583 114.219 70.7068 114.844 70.7567C114.893 71.18 114.841 71.5913 114.69 71.99C113.194 74.1151 112.372 76.4786 112.224 79.081C111.607 79.492 110.99 79.492 110.374 79.081C110.339 76.4428 109.517 74.0794 107.907 71.99C107.756 71.5913 107.705 71.18 107.753 70.7567Z" fill="#F1F1F1"/>
<path fill-rule="evenodd" clip-rule="evenodd" d="M59.9656 67.3652C65.2654 67.5801 67.6804 70.3549 67.2108 75.6895C65.5515 80.3496 62.52 81.6343 58.1158 79.5433C55.8917 77.3827 55.1209 74.7621 55.8035 71.6815C56.6319 69.6717 58.0193 68.2328 59.9656 67.3652Z" fill="#F4F4F4"/>
<path fill-rule="evenodd" clip-rule="evenodd" d="M60.8906 70.1396C61.7248 70.5062 62.4444 71.0714 63.0487 71.8353C62.946 71.9895 62.8431 72.1436 62.7404 72.2978C62.0412 71.9759 61.3219 71.9244 60.5822 72.1436C60.2687 72.4671 60.2172 72.8268 60.4281 73.2227C64.3538 74.2481 64.6621 75.8923 61.353 78.1556C61.0669 77.3741 60.5015 77.0658 59.6573 77.2307C59.5766 76.775 59.6792 76.3641 59.9656 75.9975C61.0472 76.9196 61.9721 76.817 62.7404 75.6892C61.6952 74.9431 60.6162 74.2238 59.5032 73.531C59.0651 72.3194 59.4249 71.4971 60.5822 71.0646C60.8554 70.8102 60.9581 70.5019 60.8906 70.1396Z" fill="#FF7A00"/>
<path fill-rule="evenodd" clip-rule="evenodd" d="M69.2149 80.9305C67.9647 81.0303 66.7315 80.9277 65.5152 80.6221C66.0674 80.4156 66.5813 80.2099 67.0567 80.0055C67.702 79.8375 68.3186 79.5807 68.9066 79.2348C69.9092 77.9112 71.2451 77.2434 72.9146 77.2308C73.423 76.5679 73.9881 75.9513 74.6102 75.3809C74.7641 74.152 74.8156 72.9188 74.7644 71.6813C73.6825 71.5863 73.1686 70.9697 73.2229 69.8314C71.2417 70.1767 69.7001 69.5086 68.5983 67.8274C67.5707 67.7248 66.5428 67.6218 65.5152 67.5191C65.2571 67.2074 65.1545 66.8476 65.2069 66.44C66.5468 66.3889 67.8827 66.4403 69.2149 66.5942C70.3251 68.2282 71.8666 68.9478 73.8395 68.7523C74.1336 69.9214 74.8529 70.5892 75.9976 70.7563C76.0488 72.7116 75.9976 74.6641 75.8435 76.6142C74.7644 76.871 74.0963 77.5391 73.8395 78.6182C71.7751 78.4171 70.2335 79.1879 69.2149 80.9305Z" fill="#EAEAEA"/>
<path fill-rule="evenodd" clip-rule="evenodd" d="M53.4912 66.4404C54.9301 66.4404 56.3686 66.4404 57.8075 66.4404C57.8599 66.848 57.7572 67.2078 57.4992 67.5195C55.3574 67.3065 53.6102 68.0261 52.258 69.6776C51.4357 69.7803 50.6138 69.8833 49.7915 69.986C49.6284 70.7348 49.2171 71.3 48.5583 71.6816C48.2003 73.0058 48.1489 74.342 48.4041 75.6896C49.1894 75.9896 49.6519 76.555 49.7915 77.3853C50.6138 77.488 51.4357 77.591 52.258 77.6936C53.1872 78.3161 54.0092 79.0354 54.7244 79.8518C55.7471 80.0053 56.7747 80.0568 57.8075 80.0059C57.8599 80.4135 57.7572 80.7733 57.4992 81.085C56.266 81.2906 55.0327 81.2906 53.7995 81.085C52.6569 79.3298 51.0127 78.5076 48.8666 78.6185C48.6425 78.1872 48.4883 77.7248 48.4041 77.2312C47.8902 77.0255 47.3766 76.8202 46.8626 76.6146C46.657 74.662 46.657 72.7092 46.8626 70.7567C47.3278 70.5748 47.7903 70.3695 48.25 70.1401C48.427 69.6595 48.6323 69.197 48.8666 68.7527C50.1673 68.6994 51.4006 68.3911 52.5663 67.8278C52.9927 67.436 53.301 66.9735 53.4912 66.4404Z" fill="#E1E1E1"/>
<path fill-rule="evenodd" clip-rule="evenodd" d="M92.0296 65.207C92.6462 65.4127 93.2628 65.618 93.8794 65.8236C93.1321 65.9186 92.4128 65.8156 91.7213 65.5153C91.7595 65.3282 91.8621 65.2255 92.0296 65.207Z" fill="#888888"/>
<path fill-rule="evenodd" clip-rule="evenodd" d="M93.8794 65.8236C93.2628 65.618 92.6462 65.4126 92.0295 65.207C111.749 64.7982 131.481 64.7982 151.224 65.207C150.242 65.6278 149.214 65.885 148.141 65.9778C130.047 66.23 111.96 66.1785 93.8794 65.8236Z" fill="#F1F1F1"/>
<path fill-rule="evenodd" clip-rule="evenodd" d="M121.319 59.6576C121.935 59.7602 122.552 59.8632 123.168 59.9659C133.352 61.4084 143.269 60.3806 152.92 56.8828C153.308 56.9907 153.411 57.1964 153.228 57.4994C151.089 59.1726 148.674 60.2517 145.983 60.7366C148.67 61.0927 151.291 60.8356 153.845 59.9659C153.999 60.0685 154.153 60.1715 154.307 60.2742C153.499 61.5019 152.369 62.2726 150.916 62.5865C138.584 62.7921 126.252 62.7921 113.919 62.5865C113.082 62.3167 112.671 61.7516 112.686 60.8908C114.334 60.942 115.978 60.8905 117.619 60.7366C116.007 60.3019 114.466 59.6853 112.994 58.8868C112.461 58.3352 112.256 57.6671 112.378 56.8828C115.26 58.1176 118.241 59.0425 121.319 59.6576Z" fill="#E7E7E7"/>
<path fill-rule="evenodd" clip-rule="evenodd" d="M130.568 57.499C130.671 57.499 130.774 57.499 130.876 57.499C130.746 58.2023 130.951 58.7162 131.493 59.0406C131.274 59.3193 130.966 59.4219 130.568 59.3489C130.568 58.7323 130.568 58.1156 130.568 57.499Z" fill="#8A8A8A"/>
<path fill-rule="evenodd" clip-rule="evenodd" d="M122.86 56.8828C123.545 56.901 123.854 57.2605 123.785 57.9619C123.728 58.3861 123.523 58.6429 123.169 58.7327C122.872 58.1885 122.769 57.5719 122.86 56.8828Z" fill="#E4E4E4"/>
<path fill-rule="evenodd" clip-rule="evenodd" d="M72.6062 56.8828C73.8394 56.8828 75.0727 56.8828 76.3059 56.8828C76.3719 57.3897 76.2689 57.8521 75.9976 58.2702C73.127 58.6263 73.127 58.8831 75.9976 59.041C75.9976 59.4519 75.9976 59.8632 75.9976 60.2742C75.2783 60.2742 74.5587 60.2742 73.8394 60.2742C73.8394 60.5825 73.8394 60.8908 73.8394 61.1991C74.6617 61.1991 75.4836 61.1991 76.3059 61.1991C76.3059 61.6101 76.3059 62.0214 76.3059 62.4323C74.97 62.4323 73.6338 62.4323 72.2979 62.4323C72.2088 60.5544 72.3118 58.7046 72.6062 56.8828Z" fill="#E7E7E7"/>
<path fill-rule="evenodd" clip-rule="evenodd" d="M66.4401 56.8826C66.8634 56.8342 67.2747 56.8857 67.6733 57.0368C68.3787 57.8824 69.0468 58.7562 69.6773 59.6574C69.8308 58.738 69.8823 57.8131 69.8315 56.8826C70.3383 56.8166 70.8008 56.9196 71.2188 57.1909C71.3727 58.935 71.4242 60.6822 71.373 62.4321C70.7243 62.5243 70.1077 62.4216 69.5231 62.1238C68.0482 59.28 67.4316 59.3827 67.6733 62.4321C67.1665 62.4981 66.704 62.3951 66.2859 62.1238C66.0439 60.3514 66.0954 58.6042 66.4401 56.8826Z" fill="#E4E4E4"/>
<path fill-rule="evenodd" clip-rule="evenodd" d="M63.9736 56.8828C64.3846 56.8828 64.7959 56.8828 65.2069 56.8828C65.2069 58.7327 65.2069 60.5825 65.2069 62.4323C64.7 62.4983 64.2376 62.3953 63.8195 62.124C63.5775 60.3516 63.629 58.6044 63.9736 56.8828Z" fill="#E7E7E7"/>
<path fill-rule="evenodd" clip-rule="evenodd" d="M59.3491 56.8826C59.8559 56.8166 60.3184 56.9196 60.7364 57.1909C60.8903 58.5231 60.9418 59.859 60.8906 61.1989C61.6099 61.1989 62.3295 61.1989 63.0487 61.1989C63.0487 61.6099 63.0487 62.0212 63.0487 62.4321C61.8155 62.4321 60.5823 62.4321 59.3491 62.4321C59.3491 60.5823 59.3491 58.7324 59.3491 56.8826Z" fill="#E9E9E9"/>
<path fill-rule="evenodd" clip-rule="evenodd" d="M55.3411 59.9655C55.3226 59.7981 55.2199 59.6954 55.0327 59.6572C54.7306 60.4544 54.6279 61.2767 54.7244 62.1236C54.3952 62.4116 53.9842 62.5146 53.4912 62.4319C53.4912 60.5821 53.4912 58.7322 53.4912 56.8824C54.015 56.8331 54.529 56.8843 55.0327 57.0366C55.4829 57.9889 56.048 58.8624 56.7284 59.6572C56.8311 58.8349 56.9341 58.013 57.0367 57.1907C57.4477 56.7797 57.859 56.7797 58.27 57.1907C58.4238 58.9348 58.4753 60.682 58.4241 62.4319C57.9003 62.4813 57.3864 62.4301 56.8826 62.2778C56.3002 61.5434 55.7866 60.7726 55.3411 59.9655Z" fill="#EDEDED"/>
<path fill-rule="evenodd" clip-rule="evenodd" d="M55.3411 59.9655C55.1354 60.6848 54.9301 61.4044 54.7245 62.1237C54.628 61.2768 54.7306 60.4545 55.0328 59.6572C55.2199 59.6955 55.3226 59.7981 55.3411 59.9655Z" fill="#717171"/>
<path fill-rule="evenodd" clip-rule="evenodd" d="M48.8666 56.8828C52.6246 56.95 53.6524 58.6457 51.9497 61.9699C48.9005 63.0304 47.4102 61.9514 47.4792 58.7327C47.8899 58.0667 48.3523 57.4501 48.8666 56.8828Z" fill="#E6E6E6"/>
<path fill-rule="evenodd" clip-rule="evenodd" d="M49.4832 58.1162C51.0217 58.2025 51.5871 59.0248 51.1789 60.5827C50.3033 61.4678 49.5837 61.3648 49.0208 60.2744C48.833 59.4836 48.9871 58.764 49.4832 58.1162Z" fill="#FF7A00"/>
<path fill-rule="evenodd" clip-rule="evenodd" d="M121.319 56.2656C126.662 56.8822 132.006 56.9852 137.351 56.5739C138.112 56.8258 138.934 56.98 139.817 57.0364C137.16 57.4224 134.487 57.5765 131.801 57.4989C131.889 58.0893 131.786 58.6029 131.493 59.0404C131.623 58.3371 131.418 57.8232 130.876 57.4989C130.774 57.4989 130.671 57.4989 130.568 57.4989C130.319 58.0513 130.164 58.668 130.105 59.3487C130.047 58.668 129.892 58.0513 129.643 57.4989C129.335 57.4989 129.026 57.4989 128.718 57.4989C128.718 58.0128 128.718 58.5264 128.718 59.0404C128.251 58.593 127.994 58.0791 127.947 57.4989C127.886 58.0791 127.732 58.5927 127.485 59.0404C127.451 59.2306 127.348 59.3848 127.177 59.5028C127.999 59.6055 128.821 59.7085 129.643 59.8112C127.429 59.829 125.271 59.8805 123.169 59.9653C122.552 59.8626 121.935 59.7597 121.319 59.657C121.766 58.9319 122.383 58.8292 123.169 59.3487C123.465 59.2038 123.465 58.9981 123.169 58.7321C123.523 58.6424 123.728 58.3855 123.785 57.9613C123.854 57.2599 123.545 56.9004 122.86 56.8822C122.157 57.0127 121.643 56.807 121.319 56.2656Z" fill="#FF7A00"/>
<path fill-rule="evenodd" clip-rule="evenodd" d="M129.643 57.499C129.643 58.1156 129.643 58.7323 129.643 59.3489C129.245 59.4219 128.937 59.3193 128.718 59.0406C128.718 58.5266 128.718 58.013 128.718 57.499C129.026 57.499 129.335 57.499 129.643 57.499Z" fill="#E7E7E7"/>
<path fill-rule="evenodd" clip-rule="evenodd" d="M124.71 57.1904C125.018 57.1904 125.327 57.1904 125.635 57.1904C125.635 57.807 125.635 58.4237 125.635 59.0403C125.327 59.0403 125.018 59.0403 124.71 59.0403C124.71 58.4237 124.71 57.807 124.71 57.1904Z" fill="#CDCDCD"/>
<path fill-rule="evenodd" clip-rule="evenodd" d="M130.876 57.499C131.418 57.8234 131.623 58.3373 131.493 59.0406C130.951 58.7162 130.746 58.2023 130.876 57.499Z" fill="#F2F2F2"/>
<path fill-rule="evenodd" clip-rule="evenodd" d="M127.485 59.0406C127.177 59.0406 126.868 59.0406 126.56 59.0406C126.56 58.5266 126.56 58.013 126.56 57.499C126.868 57.499 127.177 57.499 127.485 57.499C127.485 58.013 127.485 58.5266 127.485 59.0406Z" fill="#E2E2E2"/>
<path fill-rule="evenodd" clip-rule="evenodd" d="M148.141 55.3408C148.496 55.4305 148.701 55.6874 148.758 56.1116C148.792 56.624 148.587 56.9838 148.141 57.1907C147.773 56.5691 147.773 55.9525 148.141 55.3408Z" fill="#D4D4D4"/>
<path fill-rule="evenodd" clip-rule="evenodd" d="M150.916 54.416C151.224 54.416 151.533 54.416 151.841 54.416C151.26 56.3472 150.951 56.3472 150.916 54.416Z" fill="#C6C6C6"/>
<path fill-rule="evenodd" clip-rule="evenodd" d="M149.991 54.7246C150.806 55.3906 150.704 56.0072 149.683 56.5744C149.291 55.8786 149.394 55.262 149.991 54.7246Z" fill="#C6C6C6"/>
<path fill-rule="evenodd" clip-rule="evenodd" d="M84.0136 50.7168C84.2571 51.0587 84.4113 51.4697 84.476 51.95C84.6817 72.2983 84.6817 92.6465 84.476 112.995C84.4113 113.475 84.2571 113.886 84.0136 114.228C84.0126 93.0535 84.0126 71.8833 84.0136 50.7168Z" fill="#FF7A00"/>
<path fill-rule="evenodd" clip-rule="evenodd" d="M44.5503 74.7641C44.3447 73.8392 44.1394 72.9143 43.9337 71.9893C43.9337 65.5149 43.9337 59.0405 43.9337 52.566C44.3413 52.5136 44.7011 52.6163 45.0128 52.8743C45.2798 60.1988 45.1256 67.4952 44.5503 74.7641Z" fill="#E0E0E0"/>
<path fill-rule="evenodd" clip-rule="evenodd" d="M137.351 56.5739C132.006 56.9852 126.662 56.8822 121.319 56.2656C118.953 55.7501 116.589 55.082 114.228 54.2616C112.963 53.9765 112.347 53.2057 112.378 51.9493C118.382 54.3994 124.651 55.5297 131.185 55.3407C139.064 55.7828 146.567 54.344 153.691 51.0244C154.006 51.1792 154.057 51.3845 153.845 51.641C148.864 54.93 143.366 56.5742 137.351 56.5739Z" fill="#E0E0E0"/>
<path fill-rule="evenodd" clip-rule="evenodd" d="M121.627 52.2575C122.026 52.0547 122.488 51.9517 123.014 51.9492C125.736 52.3192 128.46 52.6787 131.184 53.0283C127.907 53.8108 124.721 53.5536 121.627 52.2575Z" fill="#DDDDDD"/>
<path fill-rule="evenodd" clip-rule="evenodd" d="M150.608 50.0994C150.878 50.059 151.083 50.1616 151.224 50.4077C148.003 52.6037 144.509 53.2718 140.742 52.4117C144.111 51.8259 147.4 51.0551 150.608 50.0994Z" fill="#D3D3D3"/>
<path fill-rule="evenodd" clip-rule="evenodd" d="M132.726 49.792C133.08 49.8817 133.286 50.1385 133.343 50.5628C133.24 50.8196 133.137 51.0767 133.034 51.3335C132.741 50.8572 132.638 50.3432 132.726 49.792Z" fill="#CBCBCB"/>
<path fill-rule="evenodd" clip-rule="evenodd" d="M128.718 49.4834C129.026 49.4834 129.335 49.4834 129.643 49.4834C129.643 50.1 129.643 50.7166 129.643 51.3332C129.335 51.3332 129.026 51.3332 128.718 51.3332C128.718 50.7166 128.718 50.1 128.718 49.4834Z" fill="#E5E5E5"/>
<path fill-rule="evenodd" clip-rule="evenodd" d="M122.86 48.8662C123.169 48.8662 123.477 48.8662 123.785 48.8662C123.785 49.4828 123.785 50.0994 123.785 50.7161C123.477 50.7161 123.169 50.7161 122.86 50.7161C122.86 50.0994 122.86 49.4828 122.86 48.8662Z" fill="#E3E3E3"/>
<path fill-rule="evenodd" clip-rule="evenodd" d="M130.876 49.4834C131.434 49.9206 131.639 50.5372 131.493 51.3332C131.184 51.3332 130.876 51.3332 130.568 51.3332C130.514 50.6793 130.617 50.0627 130.876 49.4834Z" fill="#D8D8D8"/>
<path fill-rule="evenodd" clip-rule="evenodd" d="M124.71 49.1748C125.018 49.1748 125.327 49.1748 125.635 49.1748C125.635 49.7914 125.635 50.408 125.635 51.0246C125.327 51.0246 125.018 51.0246 124.71 51.0246C124.71 50.408 124.71 49.7914 124.71 49.1748Z" fill="#D8D8D8"/>
<path fill-rule="evenodd" clip-rule="evenodd" d="M126.56 49.4834C126.868 49.4834 127.176 49.4834 127.485 49.4834C127.577 50.1321 127.474 50.7487 127.176 51.3332C126.627 50.8637 126.421 50.2471 126.56 49.4834Z" fill="#DCDCDC"/>
<path fill-rule="evenodd" clip-rule="evenodd" d="M112.378 48.8662C115.672 50.3248 118.96 51.8149 122.244 53.3367C118.854 53.607 115.72 52.8363 112.84 51.0244C112.47 50.3532 112.316 49.6336 112.378 48.8662Z" fill="#E7E7E7"/>
<path fill-rule="evenodd" clip-rule="evenodd" d="M146.291 48.5586C146.6 48.5586 146.908 48.5586 147.216 48.5586C147.335 49.2261 147.129 49.74 146.6 50.1001C146.306 49.6238 146.204 49.1098 146.291 48.5586Z" fill="#C2C2C2"/>
<path fill-rule="evenodd" clip-rule="evenodd" d="M68.2899 114.228C72.1965 114.279 76.1018 114.228 80.0056 114.074C80.177 113.955 80.2797 113.801 80.3139 113.611C80.3139 113.508 80.3139 113.405 80.3139 113.303C80.6222 113.2 80.8278 112.994 80.9305 112.686C80.982 92.4403 80.9305 72.195 80.7763 51.9498C80.5485 51.0023 79.9834 50.3342 79.0807 49.9458C76.9453 49.5329 74.7872 49.3788 72.6062 49.4833C72.5538 49.0757 72.6565 48.7159 72.9145 48.4042C74.7644 48.1986 76.6142 48.1986 78.464 48.4042C80.6737 48.9694 82.0611 50.3567 82.6262 52.5664C82.8318 72.1953 82.8318 91.824 82.6262 111.453C82.431 113.029 81.6603 114.211 80.3139 114.998C75.5832 115.255 70.8556 115.204 66.1318 114.844C66.7817 114.399 67.501 114.194 68.2899 114.228Z" fill="#E3E3E3"/>
<path fill-rule="evenodd" clip-rule="evenodd" d="M44.8586 111.761C43.9337 111.967 43.0088 112.172 42.0839 112.378C41.7993 112.625 41.491 112.677 41.1589 112.532C40.7837 112.024 40.5269 111.459 40.3882 110.836C40.1825 91.413 40.1825 71.9897 40.3882 52.5664C41.1589 50.5624 42.5463 49.175 44.5503 48.4042C46.6058 48.1986 48.661 48.1986 50.7165 48.4042C51.1274 48.8152 51.1274 49.2265 50.7165 49.6375C48.4556 49.7401 46.1945 49.8431 43.9337 49.9458C42.694 50.5217 42.0262 51.4981 41.9297 52.8747C41.7241 72.0924 41.7241 91.3103 41.9297 110.528C42.7248 111.333 43.7012 111.744 44.8586 111.761Z" fill="#EBEBEB"/>
<path fill-rule="evenodd" clip-rule="evenodd" d="M148.141 47.9414C148.45 47.9414 148.758 47.9414 149.066 47.9414C149.296 49.0051 148.884 49.5187 147.833 49.4829C147.792 48.9305 147.894 48.4168 148.141 47.9414Z" fill="#C6C6C6"/>
<path fill-rule="evenodd" clip-rule="evenodd" d="M52.258 48.25C58.6298 48.25 65.0012 48.25 71.373 48.25C71.4723 48.9351 71.2667 49.5005 70.7564 49.9457C64.7959 50.1513 58.8351 50.1513 52.8746 49.9457C52.3644 49.5005 52.1587 48.9351 52.258 48.25Z" fill="#F9F9F9"/>
<path fill-rule="evenodd" clip-rule="evenodd" d="M150.916 47.0166C151.224 47.0166 151.533 47.0166 151.841 47.0166C151.927 47.5857 151.721 47.997 151.224 48.2498C150.938 47.8833 150.835 47.4723 150.916 47.0166Z" fill="#BBBBBB"/>
<path fill-rule="evenodd" clip-rule="evenodd" d="M149.991 47.3252C150.781 47.787 150.781 48.301 149.991 48.8667C149.632 48.3528 149.632 47.8388 149.991 47.3252Z" fill="#D7D7D7"/>
<path fill-rule="evenodd" clip-rule="evenodd" d="M151.533 42.7002C151.352 43.0908 151.352 43.3991 151.533 43.6251C152.128 43.109 152.744 43.0063 153.383 43.3168C150.407 44.9086 147.221 45.9877 143.825 46.554C135.125 47.8514 126.492 47.5431 117.927 45.6291C116.778 45.3689 115.75 44.9064 114.844 44.2417C115.067 44.1129 115.221 43.9075 115.307 43.6251C115.705 44.0231 116.065 44.0231 116.386 43.6251C119.684 44.6891 123.075 45.3572 126.56 45.6291C133.073 46.0157 139.547 45.7074 145.983 44.7042C147.872 44.1261 149.722 43.458 151.533 42.7002Z" fill="#FF7A00"/>
<path fill-rule="evenodd" clip-rule="evenodd" d="M114.844 44.2418C115.75 44.9066 116.778 45.369 117.927 45.6292C126.492 47.5432 135.125 47.8515 143.825 46.5541C147.221 45.9878 150.407 44.9087 153.383 43.3169C153.835 43.0727 154.246 43.0727 154.616 43.3169C154.044 44.1463 153.324 44.8141 152.458 45.3209C148.006 47.558 143.279 48.6886 138.276 48.7123C131.303 49.282 124.417 48.7684 117.619 47.1708C115.752 46.7549 114.056 45.9841 112.532 44.8585C112.286 44.3161 112.337 43.8022 112.686 43.3169C113.299 43.8802 114.018 44.1885 114.844 44.2418Z" fill="#E9E9E9"/>
<path fill-rule="evenodd" clip-rule="evenodd" d="M151.533 42.7C149.722 43.4578 147.872 44.1259 145.983 44.704C139.547 45.7072 133.073 46.0156 126.56 45.6289C123.075 45.357 119.684 44.6889 116.386 43.6249C115.587 43.4313 114.868 43.0715 114.228 42.5459C114.844 42.4944 115.461 42.4432 116.078 42.3917C121.637 43.399 127.238 44.0156 132.88 44.2416C139.304 44.3251 145.573 43.4002 151.687 41.4668C151.944 41.5183 152.201 41.5695 152.458 41.621C152.085 41.9413 151.776 42.3011 151.533 42.7Z" fill="#E8E8E8"/>
<path fill-rule="evenodd" clip-rule="evenodd" d="M124.71 40.542C125.018 40.542 125.327 40.542 125.635 40.542C125.635 41.1586 125.635 41.7752 125.635 42.3918C125.327 42.3918 125.018 42.3918 124.71 42.3918C124.71 41.7752 124.71 41.1586 124.71 40.542Z" fill="#D0D0D0"/>
<path fill-rule="evenodd" clip-rule="evenodd" d="M122.86 40.2344C123.168 40.2344 123.477 40.2344 123.785 40.2344C123.835 40.8593 123.784 41.4759 123.631 42.0842C122.893 42.4844 122.533 42.2276 122.552 41.3134C122.598 40.9262 122.7 40.5664 122.86 40.2344Z" fill="#C0C0C0"/>
<path fill-rule="evenodd" clip-rule="evenodd" d="M147.833 39.6172C148.374 39.9415 148.58 40.4555 148.45 41.1587C148.141 41.1587 147.833 41.1587 147.525 41.1587C147.565 40.6297 147.667 40.1157 147.833 39.6172Z" fill="#D3D3D3"/>
<path fill-rule="evenodd" clip-rule="evenodd" d="M149.683 39.001C150.491 39.6099 150.44 40.2265 149.529 40.8508C149.32 40.204 149.371 39.5874 149.683 39.001Z" fill="#D0D0D0"/>
<path fill-rule="evenodd" clip-rule="evenodd" d="M150.608 38.6924C150.916 38.6924 151.224 38.6924 151.533 38.6924C151.651 39.3599 151.445 39.8738 150.916 40.2339C150.623 39.7576 150.52 39.2436 150.608 38.6924Z" fill="#A7A7A7"/>
<path fill-rule="evenodd" clip-rule="evenodd" d="M153.691 34.9929C154.015 34.9469 154.324 34.9981 154.616 35.147C151.845 37.4615 148.659 38.9003 145.058 39.4633C137.461 40.4345 129.856 40.486 122.244 39.6175C122.294 40.3441 122.243 41.0634 122.089 41.7756C118.608 41.9865 115.422 41.0616 112.532 39.0008C112.378 37.7719 112.327 36.5387 112.378 35.3012C119.384 37.5993 126.578 38.8325 133.959 39.0008C140.846 38.9848 147.423 37.6489 153.691 34.9929Z" fill="#EBEBEB"/>
<path fill-rule="evenodd" clip-rule="evenodd" d="M134.268 36.2261C135.462 36.0982 136.593 36.2523 137.659 36.6886C137.367 36.8375 137.058 36.8887 136.734 36.8428C135.912 36.6371 135.09 36.4318 134.268 36.2261Z" fill="#868686"/>
<path fill-rule="evenodd" clip-rule="evenodd" d="M134.268 36.2257C135.09 36.4313 135.912 36.6367 136.734 36.8423C133.46 37.1876 130.171 37.2391 126.868 36.9965C125.352 36.6626 123.913 36.1489 122.552 35.4549C122.912 35.4034 123.271 35.3523 123.631 35.3008C127.164 35.779 130.709 36.0873 134.268 36.2257Z" fill="#E5E5E5"/>
<path fill-rule="evenodd" clip-rule="evenodd" d="M150.608 33.7591C151.064 33.6783 151.474 33.781 151.841 34.0674C149.739 35.7868 147.375 36.3008 144.75 35.6089C146.75 35.0339 148.703 34.4173 150.608 33.7591Z" fill="#DADADA"/>
<path fill-rule="evenodd" clip-rule="evenodd" d="M132.726 33.1426C133.034 33.1426 133.343 33.1426 133.651 33.1426C133.651 33.6565 133.651 34.1702 133.651 34.6841C133.343 34.6841 133.034 34.6841 132.726 34.6841C132.726 34.1702 132.726 33.6565 132.726 33.1426Z" fill="#CECECE"/>
<path fill-rule="evenodd" clip-rule="evenodd" d="M130.876 32.8351C131.183 32.8086 131.44 32.9116 131.647 33.1434C131.799 33.6472 131.85 34.1612 131.801 34.685C131.39 34.685 130.979 34.685 130.568 34.685C130.514 34.031 130.617 33.4144 130.876 32.8351Z" fill="#C9C9C9"/>
<path fill-rule="evenodd" clip-rule="evenodd" d="M128.718 32.835C129.026 32.835 129.335 32.835 129.643 32.835C129.643 33.4516 129.643 34.0682 129.643 34.6848C129.335 34.6848 129.026 34.6848 128.718 34.6848C128.718 34.0682 128.718 33.4516 128.718 32.835Z" fill="#E4E4E4"/>
<path fill-rule="evenodd" clip-rule="evenodd" d="M147.833 31.9102C148.141 31.9102 148.45 31.9102 148.758 31.9102C148.876 32.5776 148.671 33.0916 148.141 33.4517C147.848 32.9754 147.745 32.4614 147.833 31.9102Z" fill="#D4D4D4"/>
<path fill-rule="evenodd" clip-rule="evenodd" d="M126.868 32.5265C127.175 32.5 127.432 32.603 127.639 32.8348C127.791 33.3386 127.842 33.8526 127.793 34.3764C127.382 34.3764 126.971 34.3764 126.56 34.3764C126.506 33.7225 126.609 33.1058 126.868 32.5265Z" fill="#C4C4C4"/>
<path fill-rule="evenodd" clip-rule="evenodd" d="M124.71 32.5264C125.018 32.5264 125.327 32.5264 125.635 32.5264C125.727 33.175 125.624 33.7917 125.327 34.3762C124.777 33.9067 124.572 33.29 124.71 32.5264Z" fill="#DBDBDB"/>
<path fill-rule="evenodd" clip-rule="evenodd" d="M123.169 32.2178C123.78 32.2129 124.089 32.5212 124.093 33.1428C123.682 34.376 123.271 34.376 122.86 33.1428C122.917 32.8085 123.02 32.5002 123.169 32.2178Z" fill="#C3C3C3"/>
<path fill-rule="evenodd" clip-rule="evenodd" d="M112.378 31.9102C115.976 33.4705 119.573 35.0635 123.169 36.6889C119.344 36.7475 115.798 35.7711 112.532 33.76C112.379 33.1517 112.328 32.5351 112.378 31.9102Z" fill="#E6E6E6"/>
<path fill-rule="evenodd" clip-rule="evenodd" d="M150.916 30.9844C151.224 30.9844 151.533 30.9844 151.841 30.9844C151.26 32.9156 150.951 32.9156 150.916 30.9844Z" fill="#CBCBCB"/>
<path fill-rule="evenodd" clip-rule="evenodd" d="M149.683 31.293C150.037 31.3827 150.243 31.6395 150.3 32.0637C150.334 32.5761 150.129 32.9359 149.683 33.1428C149.315 32.5213 149.315 31.9046 149.683 31.293Z" fill="#D0D0D0"/>
<path fill-rule="evenodd" clip-rule="evenodd" d="M124.71 28.5189C125.305 28.4359 125.818 28.59 126.252 28.9813C124.346 29.2339 122.496 29.1825 120.702 28.8272C122.099 28.9253 123.435 28.8225 124.71 28.5189Z" fill="#A0A0A0"/>
<path fill-rule="evenodd" clip-rule="evenodd" d="M118.544 26.9766C118.844 27.1266 119.152 27.2808 119.469 27.439C118.446 27.5927 117.419 27.644 116.386 27.5932C117.105 27.3876 117.825 27.1821 118.544 26.9766Z" fill="#7A7A7A"/>
<path fill-rule="evenodd" clip-rule="evenodd" d="M95.4209 26.0521C96.2284 25.9694 96.9992 26.0721 97.7333 26.3604C97.8871 27.5894 97.9386 28.8226 97.8874 30.0601C102.354 30.5609 104.307 32.976 103.745 37.3053C101.469 38.1019 100.184 37.3312 99.8914 34.993C99.4262 34.2472 98.7584 33.9389 97.8874 34.0681C97.8362 36.5367 97.8874 39.0031 98.0416 41.4674C99.9817 42.1799 101.729 43.2078 103.283 44.5505C105.456 49.8623 103.709 53.1507 98.0416 54.4163C97.9389 55.2386 97.8359 56.0605 97.7333 56.8828C97.0935 57.545 96.3742 57.648 95.5751 57.1911C95.5097 56.1866 95.3556 55.2105 95.1126 54.2621C92.5586 54.0386 90.452 52.9596 88.7924 51.0249C88.1782 48.2767 89.1546 47.4029 91.7213 48.4043C92.5725 49.8059 93.8057 50.474 95.4209 50.4083C95.4721 48.5557 95.4206 46.7059 95.2668 44.8588C89.4811 42.7432 87.7342 38.8382 90.0256 33.1431C91.3769 31.3892 93.1238 30.2587 95.2668 29.7518C95.4206 28.5228 95.4721 27.2896 95.4209 26.0521Z" fill="#F5F5F5"/>
<path fill-rule="evenodd" clip-rule="evenodd" d="M98.5039 45.7832C97.9052 47.1879 97.6999 48.7294 97.8873 50.4078C97.5827 48.8231 97.4801 47.1786 97.579 45.4749C97.9771 45.4019 98.2854 45.5045 98.5039 45.7832Z" fill="#9F9F9F"/>
<path fill-rule="evenodd" clip-rule="evenodd" d="M98.504 45.7832C100.36 46.467 100.822 47.7003 99.8914 49.4829C99.3568 50.0844 98.6887 50.3927 97.8874 50.4078C97.6999 48.7294 97.9053 47.1878 98.504 45.7832Z" fill="#FF7A00"/>
<path fill-rule="evenodd" clip-rule="evenodd" d="M94.1877 34.0684C94.5987 34.0684 95.01 34.0684 95.4209 34.0684C95.5227 36.2364 95.42 38.3945 95.1126 40.5428C93.0775 39.5016 92.4094 37.8571 93.1086 35.6099C93.416 35.0478 93.7758 34.5339 94.1877 34.0684Z" fill="#FF7A00"/>
<path fill-rule="evenodd" clip-rule="evenodd" d="M80.9305 23.2769C81.4543 23.2276 81.9683 23.2789 82.472 23.4311C82.8124 24.7854 82.2988 25.2479 80.9305 24.8185C80.571 24.3044 80.571 23.7906 80.9305 23.2769Z" fill="#FF7A00"/>
<path fill-rule="evenodd" clip-rule="evenodd" d="M129.335 17.1113C129.951 17.1113 130.568 17.1113 131.185 17.1113C131.185 17.5224 131.185 17.9335 131.185 18.3446C129.206 18.332 127.716 19.1541 126.714 20.811C126.418 22.02 126.778 22.9963 127.793 23.7399C129.789 24.9326 131.947 25.6006 134.268 25.7439C134.268 25.2301 134.268 24.7162 134.268 24.2024C132.22 24.065 130.421 23.3456 128.872 22.0442C128.513 20.7544 128.976 19.8809 130.26 19.4236C131.595 19.1766 132.88 18.8169 134.113 18.3446C135.427 19.3247 136.814 19.4788 138.276 18.807C137.57 18.5536 136.851 18.348 136.117 18.1904C135.859 17.8786 135.757 17.5189 135.809 17.1113C140.332 17.2469 144.546 18.4288 148.45 20.6569C150.608 22.0884 150.814 23.7327 149.066 25.5898C145.368 27.7739 141.36 28.9557 137.042 29.1353C136.99 28.7277 137.093 28.368 137.351 28.0562C138.544 27.6595 139.674 27.1456 140.742 26.5147C142.079 24.8714 141.874 23.4327 140.125 22.1984C138.773 21.4565 137.335 20.994 135.809 20.811C135.76 21.3349 135.811 21.8487 135.963 22.3525C136.991 22.9692 138.019 23.5858 139.046 24.2024C139.367 25.1693 139.11 25.9401 138.276 26.5147C137.32 26.8291 136.395 27.1888 135.501 27.5938C133.664 27.1327 131.814 26.7216 129.951 26.3605C129.951 26.6688 129.951 26.9771 129.951 27.2854C130.872 27.4389 131.797 27.5931 132.726 27.7479C133.2 28.09 133.405 28.5525 133.343 29.1353C128.639 29.1667 124.219 28.0876 120.086 25.8981C119.404 25.3205 118.839 24.6525 118.39 23.8941C118.194 23.2357 118.297 22.6191 118.698 22.0442C119.472 21.1677 120.346 20.397 121.319 19.7319C123.936 18.5682 126.608 17.6946 129.335 17.1113Z" fill="#F3F3F3"/>
<path fill-rule="evenodd" clip-rule="evenodd" d="M134.576 28.518C135.225 28.4259 135.841 28.5286 136.426 28.8263C136.117 28.9291 135.809 29.0319 135.501 29.1346C135.029 29.0915 134.721 28.886 134.576 28.518Z" fill="#B5B5B5"/>
<path fill-rule="evenodd" clip-rule="evenodd" d="M136.426 24.8191C137.546 24.8015 137.597 25.1098 136.58 25.744C136.431 25.4517 136.38 25.1434 136.426 24.8191Z" fill="#FF7A00"/>
<path fill-rule="evenodd" clip-rule="evenodd" d="M131.801 20.502C132.418 20.502 133.034 20.502 133.651 20.502C133.651 21.2213 133.651 21.9407 133.651 22.6601C132.076 22.6343 131.46 21.9149 131.801 20.502Z" fill="#FF7A00"/>
<path fill-rule="evenodd" clip-rule="evenodd" d="M132.726 17.1108C133.375 17.0186 133.991 17.1214 134.576 17.4191C134.268 17.5219 133.959 17.6247 133.651 17.7274C133.179 17.6843 132.871 17.4788 132.726 17.1108Z" fill="#CBCBCB"/>
</svg>
