<svg width="170" height="163" viewBox="0 0 170 163" fill="none" xmlns="http://www.w3.org/2000/svg">
<path fill-rule="evenodd" clip-rule="evenodd" d="M104.96 4.62865C109.581 4.25691 113.428 5.75556 116.501 9.12465C118.911 12.144 120.677 15.4939 121.797 19.1745C125.992 18.1092 129.025 19.5197 130.894 23.4061C141.787 50.1165 152.469 76.9164 162.939 103.805C164.763 108.236 163.858 112.027 160.223 115.177C160.159 121.083 157.398 125.271 151.941 127.74C122.337 138.584 92.7363 149.427 63.1386 160.27C59.8627 161.077 56.7851 160.636 53.9054 158.947C38.2907 149.36 22.6305 139.839 6.92458 130.384C5.80019 129.604 5.34757 128.546 5.56675 127.211C8.84898 103.185 12.153 79.1623 15.4789 55.1425C15.7505 53.9966 16.022 52.8504 16.2936 51.7044C17.2825 50.3614 18.5951 49.4358 20.2313 48.9275C21.7999 48.521 23.3387 48.0362 24.8479 47.4729C24.9384 47.2084 25.029 46.9439 25.1195 46.6795C23.9334 42.043 24.0692 37.459 25.5268 32.927C29.0398 26.0879 34.0638 24.8097 40.5987 29.0922C43.8912 32.1955 46.3353 35.8539 47.931 40.0677C48.8342 40.5088 49.3773 40.2444 49.5604 39.2743C48.2723 33.7223 48.9512 28.4329 51.5971 23.4061C54.4157 19.5588 58.0818 18.545 62.5955 20.3647C65.5238 21.894 67.8321 24.0539 69.5204 26.8442C70.6029 28.5117 71.4629 30.2749 72.1003 32.1336C72.553 32.1336 73.0054 32.1336 73.4581 32.1336C72.2103 26.5874 72.8892 21.2979 75.4949 16.2654C78.0886 12.6679 81.5736 11.4778 85.9501 12.695C89.0691 13.7915 91.5585 15.6869 93.4182 18.3811C94.6487 20.6026 95.8707 22.8065 97.0843 24.9929C97.2435 24.9375 97.3792 24.8494 97.4917 24.7284C97.537 24.3317 97.5821 23.935 97.6275 23.5383C96.2742 18.1352 97.0436 13.0662 99.9358 8.33124C100.705 7.58192 101.475 6.83257 102.244 6.08324C103.21 5.65808 104.115 5.17323 104.96 4.62865Z" fill="#FF7A00"/>
<path fill-rule="evenodd" clip-rule="evenodd" d="M105.775 7.80171C107.937 7.62303 109.929 8.10791 111.749 9.2563C114.719 11.7337 116.846 14.7751 118.131 18.3805C119.759 22.65 120.709 27.0578 120.982 31.6041C121.379 33.7997 120.474 34.7253 118.267 34.381C117.71 34.135 117.302 33.7383 117.045 33.1909C116.572 28.3312 115.576 23.5708 114.057 18.9095C112.941 15.8839 111.175 13.2833 108.762 11.1076C106.749 9.74845 104.893 9.88069 103.195 11.5043C101.293 15.1201 100.885 18.9108 101.973 22.8765C101.875 23.6122 101.513 23.7885 100.887 23.4055C100.117 20.0475 100.163 16.6975 101.022 13.3556C101.785 10.8083 103.369 8.95705 105.775 7.80171Z" fill="#F3F3F3"/>
<path fill-rule="evenodd" clip-rule="evenodd" d="M106.046 13.3555C108.964 15.1241 110.594 17.6366 110.934 20.8929C108.989 21.3334 107.088 21.9064 105.232 22.6119C105.028 22.3803 104.892 22.1158 104.824 21.8185C104.643 19.9672 104.643 18.1159 104.824 16.2646C104.996 15.1853 105.404 14.2156 106.046 13.3555Z" fill="#F5F5F5"/>
<path fill-rule="evenodd" clip-rule="evenodd" d="M81.3339 15.4716C83.0263 15.3231 84.6557 15.5435 86.222 16.1328C88.5431 17.5997 90.3987 19.4951 91.7891 21.8189C94.8261 27.7435 96.5462 34.0025 96.9489 40.5963C96.2789 41.6698 95.3285 41.9342 94.0974 41.3897C93.8712 41.1252 93.6447 40.8608 93.4185 40.5963C92.3928 35.3661 90.9446 30.2531 89.0735 25.257C87.7982 22.1042 85.6708 19.6799 82.6917 17.984C80.2359 17.4626 78.6516 18.3883 77.9393 20.761C77.2088 23.8164 77.073 26.9017 77.5319 30.0175C77.6191 30.814 77.2571 31.1666 76.4457 31.0753C76.0386 27.8943 76.084 24.7206 76.5815 21.5544C77.3228 18.8554 78.9069 16.8278 81.3339 15.4716Z" fill="#F3F3F3"/>
<path fill-rule="evenodd" clip-rule="evenodd" d="M81.3339 21.0254C84.2559 22.5619 86.0664 24.9421 86.7652 28.1661C84.6815 28.6956 82.5996 29.2245 80.5192 29.7529C80.3171 26.7869 80.5887 23.8777 81.3339 21.0254Z" fill="#F4F4F4"/>
<path fill-rule="evenodd" clip-rule="evenodd" d="M57.7074 22.6123C60.7957 22.6835 63.2848 23.9177 65.1755 26.3149C69.7359 32.851 72.18 40.0801 72.5077 48.0015C71.5513 49.2969 70.465 49.3849 69.249 48.2659C67.886 43.3098 66.4377 38.3729 64.9039 33.4556C64.0238 31.475 62.9375 29.6237 61.6451 27.9017C60.1355 25.9058 58.1892 25.2447 55.8065 25.9182C55.1121 26.683 54.5236 27.5206 54.0413 28.4307C53.6138 29.9003 53.3874 31.3988 53.3624 32.9267C53.5758 34.8647 53.6209 36.8041 53.4982 38.745C53.2236 38.9664 52.9067 39.0544 52.5477 39.0095C52.051 35.2786 52.1868 31.576 52.955 27.9017C53.6481 25.3341 55.2324 23.571 57.7074 22.6123Z" fill="#F3F3F3"/>
<path fill-rule="evenodd" clip-rule="evenodd" d="M57.4359 28.96C58.4684 29.2982 59.3284 29.9152 60.0158 30.8113C61.1039 32.4013 62.0544 34.0761 62.8672 35.8362C60.9459 36.6656 58.9542 37.2829 56.8928 37.6875C56.3953 34.7291 56.5761 31.8199 57.4359 28.96Z" fill="#F4F4F4"/>
<path fill-rule="evenodd" clip-rule="evenodd" d="M113.921 28.96C114.261 28.9803 114.487 29.1567 114.6 29.4889C114.793 31.2371 115.246 32.9119 115.958 34.5138C117.893 36.7251 119.975 36.9015 122.204 35.0428C122.537 33.124 122.718 31.1844 122.747 29.2244C125.089 31.5875 125.361 34.1438 123.562 36.8941C120.625 39.044 117.774 38.9117 115.008 36.4974C112.651 34.2338 112.289 31.7213 113.921 28.96Z" fill="#EBEBEB"/>
<path fill-rule="evenodd" clip-rule="evenodd" d="M32.995 29.7533C35.0252 29.6632 36.8357 30.236 38.4263 31.4724C41.5903 34.5027 43.8986 38.0731 45.3512 42.1835C47.1313 46.8834 48.0365 51.7319 48.0669 56.7293C47.0072 58.1321 45.921 58.1321 44.8081 56.7293C43.9434 52.7438 42.9479 48.7767 41.8209 44.8282C40.6553 40.3951 38.347 36.6486 34.8959 33.5882C32.3009 32.273 30.4453 32.9341 29.3289 35.5717C28.7879 39.1926 28.8332 42.8068 29.4646 46.415C28.3338 46.3431 27.8361 45.7258 27.971 44.5637C27.4534 41.5627 27.4534 38.5655 27.971 35.5717C28.638 32.7657 30.3127 30.8263 32.995 29.7533Z" fill="#F4F4F4"/>
<path fill-rule="evenodd" clip-rule="evenodd" d="M98.4425 35.8359C100.946 37.9998 101.444 40.5562 99.9361 43.5056C96.6325 46.4111 93.4644 46.2349 90.4313 42.9766C88.8809 40.7895 88.8356 38.5854 90.2955 36.3649C90.4834 36.5037 90.6192 36.6801 90.7029 36.8938C90.9103 38.7605 91.4535 40.5237 92.3323 42.1832C94.3236 43.9465 96.3153 43.9465 98.3067 42.1832C98.5764 41.4142 98.7121 40.6207 98.714 39.803C98.5636 38.4836 98.4729 37.1612 98.4425 35.8359Z" fill="#EDEDED"/>
<path fill-rule="evenodd" clip-rule="evenodd" d="M32.7237 36.3643C33.6923 36.9083 34.5524 37.6134 35.3035 38.48C36.3067 40.0811 37.1667 41.7563 37.8834 43.505C36.1011 44.1339 34.2909 44.6628 32.4521 45.0918C32.0086 42.1511 32.0991 39.242 32.7237 36.3643Z" fill="#F5F5F5"/>
<path fill-rule="evenodd" clip-rule="evenodd" d="M73.73 42.7119C74.142 42.7148 74.4589 42.891 74.6805 43.2409C76.6556 45.637 76.9272 48.1936 75.4952 50.9105C73.5217 52.7837 71.2134 53.2685 68.5703 52.3651C65.5258 50.6243 64.4846 48.1119 65.4473 44.8277C65.6735 44.5632 65.9 44.2987 66.1262 44.0343C66.5333 45.4431 66.9406 46.8538 67.3482 48.2658C68.375 50.33 70.0495 51.0792 72.3722 50.5138C73.2564 50.0941 73.8449 49.4329 74.1374 48.5303C74.2112 46.5798 74.0755 44.6404 73.73 42.7119Z" fill="#EEEEEE"/>
<path fill-rule="evenodd" clip-rule="evenodd" d="M134.018 42.7123C134.419 42.643 134.781 42.7311 135.104 42.9768C143.356 63.2823 151.458 83.6466 159.409 104.069C161.616 108.533 160.394 111.662 155.743 113.458C125.902 123.85 96.12 134.341 66.3978 144.93C65.054 145.631 63.9224 145.41 63.0032 144.269C53.9448 120.546 44.6665 96.9201 35.1677 73.3909C35.2582 73.2145 35.3489 73.0384 35.4393 72.862C68.3166 62.7655 101.176 52.7157 134.018 42.7123Z" fill="#F5F5F5"/>
<path fill-rule="evenodd" clip-rule="evenodd" d="M49.2892 51.4395C50.8365 52.4146 51.787 53.825 52.1406 55.671C52.0179 59.9945 49.7095 61.89 45.2157 61.3571C40.6702 59.404 39.4935 56.2745 41.6853 51.9684C42.1551 54.0638 42.8341 56.0915 43.7221 58.0512C45.2219 59.4921 46.8967 59.7124 48.746 58.7124C49.1645 58.2948 49.4814 57.8098 49.6965 57.2578C49.8863 55.2957 49.7506 53.3563 49.2892 51.4395Z" fill="#EDEDED"/>
<path fill-rule="evenodd" clip-rule="evenodd" d="M56.8933 138.98C45.8085 111.398 34.5839 83.8935 23.2192 56.4647C22.7418 55.2024 22.2892 53.9242 21.8613 52.6299C21.8922 52.2914 22.0732 52.0711 22.4045 51.9688C23.4021 53.3821 24.262 54.8806 24.9843 56.4647C36.5707 84.4098 47.9311 112.444 59.0658 140.566C58.9754 140.654 58.8847 140.743 58.7942 140.831C58.3793 140.471 57.9266 140.162 57.4364 139.905C57.0771 139.689 56.8963 139.381 56.8933 138.98Z" fill="#EBEBEB"/>
<path fill-rule="evenodd" clip-rule="evenodd" d="M21.3179 56.2002C22.9415 59.399 24.4351 62.6609 25.7987 65.9856C35.7255 90.4285 45.6377 114.848 55.5352 139.244C56.0215 140.709 56.1573 142.207 55.9425 143.74C55.6604 143.543 55.5246 143.279 55.5352 142.947C44.0572 115.405 32.7419 87.8116 21.5895 60.1672C20.5484 57.9645 19.8695 55.6726 19.5527 53.291C20.2843 54.1881 20.8727 55.1579 21.3179 56.2002Z" fill="#EAEAEA"/>
<path fill-rule="evenodd" clip-rule="evenodd" d="M52.8195 140.037C53.4688 141.89 54.1477 143.741 54.8562 145.591C55.0374 146.561 55.0374 147.531 54.8562 148.501C54.4424 147.866 54.035 147.249 53.6342 146.649C42.3889 119.346 31.2547 92.017 20.2316 64.6634C20.086 63.6547 19.8144 62.6849 19.4169 61.7542C19.0733 60.8484 18.8018 59.9227 18.6022 58.9773C18.86 58.8141 19.0863 58.858 19.2811 59.1095C20.2605 60.9288 21.1657 62.7801 21.9968 64.6634C32.1987 89.846 42.4728 114.971 52.8195 140.037Z" fill="#EAEAEA"/>
<path fill-rule="evenodd" clip-rule="evenodd" d="M18.8735 64.9275C29.8002 92.1827 40.9344 119.335 52.276 146.384C53.1608 148.66 54.0209 150.952 54.8559 153.261C57.5088 154.732 60.3603 155.217 63.4102 154.715C65.4443 154.335 67.3452 153.673 69.1131 152.732C93.1464 144.068 117.135 135.341 141.078 126.549C145.18 125.114 149.299 123.704 153.434 122.318C153.57 122.406 153.706 122.494 153.842 122.582C151.821 124.183 149.558 125.374 147.052 126.152C119.694 136.062 92.3561 146.024 65.0396 156.038C60.9289 156.969 57.0366 156.44 53.3623 154.451C38.6524 145.591 23.9427 136.731 9.23291 127.871C9.28043 123.796 9.64251 119.741 10.3192 115.706C12.7277 98.1407 15.2623 80.5976 17.923 63.0762C18.386 63.6255 18.7029 64.2425 18.8735 64.9275Z" fill="#ECECEC"/>
<path fill-rule="evenodd" clip-rule="evenodd" d="M20.2316 64.6631C31.2547 92.0167 42.3889 119.346 53.6342 146.649C53.1358 146.484 52.8189 146.132 52.6837 145.591C52.5444 145.863 52.4086 146.127 52.2763 146.384C40.9347 119.335 29.8005 92.1828 18.8738 64.9276C19.1453 64.9276 19.4169 64.9276 19.6885 64.9276C19.6479 65.2058 19.6931 65.4703 19.8243 65.721C19.9356 65.3504 20.0714 64.9979 20.2316 64.6631Z" fill="#FF7A00"/>
<path fill-rule="evenodd" clip-rule="evenodd" d="M21.5895 60.1667C32.7418 87.811 44.0572 115.404 55.5351 142.946C55.3391 143.057 55.2033 143.233 55.1278 143.475C54.4942 142.065 53.8604 140.654 53.2268 139.243C53.1638 139.571 53.0281 139.835 52.8195 140.037C42.4729 114.97 32.1987 89.8453 21.9968 64.6627C21.1657 62.7794 20.2605 60.9281 19.2812 59.1088C19.0863 58.8573 18.86 58.8134 18.6022 58.9766C18.8018 59.9221 19.0734 60.8477 19.4169 61.7535C19.221 61.8641 19.0852 62.0402 19.0096 62.2825C18.2865 60.981 18.1054 59.6587 18.4665 58.3154C18.8462 58.4612 19.2083 58.5492 19.5527 58.5799C20.2769 59.9903 21.0011 61.401 21.7252 62.8114C21.6736 61.9955 21.4473 61.2021 21.0463 60.4312C21.1704 60.2201 21.3515 60.1321 21.5895 60.1667Z" fill="#FF7A00"/>
<path fill-rule="evenodd" clip-rule="evenodd" d="M21.3176 83.969C20.9816 85.413 20.8005 86.9118 20.7745 88.465C19.3439 99.842 18.0766 111.214 16.9725 122.582C17.7157 122.431 18.1231 121.99 18.1946 121.259C20.1527 107.799 21.8726 94.3114 23.3543 80.7954C27.8772 91.7214 32.4032 102.653 36.9326 113.59C37.423 114.89 37.8304 116.213 38.1546 117.557C29.071 120.535 20.0189 123.621 10.9981 126.813C10.7721 124.073 10.9079 121.34 11.4054 118.615C13.8547 102.806 16.3893 87.0255 19.0093 71.2744C19.307 71.7925 19.4428 72.3654 19.4166 72.9935C17.3679 89.881 15.2859 106.763 13.1706 123.64C13.6116 123.677 13.9284 123.5 14.1211 123.111C16.3873 107.841 18.7409 92.5902 21.1818 77.3572C21.4711 78.1176 21.6069 78.911 21.5891 79.7375C21.4585 81.1466 21.368 82.557 21.3176 83.969Z" fill="#FF7A00"/>
<path fill-rule="evenodd" clip-rule="evenodd" d="M21.3175 83.9697C21.3661 85.5312 21.185 87.0299 20.7744 88.4657C20.8005 86.9125 20.9815 85.4137 21.3175 83.9697Z" fill="#A9A9A9"/>
<path fill-rule="evenodd" clip-rule="evenodd" d="M23.2193 56.4643C34.584 83.8931 45.8086 111.398 56.8934 138.979C56.6973 139.09 56.5615 139.266 56.486 139.508C56.2145 138.891 55.9429 138.274 55.6713 137.657C55.7409 138.213 55.6955 138.742 55.5355 139.244C45.6381 114.848 35.7259 90.4281 25.7991 65.9852C24.4355 62.6606 22.9419 59.3986 21.3183 56.1998C21.5143 56.0893 21.65 55.9132 21.7256 55.6709C22.4335 56.9615 23.0672 58.2839 23.6266 59.638C23.6031 58.7271 23.3768 57.8456 22.9477 56.9933C23.0462 56.8126 23.1367 56.6362 23.2193 56.4643Z" fill="#FF7A00"/>
<path fill-rule="evenodd" clip-rule="evenodd" d="M140.264 125.227C114.959 134.642 89.6131 143.898 64.2255 152.997C63.0453 153.041 61.8686 152.996 60.6951 152.864C90.4652 141.92 121.424 130.636 153.571 119.012C155.683 118.26 155.955 118.612 154.385 120.07C149.702 121.869 144.995 123.588 140.264 125.227Z" fill="#E8E8E8"/>
<path fill-rule="evenodd" clip-rule="evenodd" d="M38.4263 118.88C39.0199 119.23 39.4273 119.759 39.6483 120.467C43.9964 130.957 48.251 141.448 52.4119 151.939C39.1731 143.927 25.9118 135.949 12.6276 128.004C21.2449 124.987 29.8445 121.945 38.4263 118.88Z" fill="#FF7A00"/>
<path fill-rule="evenodd" clip-rule="evenodd" d="M140.264 125.227C140.377 125.418 140.558 125.55 140.807 125.623C140.154 126.024 140.244 126.333 141.079 126.549C117.136 135.34 93.147 144.068 69.1138 152.731C67.7763 152.529 66.4636 152.705 65.1761 153.26C64.867 153.131 64.5501 153.043 64.2256 152.996C89.6132 143.898 114.959 134.641 140.264 125.227Z" fill="#FF7A00"/>
<g clip-path="url(#clip0_302_28958)">
<path fill-rule="evenodd" clip-rule="evenodd" d="M99.7898 67.3172C100.012 67.578 100.294 67.7259 100.634 67.7611C100.986 68.0287 100.888 68.2166 100.341 68.3252C99.8661 68.4517 99.3935 68.4423 98.9227 68.2973C98.6193 68.667 98.2366 68.9445 97.7743 69.1295C94.4983 69.8049 91.313 70.8819 88.2183 72.3607C86.5244 72.4751 86.5994 72.2154 88.4438 71.5816C88.4048 71.3455 88.3019 71.1416 88.1347 70.9701C87.8325 71.2788 87.4627 71.4733 87.0259 71.5538C90.7364 68.5852 94.991 67.1731 99.7898 67.3172Z" fill="#FF7A00"/>
<path fill-rule="evenodd" clip-rule="evenodd" d="M100.633 67.7617C101.348 67.8102 102.068 67.8598 102.793 67.911C102.931 68.2054 103.032 68.5279 103.097 68.8785C102.065 68.4703 101.093 68.6173 100.182 69.3198C99.7954 69.0986 99.3942 69.0668 98.9778 69.225C99.252 69.9027 99.0211 70.29 98.285 70.3866C94.8871 71.0185 91.6884 72.1783 88.6894 73.8664C88.156 73.6496 87.6027 73.508 87.0298 73.442C86.4939 73.8806 85.8881 74.0705 85.212 74.0117C84.8948 74.5057 84.4408 74.8055 83.8498 74.9109C84.232 74.0641 84.7875 73.3391 85.5167 72.7356C85.959 72.2683 86.4617 71.8746 87.0253 71.5544C87.4621 71.474 87.8319 71.2794 88.1342 70.9708C88.3013 71.1422 88.4042 71.3461 88.4432 71.5823C86.5988 72.2161 86.5238 72.4757 88.2177 72.3613C91.3124 70.8825 94.4977 69.8055 97.7737 69.1301C98.236 68.9451 98.6187 68.6676 98.9221 68.2979C99.3929 68.4429 99.8655 68.4523 100.34 68.3258C100.887 68.2172 100.985 68.0293 100.633 67.7617Z" fill="#FF7A00"/>
<path fill-rule="evenodd" clip-rule="evenodd" d="M99.7894 67.3173C100.427 67.3536 101.065 67.3899 101.702 67.4261C103.336 67.6245 104.889 68.0824 106.36 68.7997C106.119 69.0966 105.794 69.4345 105.386 69.8134C104.537 69.5894 103.676 69.4656 102.804 69.4421C102.929 69.715 102.937 69.9882 102.826 70.2617C102.222 70.5686 101.591 70.8056 100.935 70.9724C99.2397 70.9155 97.5592 71.0486 95.8932 71.372C95.2466 71.4176 94.5826 71.5471 93.9011 71.7602C92.9672 72.0005 92.1568 72.412 91.4697 72.9946C90.6848 73.2998 89.9457 73.6887 89.252 74.1619C87.9033 74.7421 86.9068 75.6842 86.2626 76.9878C85.9429 76.8021 85.6934 76.8803 85.5141 77.2224C84.6313 77.1013 83.7462 77.0245 82.8584 76.9922C83.3461 76.3735 83.6767 75.6796 83.85 74.9105C84.441 74.8051 84.895 74.5053 85.2122 74.0113C85.8882 74.07 86.4941 73.8801 87.03 73.4416C87.6028 73.5076 88.1561 73.6492 88.6896 73.8659C91.6886 72.1779 94.8872 71.0181 98.2851 70.3862C99.0212 70.2896 99.2521 69.9022 98.9779 69.2245C99.3943 69.0664 99.7956 69.0981 100.182 69.3194C101.093 68.6168 102.065 68.4698 103.097 68.8781C103.033 68.5275 102.931 68.205 102.794 67.9105C102.068 67.8593 101.348 67.8097 100.633 67.7613C100.293 67.7261 100.012 67.5781 99.7894 67.3173Z" fill="#FF7A00"/>
<path fill-rule="evenodd" clip-rule="evenodd" d="M95.8931 71.372C94.3769 71.8062 92.9024 72.3469 91.4695 72.9946C92.1567 72.4121 92.9671 72.0006 93.901 71.7603C94.5825 71.5472 95.2465 71.4177 95.8931 71.372Z" fill="#FF7A00"/>
<path fill-rule="evenodd" clip-rule="evenodd" d="M83.8497 74.9104C83.6764 75.6795 83.3457 76.3734 82.8581 76.9922C83.7459 77.0244 84.6309 77.1012 85.5137 77.2224C85.693 76.8802 85.9426 76.802 86.2622 76.9878C86.9065 75.6841 87.903 74.742 89.2517 74.1618C87.1339 75.942 85.632 78.1444 84.7463 80.7686C84.2744 80.6268 83.7793 80.5459 83.261 80.5258C82.7189 80.6126 82.4655 80.9281 82.5008 81.4724C82.1835 81.0706 81.8349 80.7076 81.455 80.3835C81.5136 80.7474 81.4028 81.0182 81.1225 81.1961C81.0775 81.0527 81.0327 80.9095 80.9877 80.7661C81.2596 79.7106 81.5959 78.6607 81.9968 77.6163C82.4018 76.5441 83.0193 75.6422 83.8497 74.9104Z" fill="#FF7A00"/>
<path fill-rule="evenodd" clip-rule="evenodd" d="M106.36 68.7996C107.244 69.0847 108.016 69.551 108.678 70.1984C109 70.7674 109.393 71.2738 109.858 71.7174C109.908 72.0412 109.891 72.3613 109.807 72.6779C109.317 72.4538 108.798 72.4198 108.249 72.5761C107.541 71.5573 107.316 71.5884 107.573 72.6697C107.29 72.7955 106.994 72.849 106.684 72.8303C106.234 72.3234 105.683 72.0634 105.03 72.0499C103.695 71.5599 102.33 71.2008 100.935 70.9723C101.591 70.8055 102.222 70.5685 102.826 70.2616C102.937 69.9881 102.929 69.7149 102.804 69.442C103.676 69.4655 104.537 69.5893 105.386 69.8133C105.794 69.4344 106.119 69.0965 106.36 68.7996Z" fill="#FF7A00"/>
<path fill-rule="evenodd" clip-rule="evenodd" d="M108.678 70.1988C109.401 70.759 110.125 71.3194 110.849 71.8796C111.29 72.531 111.728 73.1806 112.164 73.8286C111.979 74.2298 111.778 74.2138 111.562 73.7812C111.323 73.3901 111.153 72.9713 111.051 72.5246C110.382 72.7136 110.345 72.8435 110.938 72.9142C110.199 74.0619 109.479 74.0123 108.778 72.7649C108.694 73.0832 108.547 73.3652 108.338 73.611C108.024 73.5335 107.716 73.5513 107.415 73.6641C106.625 73.1339 105.831 72.596 105.031 72.0503C105.683 72.0637 106.234 72.3238 106.684 72.8306C106.994 72.8493 107.29 72.7958 107.574 72.67C107.316 71.5887 107.541 71.5576 108.249 72.5765C108.798 72.4201 109.318 72.4542 109.807 72.6783C109.891 72.3617 109.909 72.0416 109.859 71.7177C109.393 71.2742 109 70.7678 108.678 70.1988Z" fill="#FF7A00"/>
<path fill-rule="evenodd" clip-rule="evenodd" d="M84.7473 80.7688C84.613 81.6135 84.4811 82.4418 84.3519 83.254C84.1331 83.3023 83.9774 83.4299 83.8846 83.6366C83.7685 83.5155 83.6522 83.3947 83.536 83.2736C83.2796 83.7617 82.9326 84.028 82.4946 84.0722C81.9813 84.0277 81.4862 83.9467 81.0093 83.8294C80.7638 82.921 80.8017 82.0432 81.1234 81.1962C81.4038 81.0184 81.5145 80.7476 81.4559 80.3837C81.8358 80.7078 82.1844 81.0708 82.5018 81.4726C82.4665 80.9283 82.7199 80.6128 83.262 80.526C83.7803 80.546 84.2754 80.627 84.7473 80.7688Z" fill="#FF7A00"/>
<path fill-rule="evenodd" clip-rule="evenodd" d="M103.654 78.1482C103.528 78.2865 103.466 78.4632 103.468 78.6788C103.095 78.1324 102.675 77.7918 102.209 77.6569C102.217 78.335 101.879 78.7556 101.195 78.919C100.659 78.9639 100.196 79.1092 99.805 79.3547C98.8769 79.0591 97.9541 79.1122 97.0365 79.514C95.2193 80.2727 93.4222 81.0329 91.6448 81.7942C91.4513 81.7822 91.2749 81.7194 91.116 81.6058C91.3425 81.1398 91.3503 80.6651 91.1394 80.1817C92.4242 77.6837 94.4919 76.2878 97.3426 75.9943C99.8468 75.6172 101.951 76.3351 103.654 78.1482Z" fill="#FF7A00"/>
<path fill-rule="evenodd" clip-rule="evenodd" d="M112.164 73.8279C112.439 74.1057 112.623 74.4416 112.715 74.8359C113.177 76.4074 112.561 77.1907 110.868 77.1857C110.357 76.7901 109.949 76.4854 109.642 76.2713C109.016 75.3282 108.274 74.4591 107.415 73.6634C107.716 73.5506 108.024 73.5328 108.338 73.6103C108.547 73.3645 108.694 73.0825 108.778 72.7642C109.479 74.0116 110.199 74.0612 110.938 72.9135C110.345 72.8428 110.383 72.7129 111.051 72.5239C111.153 72.9706 111.323 73.3894 111.562 73.7805C111.778 74.2131 111.979 74.2291 112.164 73.8279Z" fill="#FF7A00"/>
<path fill-rule="evenodd" clip-rule="evenodd" d="M91.1389 80.1816C91.3498 80.6649 91.3419 81.1396 91.1155 81.6056C91.2744 81.7192 91.4507 81.782 91.6443 81.7941C93.4217 81.0327 95.2188 80.2726 97.036 79.5139C97.9536 79.112 98.8764 79.0589 99.8044 79.3546C100.195 79.109 100.659 78.9638 101.194 78.9189C101.879 78.7555 102.216 78.3348 102.208 77.6567C102.675 77.7917 103.095 78.1322 103.468 78.6786C103.466 78.463 103.528 78.2863 103.654 78.1481C103.98 78.4713 104.258 78.8566 104.486 79.304C104.35 80.1271 103.9 80.1896 103.135 79.4912C102.673 80.5136 102.058 80.5489 101.29 79.5974C101.032 79.4225 100.807 79.4539 100.614 79.691C101.294 80.0351 101.734 80.566 101.936 81.2839C101.82 81.1628 101.703 81.042 101.587 80.9209C101.718 81.4787 101.769 82.0138 101.738 82.5265C101.531 80.693 100.519 79.7115 98.7015 79.5822C96.4885 79.4928 94.9013 80.4233 93.9396 82.3734C93.924 82.2748 93.866 82.2141 93.7653 82.1919C93.5365 82.762 93.2793 83.3149 92.9934 83.8505C92.6029 83.3847 92.4248 83.4406 92.4588 84.0181C92.0629 83.8477 91.7422 83.9483 91.4964 84.3197C91.1059 83.8539 90.9278 83.9098 90.9618 84.4873C90.8406 84.309 90.6888 84.1993 90.5062 84.1578C90.1721 82.7367 90.3829 81.4114 91.1389 80.1816Z" fill="#FF7A00"/>
<path fill-rule="evenodd" clip-rule="evenodd" d="M81.0089 83.8295C81.4858 83.9468 81.9809 84.0278 82.4941 84.0723C82.9321 84.0281 83.2792 83.7618 83.5356 83.2737C83.6517 83.3948 83.768 83.5156 83.8842 83.6367C83.977 83.43 84.1326 83.3023 84.3514 83.2541C84.5888 84.6647 84.9443 86.0486 85.4179 87.4062C85.0307 86.7859 84.6991 86.1026 84.4233 85.3567C84.5093 85.8806 84.5951 86.4048 84.6811 86.9287C84.565 86.8076 84.4487 86.6868 84.3325 86.5658C84.2797 86.8971 84.1373 86.9417 83.9048 86.6998C83.5655 85.9349 83.3759 85.9549 83.3365 86.7599C82.8476 86.9167 82.3954 87.0978 81.9801 87.3031C81.811 86.9117 81.5918 86.587 81.3224 86.3286C81.0429 85.4894 80.9385 84.6565 81.0089 83.8295Z" fill="#FF7A00"/>
<path fill-rule="evenodd" clip-rule="evenodd" d="M112.715 74.8364C112.76 74.9798 112.853 75.0291 112.996 74.9844C113.55 76.5078 113.95 78.0352 114.197 79.5665C114.04 79.0652 113.728 78.691 113.258 78.444C113.247 78.6384 113.185 78.8153 113.072 78.9746C112.359 78.7305 111.731 78.8486 111.187 79.3293C110.891 78.635 110.595 77.9406 110.299 77.2463C110.499 78.0162 110.616 78.7665 110.652 79.4969C110.315 78.4218 109.978 77.3468 109.642 76.2718C109.948 76.486 110.357 76.7906 110.868 77.1862C112.56 77.1912 113.176 76.4079 112.715 74.8364Z" fill="#FF7A00"/>
<path fill-rule="evenodd" clip-rule="evenodd" d="M104.486 79.3046C104.756 80.1646 105.025 81.0246 105.295 81.8847C105.64 83.5509 105.331 85.0644 104.369 86.425C104.289 86.049 104.141 85.7017 103.925 85.3835C103.623 85.6922 103.253 85.8867 102.817 85.9671C102.784 85.6998 102.646 85.5071 102.401 85.3892C102.308 86.1563 101.89 86.4449 101.145 86.2548C100.879 86.3985 100.71 86.609 100.638 86.8859C98.9156 87.3749 97.1374 87.6961 95.3038 87.8496C94.6216 88.1399 93.9893 88.4956 93.407 88.9163C93.2643 88.961 93.1707 88.9118 93.1257 88.7684C91.7055 87.5677 90.8323 86.031 90.5065 84.1584C90.6891 84.1999 90.8409 84.3096 90.9621 84.4879C90.9281 83.9103 91.1063 83.8545 91.4967 84.3203C91.7425 83.9488 92.0633 83.8483 92.4591 84.0187C92.4251 83.4411 92.6032 83.3853 92.9937 83.8511C93.2796 83.3155 93.5368 82.7626 93.7656 82.1924C93.8663 82.2147 93.9243 82.2754 93.9399 82.3739C93.7597 84.185 94.483 85.4931 96.1094 86.2984C97.7711 86.4696 99.2906 86.072 100.668 85.1058C101.568 84.4646 101.925 83.6052 101.738 82.5271C101.769 82.0143 101.719 81.4792 101.587 80.9215C101.704 81.0426 101.82 81.1634 101.936 81.2845C101.735 80.5666 101.294 80.0357 100.615 79.6916C100.807 79.4544 101.032 79.4231 101.29 79.598C102.058 80.5495 102.673 80.5141 103.136 79.4918C103.901 80.1901 104.351 80.1277 104.486 79.3046Z" fill="#FF7A00"/>
<path fill-rule="evenodd" clip-rule="evenodd" d="M114.198 79.5664C114.306 80.1622 114.415 80.7578 114.523 81.3535C114.461 82.8084 114.201 84.2277 113.744 85.6118C113.66 84.9667 113.695 84.3263 113.846 83.6907C113.73 83.5696 113.614 83.4488 113.498 83.3277C113.102 84.0512 112.532 84.2299 111.787 83.8639C110.976 84.8613 110.296 85.9402 109.748 87.1003C109.468 87.54 109.46 88.0146 109.725 88.5244C109.245 88.401 109.026 88.0761 109.067 87.5499C110.511 85.293 111.035 82.8459 110.641 80.2089C110.787 79.9958 110.791 79.7585 110.653 79.4968C110.617 78.7665 110.499 78.0161 110.3 77.2463C110.596 77.9405 110.892 78.635 111.188 79.3293C111.732 78.8486 112.36 78.7305 113.073 78.9745C113.185 78.8153 113.247 78.6384 113.259 78.444C113.728 78.691 114.041 79.0651 114.198 79.5664Z" fill="#FF7A00"/>
<path fill-rule="evenodd" clip-rule="evenodd" d="M81.3223 86.3281C81.5917 86.5866 81.8109 86.9112 81.98 87.3026C82.3953 87.0974 82.8475 86.9162 83.3364 86.7594C83.3758 85.9544 83.5654 85.9344 83.9047 86.6994C84.1372 86.9413 84.2796 86.8966 84.3324 86.5653C84.4486 86.6864 84.5649 86.8072 84.6811 86.9283C84.5951 86.4044 84.5092 85.8802 84.4232 85.3562C84.699 86.1021 85.0306 86.7854 85.4179 87.4057C86.1614 89.1427 87.2972 90.5184 88.8251 91.5326C89.1794 91.958 89.5993 92.2986 90.0848 92.5545C89.5274 92.591 89.0699 92.3803 88.7123 91.9221C88.243 91.9077 87.9202 92.1269 87.7441 92.5797C87.499 92.4618 87.3604 92.2691 87.3281 92.0018C86.7444 92.167 86.1516 92.2742 85.5499 92.323C85.8756 93.0183 86.2429 93.6904 86.6515 94.339C86.5802 94.3613 86.5088 94.3837 86.4376 94.406C85.3828 93.6452 84.4755 92.749 83.716 91.7171C83.1333 90.7267 82.5825 89.7187 82.0636 88.6932C81.8165 87.9047 81.5694 87.1165 81.3223 86.3281Z" fill="#FF7A00"/>
<path fill-rule="evenodd" clip-rule="evenodd" d="M104.369 86.4252C103.596 87.5007 102.601 88.3239 101.386 88.8951C98.6967 90.3968 96.0372 90.4039 93.4072 88.9165C93.9896 88.4957 94.6219 88.14 95.3041 87.8497C97.1377 87.6963 98.9159 87.3751 100.639 86.8861C100.71 86.6091 100.879 86.3987 101.146 86.255C101.89 86.4451 102.308 86.1565 102.401 85.3893C102.646 85.5073 102.784 85.7 102.817 85.9673C103.254 85.8868 103.623 85.6923 103.926 85.3836C104.141 85.7019 104.289 86.0491 104.369 86.4252Z" fill="#FF7A00"/>
<path fill-rule="evenodd" clip-rule="evenodd" d="M90.0844 92.5548C90.5083 92.658 90.8832 92.8553 91.2093 93.1467C91.2528 93.2365 91.2398 93.3194 91.1698 93.3952C90.7564 93.117 90.31 92.9419 89.831 92.8703C89.5311 93.3215 89.1126 93.61 88.5757 93.736C88.5083 93.521 88.4409 93.306 88.3735 93.091C87.8971 93.3699 87.4541 93.7055 87.045 94.0977C87.0163 94.7359 86.8849 94.8163 86.651 94.3392C86.2425 93.6907 85.8752 93.0185 85.5494 92.3232C86.1511 92.2744 86.7439 92.1673 87.3277 92.002C87.36 92.2693 87.4986 92.462 87.7437 92.58C87.9198 92.1272 88.2426 91.908 88.7119 91.9224C89.0694 92.3805 89.527 92.5913 90.0844 92.5548Z" fill="#FF7A00"/>
<path fill-rule="evenodd" clip-rule="evenodd" d="M113.744 85.6119C113.766 85.6835 113.789 85.7553 113.811 85.8269C113.339 85.6489 113.04 85.821 112.916 86.3435C112.25 86.2301 111.59 86.1221 110.936 86.0197C110.501 86.3425 110.105 86.7027 109.748 87.1004C110.296 85.9403 110.975 84.8613 111.787 83.864C112.532 84.23 113.102 84.0512 113.497 83.3278C113.614 83.4489 113.73 83.5697 113.846 83.6908C113.694 84.3263 113.66 84.9668 113.744 85.6119Z" fill="#FF7A00"/>
<path fill-rule="evenodd" clip-rule="evenodd" d="M113.811 85.8271C114.443 86.4003 115.144 86.8889 115.914 87.2929C115.118 87.3601 114.494 87.2411 114.041 86.9356C113.644 87.1854 113.556 87.5278 113.775 87.9632C113.49 88.0525 113.205 88.142 112.92 88.2313C112.819 87.758 112.921 87.3326 113.225 86.9552C112.76 86.6488 112.265 86.5678 111.739 86.7124C111.847 87.4529 111.509 87.8738 110.726 87.9745C110.636 87.6879 110.546 87.4011 110.456 87.1145C109.976 87.1817 109.747 87.4502 109.769 87.9201C110.082 88.2905 110.42 88.6175 110.781 88.9016C110.358 88.978 110.006 88.8524 109.724 88.5247C109.459 88.0149 109.467 87.5403 109.747 87.1006C110.105 86.7029 110.5 86.3427 110.935 86.0199C111.589 86.1223 112.25 86.2303 112.916 86.3437C113.04 85.8212 113.338 85.6491 113.811 85.8271Z" fill="#FF7A00"/>
<path fill-rule="evenodd" clip-rule="evenodd" d="M91.2098 93.1471C91.5188 93.3103 91.6443 93.5857 91.5863 93.9736C91.1072 94.7262 90.5871 95.44 90.0264 96.1154C89.9776 95.8955 89.8501 95.7388 89.644 95.6449C89.2583 95.5989 88.8814 95.5204 88.5132 95.4091C88.3407 95.7427 88.0648 95.9867 87.6857 96.1407C87.0767 96.2106 86.4951 96.3535 85.9411 96.5694C85.6787 97.1334 85.3745 97.6615 85.0286 98.1541C85.4983 96.9049 85.9679 95.6559 86.4376 94.4067C86.5088 94.3844 86.5803 94.362 86.6515 94.3397C86.8853 94.8168 87.0168 94.7364 87.0455 94.0982C87.4545 93.706 87.8975 93.3704 88.374 93.0915C88.4414 93.3065 88.5088 93.5215 88.5762 93.7365C89.113 93.6105 89.5316 93.322 89.8314 92.8708C90.3104 92.9424 90.7568 93.1175 91.1703 93.3957C91.2402 93.3199 91.2532 93.237 91.2098 93.1471Z" fill="#FF7A00"/>
<path fill-rule="evenodd" clip-rule="evenodd" d="M115.914 87.2925C116.434 87.3859 116.831 87.6547 117.107 88.0994C116.684 88.0869 116.32 87.9255 116.015 87.615C115.758 87.5795 115.555 87.6822 115.407 87.9236C115.149 87.8472 114.89 87.771 114.631 87.6946C113.748 88.1158 112.867 88.5494 111.986 88.996C112.643 89.2989 113.231 89.4292 113.752 89.3868C114.079 89.71 114.356 90.0953 114.584 90.5428C113.347 89.8906 112.08 89.3434 110.782 88.9011C110.42 88.6171 110.083 88.29 109.769 87.9197C109.747 87.4497 109.976 87.1813 110.456 87.1141C110.546 87.4007 110.636 87.6875 110.726 87.9741C111.509 87.8734 111.847 87.4525 111.74 86.7119C112.265 86.5674 112.76 86.6483 113.225 86.9548C112.921 87.3321 112.82 87.7576 112.92 88.2309C113.205 88.1415 113.491 88.0521 113.776 87.9627C113.556 87.5274 113.645 87.1849 114.041 86.9352C114.494 87.2406 115.118 87.3597 115.914 87.2925Z" fill="#FF7A00"/>
<path fill-rule="evenodd" clip-rule="evenodd" d="M90.0265 96.1153C89.298 97.2882 88.6634 98.5102 88.1225 99.7817C88.0409 99.2338 88.0263 98.6872 88.0785 98.1427C87.485 98.4269 86.9241 98.76 86.3955 99.1424C86.0547 99.2249 85.7114 99.2536 85.3657 99.229C85.1269 99.9088 84.7626 100.495 84.2731 100.988C84.3306 99.9825 84.5826 99.0376 85.0288 98.154C85.3747 97.6614 85.6789 97.1333 85.9413 96.5693C86.4953 96.3534 87.0769 96.2106 87.6858 96.1406C88.065 95.9866 88.3408 95.7426 88.5134 95.409C88.8815 95.5203 89.2585 95.5988 89.6442 95.6449C89.8502 95.7387 89.9778 95.8954 90.0265 96.1153Z" fill="#FF7A00"/>
<path fill-rule="evenodd" clip-rule="evenodd" d="M117.107 88.0998C117.977 88.5707 118.724 89.2027 119.345 89.9957C118.928 89.8568 118.542 89.6236 118.186 89.2962C117.511 89.4231 117.395 89.3021 117.838 88.9333C117.022 88.2302 116.311 88.335 115.705 89.2475C115.216 88.878 114.663 88.7367 114.045 88.8232C113.802 88.9576 113.705 89.1457 113.752 89.3872C113.232 89.4296 112.643 89.2994 111.986 88.9964C112.867 88.5498 113.749 88.1162 114.631 87.6951C114.89 87.7714 115.149 87.8476 115.407 87.924C115.555 87.6826 115.758 87.5799 116.015 87.6154C116.32 87.926 116.684 88.0873 117.107 88.0998Z" fill="#FF7A00"/>
<path fill-rule="evenodd" clip-rule="evenodd" d="M105.456 93.6399C104.009 94.0149 102.561 94.3901 101.112 94.7654C99.4271 95.303 97.8551 96.0319 96.3952 96.952C97.0279 96.2432 97.7823 95.6526 98.6582 95.1802C100.324 94.5006 102.035 93.9643 103.791 93.5715C104.374 93.4808 104.929 93.5037 105.456 93.6399Z" fill="#FF7A00"/>
<path fill-rule="evenodd" clip-rule="evenodd" d="M105.456 93.6397C106.634 93.4245 107.767 93.5417 108.854 93.9914C108.972 94.7241 109.474 95.0781 110.361 95.0538C109.866 95.7359 109.22 96.1743 108.425 96.3691C108.786 95.9763 108.743 95.7142 108.296 95.583C108.086 96.1186 107.716 96.313 107.187 96.1667C106.828 96.7715 106.34 96.9636 105.724 96.7434C105.125 96.8139 104.543 96.9567 103.979 97.1721C102.103 97.6155 100.388 98.389 98.8353 99.4928C97.989 99.6447 97.3436 100.083 96.8989 100.808C96.8164 100.794 96.7338 100.781 96.6514 100.768C97.0048 100.442 97.1176 100.053 96.9897 99.599C96.7184 99.7241 96.4464 99.7308 96.1738 99.6186C96.1605 99.7014 96.1475 99.7843 96.1343 99.8671C96.3722 99.9698 96.6198 100.01 96.8769 99.9885C96.4793 100.234 96.2371 100.586 96.1504 101.043C95.8875 100.657 95.6512 100.653 95.4415 101.029C95.2804 100.764 95.1191 100.5 94.9581 100.236C94.7966 102.026 94.4758 102.127 93.9957 100.537C94.022 100.372 94.0485 100.206 94.0748 100.04C94.5934 98.8098 95.3668 97.7804 96.3949 96.9519C97.8548 96.0318 99.4268 95.3029 101.111 94.7653C102.56 94.39 104.008 94.0147 105.456 93.6397Z" fill="#FF7A00"/>
<path fill-rule="evenodd" clip-rule="evenodd" d="M88.1228 99.7816C87.945 100.684 87.8355 101.584 87.7947 102.482C87.6093 102.883 87.4087 102.867 87.1927 102.434C87.3495 102.962 87.3062 103.447 87.0624 103.892C86.3442 103.679 85.7607 103.941 85.312 104.677C84.6032 103.733 84.2305 102.669 84.1943 101.485C84.1494 101.342 84.1045 101.199 84.0595 101.055C84.1307 101.033 84.2022 101.01 84.2734 100.988C84.7629 100.495 85.1272 99.9087 85.366 99.2289C85.7117 99.2535 86.055 99.2247 86.3958 99.1423C86.9244 98.7598 87.4853 98.4267 88.0788 98.1425C88.0265 98.6871 88.0412 99.2336 88.1228 99.7816Z" fill="#FF7A00"/>
<path fill-rule="evenodd" clip-rule="evenodd" d="M119.345 89.9955C119.758 90.7269 120.041 91.5039 120.193 92.327C119.96 92.0851 119.818 92.1297 119.765 92.461C119.649 92.3399 119.533 92.2191 119.417 92.0981C119.391 92.8299 119.45 93.5196 119.595 94.1671C119.296 93.9957 119.064 93.7537 118.898 93.4412C118.887 93.7213 118.812 93.9809 118.672 94.2202C118.479 93.6091 118.095 93.2573 117.52 93.1648C116.594 92.2513 115.616 91.3774 114.584 90.543C114.356 90.0956 114.078 89.7103 113.752 89.387C113.705 89.1455 113.802 88.9574 114.045 88.823C114.662 88.7365 115.216 88.8778 115.705 89.2473C116.311 88.3348 117.022 88.23 117.837 88.9331C117.394 89.3019 117.511 89.4229 118.186 89.296C118.542 89.6234 118.928 89.8566 119.345 89.9955Z" fill="#FF7A00"/>
<path fill-rule="evenodd" clip-rule="evenodd" d="M108.855 93.9913C109.653 94.2918 110.404 94.6865 111.105 95.1751C111.382 96.1322 111.926 96.8669 112.735 97.3796C112.759 97.7882 112.641 97.7858 112.38 97.3726C112.377 97.6099 112.373 97.8473 112.369 98.0846C111.788 98.0911 111.218 98.2698 110.658 98.6209C110.017 98.403 109.503 98.0128 109.117 97.451C108.951 97.6613 108.702 97.7395 108.368 97.6856C106.932 97.1836 105.469 97.0124 103.98 97.172C104.544 96.9567 105.125 96.8138 105.725 96.7433C106.341 96.9635 106.829 96.7715 107.188 96.1666C107.717 96.313 108.086 96.1185 108.297 95.583C108.743 95.7141 108.786 95.9762 108.426 96.369C109.221 96.1743 109.866 95.7359 110.362 95.0537C109.475 95.078 108.972 94.7241 108.855 93.9913Z" fill="#FF7A00"/>
<path fill-rule="evenodd" clip-rule="evenodd" d="M98.8358 99.4932C97.9392 100.416 97.4245 101.522 97.2921 102.811C97.3066 103.357 97.3215 103.903 97.3361 104.45C97.1063 104.603 96.8832 104.516 96.6667 104.187C96.5819 104.337 96.4617 104.453 96.3063 104.536C94.5857 103.556 94.1276 104.093 94.9324 106.148C94.8131 106.054 94.6837 106.016 94.5443 106.033C94.1487 104.895 93.825 103.737 93.573 102.559C93.6506 101.853 93.7917 101.179 93.9962 100.538C94.4763 102.127 94.7971 102.027 94.9586 100.236C95.1196 100.5 95.281 100.765 95.442 101.029C95.6517 100.653 95.8881 100.658 96.1509 101.043C96.2377 100.586 96.4798 100.235 96.8774 99.989C96.6203 100.011 96.3727 99.9703 96.1348 99.8675C96.1481 99.7848 96.1611 99.7018 96.1743 99.619C96.4469 99.7312 96.7189 99.7246 96.9902 99.5994C97.1181 100.053 97.0054 100.443 96.6519 100.768C96.7344 100.782 96.817 100.795 96.8994 100.809C97.3441 100.084 97.9895 99.6451 98.8358 99.4932Z" fill="#FF7A00"/>
<path fill-rule="evenodd" clip-rule="evenodd" d="M119.345 89.9955C119.81 90.4795 120.275 90.9633 120.74 91.4474C120.938 92.0242 121.189 92.5753 121.493 93.1004C121.695 93.7454 121.897 94.3904 122.099 95.0354C121.992 95.4043 122.033 95.7848 122.223 96.1775C121.498 96.314 120.802 96.2172 120.135 95.8872C120.276 96.6946 120.158 97.4402 119.779 98.1239C119.608 97.3413 119.312 96.6471 118.892 96.0408C118.804 95.5405 118.598 95.1329 118.273 94.8178C117.97 94.2927 117.719 93.7416 117.52 93.1648C118.096 93.2573 118.48 93.6091 118.673 94.2203C118.813 93.9809 118.888 93.7213 118.899 93.4412C119.065 93.7537 119.297 93.9957 119.596 94.1672C119.451 93.5196 119.391 92.8299 119.417 92.0981C119.533 92.2192 119.65 92.34 119.766 92.4611C119.819 92.1298 119.961 92.0851 120.194 92.327C120.041 91.5039 119.759 90.7269 119.345 89.9955Z" fill="#FF7A00"/>
<path fill-rule="evenodd" clip-rule="evenodd" d="M84.1938 101.485C84.23 102.669 84.6027 103.733 85.3115 104.676C85.7602 103.941 86.3437 103.679 87.0619 103.891C87.3056 103.447 87.349 102.961 87.1922 102.434C87.4081 102.867 87.6088 102.883 87.7942 102.481C87.7184 103.337 87.7517 104.193 87.8939 105.047C88.0588 106.158 88.1819 107.3 88.2632 108.474C87.7023 108.625 87.2483 108.925 86.901 109.373C86.4095 109.187 86.1827 109.337 86.2199 109.822C85.3869 108.215 84.7409 106.528 84.2818 104.763C84.017 103.656 83.9879 102.563 84.1938 101.485Z" fill="#FF7A00"/>
<path fill-rule="evenodd" clip-rule="evenodd" d="M111.104 95.1753C111.524 95.5159 111.944 95.8565 112.364 96.1972C112.96 97.4133 113.435 98.681 113.791 100C113.507 100.601 113.437 101.253 113.581 101.955C113.148 101.83 112.849 102.002 112.686 102.471C112.59 102.29 112.451 102.097 112.27 101.893C112.173 102.082 112.075 102.269 111.978 102.458C111.727 102.244 111.446 102.096 111.134 102.014C111.021 102.173 110.959 102.35 110.948 102.544C110.662 101.258 110.245 100.051 109.695 98.9226C109.3 98.4634 108.858 98.0512 108.368 97.6857C108.701 97.7397 108.951 97.6615 109.117 97.4511C109.503 98.013 110.016 98.4031 110.658 98.621C111.217 98.2699 111.787 98.0912 112.368 98.0848C112.372 97.8474 112.376 97.6101 112.38 97.3727C112.64 97.7859 112.758 97.7883 112.735 97.3797C111.926 96.867 111.382 96.1323 111.104 95.1753Z" fill="#FF7A00"/>
<path fill-rule="evenodd" clip-rule="evenodd" d="M97.3357 104.45C97.402 105.265 97.6379 106.018 98.0432 106.707C98.1792 107.057 98.1154 107.353 97.8514 107.594C97.3938 107.383 96.9364 107.172 96.4789 106.961C96.2214 106.926 96.0187 107.029 95.871 107.27C95.5823 106.824 95.1847 106.555 94.6786 106.463C94.6337 106.32 94.5888 106.176 94.5439 106.033C94.6833 106.016 94.8127 106.054 94.932 106.148C94.1272 104.093 94.5852 103.556 96.3059 104.536C96.4613 104.453 96.5815 104.337 96.6662 104.187C96.8828 104.516 97.1059 104.603 97.3357 104.45Z" fill="#FF7A00"/>
<path fill-rule="evenodd" clip-rule="evenodd" d="M109.695 98.9234C110.245 100.052 110.662 101.259 110.948 102.545C110.959 102.351 111.021 102.174 111.134 102.014C111.446 102.097 111.727 102.245 111.978 102.458C112.075 102.27 112.173 102.082 112.271 101.894C112.451 102.098 112.59 102.291 112.687 102.472C112.85 102.003 113.148 101.831 113.581 101.956C113.437 101.253 113.507 100.602 113.791 100.001C114.136 101.667 113.827 103.181 112.865 104.541C112.658 104.627 112.457 104.611 112.263 104.494C112.174 104.724 112.04 104.923 111.863 105.091C111.139 104.939 110.407 104.853 109.669 104.835C109.361 104.566 109.178 104.23 109.118 103.827C110.37 102.343 110.562 100.708 109.695 98.9234Z" fill="#FF7A00"/>
<path fill-rule="evenodd" clip-rule="evenodd" d="M84.2822 104.763C84.7412 106.528 85.3873 108.215 86.2202 109.823C86.183 109.338 86.4099 109.188 86.9013 109.373C87.2487 108.925 87.7027 108.625 88.2635 108.474C88.1823 107.3 88.0592 106.158 87.8943 105.048C88.2312 106.123 88.5682 107.198 88.9051 108.273C89.102 109.216 89.5141 110.031 90.1415 110.719C90.2116 111.185 90.0557 111.313 89.6742 111.101C89.556 111.286 89.4114 111.45 89.2407 111.591C89.5032 111.803 89.5106 112.076 89.2627 112.411C88.9102 112.285 88.5575 112.16 88.2051 112.034C88.0773 112.394 87.8372 112.626 87.4844 112.732C87.0539 111.991 86.593 111.27 86.1016 110.568C85.2291 108.681 84.6226 106.746 84.2822 104.763Z" fill="#FF7A00"/>
<path fill-rule="evenodd" clip-rule="evenodd" d="M97.2917 102.81C97.4821 103.542 97.7424 104.247 98.0725 104.927C99.4905 106.301 101.195 106.868 103.186 106.63C104.915 106.284 106.659 105.855 108.42 105.344C108.897 105.449 109.058 105.713 108.903 106.137C108.542 106.204 108.186 106.316 107.834 106.472C108.021 106.571 108.209 106.669 108.396 106.768C107.761 107.23 107.094 107.597 106.392 107.868C106.441 107.774 106.49 107.68 106.539 107.586C105.995 107.599 105.496 107.756 105.042 108.055C105.372 108.109 105.702 108.163 106.032 108.217C105.936 108.287 105.841 108.356 105.745 108.425C104.922 108.406 104.173 108.641 103.5 109.129C103.274 109.16 103.049 109.191 102.824 109.223C104.065 108.607 104.045 108.417 102.763 108.652C102.247 108.767 101.864 109.045 101.614 109.484C101.238 109.276 100.931 109.293 100.692 109.537C100.15 108.736 99.6416 108.738 99.1668 109.543C98.9285 109.469 98.6921 109.464 98.4579 109.529C98.3867 109.551 98.3152 109.573 98.244 109.596C96.7721 108.881 95.5838 107.836 94.6786 106.463C95.1847 106.555 95.5823 106.824 95.871 107.27C96.0187 107.028 96.2214 106.926 96.4789 106.961C96.9364 107.172 97.3938 107.383 97.8514 107.594C98.1154 107.352 98.1792 107.057 98.0432 106.707C97.6379 106.018 97.4021 105.265 97.3357 104.449C97.3211 103.903 97.3062 103.357 97.2917 102.81Z" fill="#FF7A00"/>
<path fill-rule="evenodd" clip-rule="evenodd" d="M121.492 93.1009C122.231 94.7148 122.842 96.4125 123.323 98.1939C123.445 99.4034 123.426 100.59 123.265 101.754C122.908 101.833 122.704 102.054 122.651 102.419C122.462 102.053 122.297 102.026 122.156 102.338C122.22 102.79 122.283 103.242 122.347 103.695C121.634 103.458 120.968 102.958 120.35 102.195C120.391 102.576 120.514 102.97 120.721 103.378C120.662 104.05 120.459 104.153 120.113 103.687C120 103.328 119.888 102.97 119.776 102.612C119.892 100.374 119.597 98.1837 118.891 96.0413C119.311 96.6476 119.607 97.3418 119.779 98.1243C119.724 98.8035 119.891 99.4597 120.278 100.093C120.692 99.9335 121.144 99.7525 121.635 99.5497C121.977 99.2919 122.184 98.9518 122.254 98.5291C122.569 98.6066 122.876 98.5888 123.177 98.476C122.818 97.3293 122.458 96.1825 122.099 95.0359C121.897 94.3909 121.694 93.7459 121.492 93.1009Z" fill="#FF7A00"/>
<path fill-rule="evenodd" clip-rule="evenodd" d="M122.099 95.0356C122.458 96.1822 122.818 97.329 123.177 98.4757C122.877 98.5885 122.569 98.6063 122.254 98.5288C122.184 98.9515 121.977 99.2916 121.635 99.5494C121.144 99.7522 120.692 99.9332 120.278 100.093C119.891 99.4594 119.725 98.8032 119.779 98.124C120.157 97.4403 120.276 96.6948 120.135 95.8874C120.801 96.2173 121.497 96.3142 122.222 96.1776C122.032 95.785 121.991 95.4044 122.099 95.0356Z" fill="#FF7A00"/>
<path fill-rule="evenodd" clip-rule="evenodd" d="M109.118 103.826C109.178 104.23 109.361 104.566 109.669 104.834C110.407 104.853 111.139 104.939 111.863 105.091C112.04 104.923 112.174 104.724 112.263 104.494C112.457 104.61 112.658 104.626 112.865 104.541C112.784 104.872 112.648 105.19 112.46 105.495C110.286 107.991 107.554 109.516 104.264 110.07C102.255 110.507 100.319 110.327 98.458 109.529C98.6922 109.465 98.9286 109.47 99.1669 109.543C99.6418 108.739 100.15 108.737 100.692 109.537C100.931 109.294 101.238 109.276 101.615 109.484C101.864 109.045 102.247 108.768 102.763 108.652C104.045 108.417 104.065 108.607 102.824 109.223C103.05 109.192 103.275 109.16 103.5 109.129C104.173 108.641 104.922 108.407 105.745 108.426C105.841 108.356 105.937 108.287 106.032 108.218C105.702 108.163 105.372 108.11 105.042 108.056C105.496 107.756 105.995 107.599 106.539 107.586C106.49 107.68 106.441 107.775 106.393 107.868C107.094 107.597 107.762 107.231 108.396 106.768C108.209 106.67 108.021 106.571 107.834 106.472C108.186 106.316 108.542 106.204 108.903 106.137C109.059 105.714 108.897 105.449 108.42 105.344C106.66 105.855 104.915 106.284 103.186 106.63C105.393 106.153 107.371 105.219 109.118 103.826Z" fill="#FF7A00"/>
<path fill-rule="evenodd" clip-rule="evenodd" d="M123.265 101.754C123.339 103.637 122.955 105.41 122.114 107.073C120.906 107.675 119.865 108.474 118.99 109.469C118.441 109.133 117.932 109.135 117.465 109.475C117.272 109.463 117.095 109.4 116.936 109.286C117.512 108.119 118.296 107.125 119.29 106.305C119.4 105.826 119.444 105.34 119.421 104.848C119.795 104.528 120.025 104.141 120.113 103.686C120.46 104.152 120.663 104.049 120.721 103.378C120.515 102.97 120.391 102.575 120.351 102.195C120.969 102.957 121.634 103.457 122.347 103.694C122.284 103.242 122.22 102.79 122.157 102.337C122.298 102.025 122.463 102.052 122.652 102.418C122.704 102.054 122.909 101.832 123.265 101.754Z" fill="#FF7A00"/>
<path fill-rule="evenodd" clip-rule="evenodd" d="M88.9044 108.273C90.1834 110.86 92.1141 112.773 94.6964 114.013C94.8125 114.135 94.9288 114.255 95.045 114.376C95.1755 114.627 95.3855 114.797 95.6749 114.887C95.6261 114.981 95.5772 115.076 95.5284 115.169C94.8564 115.121 94.1832 115.095 93.5085 115.094C93.5578 115.511 93.3268 115.898 92.8157 116.256C93.1235 116.421 93.1909 116.636 93.0178 116.901C92.5677 116.37 92.0672 115.897 91.5164 115.482C91.505 115.677 91.443 115.854 91.3304 116.013C91.0919 115.825 90.8331 115.749 90.5541 115.784C89.3946 114.915 88.3711 113.898 87.4838 112.732C87.8365 112.626 88.0766 112.394 88.2044 112.034C88.5569 112.16 88.9095 112.285 89.262 112.411C89.51 112.076 89.5025 111.803 89.24 111.591C89.4107 111.45 89.5553 111.286 89.6736 111.101C90.055 111.313 90.2109 111.185 90.1408 110.719C89.5135 110.031 89.1013 109.216 88.9044 108.273Z" fill="#FF7A00"/>
<path fill-rule="evenodd" clip-rule="evenodd" d="M119.776 102.611C119.888 102.969 120.001 103.328 120.113 103.686C120.025 104.141 119.794 104.528 119.42 104.848C119.444 105.34 119.4 105.826 119.29 106.305C118.296 107.125 117.511 108.119 116.936 109.286C117.095 109.4 117.271 109.463 117.465 109.475C117.932 109.135 118.44 109.133 118.99 109.469C119.865 108.474 120.906 107.675 122.114 107.073C121.444 108.478 120.595 109.767 119.568 110.941C119.268 111.053 118.96 111.071 118.646 110.994C118.57 111.253 118.495 111.513 118.42 111.773C117.49 112.901 116.331 113.697 114.941 114.162C114.822 114.638 114.521 114.929 114.041 115.034C113.105 114.906 112.171 114.923 111.238 115.086C109.327 115.69 107.381 116.103 105.403 116.325C104.336 117.064 103.192 117.659 101.969 118.109C101.603 118.183 101.273 118.129 100.979 117.947C100.823 118.236 100.585 118.351 100.264 118.29C100.385 118.173 100.505 118.057 100.625 117.94C99.8896 118.092 99.1541 118.244 98.4189 118.396C97.0203 118.107 95.6175 117.878 94.2105 117.708C92.8514 117.352 91.6327 116.71 90.5544 115.784C90.8334 115.749 91.0922 115.825 91.3307 116.013C91.4433 115.854 91.5053 115.677 91.5167 115.482C92.0676 115.897 92.5681 116.37 93.0182 116.901C93.1912 116.636 93.1239 116.421 92.816 116.256C93.3272 115.898 93.5581 115.511 93.5088 115.094C94.1835 115.095 94.8567 115.121 95.5287 115.169C95.5775 115.075 95.6264 114.981 95.6752 114.887C95.3858 114.797 95.1758 114.627 95.0453 114.376C96.7319 114.891 98.476 115.21 100.278 115.334C100.789 115.657 101.378 115.788 102.044 115.725C105.669 115.387 109.124 114.422 112.41 112.83C113.037 112.384 113.578 111.86 114.032 111.259C115.619 110.047 116.967 108.602 118.074 106.922C118.833 105.574 119.4 104.137 119.776 102.611Z" fill="#FF7A00"/>
<path fill-rule="evenodd" clip-rule="evenodd" d="M100.277 115.334C105.243 115.272 109.828 113.914 114.031 111.259C113.578 111.86 113.037 112.384 112.41 112.83C109.124 114.422 105.669 115.387 102.044 115.725C101.378 115.788 100.789 115.658 100.277 115.334Z" fill="#FF7A00"/>
<path fill-rule="evenodd" clip-rule="evenodd" d="M94.2109 117.707C95.6179 117.877 97.0207 118.106 98.4192 118.395C99.1545 118.243 99.89 118.092 100.625 117.94C100.505 118.056 100.385 118.173 100.265 118.289C100.586 118.35 100.824 118.236 100.98 117.947C101.273 118.128 101.603 118.182 101.97 118.109C103.192 117.658 104.337 117.064 105.403 116.324C107.382 116.102 109.327 115.689 111.239 115.086C112.171 114.922 113.105 114.905 114.041 115.034C114.522 114.929 114.822 114.637 114.942 114.161C116.331 113.697 117.491 112.9 118.42 111.772C118.496 111.512 118.571 111.253 118.646 110.993C118.961 111.071 119.268 111.053 119.569 110.94C119.591 111.011 119.614 111.083 119.636 111.155C117.822 112.958 115.799 114.497 113.568 115.772C107.671 118.979 101.5 119.772 95.0547 118.151C94.7473 118.065 94.4661 117.917 94.2109 117.707Z" fill="#FF7A00"/>
</g>
<defs>
<clipPath id="clip0_302_28958">
<rect width="54" height="66" fill="white" transform="translate(64.3662 68.5859) rotate(-17.4023)"/>
</clipPath>
</defs>
</svg>
