<svg width="187" height="187" viewBox="0 0 187 187" fill="none" xmlns="http://www.w3.org/2000/svg">
<path fill-rule="evenodd" clip-rule="evenodd" d="M90.0647 9.40938C102.164 8.71996 109.781 14.1965 112.917 25.8391C113.765 33.4547 111.325 39.7778 105.598 44.8079C103.976 45.9673 102.184 46.7141 100.221 47.0484C100.172 45.7501 100.222 44.4557 100.371 43.165C107.078 39.2084 109.866 33.3334 108.735 25.5404C105.168 15.6021 98.2473 11.868 87.9736 14.3383C78.8494 18.706 75.8123 25.7259 78.8626 35.3982C80.4237 38.7516 82.8135 41.3407 86.0319 43.165C86.181 44.4557 86.2309 45.7501 86.1813 47.0484C79.5909 44.7855 75.5581 40.2052 74.083 33.3071C72.6262 20.7836 77.9533 12.8177 90.0647 9.40938Z" fill="#FF7A00"/>
<path fill-rule="evenodd" clip-rule="evenodd" d="M86.7788 27.0343C91.0616 26.9845 95.3434 27.0343 99.6238 27.1836C101.488 27.7536 102.633 28.9983 103.059 30.9177C103.376 32.7769 103.177 34.5692 102.462 36.2947C101.876 37.0818 101.129 37.6297 100.221 37.9376C95.5412 38.1369 90.8614 38.1369 86.1813 37.9376C83.5523 35.2396 83.1042 32.2025 84.8371 28.8266C85.4534 28.1592 86.1004 27.5618 86.7788 27.0343Z" fill="#FF7A00"/>
<path fill-rule="evenodd" clip-rule="evenodd" d="M87.3762 38.9834C91.3591 38.9834 95.3422 38.9834 99.3251 38.9834C99.3251 41.5724 99.3251 44.1611 99.3251 46.7502C95.3422 46.7502 91.3591 46.7502 87.3762 46.7502C87.3762 44.1611 87.3762 41.5724 87.3762 38.9834Z" fill="#FF7A00"/>
<path fill-rule="evenodd" clip-rule="evenodd" d="M90.0647 47.347C112.996 47.289 131.567 56.1509 145.776 73.9332C159.944 94.1979 162.333 115.805 152.946 138.756C141.748 161.763 123.376 174.558 97.8315 177.142C68.8095 177.995 47.6501 165.598 34.3531 139.951C23.6091 114.939 26.6959 91.838 43.6135 70.6473C55.9638 56.6306 71.4475 48.8639 90.0647 47.347Z" fill="#FF7A00"/>
<path fill-rule="evenodd" clip-rule="evenodd" d="M87.675 55.4132C111.953 54.1332 130.523 63.6923 143.387 84.0905C153.11 102.905 153.11 121.725 143.387 140.549C133.305 157.472 118.419 167.081 98.7277 169.376C74.568 170.715 56.0968 161.205 43.3148 140.848C31.586 117.989 33.4781 96.3814 48.9905 76.025C59.1709 64.0887 72.0659 57.2181 87.675 55.4132Z" fill="#EAEAEA"/>
<path fill-rule="evenodd" clip-rule="evenodd" d="M86.7787 56.6074C105.614 55.1335 121.596 61.108 134.724 74.5307C150.216 92.8078 153.502 113.121 144.581 135.47C135.797 153.684 121.408 164.488 101.416 167.881C75.91 170.339 56.6424 160.63 43.6134 138.756C37.1317 125.792 35.5386 112.25 38.8338 98.1298C44.5519 79.2673 56.6502 66.3723 75.1285 59.4453C78.991 58.2402 82.8744 57.2945 86.7787 56.6074Z" fill="#FF7A00"/>
<path fill-rule="evenodd" clip-rule="evenodd" d="M88.2724 59.8934C110.682 58.9231 127.759 67.8848 139.503 86.7783C146.607 100.269 147.902 114.309 143.387 128.898C135.619 149.489 120.832 161.388 99.0263 164.595C75.4103 166.059 57.8356 156.549 46.3019 136.067C36.8527 115.73 38.9438 96.7108 52.5751 79.0116C61.9971 68.0518 73.8961 61.6791 88.2724 59.8934Z" fill="#F8F8F8"/>
<path fill-rule="evenodd" clip-rule="evenodd" d="M87.6749 64.6731C104.146 63.5287 118.037 68.9057 129.347 80.8041C142.59 97.3237 144.781 115.247 135.919 134.574C124.939 152.786 108.758 161.2 87.3762 159.816C69.6007 156.872 56.9051 147.263 49.2891 130.989C41.5854 109.902 45.8174 91.6298 61.9848 76.1739C69.4875 69.9832 78.0507 66.1497 87.6749 64.6731Z" fill="#FF7A00"/>
<path fill-rule="evenodd" clip-rule="evenodd" d="M82.8953 148.913C83.2935 148.913 83.692 148.913 84.0902 148.913C83.5958 150.99 83.1478 153.081 82.746 155.186C82.4016 155.783 81.9535 155.882 81.4017 155.485C81.8997 153.294 82.3977 151.103 82.8953 148.913Z" fill="#E7E7E7"/>
<path fill-rule="evenodd" clip-rule="evenodd" d="M78.4146 147.419C78.7133 147.419 79.012 147.419 79.3107 147.419C78.8399 149.781 77.9937 151.971 76.7716 153.991C76.3892 153.957 76.1404 153.758 76.0248 153.393C76.8818 151.419 77.6785 149.427 78.4146 147.419Z" fill="#E9E9E9"/>
<path fill-rule="evenodd" clip-rule="evenodd" d="M102.91 148.913C103.305 148.862 103.653 148.962 103.955 149.212C104.689 151.349 105.137 153.54 105.3 155.784C104.905 155.835 104.556 155.735 104.254 155.485C103.804 153.287 103.356 151.097 102.91 148.913Z" fill="#E6E6E6"/>
<path fill-rule="evenodd" clip-rule="evenodd" d="M92.1558 150.107C92.9525 150.107 93.7488 150.107 94.5455 150.107C94.5455 152.497 94.5455 154.887 94.5455 157.277C93.7488 157.277 92.9525 157.277 92.1558 157.277C92.1558 154.887 92.1558 152.497 92.1558 150.107Z" fill="#FAFAFA"/>
<path fill-rule="evenodd" clip-rule="evenodd" d="M98.1301 149.809C98.4277 149.783 98.6765 149.883 98.8769 150.107C99.3495 152.372 99.5984 154.662 99.6238 156.978C99.2288 157.029 98.8802 156.929 98.5782 156.679C98.3906 154.729 98.1415 152.787 97.8314 150.854C97.8756 150.479 97.9754 150.13 98.1301 149.809Z" fill="#D9D9D9"/>
<path fill-rule="evenodd" clip-rule="evenodd" d="M87.675 149.81C88.0732 149.81 88.4717 149.81 88.8698 149.81C88.5514 152.089 88.3023 154.38 88.123 156.68C87.821 156.93 87.4724 157.03 87.0775 156.979C87.1925 154.582 87.3915 152.192 87.675 149.81Z" fill="#DCDCDC"/>
<path fill-rule="evenodd" clip-rule="evenodd" d="M107.391 147.419C107.832 147.341 108.23 147.441 108.586 147.718C109.382 149.71 110.179 151.701 110.975 153.693C110.728 153.966 110.429 154.165 110.079 154.29C109.008 152.073 108.112 149.783 107.391 147.419Z" fill="#E8E8E8"/>
<path fill-rule="evenodd" clip-rule="evenodd" d="M73.3362 144.73C74.1045 144.964 74.702 145.412 75.1286 146.075C74.3459 148.09 73.3004 149.932 71.992 151.601C71.2138 151.387 70.5665 150.989 70.0503 150.406C71.2246 148.555 72.32 146.663 73.3362 144.73Z" fill="#F2F2F2"/>
<path fill-rule="evenodd" clip-rule="evenodd" d="M69.7516 142.341C70.4046 142.344 70.6534 142.643 70.4984 143.237C69.5027 144.631 68.5068 146.025 67.5111 147.419C66.9343 148.197 66.3867 148.197 65.8682 147.419C67.0553 145.636 68.3496 143.943 69.7516 142.341Z" fill="#EBEBEB"/>
<path fill-rule="evenodd" clip-rule="evenodd" d="M113.066 144.73C113.519 144.734 113.868 144.933 114.112 145.328C115.118 147.083 116.064 148.875 116.95 150.705C116.264 151.348 115.468 151.846 114.56 152.199C113.525 150.178 112.529 148.137 111.573 146.075C112.034 145.563 112.531 145.115 113.066 144.73Z" fill="#F2F2F2"/>
<path fill-rule="evenodd" clip-rule="evenodd" d="M120.534 139.055C122.458 140.43 124.15 142.073 125.613 143.984C125.449 144.26 125.25 144.509 125.015 144.73C123.317 143.281 121.774 141.688 120.385 139.951C120.245 139.629 120.294 139.33 120.534 139.055Z" fill="#F1F1F1"/>
<path fill-rule="evenodd" clip-rule="evenodd" d="M116.95 142.341C117.403 142.344 117.752 142.543 117.995 142.938C119.091 144.432 120.186 145.925 121.281 147.419C121.264 148.055 120.915 148.304 120.236 148.166C118.941 146.473 117.647 144.78 116.352 143.088C116.615 142.876 116.814 142.627 116.95 142.341Z" fill="#EBEBEB"/>
<path fill-rule="evenodd" clip-rule="evenodd" d="M65.8682 139.055C66.5212 139.058 66.77 139.357 66.615 139.951C65.1169 141.499 63.5737 142.992 61.9848 144.432C61.7114 144.184 61.5125 143.886 61.3873 143.536C62.9867 142.135 64.4803 140.641 65.8682 139.055Z" fill="#F6F6F6"/>
<path fill-rule="evenodd" clip-rule="evenodd" d="M62.881 135.471C63.534 135.474 63.7828 135.773 63.6278 136.367C61.9119 137.698 60.1695 138.992 58.4001 140.25C57.9855 139.924 57.8361 139.526 57.952 139.055C59.6416 137.891 61.2846 136.696 62.881 135.471Z" fill="#E6E6E6"/>
<path fill-rule="evenodd" clip-rule="evenodd" d="M123.82 135.172C125.524 136.026 127.117 137.071 128.6 138.308C129.872 139.235 129.772 139.733 128.301 139.802C126.603 138.599 125.01 137.304 123.522 135.919C123.594 135.649 123.694 135.4 123.82 135.172Z" fill="#E9E9E9"/>
<path fill-rule="evenodd" clip-rule="evenodd" d="M126.808 130.69C128.848 131.76 130.84 132.905 132.782 134.126C132.377 134.594 132.178 135.141 132.185 135.769C129.981 134.916 127.89 133.82 125.911 132.483C126.214 131.877 126.513 131.28 126.808 130.69Z" fill="#EFEFEF"/>
<path fill-rule="evenodd" clip-rule="evenodd" d="M59.8937 130.69C60.9225 130.853 61.2711 131.451 60.9392 132.483C59.1105 133.819 57.1688 134.865 55.1142 135.619C54.5448 135.065 54.2957 134.418 54.3674 133.678C56.2517 132.711 58.0939 131.716 59.8937 130.69Z" fill="#EFEFEF"/>
<path fill-rule="evenodd" clip-rule="evenodd" d="M57.5039 126.808C57.9021 126.808 58.3006 126.808 58.6988 126.808C58.7496 127.203 58.6501 127.551 58.4001 127.853C56.3954 128.87 54.3043 129.617 52.127 130.094C52.127 129.695 52.127 129.297 52.127 128.899C54.0029 128.357 55.7953 127.66 57.5039 126.808Z" fill="#EBEBEB"/>
<path fill-rule="evenodd" clip-rule="evenodd" d="M128.6 126.509C130.672 127.266 132.763 127.963 134.873 128.6C134.908 129.193 134.709 129.69 134.276 130.093C132.384 129.297 130.492 128.5 128.6 127.704C128.363 127.345 128.363 126.947 128.6 126.509Z" fill="#E9E9E9"/>
<path fill-rule="evenodd" clip-rule="evenodd" d="M55.413 122.028C55.911 122.028 56.4086 122.028 56.9066 122.028C56.9066 122.427 56.9066 122.825 56.9066 123.223C54.6883 123.728 52.4978 124.325 50.3347 125.016C50.3347 124.518 50.3347 124.02 50.3347 123.522C52.107 123.196 53.7999 122.698 55.413 122.028Z" fill="#E9E9E9"/>
<path fill-rule="evenodd" clip-rule="evenodd" d="M130.392 122.028C132.472 122.473 134.563 122.872 136.665 123.223C136.668 123.763 136.519 124.261 136.217 124.717C134.203 124.129 132.161 123.631 130.093 123.223C130.073 122.787 130.173 122.389 130.392 122.028Z" fill="#E8E8E8"/>
<path fill-rule="evenodd" clip-rule="evenodd" d="M53.9194 117.248C54.6163 117.248 55.3135 117.248 56.0104 117.248C56.0522 117.733 55.853 118.081 55.413 118.294C53.5471 118.532 51.7049 118.88 49.8866 119.339C48.9053 119.279 48.6565 118.831 49.1398 117.995C50.7792 117.764 52.3723 117.515 53.9194 117.248Z" fill="#E4E4E4"/>
<path fill-rule="evenodd" clip-rule="evenodd" d="M131.288 116.949C133.468 117.238 135.659 117.437 137.86 117.547C138.035 118.371 137.736 118.869 136.964 119.04C135.075 118.709 133.183 118.41 131.288 118.144C131.288 117.746 131.288 117.347 131.288 116.949Z" fill="#E1E1E1"/>
<path fill-rule="evenodd" clip-rule="evenodd" d="M131.886 111.274C133.977 111.274 136.068 111.274 138.159 111.274C138.159 112.071 138.159 112.867 138.159 113.664C135.968 113.664 133.778 113.664 131.587 113.664C131.521 112.834 131.621 112.037 131.886 111.274Z" fill="#F5F5F5"/>
<path fill-rule="evenodd" clip-rule="evenodd" d="M48.5424 111.274C50.9321 111.274 53.3219 111.274 55.7117 111.274C55.7117 112.071 55.7117 112.867 55.7117 113.664C53.3219 113.664 50.9321 113.664 48.5424 113.664C48.5424 112.867 48.5424 112.071 48.5424 111.274Z" fill="#EFEFEF"/>
<path fill-rule="evenodd" clip-rule="evenodd" d="M136.665 106.196C137.684 106.161 138.082 106.659 137.86 107.69C135.674 107.938 133.484 108.137 131.288 108.287C131.288 107.889 131.288 107.49 131.288 107.092C133.146 106.956 134.939 106.657 136.665 106.196Z" fill="#E6E6E6"/>
<path fill-rule="evenodd" clip-rule="evenodd" d="M48.8411 106.195C51.2308 106.494 53.6206 106.793 56.0104 107.091C56.089 108.058 55.6409 108.456 54.6661 108.286C52.7388 107.933 50.7971 107.733 48.8411 107.689C48.8411 107.191 48.8411 106.693 48.8411 106.195Z" fill="#DEDEDE"/>
<path fill-rule="evenodd" clip-rule="evenodd" d="M136.068 100.52C136.957 100.872 137.056 101.27 136.367 101.714C134.406 102.335 132.414 102.833 130.392 103.208C130.392 102.81 130.392 102.411 130.392 102.013C132.346 101.65 134.238 101.152 136.068 100.52Z" fill="#E7E7E7"/>
<path fill-rule="evenodd" clip-rule="evenodd" d="M49.7372 100.818C52.1987 101.135 54.5884 101.732 56.9065 102.611C56.6735 103.195 56.2254 103.493 55.5623 103.507C53.5991 103.078 51.6574 102.581 49.7372 102.013C49.7372 101.615 49.7372 101.217 49.7372 100.818Z" fill="#E2E2E2"/>
<path fill-rule="evenodd" clip-rule="evenodd" d="M134.276 95.1426C134.972 95.3403 135.171 95.7385 134.873 96.3375C132.91 97.0953 130.968 97.892 129.048 98.7272C128.639 98.2813 128.589 97.8332 128.899 97.383C130.752 96.7031 132.544 95.9563 134.276 95.1426Z" fill="#EBEBEB"/>
<path fill-rule="evenodd" clip-rule="evenodd" d="M51.5296 94.8447C53.851 95.7561 56.141 96.7518 58.4002 97.8319C57.9399 98.8395 57.2429 98.9889 56.3091 98.28C54.8514 97.5013 53.3578 96.8043 51.8283 96.189C51.5654 95.7839 51.4657 95.3358 51.5296 94.8447Z" fill="#E8E8E8"/>
<path fill-rule="evenodd" clip-rule="evenodd" d="M130.99 89.467C131.385 89.4162 131.733 89.5157 132.035 89.7657C132.558 90.2771 132.757 90.8746 132.633 91.558C131.095 92.4037 129.551 93.25 128.002 94.0972C126.959 94.3544 126.262 93.9562 125.911 92.9023C127.624 91.7504 129.317 90.6051 130.99 89.467Z" fill="#F2F2F2"/>
<path fill-rule="evenodd" clip-rule="evenodd" d="M54.5168 89.4668C56.3927 90.4048 58.2848 91.3508 60.1925 92.3047C60.847 93.0754 60.7475 93.8222 59.8938 94.5451C57.7925 93.496 55.801 92.3011 53.9193 90.9604C54.2049 90.4899 54.4041 89.992 54.5168 89.4668Z" fill="#F0F0F0"/>
<path fill-rule="evenodd" clip-rule="evenodd" d="M128.301 84.6875C129.478 85.2891 129.478 85.9365 128.301 86.6292C126.865 87.6174 125.471 88.6629 124.119 89.7658C123.777 89.5731 123.478 89.3243 123.223 89.019C125.048 87.7115 126.741 86.2674 128.301 84.6875Z" fill="#EEEEEE"/>
<path fill-rule="evenodd" clip-rule="evenodd" d="M57.8028 84.9863C59.8959 86.0342 61.7877 87.3785 63.4785 89.0191C62.8159 89.9418 62.119 89.9418 61.3874 89.0191C59.9933 87.9237 58.5995 86.8285 57.2053 85.7331C57.4685 85.5216 57.6674 85.2725 57.8028 84.9863Z" fill="#ECECEC"/>
<path fill-rule="evenodd" clip-rule="evenodd" d="M124.418 80.5059C124.754 80.6917 125.053 80.9405 125.314 81.2527C123.82 82.7463 122.327 84.2399 120.833 85.7335C120.186 85.8829 119.937 85.634 120.086 84.9867C121.591 83.5322 123.035 82.0386 124.418 80.5059Z" fill="#F2F2F2"/>
<path fill-rule="evenodd" clip-rule="evenodd" d="M61.9848 80.207C63.7604 81.5829 65.453 83.0766 67.0631 84.6879C66.7399 85.3701 66.2422 85.7185 65.5695 85.7334C64.2157 84.2795 62.7717 82.9353 61.238 81.7006C61.2554 81.1226 61.5042 80.6246 61.9848 80.207Z" fill="#F0F0F0"/>
<path fill-rule="evenodd" clip-rule="evenodd" d="M65.8682 76.6221C66.7327 77.0349 67.4795 77.6323 68.1086 78.4144C68.8455 79.6392 69.6921 80.7845 70.6477 81.8497C70.142 82.7315 69.5944 82.7811 69.0048 81.9991C67.8018 80.4475 66.6568 78.8544 65.5695 77.2195C65.6779 77.0155 65.7774 76.8162 65.8682 76.6221Z" fill="#EBEBEB"/>
<path fill-rule="evenodd" clip-rule="evenodd" d="M120.236 76.9209C120.742 76.9762 121.141 77.2253 121.431 77.6677C120.193 79.3537 118.899 80.9967 117.547 82.5966C117.062 82.8882 116.664 82.7388 116.352 82.1485C117.712 80.4425 119.006 78.7001 120.236 76.9209Z" fill="#E9E9E9"/>
<path fill-rule="evenodd" clip-rule="evenodd" d="M72.1413 72.7393C73.3798 74.6161 74.4753 76.6077 75.4273 78.7137C74.9111 79.2293 74.3137 79.6275 73.635 79.9086C72.3696 78.078 71.1747 76.1859 70.0503 74.2329C70.8201 73.8018 71.517 73.3038 72.1413 72.7393Z" fill="#F1F1F1"/>
<path fill-rule="evenodd" clip-rule="evenodd" d="M114.56 73.0371C115.451 73.383 116.248 73.881 116.95 74.5307C116.004 76.2236 115.058 77.9161 114.112 79.609C113.891 79.9298 113.592 80.1291 113.216 80.2064C112.648 79.897 112.1 79.5487 111.573 79.1609C112.691 77.1726 113.687 75.1314 114.56 73.0371Z" fill="#F0F0F0"/>
<path fill-rule="evenodd" clip-rule="evenodd" d="M76.3235 70.6475C76.8717 70.8333 77.2203 71.2318 77.369 71.8423C77.9749 73.502 78.6222 75.145 79.3107 76.7713C79.1321 77.1599 78.8334 77.409 78.4146 77.5181C77.4787 75.4969 76.5825 73.4557 75.7261 71.3943C75.8922 71.0923 76.0911 70.8434 76.3235 70.6475Z" fill="#E9E9E9"/>
<path fill-rule="evenodd" clip-rule="evenodd" d="M110.378 70.9463C110.886 71.1004 111.284 71.3992 111.573 71.8425C110.676 73.837 109.78 75.8283 108.884 77.8169C108.386 77.7174 108.088 77.4187 107.988 76.9207C108.788 74.9232 109.585 72.9316 110.378 70.9463Z" fill="#ECECEC"/>
<path fill-rule="evenodd" clip-rule="evenodd" d="M104.702 69.1543C105.177 69.1925 105.575 69.3918 105.897 69.7517C105.402 71.4315 104.954 73.124 104.553 74.83C104.135 76.3174 103.687 76.3669 103.208 74.9794C103.639 73.009 104.137 71.0673 104.702 69.1543Z" fill="#E6E6E6"/>
<path fill-rule="evenodd" clip-rule="evenodd" d="M81.103 69.1545C81.5941 69.0905 82.0422 69.1903 82.4473 69.4532C82.9954 71.4463 83.543 73.4378 84.0902 75.4276C83.5385 75.8249 83.0904 75.7255 82.746 75.1289C82.1787 73.1379 81.6312 71.1463 81.103 69.1545Z" fill="#E6E6E6"/>
<path fill-rule="evenodd" clip-rule="evenodd" d="M98.7276 67.959C99.2255 67.959 99.7232 67.959 100.221 67.959C99.8251 70.2361 99.5264 72.5264 99.325 74.8296C98.9268 74.8296 98.5283 74.8296 98.1301 74.8296C98.3046 72.5372 98.5038 70.2469 98.7276 67.959Z" fill="#E9E9E9"/>
<path fill-rule="evenodd" clip-rule="evenodd" d="M92.1558 67.6602C92.9525 67.6602 93.7488 67.6602 94.5455 67.6602C94.5455 69.9505 94.5455 72.2405 94.5455 74.5308C93.7488 74.5308 92.9525 74.5308 92.1558 74.5308C92.1558 72.2405 92.1558 69.9505 92.1558 67.6602Z" fill="#F3F3F3"/>
<path fill-rule="evenodd" clip-rule="evenodd" d="M87.0775 67.959C87.4757 67.959 87.8742 67.959 88.2724 67.959C88.6348 70.2335 88.834 72.5238 88.8698 74.8296C88.3847 74.8714 88.0364 74.6722 87.8243 74.2321C87.4772 72.1504 87.2281 70.0593 87.0775 67.959Z" fill="#E9E9E9"/>
<path fill-rule="evenodd" clip-rule="evenodd" d="M98.8926 86.0322C99.8585 86.1092 100.799 86.3029 101.714 86.6131C101.994 87.0754 101.883 87.3798 101.382 87.5258C100.661 87.331 99.9422 87.1375 99.2245 86.945C98.9437 86.7125 98.833 86.4083 98.8926 86.0322Z" fill="#ECECEA"/>
<path fill-rule="evenodd" clip-rule="evenodd" d="M105.577 88.4306C105.787 88.4066 105.991 88.4321 106.188 88.5071C106.724 88.8517 107.285 89.1575 107.87 89.4245C108.342 90.045 108.189 90.2999 107.411 90.189C106.762 89.826 106.125 89.4437 105.5 89.0422C105.412 88.8239 105.437 88.6199 105.577 88.4306Z" fill="#EDEDEC"/>
<path fill-rule="evenodd" clip-rule="evenodd" d="M110.835 92.3131C111.11 92.2902 111.38 92.314 111.644 92.385C112.102 92.7919 112.561 93.1989 113.019 93.6058C113.379 94.0911 113.244 94.3545 112.615 94.3957C112.049 93.893 111.482 93.3903 110.916 92.8877C110.837 92.7019 110.81 92.5103 110.835 92.3131Z" fill="#F1F1EF"/>
<path fill-rule="evenodd" clip-rule="evenodd" d="M116.058 97.6964C116.31 98.1439 116.56 98.5853 116.808 99.021C117.327 99.8863 117.152 100.217 116.283 100.014C115.921 99.3134 115.596 98.5959 115.307 97.8619C115.472 97.2854 115.723 97.2303 116.058 97.6964Z" fill="#F1F1EF"/>
<path fill-rule="evenodd" clip-rule="evenodd" d="M85.0618 87.6564C78.5767 90.1284 73.7811 94.4548 70.6748 100.636C69.6843 102.564 69.0065 104.597 68.6419 106.734C68.1729 108.927 68.0686 111.116 68.3291 113.302C68.2795 113.959 68.3318 114.585 68.4855 115.178C68.7266 118.166 69.6127 120.928 71.1439 123.466C71.6126 124.614 72.2381 125.656 73.0205 126.594C74.9297 129.442 77.3798 131.683 80.3704 133.318C80.688 133.634 81.053 133.895 81.465 134.1C82.4845 134.636 83.527 135.131 84.5926 135.586C95.3891 138.97 104.798 136.702 112.819 128.783C113.289 129 113.341 129.313 112.976 129.721C108.075 134.738 102.107 137.501 95.0701 138.009C93.9754 138.009 92.8808 138.009 91.7861 138.009C82.5814 137.111 75.5966 132.733 70.8312 124.874C68.2304 120.223 67.0315 115.219 67.2344 109.862C67.3814 108.683 67.5378 107.485 67.7036 106.265C68.3171 103.905 69.151 101.611 70.2057 99.3846C73.218 94.131 77.4403 90.1693 82.8724 87.5C84.301 86.9283 85.7605 86.4331 87.2511 86.0144C86.778 85.6967 86.361 85.3319 86 84.9198C86.1422 84.5572 86.4027 84.4529 86.7819 84.6071C87.3554 84.9719 87.9287 85.3369 88.5021 85.7017C88.706 85.8274 88.8103 86.0099 88.8149 86.249C88.5054 86.9719 88.1145 87.6495 87.642 88.2819C87.4162 88.5407 87.1294 88.645 86.7819 88.5946C86.7569 88.329 86.7829 88.0683 86.8601 87.8128C87.1107 87.5205 87.267 87.2078 87.3293 86.8745C86.5812 87.1646 85.8254 87.4251 85.0618 87.6564Z" fill="white"/>
<path fill-rule="evenodd" clip-rule="evenodd" d="M118.18 103.364C118.425 103.337 118.641 103.39 118.828 103.522C119.331 104.414 119.547 105.332 119.476 106.276C119.177 106.389 118.9 106.363 118.643 106.197C118.484 105.447 118.268 104.713 117.995 103.994C118.018 103.769 118.08 103.56 118.18 103.364Z" fill="#EAEAE9"/>
<path fill-rule="evenodd" clip-rule="evenodd" d="M100.537 116.174C100.579 116.469 100.474 116.677 100.22 116.801C99.7124 116.653 99.2382 116.419 98.7978 116.096C97.2171 114.948 95.6363 113.8 94.0556 112.651C93.8975 112.547 93.7394 112.547 93.5813 112.651C93.3457 113.251 92.9767 113.746 92.4748 114.139C91.9042 113.855 91.8515 113.49 92.3168 113.043C92.5632 112.713 92.7739 112.347 92.9491 111.947C92.3288 111.496 91.7229 111.026 91.1312 110.538C91.0346 109.976 91.2717 109.793 91.8425 109.99C92.3168 110.355 92.791 110.72 93.2652 111.086C93.3967 111.193 93.502 111.167 93.5813 111.007C95.3113 108.049 96.9975 105.074 98.6397 102.083C99.1407 101.404 99.5623 100.674 99.9043 99.8907C100.549 99.6157 100.787 99.8244 100.616 100.517C98.4817 104.223 96.3477 107.928 94.2136 111.634C96.32 113.147 98.4276 114.66 100.537 116.174Z" fill="#F1F1F0"/>
<path fill-rule="evenodd" clip-rule="evenodd" d="M119.338 110.238C119.584 110.205 119.808 110.257 120.011 110.395C120.111 111.283 120.111 112.171 120.011 113.059C119.762 113.268 119.513 113.268 119.263 113.059C119.145 112.106 119.17 111.166 119.338 110.238Z" fill="#EAEAE8"/>
<path fill-rule="evenodd" clip-rule="evenodd" d="M118.66 116.826C119.118 116.734 119.394 116.892 119.489 117.299C119.241 118.087 118.992 118.876 118.743 119.665C118.224 119.928 117.975 119.77 117.997 119.192C118.141 118.379 118.362 117.591 118.66 116.826Z" fill="#E9E9E8"/>
<path fill-rule="evenodd" clip-rule="evenodd" d="M116.388 123.404C116.945 123.286 117.175 123.493 117.077 124.027C116.732 124.572 116.426 125.142 116.158 125.737C115.937 125.995 115.656 126.098 115.316 126.048C115.291 125.784 115.317 125.525 115.392 125.271C115.765 124.669 116.097 124.047 116.388 123.404Z" fill="#EDEDED"/>
</svg>
