<svg width="247" height="202" viewBox="0 0 247 202" fill="none" xmlns="http://www.w3.org/2000/svg">
<g clip-path="url(#clip0_302_27482)">
<path fill-rule="evenodd" clip-rule="evenodd" d="M220.917 47.0183C225.745 46.8814 230.265 47.97 234.481 50.2843C236.263 51.641 237.928 53.1405 239.476 54.7828C240.338 56.0738 240.975 57.4707 241.387 58.9732C233.454 59.0853 225.521 59.0853 217.587 58.9732C216.734 64.7096 216.632 70.4612 217.279 76.2276C217.523 77.9999 217.79 79.7663 218.081 81.5272C219.033 81.3976 219.978 81.4592 220.917 81.712C227.25 81.5681 233.58 81.301 239.907 80.9109C240.318 80.952 240.73 80.9931 241.14 81.0342C239.99 83.0881 238.778 85.1012 237.503 87.0732C235.499 89.5847 232.929 91.2075 229.796 91.9414C223.224 93.7089 217.141 92.6819 211.545 88.8603C209.644 87.4362 207.712 86.0394 205.749 84.6699C204.789 84.1175 203.781 83.6862 202.728 83.3758C202.136 83.5499 201.541 83.7347 200.94 83.9304C193.085 85.329 185.234 86.7052 177.387 88.0592C177.403 86.2372 177.711 84.4706 178.312 82.7596C178.49 81.7043 178.674 80.6567 178.867 79.6168C183.723 78.897 188.532 77.9522 193.295 76.7822C191.44 76.9472 189.59 77.1937 187.745 77.5217C184.82 78.0577 181.902 78.6123 178.99 79.1855C178.967 78.2364 179.007 77.2914 179.113 76.3508C184.727 75.1258 190.399 74.3041 196.131 73.8859C196.973 73.8817 197.796 74.005 198.597 74.2556C198.711 74.6523 198.629 75.022 198.35 75.3649C198.993 75.4436 199.321 75.1355 199.337 74.4405C199.344 74.1619 199.262 73.9154 199.09 73.701C198.616 73.5019 198.122 73.3786 197.611 73.3313C194.258 73.3239 190.928 73.6114 187.622 74.194C184.775 74.723 181.939 75.2776 179.113 75.8578C179.03 73.9648 178.618 72.1571 177.88 70.435C183.031 69.4049 188.168 68.3162 193.295 67.169C194.399 66.9546 195.469 66.6259 196.501 66.183C199.427 64.2852 201.914 61.9229 203.961 59.0964C205.435 57.0076 206.955 54.9535 208.524 52.9341C210.873 50.2907 213.771 48.5447 217.217 47.6962C218.457 47.4088 219.69 47.1828 220.917 47.0183Z" fill="#FF7A00"/>
<path fill-rule="evenodd" clip-rule="evenodd" d="M219.93 50.4696C220.918 50.4491 221.905 50.4696 222.89 50.5312C223.42 50.535 223.914 50.6583 224.37 50.9009C222.89 50.942 221.41 50.9831 219.93 51.0242C218.3 51.2883 216.697 51.617 215.121 52.0102C215.691 51.6282 216.307 51.3407 216.971 51.1474C217.971 50.9109 218.958 50.685 219.93 50.4696Z" fill="white"/>
<path fill-rule="evenodd" clip-rule="evenodd" d="M220.917 48.9899C223.434 48.7593 225.817 49.1907 228.069 50.284C224.454 49.3534 220.837 49.3944 217.218 50.4073C215.778 50.9027 214.339 51.3547 212.902 51.763C213.497 51.3216 214.114 50.9107 214.751 50.5305C216.763 49.7815 218.817 49.268 220.917 48.9899Z" fill="white"/>
<path fill-rule="evenodd" clip-rule="evenodd" d="M221.903 47.3877C228.956 47.6768 234.731 50.5115 239.229 55.8917C239.667 56.5594 239.995 57.2578 240.216 57.9868C236.794 53.1752 232.21 49.9913 226.466 48.4353C222.886 47.6428 219.393 47.9303 215.984 49.298C214.629 49.893 213.273 50.4887 211.915 51.0851C211.751 51.0029 211.751 50.9208 211.915 50.8386C213.019 49.9421 214.252 49.2642 215.614 48.805C217.658 48.023 219.754 47.5506 221.903 47.3877Z" fill="white"/>
<path fill-rule="evenodd" clip-rule="evenodd" d="M148.285 48.3738C148.844 48.3451 149.379 48.4478 149.888 48.682C151.59 50.1359 153.213 51.6765 154.759 53.3037C156.558 55.555 158.408 57.7734 160.308 59.959C160.399 60.2932 160.317 60.5807 160.062 60.8217C158.842 62.5403 157.198 63.6084 155.129 64.0261C154.668 63.9675 154.236 63.8237 153.834 63.5947C150.499 61.1758 148.135 58.033 146.744 54.1664C146.275 52.2658 146.562 50.4993 147.607 48.8668C147.856 48.7193 148.082 48.555 148.285 48.3738Z" fill="#FF7A00"/>
<path fill-rule="evenodd" clip-rule="evenodd" d="M145.695 75.6118C145.317 76.329 144.967 77.0684 144.647 77.8302C144.586 77.5455 144.566 77.258 144.586 76.9675C144.681 75.3988 144.454 73.8787 143.907 72.4074C143.084 70.9245 142.261 69.4456 141.441 67.9705C139.889 64.6024 139.457 61.0899 140.146 57.433C140.183 56.5703 140.04 56.5498 139.715 57.3714C138.636 61.393 139.046 65.2547 140.948 68.9565C141.858 70.3652 142.64 71.8442 143.291 73.3934C143.553 74.1955 143.697 75.0171 143.722 75.8583C143.621 77.1722 143.539 78.4869 143.476 79.8022C143.349 79.9689 143.185 80.0921 142.983 80.1719C142.926 78.2119 142.659 76.2811 142.181 74.3793C141.299 72.3031 140.353 70.2491 139.345 68.217C138.997 67.0746 138.689 65.9243 138.42 64.7662C138.231 65.85 138.293 66.9182 138.605 67.9705C139.14 69.7805 139.88 71.506 140.825 73.1469C141.794 75.9404 142.143 78.8161 141.873 81.7741C141.61 82.0047 141.323 82.2101 141.009 82.3903C141.066 80.3015 140.841 78.2474 140.331 76.228C140.257 78.5706 140.278 80.9122 140.393 83.253C138.678 84.5226 136.869 85.673 134.967 86.7039C131.618 84.2444 129.543 80.9578 128.74 76.8443C128.095 72.4716 127.643 68.0759 127.383 63.6569C127.251 62.584 126.963 61.5568 126.52 60.5758C126.331 60.2342 126.064 59.9877 125.719 59.8363C125.447 59.8792 125.222 60.0025 125.04 60.2061C124.834 60.7475 124.649 61.2815 124.485 61.8083C124.252 61.4714 124.129 61.533 124.115 61.9931C124.245 62.4691 124.245 62.9415 124.115 63.4105C123.252 62.6493 122.306 62.0125 121.279 61.5001C120.31 61.1664 119.323 60.8787 118.32 60.6374C118.263 60.5864 118.222 60.5248 118.196 60.4526C119.685 58.1252 121.781 56.6258 124.485 55.9541C128.296 54.8127 132.159 54.6072 136.077 55.3378C137.608 55.6891 139.129 56.0794 140.64 56.5087C140.482 59.1365 140.79 61.7247 141.564 64.2732C142.699 67.5505 144.096 70.7139 145.757 73.7631C145.83 74.3828 145.809 74.999 145.695 75.6118Z" fill="#FF7A00"/>
<path fill-rule="evenodd" clip-rule="evenodd" d="M128.185 55.7684C129.296 55.748 130.406 55.7684 131.514 55.83C132.147 55.8873 132.764 56.0106 133.364 56.1998C129.62 56.1947 126.003 56.852 122.512 58.1717C121.496 58.5868 120.571 59.1414 119.738 59.8355C119.769 59.425 119.954 59.0758 120.293 58.7879C121.889 57.6119 123.657 56.7902 125.595 56.323C126.478 56.1433 127.341 55.9585 128.185 55.7684Z" fill="white"/>
<path fill-rule="evenodd" clip-rule="evenodd" d="M129.171 56.8775C130.079 56.8367 130.984 56.8779 131.884 57.0008C130.534 57.2913 129.178 57.5583 127.815 57.8019C126.625 58.1788 125.433 58.5073 124.239 58.7878C125.767 57.8206 127.41 57.1839 129.171 56.8775Z" fill="white"/>
<path fill-rule="evenodd" clip-rule="evenodd" d="M130.035 58.2338C130.697 58.1934 131.355 58.2344 132.008 58.357C131.077 58.5997 130.131 58.7024 129.171 58.6652C129.471 58.5157 129.758 58.372 130.035 58.2338Z" fill="white"/>
<path fill-rule="evenodd" clip-rule="evenodd" d="M218.451 59.4658C226.089 59.9298 233.734 60.1763 241.387 60.2053C241.409 60.463 241.369 60.7095 241.264 60.9448C240.915 60.9858 240.565 61.027 240.216 61.068C233.549 60.5284 226.89 60.6105 220.239 61.3145C219.392 60.9808 218.796 60.3645 218.451 59.4658Z" fill="#FF7A00"/>
<path fill-rule="evenodd" clip-rule="evenodd" d="M140.393 83.2527C140.35 85.1234 140.267 86.9926 140.146 88.8603C140.187 89.1274 140.229 89.3944 140.27 89.6614C140.829 87.2718 141.076 84.8481 141.009 82.3899C141.323 82.2097 141.61 82.0043 141.873 81.7737C141.852 84.5265 141.873 87.279 141.934 90.0312C142.637 86.7841 142.986 83.4975 142.983 80.1715C143.185 80.0918 143.349 79.9685 143.476 79.8018C143.245 82.757 143.101 85.7149 143.044 88.6755C143.833 84.7911 144.346 80.8883 144.586 76.9671C144.566 77.2576 144.586 77.5451 144.647 77.8298C144.967 77.0681 145.317 76.3286 145.695 75.6114C144.997 80.9466 144.319 86.2872 143.661 91.6334C143.386 93.1573 143.098 94.6773 142.798 96.1935C141.858 98.9817 139.947 100.687 137.063 101.308C135.753 101.486 134.437 101.527 133.117 101.431C131.455 101.21 129.81 100.902 128.185 100.507C128.239 100.099 128.281 99.6881 128.308 99.2746C127.292 89.5196 126.573 79.7421 126.15 69.9421C126.049 68.9527 125.926 67.9667 125.78 66.9842C125.271 65.2747 124.839 63.5492 124.485 61.8079C124.649 61.2811 124.834 60.7471 125.04 60.2057C125.222 60.0021 125.447 59.8788 125.719 59.8359C126.064 59.9873 126.331 60.2338 126.52 60.5754C126.963 61.5565 127.251 62.5836 127.383 63.6566C127.643 68.0755 128.095 72.4712 128.74 76.8439C129.543 80.9574 131.618 84.244 134.967 86.7035C136.869 85.6726 138.678 84.5222 140.393 83.2527Z" fill="#FF7A00"/>
<path fill-rule="evenodd" clip-rule="evenodd" d="M144.462 60.5756C144.732 61.6541 144.999 62.7222 145.264 63.78C144.375 62.4379 143.943 60.9589 143.969 59.3432C143.949 59.0527 143.969 58.7652 144.031 58.4805C144.167 59.1828 144.31 59.8813 144.462 60.5756Z" fill="white"/>
<path fill-rule="evenodd" clip-rule="evenodd" d="M126.212 90.5238C125.684 90.7687 125.15 91.0152 124.609 91.2633C124.397 90.2788 124.17 89.2928 123.931 88.3054C123.905 89.0909 123.966 89.8716 124.115 90.647C124.115 90.9346 124.115 91.2222 124.115 91.5098C123.069 91.7556 122.041 92.0637 121.033 92.4341C120.786 92.5163 120.539 92.5163 120.293 92.4341C118.515 91.2824 116.871 89.9883 115.36 88.5519C113.96 87.0289 112.706 85.3857 111.599 83.622C110.703 81.6243 109.839 79.6114 109.01 77.583C108.137 75.7529 106.925 74.1713 105.372 72.838C105.255 72.7785 105.132 72.758 105.002 72.7764C104.897 72.4828 104.732 72.2363 104.509 72.0369C103.617 71.7813 102.713 71.5758 101.796 71.4207C101.408 71.1649 100.997 70.939 100.563 70.7428C99.5933 70.4983 98.6068 70.334 97.603 70.2498C95.5003 70.1757 93.404 70.2167 91.314 70.3731C95.6143 67.5151 100.012 64.8037 104.509 62.2389C106.23 61.6729 107.998 61.3442 109.811 61.2529C113.009 61.1107 116.174 61.3572 119.306 61.9924C121.323 62.413 122.906 63.4606 124.054 65.1351C124.393 66.1374 124.64 67.1645 124.794 68.2163C125.201 75.6564 125.673 83.0922 126.212 90.5238Z" fill="#FF7A00"/>
<path fill-rule="evenodd" clip-rule="evenodd" d="M219.56 78.8154C219.683 79.4902 219.723 80.1886 219.684 80.9106C220.63 80.9106 221.574 80.9106 222.52 80.9106C221.514 81.0532 220.487 81.0737 219.437 80.9722C219.293 80.9106 219.191 80.8079 219.129 80.6641C217.96 73.8895 217.569 67.0698 217.957 60.2053C218.103 60.1783 218.226 60.2193 218.327 60.3285C218.605 60.8728 218.954 61.3658 219.376 61.8075C219.396 61.9307 219.416 62.054 219.437 62.1772C218.922 65.1752 218.675 68.1947 218.697 71.2358C218.628 74.1254 218.896 76.9807 219.499 79.8014C219.56 79.4753 219.58 79.1466 219.56 78.8154Z" fill="#FF7A00"/>
<path fill-rule="evenodd" clip-rule="evenodd" d="M143.229 58.1107C143.371 60.4032 143.845 62.6216 144.647 64.766C145.205 65.7943 145.615 66.8624 145.88 67.9704C143.603 64.4528 142.555 60.5911 142.736 56.3853C142.746 55.2075 143.012 54.0983 143.538 53.0576C143.277 54.7229 143.175 56.4073 143.229 58.1107Z" fill="white"/>
<path fill-rule="evenodd" clip-rule="evenodd" d="M109.071 62.3007C111.168 62.2801 113.264 62.3007 115.36 62.3623C115.861 62.4042 116.354 62.4864 116.84 62.6088C113.139 62.864 109.439 63.1105 105.742 63.3483C105.078 63.5361 104.461 63.8238 103.892 64.211C101.179 65.9775 98.4662 67.7441 95.7533 69.5106C95.6133 69.6029 95.49 69.5824 95.3834 69.449C98.0518 67.3778 100.806 65.4265 103.645 63.5948C105.367 62.733 107.176 62.3017 109.071 62.3007Z" fill="white"/>
<path fill-rule="evenodd" clip-rule="evenodd" d="M108.455 63.5333C111.097 63.467 113.728 63.6108 116.347 63.9646C113.06 64.17 109.772 64.3342 106.482 64.4576C105.878 64.6362 105.302 64.8827 104.755 65.1971C102.774 66.5602 100.76 67.8749 98.7128 69.141C98.5895 69.2232 98.4662 69.2232 98.3429 69.141C100.439 67.621 102.536 66.1009 104.632 64.5809C105.859 64.0038 107.134 63.6545 108.455 63.5333Z" fill="white"/>
<path fill-rule="evenodd" clip-rule="evenodd" d="M209.449 52.8105C209.662 52.8528 209.724 52.9761 209.634 53.1803C206.31 58.6393 202.179 63.4253 197.241 67.5384C196.612 67.8937 195.954 68.1814 195.268 68.4012C192.429 68.9219 189.593 69.456 186.759 70.0033C185.816 70.1334 184.87 70.1744 183.923 70.1266C184.664 69.9211 185.404 69.7157 186.142 69.5104C189.325 68.9892 192.491 68.3729 195.638 67.6617C196.083 67.5213 196.495 67.3158 196.871 67.0454C200.904 63.5992 204.5 59.7582 207.661 55.522C208.335 54.6639 208.932 53.76 209.449 52.8105Z" fill="white"/>
<path fill-rule="evenodd" clip-rule="evenodd" d="M110.428 64.7653C111.828 64.7244 113.225 64.7654 114.62 64.8886C112.579 65.2216 110.524 65.4885 108.455 65.6897C107.695 65.7974 106.955 65.9822 106.235 66.2443C106.194 66.2032 106.153 66.1621 106.112 66.121C106.444 65.8316 106.814 65.6056 107.221 65.4432C108.306 65.2127 109.375 64.9867 110.428 64.7653Z" fill="white"/>
<path fill-rule="evenodd" clip-rule="evenodd" d="M144.585 76.9668C144.346 80.888 143.833 84.7908 143.044 88.6752C143.101 85.7145 143.245 82.7566 143.476 79.8015C143.539 78.4862 143.621 77.1715 143.722 75.8576C143.696 75.0164 143.553 74.1947 143.291 73.3927C142.64 71.8435 141.858 70.3645 140.948 68.9558C139.046 65.254 138.636 61.3923 139.715 57.3707C140.04 56.5491 140.183 56.5696 140.146 57.4323C139.457 61.0892 139.888 64.6017 141.441 67.9698C142.261 69.4449 143.084 70.9238 143.907 72.4067C144.454 73.878 144.68 75.3981 144.585 76.9668Z" fill="white"/>
<path fill-rule="evenodd" clip-rule="evenodd" d="M190.828 69.9419C191.079 69.922 191.325 69.9426 191.568 70.0036C188.556 70.9093 185.473 71.4023 182.32 71.4825C182.654 71.2672 183.024 71.144 183.43 71.1128C185.92 70.772 188.387 70.3817 190.828 69.9419Z" fill="white"/>
<path fill-rule="evenodd" clip-rule="evenodd" d="M107.592 91.7561C107.417 91.9789 107.17 92.0611 106.852 92.0026C106.475 91.0608 106.085 90.116 105.68 89.1679C105.887 90.1395 106.072 91.1254 106.235 92.1258C105.932 92.2154 105.645 92.3387 105.372 92.4955C105.185 91.667 104.959 90.8453 104.694 90.0306C104.699 90.9768 104.761 91.9217 104.879 92.8653C102.967 94.3139 100.871 95.4436 98.5896 96.2545C98.0651 96.4374 97.5307 96.5196 96.9865 96.501C95.8312 95.8031 94.6391 95.1458 93.4104 94.5291C91.2182 93.1796 89.9438 91.2281 89.5877 88.6749C89.6131 88.3058 89.531 87.9771 89.3411 87.689C89.0566 86.6648 88.6044 85.7199 87.9846 84.8543C87.8819 84.8133 87.7791 84.7721 87.6763 84.7311C87.2269 84.851 86.8363 85.0769 86.5049 85.4089C85.5232 86.538 84.4545 87.5856 83.2987 88.5517C82.384 89.2197 81.3564 89.6099 80.2159 89.7225C78.9736 89.8363 77.7404 89.7952 76.5164 89.5993C75.4852 88.715 74.3753 87.9549 73.187 87.3192C72.9861 87.1806 72.8011 87.0162 72.632 86.8262C72.5606 87.0022 72.5812 87.1666 72.6937 87.3192C72.6863 87.3861 72.6452 87.4272 72.5704 87.4425C72.1213 87.0127 71.628 86.643 71.0906 86.3333C70.8297 86.0991 70.6653 85.8116 70.5974 85.4705C70.6568 84.9838 70.7801 84.5113 70.9673 84.0532C70.9262 83.9916 70.8851 83.93 70.844 83.8683C70.713 84.0559 70.6308 84.2612 70.5974 84.4846C70.4501 83.6402 70.4501 82.7775 70.5974 81.8964C70.8934 80.3386 71.6745 79.0855 72.9403 78.1374C79.0767 74.6277 85.6534 72.3683 92.6706 71.3589C95.0726 71.1908 97.4567 71.314 99.8228 71.7286C100.125 71.818 100.413 71.9412 100.686 72.0984C101.335 72.747 101.89 73.4659 102.351 74.2552C103.906 77.1503 105.098 80.1904 105.927 83.3754C106.495 86.1682 107.05 88.9617 107.592 91.7561Z" fill="#FF7A00"/>
<path fill-rule="evenodd" clip-rule="evenodd" d="M94.6435 72.2837C97.9975 71.5557 100.484 72.6649 102.104 75.6114C102.619 76.6383 102.989 77.7064 103.214 78.8158C102.251 77.0747 101.12 75.4519 99.8226 73.9476C99.0514 73.2616 98.1471 72.9123 97.1097 72.9C94.7419 73.0161 92.3989 73.3242 90.0808 73.8243C85.2223 75.0075 80.413 76.3632 75.6531 77.8914C74.3404 78.5455 73.2512 79.4698 72.3853 80.6645C72.3236 80.6028 72.262 80.5412 72.2003 80.4796C72.6329 79.738 73.1262 79.0396 73.6801 78.3844C74.3444 77.8468 75.0843 77.436 75.8997 77.152C82.0342 75.0236 88.2821 73.401 94.6435 72.2837Z" fill="white"/>
<path fill-rule="evenodd" clip-rule="evenodd" d="M189.965 76.4741C190.175 76.4543 190.381 76.4748 190.582 76.5357C188.554 77.0972 186.499 77.549 184.416 77.8914C183.963 77.9736 183.512 77.9736 183.06 77.8914C185.364 77.3506 187.667 76.8782 189.965 76.4741Z" fill="white"/>
<path fill-rule="evenodd" clip-rule="evenodd" d="M146.559 75.488C146.682 75.4774 146.784 75.5185 146.867 75.6112C148.46 78.181 150.146 80.687 151.923 83.1292C152.71 84.0041 153.634 84.682 154.697 85.1628C154.775 85.2552 154.837 85.358 154.882 85.4709C155.241 89.3472 154.584 93.0446 152.909 96.563C152.755 96.6506 152.611 96.7533 152.478 96.8711C150.713 97.0408 148.946 97.0819 147.175 96.9944C146.163 96.7946 145.238 96.4043 144.401 95.8235C144.911 92.6409 145.323 89.4366 145.634 86.2103C145.901 82.6303 146.21 79.0562 146.559 75.488Z" fill="#FF7A00"/>
<path fill-rule="evenodd" clip-rule="evenodd" d="M92.3005 74.9949C92.7136 74.9746 93.1246 74.9951 93.5336 75.0565C90.1752 75.7537 86.8046 76.411 83.4219 77.0284C81.1429 77.5876 78.8821 78.2038 76.6396 78.8771C76.112 79.0587 75.6187 79.3052 75.1599 79.6166C74.397 80.4405 73.6572 81.2826 72.9402 82.1431C72.8991 82.0815 72.858 82.0199 72.8169 81.9583C73.4525 80.4602 74.4802 79.3098 75.8997 78.5074C81.2527 76.7028 86.7197 75.532 92.3005 74.9949Z" fill="white"/>
<path fill-rule="evenodd" clip-rule="evenodd" d="M104.509 72.0371C104.732 72.2365 104.897 72.483 105.002 72.7766C107.091 79.335 109.003 85.9491 110.736 92.6192C111.197 94.6578 111.587 96.6708 111.907 98.6582C109.097 89.8866 106.63 81.0129 104.509 72.0371Z" fill="white"/>
<path fill-rule="evenodd" clip-rule="evenodd" d="M81.3256 78.4457C81.5351 78.426 81.7406 78.4465 81.9421 78.5074C80.3821 78.9997 78.8201 79.4927 77.2562 79.9863C76.3825 80.3828 75.6426 80.9579 75.0366 81.7117C74.8558 81.79 74.6913 81.8928 74.5433 82.0199C74.5022 81.9788 74.461 81.9377 74.42 81.8966C75.1643 80.7618 76.1508 79.9196 77.3795 79.3701C78.7135 79.0735 80.0289 78.7654 81.3256 78.4457Z" fill="white"/>
<path fill-rule="evenodd" clip-rule="evenodd" d="M141.009 82.3898C141.076 84.848 140.829 87.2717 140.27 89.6613C140.229 89.3943 140.187 89.1273 140.146 88.8602C140.267 86.9925 140.35 85.1233 140.393 83.2526C140.278 80.9117 140.257 78.5701 140.331 76.2275C140.841 78.2469 141.066 80.3011 141.009 82.3898Z" fill="white"/>
<path fill-rule="evenodd" clip-rule="evenodd" d="M142.982 80.1714C142.986 83.4974 142.637 86.784 141.934 90.031C141.873 87.2788 141.852 84.5264 141.873 81.7736C142.143 78.8155 141.794 75.9398 140.825 73.1463C139.88 71.5054 139.14 69.78 138.605 67.97C138.293 66.9176 138.231 65.8494 138.42 64.7656C138.689 65.9238 138.997 67.074 139.345 68.2165C140.353 70.2486 141.299 72.3026 142.181 74.3788C142.659 76.2806 142.926 78.2114 142.982 80.1714Z" fill="white"/>
<path fill-rule="evenodd" clip-rule="evenodd" d="M172.701 80.6648C172.111 81.0278 171.536 81.4181 170.975 81.8356C170.851 81.9178 170.728 81.9178 170.605 81.8356C171.287 81.1885 172.027 80.6339 172.825 80.1718C172.938 80.0728 173.061 80.0523 173.194 80.1102C173.005 80.2792 172.841 80.464 172.701 80.6648Z" fill="white"/>
<path fill-rule="evenodd" clip-rule="evenodd" d="M148.532 80.1719C149.887 81.752 151.263 83.313 152.663 84.8552C153.021 85.2853 153.351 85.7372 153.649 86.2109C153.734 86.3135 153.713 86.3955 153.588 86.4574C151.703 84.7842 150.08 82.8945 148.717 80.7881C148.592 80.6002 148.53 80.3947 148.532 80.1719Z" fill="white"/>
<path fill-rule="evenodd" clip-rule="evenodd" d="M76.2697 83.869C76.3186 83.7427 76.4007 83.7221 76.5163 83.8074C77.0918 84.3826 77.6672 84.9577 78.2427 85.5328C77.3064 85.3165 76.6487 84.7619 76.2697 83.869Z" fill="white"/>
<path fill-rule="evenodd" clip-rule="evenodd" d="M70.5972 85.4713C69.9381 87.505 69.301 89.5592 68.6858 91.6336C68.5529 90.5369 68.6762 89.4687 69.0558 88.4292C69.486 87.077 69.9997 85.7624 70.5972 84.4854C70.6306 84.262 70.7128 84.0567 70.8438 83.8691C70.8849 83.9308 70.9261 83.9924 70.9671 84.054C70.7799 84.5121 70.6566 84.9846 70.5972 85.4713Z" fill="white"/>
<path fill-rule="evenodd" clip-rule="evenodd" d="M74.6666 84.7314C75.2178 85.3863 75.7522 86.0641 76.2697 86.765C75.4089 86.3738 74.8745 85.696 74.6666 84.7314Z" fill="white"/>
<path fill-rule="evenodd" clip-rule="evenodd" d="M70.5972 81.8965C70.45 82.7776 70.45 83.6403 70.5972 84.4846C69.9998 85.7617 69.486 87.0763 69.0558 88.4285C68.6762 89.468 68.5529 90.5361 68.6858 91.6329C69.3011 89.5584 69.9381 87.5043 70.5972 85.4706C70.6652 85.8116 70.8295 86.0992 71.0905 86.3333C71.6279 86.6431 72.1211 87.0128 72.5702 87.4425C72.6451 87.4273 72.6862 87.3862 72.6936 87.3193C73.688 89.3609 75.2088 90.9014 77.2562 91.941C73.9961 92.8434 70.7078 93.6445 67.3911 94.3443C67.9424 90.0444 69.0112 85.8951 70.5972 81.8965Z" fill="#FF7A00"/>
<path fill-rule="evenodd" clip-rule="evenodd" d="M73.5568 85.7178C74.243 86.5892 75.0035 87.4109 75.8381 88.1827C75.9203 88.2649 75.9203 88.347 75.8381 88.4292C74.6453 87.8749 73.8848 86.9712 73.5568 85.7178Z" fill="white"/>
<path fill-rule="evenodd" clip-rule="evenodd" d="M101.796 71.4209C102.713 71.5761 103.617 71.7815 104.509 72.0371C106.63 81.0129 109.097 89.8866 111.907 98.6582C111.587 96.6708 111.197 94.6578 110.736 92.6192C109.003 85.9491 107.091 79.335 105.002 72.7766C105.132 72.7582 105.255 72.7787 105.372 72.8382C106.925 74.1715 108.137 75.7531 109.01 77.5832C109.839 79.6116 110.703 81.6245 111.599 83.6222C112.706 85.3859 113.96 87.0291 115.36 88.5521C116.871 89.9885 118.515 91.2826 120.293 92.4343C120.539 92.5165 120.786 92.5165 121.033 92.4343C122.041 92.064 123.069 91.7559 124.115 91.51C124.115 91.2224 124.115 90.9348 124.115 90.6473C124.557 93.4542 124.825 96.2888 124.917 99.1512C124.575 100.56 123.774 101.607 122.512 102.294C120.999 103.022 119.437 103.638 117.826 104.143C120.032 103.983 122.047 103.285 123.869 102.047C125.175 100.935 125.751 99.5174 125.595 97.7955C125.414 95.5957 125.085 93.4183 124.609 91.2635C125.15 91.0154 125.684 90.7689 126.212 90.524C126.468 93.3632 126.756 96.2185 127.075 99.0896C126.782 100.621 126.042 101.895 124.855 102.91C124.027 103.615 123.164 104.272 122.266 104.882C118.363 105.173 114.458 105.44 110.551 105.683C110.181 105.642 109.811 105.601 109.441 105.56C109.728 104.969 109.872 104.353 109.873 103.711C109.439 104.334 109.213 105.032 109.194 105.806C108.896 105.844 108.608 105.803 108.331 105.683C108.818 104.998 109.208 104.259 109.503 103.465C110.103 102.907 110.555 102.249 110.859 101.493C110.966 100.37 110.884 99.2609 110.613 98.1653C109.17 93.1776 107.978 88.1245 107.036 83.006C106.049 78.7747 104.302 74.9129 101.796 71.4209Z" fill="#FF7A00"/>
<path fill-rule="evenodd" clip-rule="evenodd" d="M107.838 75.9814C108.964 79.9815 110.053 84.0076 111.106 88.0595C111.844 91.0526 112.502 94.0515 113.079 97.0565C110.842 90.1615 109.095 83.1365 107.838 75.9814Z" fill="white"/>
<path fill-rule="evenodd" clip-rule="evenodd" d="M213.271 87.8127C213.301 87.7391 213.363 87.6981 213.456 87.6895C217.184 89.248 221.069 90.1312 225.11 90.3392C220.918 90.6066 216.972 89.7644 213.271 87.8127Z" fill="white"/>
<path fill-rule="evenodd" clip-rule="evenodd" d="M89.3409 87.6895C89.5308 87.9776 89.6129 88.3063 89.5875 88.6754C89.7787 90.5841 90.3543 92.3712 91.3139 94.0366C91.2933 94.0982 91.2728 94.1599 91.2522 94.2215C90.4984 93.4953 89.964 92.6326 89.6491 91.6333C89.407 90.6368 89.222 89.6302 89.0942 88.6138C89.0696 88.2606 89.1518 87.9525 89.3409 87.6895Z" fill="white"/>
<path fill-rule="evenodd" clip-rule="evenodd" d="M91.1908 89.168C91.4913 89.7995 91.7584 90.4569 91.9923 91.1399C92.1191 91.5107 92.2013 91.8805 92.2389 92.2491C91.4691 91.367 91.1197 90.34 91.1908 89.168Z" fill="white"/>
<path fill-rule="evenodd" clip-rule="evenodd" d="M111.907 85.4707C112.2 86.391 112.467 87.3358 112.709 88.3054C113.105 90.102 113.392 91.9097 113.572 93.7282C112.805 91.0181 112.25 88.2657 111.907 85.4707Z" fill="white"/>
<path fill-rule="evenodd" clip-rule="evenodd" d="M113.51 87.8125C114.254 89.8233 114.644 91.9184 114.682 94.098C114.401 93.2972 114.196 92.4756 114.065 91.6331C113.936 90.3507 113.751 89.0772 113.51 87.8125Z" fill="white"/>
<path fill-rule="evenodd" clip-rule="evenodd" d="M236.331 86.8271C236.52 86.8292 236.582 86.9114 236.516 87.0736C233.753 89.8613 230.402 91.4841 226.466 91.9419C221.728 92.3261 217.33 91.299 213.271 88.8607C215.454 89.6287 217.674 90.3271 219.93 90.9559C225.678 92.2111 230.898 91.1019 235.591 87.6282C235.864 87.3772 236.11 87.1102 236.331 86.8271Z" fill="white"/>
<path fill-rule="evenodd" clip-rule="evenodd" d="M146.435 87.6895C146.596 87.9018 146.678 88.1689 146.682 88.4906C146.604 90.1579 146.481 91.8218 146.312 93.482C146.31 93.8133 146.392 94.1214 146.559 94.4064C146.945 94.7848 147.397 95.0724 147.915 95.2691C148.976 95.6636 150.045 96.0333 151.121 96.3783C149.392 96.7311 147.789 96.4024 146.312 95.3923C146.072 95.1367 145.845 94.8696 145.634 94.5912C145.618 92.2551 145.885 89.9545 146.435 87.6895Z" fill="white"/>
<path fill-rule="evenodd" clip-rule="evenodd" d="M25.5877 91.88C28.2665 91.7011 30.8972 91.9682 33.4798 92.6811C35.1286 93.2792 36.7317 93.9776 38.289 94.7762C40.5087 96.2142 42.7283 97.6519 44.948 99.0898C45.8336 99.5226 46.7585 99.8307 47.7225 100.014C48.6496 99.774 49.5745 99.507 50.4971 99.2131C59.6315 97.1567 68.7567 95.0616 77.8728 92.9276C78.4071 92.8453 78.9416 92.8453 79.4759 92.9276C81.9022 93.7411 84.3479 94.46 86.813 95.0844C87.064 95.4616 87.2078 95.8725 87.2447 96.3168C81.4586 97.4656 75.7039 98.7597 69.9807 100.199C68.1341 100.744 66.4281 101.545 64.8632 102.602C64.7715 102.842 64.7921 103.067 64.9248 103.28C66.9541 103.33 68.9683 103.165 70.9672 102.787C76.805 101.544 82.6008 100.127 88.3545 98.5352C88.6741 98.7086 88.9824 98.9141 89.2793 99.1515C89.6445 99.6151 89.9938 100.088 90.3275 100.569C89.8652 101.479 89.5569 102.445 89.4026 103.465C89.2184 104.781 89.1568 106.095 89.2177 107.409C77.7817 110.623 66.3545 113.848 54.9364 117.084C53.1683 118.193 51.6269 119.569 50.3121 121.212C47.9621 124.506 45.6604 127.833 43.4065 131.195C41.0944 133.904 38.1965 135.732 34.7129 136.68C28.8975 138.109 23.3074 137.493 17.9422 134.831C15.551 133.385 13.5163 131.558 11.8382 129.347C11.4353 128.405 11.0448 127.461 10.6667 126.512C11.6879 126.351 12.7155 126.248 13.7495 126.204C19.6686 125.957 25.5877 125.711 31.5067 125.464C32.448 125.451 33.3729 125.349 34.2813 125.156C35.1901 117.6 34.6147 110.164 32.5549 102.849C30.3629 102.708 28.1637 102.729 25.9576 102.91C20.5303 103.495 15.1045 104.091 9.68018 104.698C9.717 104.253 9.86087 103.842 10.1118 103.465C11.2826 101.289 12.5158 99.1523 13.8112 97.0563C15.5815 95.1752 17.6984 93.8401 20.1619 93.0508C21.9604 92.5392 23.769 92.149 25.5877 91.88Z" fill="#FF7A00"/>
<path fill-rule="evenodd" clip-rule="evenodd" d="M89.341 87.6893C89.1519 87.9524 89.0697 88.2605 89.0943 88.6137C89.2221 89.6301 89.4071 90.6366 89.6492 91.6332C89.9641 92.6325 90.4985 93.4952 91.2523 94.2214C91.2729 94.1598 91.2934 94.0981 91.314 94.0365C90.3543 92.3711 89.7788 90.584 89.5876 88.6753C89.9437 91.2285 91.218 93.1799 93.4103 94.5295C94.639 95.1462 95.8311 95.8035 96.9864 96.5014C97.5306 96.52 98.0649 96.4378 98.5895 96.2549C100.871 95.444 102.967 94.3143 104.879 92.8657C105.376 95.3313 105.787 97.8168 106.112 100.322C106.076 101.558 105.665 102.647 104.879 103.588C104.94 103.714 105.023 103.734 105.125 103.65C106.267 102.641 106.801 101.367 106.728 99.8291C106.427 97.3577 105.975 94.9134 105.372 92.4959C105.645 92.339 105.932 92.2158 106.235 92.1262C107.134 94.8456 107.565 97.6392 107.53 100.507C107.257 101.782 106.681 102.891 105.803 103.835C105.189 104.489 104.532 105.105 103.83 105.683C103.748 105.806 103.748 105.93 103.83 106.053C107.742 103.697 109.098 100.287 107.9 95.8236C107.612 94.5295 107.262 93.2559 106.852 92.003C107.17 92.0615 107.417 91.9793 107.591 91.7565C108.112 94.2481 108.791 96.713 109.626 99.1512C109.899 100.817 109.468 102.255 108.331 103.465C106.501 104.904 104.857 106.526 103.399 108.333C102.556 108.134 101.693 108.031 100.809 108.025C99.9511 107.972 99.129 108.116 98.3429 108.456C96.5138 109.512 95.1161 110.97 94.1502 112.832C94.0679 112.873 93.9858 112.914 93.9036 112.955C92.1084 111.627 90.9779 109.861 90.5124 107.655C90.045 105.621 90.1066 103.608 90.6974 101.616C90.7929 101.467 90.8956 101.467 91.0057 101.616C91.2163 102.196 91.5657 102.668 92.0539 103.033C93.3765 103.9 94.8152 104.495 96.3699 104.821C96.6008 104.823 96.6419 104.761 96.4932 104.636C94.8304 103.938 93.2478 103.096 91.7456 102.109C91.6245 101.954 91.5834 101.79 91.6223 101.616C93.955 103.407 96.5652 104.577 99.4527 105.129C95.4037 103.257 91.9715 100.607 89.156 97.1793C87.227 94.2288 86.3227 90.9833 86.4431 87.4429C85.6931 89.6658 85.7137 91.8843 86.5047 94.0981C83.4528 93.3771 80.4933 92.3296 77.6261 90.9554C75.9377 89.9858 74.4579 88.7738 73.1868 87.3196C74.3752 87.9553 75.485 88.7154 76.5163 89.5997C77.7403 89.7956 78.9735 89.8367 80.2157 89.7229C81.3563 89.6103 82.3838 89.2201 83.2986 88.5521C84.4544 87.5859 85.523 86.5384 86.5047 85.4093C86.8362 85.0773 87.2267 84.8514 87.6762 84.7314C87.7789 84.7725 87.8818 84.8137 87.9845 84.8547C88.6043 85.7202 89.0565 86.6652 89.341 87.6893Z" fill="#FF7A00"/>
<path fill-rule="evenodd" clip-rule="evenodd" d="M87.7379 86.9502C87.9027 88.485 88.1288 90.046 88.4161 91.6335C88.9561 93.2068 89.6344 94.7268 90.4508 96.1936C90.4098 96.2347 90.3686 96.2758 90.3275 96.3169C87.9637 93.6233 87.1005 90.501 87.7379 86.9502Z" fill="white"/>
<path fill-rule="evenodd" clip-rule="evenodd" d="M24.6011 92.6194C28.956 92.3317 33.0664 93.174 36.9325 95.1459C34.8138 94.5918 32.6764 94.0577 30.5202 93.5437C24.0896 92.398 18.5405 94.0618 13.8728 98.5352C13.8318 98.5146 13.7906 98.4941 13.7495 98.4736C15.7451 96.1191 18.2114 94.4347 21.1483 93.4205C22.3095 93.1273 23.4604 92.8602 24.6011 92.6194Z" fill="white"/>
<path fill-rule="evenodd" clip-rule="evenodd" d="M147.915 93.4824C148.974 94.1435 150.125 94.5749 151.368 94.7765C150.378 94.9436 149.432 94.8204 148.532 94.4068C148.247 94.1445 148.042 93.8364 147.915 93.4824Z" fill="white"/>
<path fill-rule="evenodd" clip-rule="evenodd" d="M25.9576 94.0982C30.0516 93.9922 33.9565 94.7933 37.6724 96.5015C35.323 95.8342 32.939 95.259 30.5202 94.776C28.6778 94.5487 26.8281 94.4255 24.9711 94.4063C25.3176 94.3099 25.6465 94.2071 25.9576 94.0982Z" fill="white"/>
<path fill-rule="evenodd" clip-rule="evenodd" d="M77.0096 94.345C77.5513 94.3397 77.5923 94.4014 77.1329 94.5299C73.2124 95.5506 69.2663 96.4544 65.2947 97.2413C69.1573 96.0377 73.0622 95.0723 77.0096 94.345Z" fill="white"/>
<path fill-rule="evenodd" clip-rule="evenodd" d="M73.4335 94.3443C73.6834 94.3243 73.93 94.3449 74.1733 94.4059C69.2446 95.6455 64.3121 96.8369 59.3757 97.98C64.0172 96.5329 68.7031 95.3209 73.4335 94.3443Z" fill="white"/>
<path fill-rule="evenodd" clip-rule="evenodd" d="M140.64 95.0838C140.871 95.0706 140.912 95.1322 140.763 95.2686C139.119 96.6379 137.227 97.2131 135.09 96.9941C134.926 96.9119 134.803 96.7886 134.72 96.6243C136.838 96.6088 138.811 96.0954 140.64 95.0838Z" fill="white"/>
<path fill-rule="evenodd" clip-rule="evenodd" d="M105.372 92.4962C105.975 94.9136 106.427 97.358 106.728 99.8293C106.801 101.367 106.267 102.641 105.125 103.65C105.023 103.735 104.94 103.714 104.879 103.588C105.665 102.647 106.076 101.558 106.112 100.322C105.787 97.8171 105.376 95.3316 104.879 92.8659C104.761 91.9223 104.699 90.9774 104.694 90.0312C104.959 90.8459 105.185 91.6676 105.372 92.4962Z" fill="#FF7A00"/>
<path fill-rule="evenodd" clip-rule="evenodd" d="M131.514 94.3447C131.705 94.4347 131.808 94.599 131.823 94.8377C131.497 96.717 132.258 97.8468 134.104 98.227C134.659 98.2476 135.214 98.268 135.769 98.2886C137.447 98.1764 139.112 97.9916 140.763 97.734C138.277 99.2206 135.647 99.5493 132.871 98.72C132.148 98.4086 131.634 97.8952 131.329 97.1794C131.249 96.225 131.311 95.2802 131.514 94.3447Z" fill="white"/>
<path fill-rule="evenodd" clip-rule="evenodd" d="M128.062 84.9782C128.185 84.9676 128.287 85.0088 128.37 85.1014C129.679 89.1477 130.379 93.2969 130.466 97.5493C131.761 99.3102 133.508 99.9881 135.707 99.5828C137.145 99.3879 138.583 99.203 140.023 99.0282C140.146 99.0693 140.27 99.1104 140.393 99.1515C138.229 100.299 135.926 100.772 133.487 100.569C131.729 100.339 130.434 99.4558 129.603 97.919C129.481 97.5586 129.399 97.1889 129.356 96.8098C129.329 95.1634 129.247 93.52 129.11 91.88C128.747 89.5819 128.398 87.2813 128.062 84.9782Z" fill="#FF7A00"/>
<path fill-rule="evenodd" clip-rule="evenodd" d="M142.243 54.6592C142.336 55.2668 142.5 55.842 142.736 56.3846C142.555 60.5905 143.603 64.4522 145.88 67.9697C145.615 66.8618 145.205 65.7937 144.647 64.7653C143.844 62.621 143.371 60.4026 143.229 58.1101C143.529 58.4911 143.775 58.9019 143.969 59.3425C143.943 60.9583 144.375 62.4372 145.264 63.7794C144.999 62.7216 144.732 61.6534 144.462 60.575C145.641 62.5925 146.978 64.4824 148.47 66.2443C150.089 68.5198 151.96 70.5533 154.081 72.345C156.162 73.669 158.382 74.737 160.74 75.5494C162.125 75.9285 163.522 76.2572 164.932 76.5353C166.748 76.7 168.557 76.9054 170.358 77.1516C171.668 77.7804 172.489 78.7868 172.825 80.1711C172.027 80.6331 171.287 81.1877 170.605 81.8349C170.728 81.9171 170.851 81.9171 170.975 81.8349C171.536 81.4173 172.111 81.027 172.701 80.6641C172.714 82.4621 172.282 84.1464 171.406 85.7171C170.646 86.9932 169.823 88.2257 168.94 89.4145C167.628 90.9726 166.314 92.5336 164.994 94.0979C164.162 95.2272 163.422 96.4186 162.774 97.672C161.967 99.3883 161.576 101.196 161.603 103.095C161.274 102.909 160.946 102.765 160.616 102.663C160.921 103 161.249 103.308 161.603 103.588C161.482 103.973 161.441 104.384 161.48 104.82C159.343 104.04 157.74 102.643 156.67 100.63C156.661 101.28 156.845 101.896 157.225 102.479C158.35 103.934 159.809 104.879 161.603 105.313C161.994 108.628 162.282 111.956 162.466 115.296C162.524 120.086 161.106 124.358 158.212 128.114C157.236 129.418 155.982 130.342 154.451 130.887C153.015 131.001 151.844 130.489 150.936 129.346C150.294 128.464 149.635 127.601 148.963 126.758C148.523 125.837 147.989 124.975 147.36 124.17C145.935 121.402 144.578 118.608 143.291 115.789C142.816 115.139 142.363 114.482 141.934 113.817C139.147 111.09 135.88 110.371 132.131 111.66C128.475 112.912 125.103 114.679 122.019 116.96C119.196 119.099 118.065 121.913 118.628 125.402C119.214 127.364 119.872 129.296 120.601 131.195C121.683 135.782 121.457 140.302 119.923 144.752C119.882 144.793 119.841 144.834 119.8 144.875C119.758 144.793 119.717 144.711 119.676 144.629C118.771 141.242 117.866 137.874 116.963 134.523C116.552 132.422 116.285 130.287 116.162 128.114C115.676 122.393 116.293 116.806 118.011 111.352C118.575 109.721 119.356 108.201 120.354 106.792C120.595 106.497 120.903 106.312 121.279 106.238C121.783 106.209 122.276 106.127 122.759 105.991C124.865 104.749 126.613 103.126 128 101.123C130.496 102.558 133.188 103.113 136.077 102.787C140.104 102.394 142.817 100.32 144.216 96.5628C145.36 97.6274 146.716 98.223 148.285 98.3498C149.482 98.3796 150.675 98.4 151.861 98.4115C151.309 99.68 150.754 100.954 150.196 102.232C149.786 103.629 149.786 105.026 150.196 106.422C151.016 107.938 151.714 109.499 152.293 111.106C153.811 115.442 154.962 119.879 155.746 124.416C155.783 120.923 155.413 117.472 154.636 114.064C153.743 111.098 152.633 108.222 151.306 105.436C151.126 104.914 151.085 104.38 151.183 103.834C151.637 101.927 152.398 100.16 153.464 98.5347C154.729 102.161 157.113 104.729 160.616 106.238C158.837 104.87 157.213 103.33 155.746 101.616C155.03 100.543 154.456 99.3931 154.019 98.165C153.937 97.8774 153.937 97.5898 154.019 97.3023C154.387 96.4034 154.757 95.4995 155.129 94.5908C155.36 93.5849 155.627 92.5989 155.93 91.6329C157.51 94.1081 159.77 95.5254 162.713 95.8849C161.48 95.1455 160.246 94.406 159.013 93.6665C156.598 91.9753 155.591 89.6542 155.992 86.7031C155.908 86.3272 155.806 85.9575 155.684 85.5939C158.069 85.7634 160.412 85.4963 162.713 84.7928C165.085 83.8545 167.264 82.6015 169.248 81.0338C166.923 81.7722 164.58 82.5733 162.22 83.4371C160.468 84.1122 158.659 84.3587 156.794 84.1766C155.515 84.0505 154.405 83.5575 153.464 82.6976C152.547 81.6646 151.705 80.5759 150.936 79.4316C147.483 74.5077 144.73 69.2081 142.674 63.5329C141.814 60.5884 141.67 57.6305 142.243 54.6592Z" fill="#FF7A00"/>
<path fill-rule="evenodd" clip-rule="evenodd" d="M161.11 93.9748C161.139 93.9012 161.201 93.8602 161.295 93.8516C162.179 94.1186 163.062 94.3856 163.946 94.6527C162.922 94.7481 161.978 94.5221 161.11 93.9748Z" fill="white"/>
<path fill-rule="evenodd" clip-rule="evenodd" d="M149.518 74.2559C149.762 74.4889 150.009 74.7354 150.258 74.9953C151.118 76.2449 152.002 77.4774 152.909 78.6927C154.732 80.7017 157.013 81.6877 159.753 81.6506C162.157 81.4428 164.54 81.1347 166.905 80.7263C165.283 81.4588 163.597 81.9929 161.85 82.3285C157.81 83.0615 154.501 81.8497 151.923 78.6927C150.894 77.3357 150.093 75.8567 149.518 74.2559Z" fill="white"/>
<path fill-rule="evenodd" clip-rule="evenodd" d="M169.248 78.5693C169.981 78.5338 170.023 78.6365 169.372 78.8775C166.827 79.8505 164.195 80.4051 161.48 80.5413C160.809 80.5558 160.152 80.4942 159.507 80.3564C162.85 80.171 166.096 79.5753 169.248 78.5693Z" fill="white"/>
<path fill-rule="evenodd" clip-rule="evenodd" d="M123.499 95.5771C123.686 97.2104 123.625 98.8536 123.314 100.507C123.178 100.931 122.91 101.239 122.512 101.431C121.917 101.739 121.301 101.945 120.663 102.048C121.227 101.736 121.803 101.449 122.389 101.185C122.533 100.959 122.677 100.733 122.821 100.507C123.051 98.8631 123.277 97.2198 123.499 95.5771Z" fill="white"/>
<path fill-rule="evenodd" clip-rule="evenodd" d="M145.202 98.9048C145.311 98.8886 145.392 98.9297 145.449 99.028C145.096 99.9179 144.603 100.719 143.969 101.431C143.814 101.552 143.65 101.593 143.476 101.555C143.93 100.589 144.504 99.7053 145.202 98.9048Z" fill="white"/>
<path fill-rule="evenodd" clip-rule="evenodd" d="M146.929 99.521C147.037 99.5049 147.119 99.5459 147.175 99.6442C147.037 100.193 146.75 100.645 146.312 101C146.175 100.849 146.154 100.685 146.25 100.507C146.448 100.153 146.673 99.8247 146.929 99.521Z" fill="white"/>
<path fill-rule="evenodd" clip-rule="evenodd" d="M40.3853 96.9333C40.515 96.9149 40.6384 96.9354 40.7553 96.9949C42.7954 98.5178 44.9944 99.7709 47.3526 100.754C49.1278 100.192 50.9158 99.6787 52.7167 99.2133C53.7342 98.9483 54.7617 98.7839 55.7996 98.7203C53.0372 99.6133 50.2626 100.456 47.4759 101.247C45.1774 100.416 43.0605 99.2455 41.1252 97.7344C40.847 97.4776 40.6004 97.2106 40.3853 96.9333Z" fill="white"/>
<path fill-rule="evenodd" clip-rule="evenodd" d="M87.2446 96.5635C87.4317 96.5648 87.5756 96.6469 87.6762 96.81C87.9917 97.3089 88.2177 97.8429 88.3544 98.4122C82.7636 99.6653 77.1734 100.918 71.5838 102.171C70.0638 102.427 68.543 102.673 67.0211 102.911C66.4413 103.013 65.8658 102.992 65.2947 102.849C65.8452 102.471 66.4207 102.121 67.0211 101.801C68.3947 101.238 69.7924 100.745 71.2138 100.322C76.5619 98.9859 81.9055 97.7328 87.2446 96.5635Z" fill="#FF7A00"/>
<path fill-rule="evenodd" clip-rule="evenodd" d="M80.339 99.2746C80.5083 99.2553 80.6728 99.2758 80.8323 99.3362C77.646 100.276 74.4398 101.098 71.2138 101.801C74.2482 100.879 77.29 100.037 80.339 99.2746Z" fill="white"/>
<path fill-rule="evenodd" clip-rule="evenodd" d="M106.852 92.0026C107.262 93.2555 107.612 94.5292 107.9 95.8232C109.098 100.287 107.742 103.697 103.83 106.053C103.748 105.929 103.748 105.806 103.83 105.683C104.532 105.105 105.189 104.489 105.803 103.834C106.681 102.891 107.257 101.782 107.53 100.507C107.565 97.6389 107.134 94.8453 106.235 92.1259C106.072 91.1255 105.887 90.1395 105.68 89.168C106.085 90.1161 106.475 91.0609 106.852 92.0026Z" fill="white"/>
<path fill-rule="evenodd" clip-rule="evenodd" d="M124.609 91.2636C125.085 93.4184 125.414 95.5958 125.595 97.7956C125.751 99.5175 125.175 100.935 123.869 102.048C122.047 103.285 120.032 103.983 117.826 104.143C119.437 103.638 120.999 103.022 122.512 102.294C123.774 101.607 124.575 100.56 124.917 99.1513C124.825 96.2889 124.557 93.4543 124.115 90.6473C123.966 89.8719 123.905 89.0912 123.931 88.3057C124.17 89.2931 124.397 90.2791 124.609 91.2636Z" fill="white"/>
<path fill-rule="evenodd" clip-rule="evenodd" d="M83.7919 100.384C84.0014 100.364 84.2069 100.385 84.4084 100.446C78.7026 102.293 72.8658 103.608 66.8979 104.39C66.0757 104.472 65.2537 104.472 64.4316 104.39C64.2551 104.332 64.1113 104.23 64 104.082C63.9177 103.753 63.9177 103.424 64 103.096C64.0737 103.442 64.2176 103.75 64.4316 104.02C65.5037 104.092 66.5724 104.051 67.6377 103.897C73.0922 102.975 78.4769 101.804 83.7919 100.384Z" fill="white"/>
<path fill-rule="evenodd" clip-rule="evenodd" d="M161.48 104.82C161.815 105.063 162.185 105.248 162.589 105.375C162.258 105.428 161.928 105.407 161.603 105.313C159.809 104.879 158.35 103.934 157.225 102.479C156.845 101.896 156.66 101.28 156.67 100.63C157.739 102.643 159.343 104.04 161.48 104.82Z" fill="white"/>
<path fill-rule="evenodd" clip-rule="evenodd" d="M161.603 103.095C162.593 103.692 163.662 104.124 164.809 104.39C163.644 104.506 162.576 104.239 161.603 103.588C161.249 103.309 160.921 103.001 160.616 102.664C160.946 102.766 161.274 102.91 161.603 103.095Z" fill="white"/>
<path fill-rule="evenodd" clip-rule="evenodd" d="M127.815 103.958C128.004 103.96 128.065 104.042 128 104.204C126.811 105.31 125.619 106.419 124.424 107.532C124.392 107.222 124.474 106.934 124.67 106.669C125.669 105.69 126.717 104.786 127.815 103.958Z" fill="white"/>
<path fill-rule="evenodd" clip-rule="evenodd" d="M28.5472 103.465C29.4926 103.465 30.438 103.465 31.3834 103.465C31.2283 103.858 31.1461 104.269 31.1368 104.697C25.3272 104.997 19.5315 105.469 13.7495 106.115C12.7213 106.202 11.6936 106.243 10.6667 106.238C10.4443 106.159 10.2799 106.016 10.1734 105.807C16.3077 105.076 22.4322 104.296 28.5472 103.465Z" fill="#FF7A00"/>
<path fill-rule="evenodd" clip-rule="evenodd" d="M134.597 104.698C134.688 104.682 134.771 104.702 134.844 104.759C134.322 105.594 133.582 106.046 132.624 106.115C133.23 105.548 133.887 105.075 134.597 104.698Z" fill="white"/>
<path fill-rule="evenodd" clip-rule="evenodd" d="M129.541 104.697C129.73 104.699 129.792 104.782 129.726 104.944C129.199 105.75 128.478 106.263 127.568 106.484C128.108 105.745 128.766 105.149 129.541 104.697Z" fill="white"/>
<path fill-rule="evenodd" clip-rule="evenodd" d="M131.884 104.451C131.993 104.435 132.074 104.476 132.131 104.574C131.548 105.361 130.808 105.977 129.911 106.423C129.871 106.382 129.829 106.34 129.788 106.299C130.409 105.583 131.109 104.967 131.884 104.451Z" fill="white"/>
<path fill-rule="evenodd" clip-rule="evenodd" d="M114.867 126.142C114.386 124.514 113.913 122.871 113.449 121.212C113.388 121.455 113.367 121.702 113.387 121.952C113.185 116.881 112.651 111.827 111.784 106.792C114.494 106.594 117.207 106.491 119.923 106.484C119.45 107.121 118.977 107.758 118.505 108.395C115.739 113.981 114.526 119.896 114.867 126.142Z" fill="#FF7A00"/>
<path fill-rule="evenodd" clip-rule="evenodd" d="M123.252 106.669C123.379 106.718 123.399 106.8 123.314 106.915C121.04 109.652 119.272 112.692 118.011 116.036C117.726 117.088 117.521 118.156 117.395 119.24C117.203 118.346 117.162 117.442 117.272 116.529C118.168 112.556 120.162 109.27 123.252 106.669Z" fill="#FF7A00"/>
<path fill-rule="evenodd" clip-rule="evenodd" d="M137.68 165.087C137.597 164.49 137.516 163.873 137.433 163.239C131.206 165.474 124.836 165.885 118.32 164.471C118.747 166.081 119.199 167.683 119.676 169.278C117.949 168.659 116.182 168.515 114.374 168.846C111.057 169.74 107.769 170.726 104.509 171.804C103.836 171.849 103.179 171.972 102.536 172.174C101.744 172.281 100.963 172.241 100.193 172.051C104.589 169.977 108.988 167.902 113.387 165.827C108.089 165.577 102.992 164.447 98.0963 162.438C97.5732 162.203 97.0799 161.936 96.6165 161.637C98.519 162.286 100.451 162.841 102.412 163.3C102.981 163.459 103.556 163.5 104.139 163.424C99.3717 162.098 94.9324 160.084 90.8208 157.385C88.518 155.596 86.5038 153.563 84.7784 151.284C84.7977 151.115 84.7771 150.95 84.7167 150.791C81.2517 146 78.7032 140.741 77.0713 135.015C75.5878 130.277 76.7593 126.394 80.5857 123.369C83.6587 121.424 86.9471 120.972 90.4508 122.013C91.4654 122.481 92.4931 122.912 93.5337 123.307C94.2917 123.872 95.0726 124.405 95.8766 124.909C97.3331 128.806 99.2445 132.463 101.611 135.878C102.556 137.171 103.522 138.445 104.509 139.699C106.165 144.767 106.926 149.984 106.79 155.351C107.006 155.114 107.232 154.909 107.468 154.735C107.315 155.007 107.254 155.294 107.283 155.598C107.532 154.936 107.84 154.319 108.208 153.749C110.593 150.319 111.97 146.498 112.339 142.287C112.576 140.611 112.679 138.926 112.647 137.234C112.917 135.52 113.102 133.794 113.202 132.058C113.342 128.69 113.404 125.321 113.387 121.951C113.367 121.702 113.388 121.455 113.449 121.212C113.913 122.87 114.386 124.514 114.867 126.142C114.866 135.835 117.394 144.791 122.451 153.009C122.551 153.189 122.654 153.23 122.759 153.133C120.045 147.171 118.113 140.968 116.963 134.522C117.866 137.874 118.771 141.242 119.676 144.629C119.717 144.711 119.758 144.793 119.8 144.875C119.841 144.834 119.882 144.793 119.923 144.752C121.457 140.301 121.683 135.782 120.601 131.195C119.872 129.296 119.214 127.364 118.628 125.402C118.065 121.913 119.196 119.099 122.019 116.96C125.103 114.679 128.475 112.912 132.131 111.66C135.88 110.371 139.147 111.09 141.934 113.817C142.364 114.481 142.816 115.139 143.291 115.789C144.578 118.608 145.935 121.402 147.36 124.17C147.989 124.975 148.523 125.837 148.963 126.758C149.635 127.601 150.294 128.464 150.936 129.346C151.844 130.489 153.015 131.001 154.451 130.887C155.982 130.342 157.236 129.418 158.212 128.114C161.106 124.358 162.524 120.086 162.466 115.296C162.282 111.956 161.994 108.628 161.603 105.313C161.929 105.407 162.258 105.428 162.589 105.375C162.185 105.248 161.815 105.063 161.48 104.82C161.441 104.384 161.482 103.973 161.603 103.588C162.576 104.238 163.644 104.505 164.809 104.389C163.662 104.123 162.593 103.692 161.603 103.095C161.576 101.196 161.967 99.3883 162.774 97.672C163.422 96.4185 164.162 95.2271 164.994 94.0978C166.314 92.5336 167.628 90.9726 168.94 89.4145C169.823 88.2257 170.646 86.9932 171.406 85.7171C172.282 84.1463 172.714 82.4621 172.701 80.664C172.841 80.4633 173.005 80.2784 173.194 80.1094C173.061 80.0515 172.938 80.0721 172.825 80.171C172.489 78.7867 171.668 77.7803 170.358 77.1515C168.557 76.9054 166.748 76.6999 164.932 76.5353C163.522 76.2571 162.125 75.9284 160.74 75.5493C158.382 74.737 156.162 73.669 154.081 72.3449C151.96 70.5533 150.089 68.5197 148.47 66.2443C146.978 64.4823 145.641 62.5925 144.462 60.5749C144.311 59.8806 144.168 59.1821 144.031 58.4798C143.969 58.7645 143.949 59.052 143.969 59.3425C143.775 58.9019 143.529 58.4911 143.229 58.11C143.175 56.4067 143.277 54.7222 143.537 53.057C143.012 54.0976 142.746 55.2069 142.736 56.3846C142.5 55.8419 142.336 55.2667 142.243 54.6591C142.751 52.2616 144.066 50.4541 146.189 49.2363C146.229 49.2774 146.271 49.3185 146.312 49.3596C145.349 51.6057 145.328 53.8652 146.25 56.1381C147.677 59.1322 149.63 61.741 152.108 63.9642C153.491 65.1106 155.053 65.4393 156.794 64.9502C157.691 64.5024 158.555 64.0094 159.383 63.4712C160.244 62.6328 160.984 61.7084 161.603 60.6982C163.924 62.7841 166.554 64.4069 169.495 65.5664C170.854 66.351 172.21 67.1315 173.564 67.9081C177.208 70.5304 178.586 74.0839 177.695 78.5688C176.64 83.4854 175.983 88.4564 175.722 93.4816C175.682 98.4525 175.64 103.423 175.599 108.394C175.484 108.983 175.32 109.559 175.106 110.12C174.552 111.33 173.978 112.522 173.379 113.694C170.72 118.477 168.088 123.284 165.487 128.114C164.696 129.408 163.874 130.682 163.021 131.934C156.546 141.202 149.598 150.117 142.181 158.679C140.601 160.769 139.102 162.905 137.68 165.087Z" fill="#FF7A00"/>
<path fill-rule="evenodd" clip-rule="evenodd" d="M173.564 85.3477C173.527 90.3163 173.836 95.2872 174.489 100.26C174.746 103.71 174.335 107.079 173.256 110.367C171.807 115.112 169.669 119.508 166.844 123.554C166.888 123.132 167.011 122.721 167.214 122.321C168.88 118.869 170.441 115.377 171.9 111.846C173.082 108.666 173.72 105.38 173.811 101.986C173.643 99.3118 173.418 96.6414 173.133 93.9749C173.05 91.8797 173.05 89.7845 173.133 87.6893C173.26 86.9038 173.404 86.1231 173.564 85.3477Z" fill="white"/>
<path fill-rule="evenodd" clip-rule="evenodd" d="M162.096 63.1631C162.245 63.4016 162.225 63.6481 162.035 63.9026C161.705 64.3955 161.295 64.8063 160.801 65.135C160.719 65.0528 160.719 64.9707 160.801 64.8885C161.264 64.3317 161.695 63.7566 162.096 63.1631Z" fill="white"/>
<path fill-rule="evenodd" clip-rule="evenodd" d="M161.726 61.5615C161.861 61.5763 161.942 61.6585 161.973 61.808C161.597 63.0272 160.94 64.0748 160 64.9508C159.376 65.4508 158.719 65.9027 158.027 66.3065C157.435 66.6245 156.818 66.8298 156.177 66.9227C157.445 66.1079 158.678 65.2452 159.877 64.3346C160.668 63.5231 161.285 62.5988 161.726 61.5615Z" fill="white"/>
<path fill-rule="evenodd" clip-rule="evenodd" d="M167.892 109.75C167.968 111.584 167.701 113.392 167.09 115.173C165.669 118.302 164.025 121.301 162.158 124.17C162.534 123.087 162.987 122.019 163.514 120.965C164.548 119.015 165.534 117.043 166.474 115.05C167.11 113.327 167.582 111.56 167.892 109.75Z" fill="white"/>
<path fill-rule="evenodd" clip-rule="evenodd" d="M66.2813 112.216C66.5802 112.178 66.8679 112.219 67.1445 112.339C63.5512 113.381 59.934 114.346 56.2929 115.235C55.6869 115.456 55.1114 115.744 54.5665 116.098C51.6067 118.891 48.9142 121.911 46.4894 125.157C45.1845 127.067 43.9103 128.997 42.6667 130.949C42.5844 130.826 42.5844 130.703 42.6667 130.579C45.5515 125.126 49.2303 120.257 53.7033 115.975C54.5243 115.256 55.4697 114.763 56.5395 114.496C59.7661 113.591 63.0133 112.831 66.2813 112.216Z" fill="white"/>
<path fill-rule="evenodd" clip-rule="evenodd" d="M171.591 97.5488C171.828 98.0429 171.972 98.5771 172.023 99.151C172.217 106.196 170.695 112.851 167.46 119.117C166.055 121.722 164.492 124.228 162.774 126.635C164.253 123.639 165.773 120.64 167.337 117.638C170.401 111.299 171.819 104.603 171.591 97.5488Z" fill="white"/>
<path fill-rule="evenodd" clip-rule="evenodd" d="M152.601 116.159C152.886 116.48 153.112 116.85 153.279 117.268C153.964 119.016 154.415 120.824 154.636 122.691C154.754 123.698 154.713 124.684 154.512 125.649C154.072 122.444 153.436 119.28 152.601 116.159Z" fill="white"/>
<path fill-rule="evenodd" clip-rule="evenodd" d="M31.5067 104.081C31.6295 104.07 31.7323 104.111 31.815 104.204C33.3639 110.936 34.0217 117.756 33.788 124.663C33.3695 124.781 32.9379 124.822 32.4932 124.786C32.9023 118.951 32.594 113.158 31.5684 107.408C31.3925 106.298 31.3721 105.189 31.5067 104.081Z" fill="#FF7A00"/>
<path fill-rule="evenodd" clip-rule="evenodd" d="M123.992 120.227C123.504 126.845 123.976 133.419 125.41 139.946C126.044 142.417 126.661 144.882 127.26 147.341C123.37 138.635 122.281 129.596 123.992 120.227Z" fill="white"/>
<path fill-rule="evenodd" clip-rule="evenodd" d="M156.794 131.812C157.551 131.814 158.291 131.916 159.013 132.12C158.452 132.311 157.878 132.351 157.287 132.243C157.035 132.181 156.87 132.038 156.794 131.812Z" fill="white"/>
<path fill-rule="evenodd" clip-rule="evenodd" d="M36.6859 132.058C36.8552 132.038 37.0197 132.059 37.1792 132.12C36.9325 132.284 36.6859 132.449 36.4393 132.613C34.3526 133.406 32.1946 133.878 29.9653 134.03C29.3368 134.062 28.7408 133.958 28.1772 133.722C31.1305 133.677 33.9667 133.123 36.6859 132.058Z" fill="white"/>
<path fill-rule="evenodd" clip-rule="evenodd" d="M11.6532 127.375C15.2927 132.008 20.0197 134.987 25.8343 136.31C29.2808 136.819 32.6103 136.409 35.8227 135.078C37.1725 134.485 38.4878 133.828 39.7688 133.106C40.0089 132.984 40.2555 132.943 40.5087 132.983C39.9779 133.494 39.4025 133.946 38.7823 134.338C36.2006 135.759 33.4465 136.664 30.5202 137.05C24.0045 137.194 18.4349 134.997 13.8112 130.456C13.0653 129.587 12.3665 128.684 11.7149 127.745C11.6553 127.628 11.6348 127.504 11.6532 127.375Z" fill="white"/>
<path fill-rule="evenodd" clip-rule="evenodd" d="M39.3988 132.058C39.5559 132.143 39.5559 132.245 39.3988 132.366C35.246 135.003 30.7245 135.947 25.8343 135.2C25.3066 135.019 24.8133 134.773 24.3545 134.461C25.5757 134.794 26.8294 134.979 28.1156 135.016C30.9904 134.934 33.7649 134.38 36.4393 133.352C37.4224 132.88 38.409 132.448 39.3988 132.058Z" fill="white"/>
<path fill-rule="evenodd" clip-rule="evenodd" d="M153.957 135.509C153.987 135.435 154.049 135.394 154.142 135.386C155.043 135.673 155.967 135.817 156.917 135.817C155.866 136.292 154.88 136.188 153.957 135.509Z" fill="white"/>
<path fill-rule="evenodd" clip-rule="evenodd" d="M150.381 137.481C150.389 137.414 150.429 137.372 150.505 137.357C150.797 137.709 151.167 137.934 151.614 138.035C152.361 138.173 153.1 138.337 153.834 138.528C152.42 138.977 151.269 138.628 150.381 137.481Z" fill="white"/>
<path fill-rule="evenodd" clip-rule="evenodd" d="M147.545 139.699C148.416 141.02 149.649 141.822 151.245 142.103C149.246 142.44 148.013 141.639 147.545 139.699Z" fill="white"/>
<path fill-rule="evenodd" clip-rule="evenodd" d="M143.476 139.206C144.498 141.111 145.896 142.694 147.668 143.951C147.138 143.935 146.645 143.77 146.189 143.458C144.676 142.425 143.772 141.008 143.476 139.206Z" fill="white"/>
<path fill-rule="evenodd" clip-rule="evenodd" d="M140.146 139.822C140.554 140.475 140.905 141.173 141.194 141.917C142.552 144.136 144.464 145.676 146.929 146.539C143.967 146.294 141.891 144.794 140.701 142.041C140.439 141.317 140.254 140.578 140.146 139.822Z" fill="white"/>
<path fill-rule="evenodd" clip-rule="evenodd" d="M135.337 137.604C135.692 139.186 136.164 140.747 136.755 142.288C137.569 144.005 138.74 145.422 140.27 146.54C141.35 147.25 142.46 147.908 143.599 148.512C138.886 147.457 136.152 144.519 135.399 139.7C135.337 139.002 135.316 138.305 135.337 137.604Z" fill="white"/>
<path fill-rule="evenodd" clip-rule="evenodd" d="M131.884 132.551C131.908 136.347 132.669 140.002 134.166 143.52C135.322 145.909 136.864 148.024 138.79 149.867C139.371 150.407 139.987 150.9 140.64 151.346C137.337 149.771 134.933 147.285 133.426 143.889C131.861 140.249 131.347 136.469 131.884 132.551Z" fill="white"/>
<path fill-rule="evenodd" clip-rule="evenodd" d="M112.647 137.234C112.679 138.927 112.576 140.611 112.339 142.287C111.97 146.499 110.593 150.319 108.208 153.749C109.219 150.451 110.267 147.166 111.353 143.89C111.906 141.679 112.338 139.46 112.647 137.234Z" fill="#FF7A00"/>
<path fill-rule="evenodd" clip-rule="evenodd" d="M129.665 124.17C127.645 134.025 129.803 142.858 136.139 150.668C137.002 151.613 137.865 152.557 138.728 153.502C138.813 153.605 138.792 153.687 138.667 153.749C130.46 147.243 127.069 138.779 128.493 128.36C128.74 126.918 129.131 125.522 129.665 124.17Z" fill="white"/>
<path fill-rule="evenodd" clip-rule="evenodd" d="M84.7783 151.284C86.5037 153.563 88.5179 155.597 90.8207 157.385C94.9324 160.084 99.3717 162.098 104.139 163.424C103.556 163.501 102.981 163.46 102.412 163.301C100.451 162.841 98.5189 162.287 96.6165 161.637C93.5117 160.572 90.7165 158.949 88.2311 156.769C80.0511 148.818 75.2623 139.143 73.865 127.744C73.4439 124.658 73.485 121.577 73.9883 118.501C74.015 118.269 74.0972 118.063 74.235 117.885C73.7136 130.349 77.2281 141.481 84.7783 151.284Z" fill="white"/>
<path fill-rule="evenodd" clip-rule="evenodd" d="M128.432 151.284C129.501 152.109 130.529 152.991 131.514 153.934C132.11 154.335 132.727 154.704 133.364 155.043C131.508 154.659 130.009 153.692 128.863 152.147C128.653 151.891 128.509 151.603 128.432 151.284Z" fill="white"/>
<path fill-rule="evenodd" clip-rule="evenodd" d="M129.048 153.256C131.34 154.997 133.888 156.25 136.694 157.015C138.6 157.382 140.45 157.197 142.243 156.46C142.325 156.501 142.407 156.543 142.489 156.583C140.826 157.614 139.018 158.003 137.063 157.754C134.349 157.26 131.964 156.11 129.911 154.303C129.547 154.003 129.26 153.654 129.048 153.256Z" fill="white"/>
<path fill-rule="evenodd" clip-rule="evenodd" d="M134.597 159.295C136.242 159.274 137.886 159.295 139.53 159.357C138.07 159.804 136.59 159.887 135.09 159.603C134.851 159.588 134.687 159.486 134.597 159.295Z" fill="white"/>
<path fill-rule="evenodd" clip-rule="evenodd" d="M129.788 159.049C129.795 158.982 129.836 158.941 129.911 158.926C132.607 159.994 135.401 160.632 138.297 160.836C137.081 161.205 135.848 161.245 134.597 160.959C132.876 160.591 131.273 159.955 129.788 159.049Z" fill="white"/>
<path fill-rule="evenodd" clip-rule="evenodd" d="M107.468 154.735C107.232 154.909 107.006 155.115 106.79 155.352C106.926 149.984 106.165 144.767 104.508 139.699C105.04 140.231 105.575 140.765 106.112 141.302C106.153 141.261 106.194 141.219 106.235 141.178C105.328 139.903 104.423 138.63 103.522 137.358C102.453 133.128 100.377 129.431 97.2946 126.266C97.2454 126.294 97.225 126.335 97.233 126.389C96.2056 124.093 95.4041 121.71 94.8284 119.241C94.7968 120.03 94.879 120.81 95.075 121.582C95.3312 122.699 95.5983 123.808 95.8765 124.91C95.0725 124.406 94.2916 123.872 93.5336 123.308C92.493 122.913 91.4653 122.482 90.4507 122.014C86.947 120.972 83.6586 121.424 80.5856 123.369C76.7592 126.395 75.5877 130.277 77.0711 135.016C78.7031 140.742 81.2516 146.001 84.7166 150.792C84.777 150.951 84.7976 151.116 84.7783 151.285C77.228 141.482 73.7135 130.349 74.2349 117.885C74.0972 118.063 74.0149 118.269 73.9883 118.501C73.4849 121.577 73.4439 124.658 73.865 127.745C75.2622 139.144 80.051 148.818 88.2311 156.769C90.7164 158.949 93.5116 160.572 96.6164 161.637C97.0798 161.937 97.5731 162.204 98.0962 162.438C102.992 164.447 108.089 165.577 113.387 165.828C108.988 167.903 104.589 169.977 100.193 172.051C100.963 172.241 101.744 172.282 102.535 172.175C103.178 171.973 103.836 171.849 104.508 171.805C107.768 170.727 111.057 169.741 114.374 168.847C116.182 168.516 117.949 168.66 119.676 169.278C119.199 167.684 118.747 166.081 118.32 164.472C124.836 165.885 131.206 165.475 137.433 163.239C137.516 163.874 137.597 164.49 137.68 165.088C137.624 165.206 137.542 165.309 137.433 165.396C135.769 166.069 134.083 166.685 132.377 167.245C129.233 168.201 126.067 168.284 122.882 167.491C122.054 167.175 121.232 166.887 120.416 166.629C121.869 167.647 123.472 168.304 125.225 168.601C128.266 169.001 131.226 168.672 134.104 167.615C135.115 167.088 136.102 166.615 137.063 166.197C136.813 166.818 136.443 167.331 135.954 167.738C134.688 168.209 133.415 168.66 132.131 169.094C129.465 169.852 126.752 170.098 123.992 169.833C124.075 169.916 124.156 169.997 124.239 170.08C128.408 170.899 132.312 170.221 135.954 168.046C135.994 168.087 136.036 168.129 136.077 168.169C135.775 168.731 135.508 169.307 135.275 169.895C132.867 171.046 130.339 171.826 127.692 172.236C130.277 172.376 132.702 171.8 134.967 170.511C135.008 170.552 135.05 170.593 135.09 170.634C134.934 171.041 134.791 171.451 134.659 171.867C134.104 175.103 134.021 178.348 134.412 181.603C135.22 184.093 135.754 186.64 136.015 189.244C136.406 197.46 136.776 205.675 137.125 213.893C137.615 218.9 138.211 223.891 138.913 228.868C138.871 228.995 138.79 229.056 138.666 229.053C138.294 229.033 137.924 229.053 137.557 229.114C137.188 229.257 136.982 229.525 136.94 229.915C136.843 230.052 136.781 230.216 136.755 230.408C136.143 222.286 135.814 214.152 135.769 206.006C135.68 200.693 135.104 195.434 134.042 190.23C133.349 187.249 132.363 184.372 131.083 181.603C132.585 187.015 133.694 192.52 134.412 198.118C134.659 200.33 134.823 202.549 134.905 204.773C135.039 211.021 135.244 217.264 135.522 223.507C135.729 225.974 135.956 228.439 136.2 230.901C136.164 231.177 136.205 231.424 136.323 231.641C136.758 236.507 137.682 241.273 139.098 245.937C139.119 245.814 139.139 245.691 139.16 245.568C138.303 241.863 137.644 238.125 137.187 234.352C137.393 234.352 137.597 234.352 137.803 234.352C137.803 233.449 137.803 232.544 137.803 231.641C138.173 231.641 138.543 231.641 138.913 231.641C138.913 231.394 138.913 231.148 138.913 230.901C138.543 230.901 138.173 230.901 137.803 230.901C137.603 229.991 137.933 229.703 138.79 230.039C138.909 229.804 138.95 229.558 138.913 229.299C139.066 229.828 139.189 230.362 139.283 230.901C139.283 232.051 139.283 233.202 139.283 234.352C139.447 234.352 139.612 234.352 139.776 234.352C140.498 238.376 141.197 242.401 141.873 246.43C139.776 246.43 137.68 246.43 135.584 246.43C135.543 246.348 135.501 246.266 135.46 246.184C135.539 246.11 135.58 246.008 135.584 245.876C134.65 241.859 133.87 237.812 133.241 233.736C133.445 233.411 133.65 233.082 133.857 232.75C133.613 232.677 133.366 232.718 133.117 232.873C133.117 232.791 133.117 232.709 133.117 232.627C133.321 232.401 133.567 232.237 133.857 232.134C134.058 232.322 134.161 232.569 134.165 232.873C134.476 235.609 134.929 238.321 135.522 241.008C135.975 242.735 136.55 244.419 137.248 246.061C135.815 240.656 134.891 235.151 134.474 229.546C134.507 229.348 134.465 229.185 134.35 229.053C133.878 221.989 133.447 214.924 133.056 207.854C132.673 203.774 132.18 199.707 131.576 195.653C132.142 206.918 132.861 218.174 133.734 229.422C133.485 229.151 133.196 229.069 132.871 229.176C133.252 229.556 133.581 229.967 133.857 230.408C133.891 230.606 133.849 230.77 133.734 230.901C133.5 230.338 133.13 229.886 132.624 229.546C131.836 222.368 131.158 215.179 130.589 207.978C130.494 214.781 130.843 221.559 131.638 228.313C131.35 228.313 131.062 228.313 130.774 228.313C131.075 227.598 130.869 227.352 130.158 227.574C128.731 217.781 128.546 207.962 129.603 198.118C129.883 196.717 130.376 195.402 131.083 194.174C131.232 192.913 131.109 191.681 130.713 190.477C129.467 187.201 127.926 184.079 126.088 181.11C125.942 180.945 125.757 180.862 125.534 180.864C121.269 181.901 116.973 182.004 112.647 181.172C108.3 180.188 103.943 179.243 99.5759 178.337C97.1178 177.896 94.6515 177.813 92.1771 178.091C91.652 178.627 91.3026 179.263 91.1289 180.001C90.7148 182.076 90.5915 184.171 90.759 186.286C90.9623 187.96 91.2912 189.603 91.7455 191.216C92.6342 194.168 93.4974 197.126 94.3351 200.09C95.0083 202.843 95.3166 205.637 95.26 208.471C95.1065 212.557 94.9832 216.646 94.89 220.734C94.8817 224.294 95.0051 227.847 95.26 231.394C94.381 230.578 93.4973 230.578 92.6087 231.394C91.8929 232.658 92.1601 233.665 93.4102 234.414C94.1364 234.569 94.7941 234.425 95.3833 233.983C95.6591 236.642 95.8646 239.312 95.9998 241.994C95.9792 242.816 95.9588 243.636 95.9382 244.458C95.7793 245.108 95.6765 245.766 95.6299 246.43C93.8624 246.43 92.0949 246.43 90.3274 246.43C90.3672 242.442 90.285 238.458 90.0808 234.476C90.3669 234.362 90.6341 234.198 90.8823 233.983C90.9419 234.1 90.9623 234.223 90.944 234.352C91.1083 234.352 91.2728 234.352 91.4372 234.352C91.5248 237.352 91.6481 240.351 91.8072 243.349C91.8754 229.894 91.3615 216.461 90.2657 203.048C89.5736 196.65 88.6692 190.283 87.5528 183.945C88.5269 192.35 89.3901 200.771 90.1424 209.21C90.5555 215.656 90.9049 222.107 91.1906 228.56C91.1757 228.922 91.0935 229.251 90.944 229.546C90.9644 230.122 90.9438 230.698 90.8823 231.271C90.643 230.979 90.3347 230.815 89.9575 230.778C89.5257 220.013 88.9296 209.25 88.1694 198.488C87.6488 192.106 86.7444 185.78 85.4565 179.508C86.3537 188.453 87.1759 197.409 87.9228 206.375C88.465 214.544 88.8966 222.72 89.2176 230.901C88.5645 231.198 88.2356 231.712 88.2311 232.442C88.207 233.109 88.4126 233.684 88.8476 234.167C89.0012 234.265 89.1655 234.326 89.3409 234.352C89.646 238.365 89.8515 242.392 89.9575 246.43C89.2586 246.43 88.5599 246.43 87.8611 246.43C87.8817 242.65 87.8611 238.87 87.7995 235.092C87.5846 222.3 87.0502 209.524 86.1964 196.762C85.8447 192.964 85.3514 189.184 84.7166 185.424C84.16 182.272 83.3378 179.191 82.2503 176.18C80.9521 173.232 79.6779 170.274 78.4276 167.306C77.7512 166.099 77.1346 164.866 76.5779 163.609C72.9033 152.946 69.5327 142.183 66.4661 131.319C66.1045 129.609 65.8578 127.884 65.7263 126.142C65.6388 122.401 65.7005 118.663 65.9112 114.927C73.6461 112.65 81.4353 110.555 89.2792 108.641C89.4563 108.649 89.6207 108.69 89.7725 108.765C90.815 112.02 92.9319 114.259 96.1231 115.482C96.6075 115.645 97.1008 115.686 97.6029 115.605C98.7127 114.99 99.6787 114.189 100.501 113.202C102.25 111.326 103.956 109.416 105.618 107.471C106.014 107.329 106.425 107.246 106.851 107.224C108.328 107.06 109.807 106.958 111.291 106.916C111.619 111.021 111.928 115.129 112.216 119.241C112.775 131.369 111.192 143.201 107.468 154.735Z" fill="#FF7A00"/>
<path fill-rule="evenodd" clip-rule="evenodd" d="M79.3525 159.172C81.4733 161.313 83.6519 163.387 85.8882 165.396C87.9301 167.062 90.1908 168.377 92.6704 169.34C91.8999 169.415 91.16 169.292 90.4508 168.97C85.8022 166.768 82.1028 163.502 79.3525 159.172Z" fill="#FF7A00"/>
<path fill-rule="evenodd" clip-rule="evenodd" d="M73.0635 142.78C75.4024 146.701 78.0125 150.439 80.894 153.996C85.1878 158.697 90.182 162.456 95.8766 165.273C97.3031 165.857 98.7418 166.392 100.193 166.875C99.1412 166.89 98.1137 166.726 97.1098 166.382C92.7087 164.615 88.7216 162.191 85.1483 159.11C82.498 156.749 80.0522 154.182 77.8111 151.407C75.9361 148.686 74.3535 145.811 73.0635 142.78Z" fill="#FF7A00"/>
<path fill-rule="evenodd" clip-rule="evenodd" d="M70.5972 124.786C71.2888 127.86 72.0081 130.941 72.7552 134.03C74.2794 139.777 76.8485 144.994 80.4623 149.682C85.0005 155.595 90.5907 160.217 97.233 163.547C99.0458 164.343 100.895 165.041 102.782 165.642C102.371 165.725 101.96 165.725 101.549 165.642C98.0168 164.698 94.7284 163.219 91.6839 161.205C83.1178 155.356 76.9315 147.611 73.1252 137.973C71.7167 133.686 70.8739 129.29 70.5972 124.786Z" fill="#FF7A00"/>
<path fill-rule="evenodd" clip-rule="evenodd" d="M103.522 137.358C101.078 133.911 98.9815 130.255 97.233 126.389C97.225 126.335 97.2455 126.294 97.2947 126.266C100.377 129.431 102.453 133.128 103.522 137.358Z" fill="#FF7A00"/>
<path fill-rule="evenodd" clip-rule="evenodd" d="M101.919 125.156C102.367 125.638 102.758 126.172 103.09 126.758C104.303 129.061 105.207 131.484 105.803 134.03C105.886 134.276 105.886 134.523 105.803 134.769C105.067 132.809 104.327 130.837 103.584 128.854C102.944 127.654 102.39 126.422 101.919 125.156Z" fill="white"/>
<path fill-rule="evenodd" clip-rule="evenodd" d="M98.8361 123.678C100.981 127.449 103.057 131.27 105.063 135.14C105.387 135.783 105.634 136.441 105.803 137.112C103.031 132.885 100.709 128.407 98.8361 123.678Z" fill="white"/>
<path fill-rule="evenodd" clip-rule="evenodd" d="M104.139 124.047C104.261 124.036 104.364 124.077 104.447 124.17C105.409 126.093 106.231 128.064 106.913 130.086C107.077 130.697 107.159 131.313 107.16 131.934C106.117 129.317 105.11 126.687 104.139 124.047Z" fill="white"/>
<path fill-rule="evenodd" clip-rule="evenodd" d="M97.2331 126.388C98.9816 130.255 101.078 133.91 103.522 137.357C104.423 138.629 105.328 139.902 106.235 141.178C106.194 141.219 106.153 141.261 106.112 141.301C105.575 140.765 105.04 140.23 104.509 139.699C103.522 138.446 102.556 137.171 101.611 135.878C99.2445 132.463 97.3331 128.807 95.8766 124.91C95.5984 123.808 95.3313 122.698 95.0751 121.582C94.8791 120.81 94.7969 120.029 94.8285 119.24C95.4042 121.71 96.2058 124.092 97.2331 126.388Z" fill="white"/>
<path fill-rule="evenodd" clip-rule="evenodd" d="M105.248 113.94C109.754 121.815 110.966 130.197 108.886 139.083C109.067 136.397 109.211 133.705 109.318 131.01C109.248 127.9 108.816 124.839 108.023 121.828C107.13 119.182 106.205 116.553 105.248 113.94Z" fill="white"/>
<path fill-rule="evenodd" clip-rule="evenodd" d="M108.948 110.859C111.081 116.411 111.841 122.162 111.229 128.114C111.023 124.821 110.735 121.534 110.366 118.254C109.916 115.782 109.444 113.317 108.948 110.859Z" fill="white"/>
<path fill-rule="evenodd" clip-rule="evenodd" d="M99.576 108.887C100.566 108.868 101.553 108.909 102.536 109.011C102.554 109.14 102.533 109.264 102.474 109.38C101.019 111.04 99.5185 112.663 97.9729 114.249C97.4296 114.614 96.8541 114.655 96.2465 114.372C95.5277 114.075 94.8701 113.684 94.2735 113.201C95.368 112.004 96.5189 110.875 97.7263 109.812C98.3104 109.406 98.927 109.098 99.576 108.887Z" fill="#FF7A00"/>
<path fill-rule="evenodd" clip-rule="evenodd" d="M76.7629 153.38C79.8157 156.903 83.1452 160.169 86.7514 163.178C89.7823 165.494 93.1118 167.26 96.7398 168.478C95.1719 168.455 93.6921 168.086 92.3005 167.368C85.8839 164.055 80.7047 159.393 76.7629 153.38Z" fill="#FF7A00"/>
<path fill-rule="evenodd" clip-rule="evenodd" d="M79.3525 162.746C79.4015 162.619 79.4836 162.599 79.5992 162.684C81.4145 164.499 83.223 166.307 85.025 168.107C86.2968 169.113 87.6121 170.057 88.971 170.942C88.5413 170.979 88.1303 170.896 87.7379 170.695C84.3538 168.648 81.5587 165.999 79.3525 162.746Z" fill="white"/>
<path fill-rule="evenodd" clip-rule="evenodd" d="M79.4758 165.581C79.5248 165.454 79.6069 165.434 79.7225 165.519C81.5639 167.421 83.3726 169.331 85.1483 171.25C84.9402 171.382 84.7347 171.361 84.5317 171.189C82.5611 169.569 80.8758 167.7 79.4758 165.581Z" fill="white"/>
<path fill-rule="evenodd" clip-rule="evenodd" d="M79.2292 167.183C79.6774 167.652 80.109 168.145 80.524 168.662C81.2222 169.564 81.8594 170.509 82.4353 171.496C82.3287 171.629 82.2054 171.65 82.0654 171.558C80.895 170.244 79.9496 168.786 79.2292 167.183Z" fill="white"/>
<path fill-rule="evenodd" clip-rule="evenodd" d="M101.056 167.552C101.185 167.534 101.309 167.555 101.426 167.614C99.8796 168.654 98.2765 169.598 96.6165 170.449C92.6233 172.073 88.5951 173.614 84.5317 175.07C84.4906 175.132 84.4494 175.194 84.4084 175.255C84.5908 175.722 84.7553 176.194 84.9016 176.673C84.8606 176.713 84.8194 176.755 84.7783 176.796C84.4727 176.271 84.2261 175.716 84.0384 175.132C84.0309 174.921 84.1132 174.757 84.2851 174.639C88.7231 172.832 93.1624 171.024 97.603 169.216C98.7507 168.623 99.9015 168.069 101.056 167.552Z" fill="white"/>
<path fill-rule="evenodd" clip-rule="evenodd" d="M114.004 171.989C116.219 172.27 118.397 172.723 120.539 173.345C118.651 173.472 116.802 173.245 114.99 172.667C114.037 172.588 113.174 172.835 112.401 173.407C109.408 174.43 106.366 175.273 103.275 175.933C103.193 175.892 103.111 175.851 103.029 175.81C105.126 175.049 107.264 174.372 109.441 173.776C110.975 173.172 112.496 172.577 114.004 171.989Z" fill="white"/>
<path fill-rule="evenodd" clip-rule="evenodd" d="M133.117 172.976C133.585 172.915 133.667 173.018 133.364 173.284C132.005 173.962 130.566 174.229 129.048 174.085C129.048 173.962 129.048 173.839 129.048 173.715C130.453 173.65 131.809 173.403 133.117 172.976Z" fill="white"/>
<path fill-rule="evenodd" clip-rule="evenodd" d="M114.374 169.771C115.071 169.729 115.729 169.873 116.347 170.202C118.147 171.022 119.955 171.844 121.773 172.667C120.809 172.642 119.864 172.478 118.936 172.174C117.585 171.672 116.249 171.158 114.929 170.633C111.484 171.993 108.011 173.287 104.509 174.516C102.095 175.247 99.6283 175.657 97.1098 175.748C96.8498 175.704 96.6032 175.621 96.3699 175.502C99.4892 175.133 102.531 174.434 105.495 173.407C108.533 172.348 111.492 171.135 114.374 169.771Z" fill="#FF7A00"/>
<path fill-rule="evenodd" clip-rule="evenodd" d="M113.634 173.715C116.467 173.887 119.262 174.319 122.019 175.009C120.659 175.092 119.303 175.05 117.95 174.886C116.782 174.639 115.61 174.414 114.435 174.208C113.568 174.367 112.726 174.613 111.907 174.947C111.676 174.95 111.635 174.888 111.784 174.762C112.392 174.377 113.009 174.028 113.634 173.715Z" fill="white"/>
<path fill-rule="evenodd" clip-rule="evenodd" d="M97.3563 171.004C97.6451 171.037 97.6451 171.141 97.3563 171.312C94.143 173.615 90.608 175.26 86.7513 176.242C86.7388 176.634 86.7388 177.024 86.7513 177.413C86.4957 177.045 86.2901 176.655 86.1348 176.242C86.1662 176.078 86.2485 175.955 86.3814 175.872C90.1951 174.568 93.8535 172.946 97.3563 171.004Z" fill="white"/>
<path fill-rule="evenodd" clip-rule="evenodd" d="M95.2601 173.345C95.3512 173.329 95.4334 173.35 95.5067 173.407C94.1499 174.661 92.5878 175.607 90.8207 176.241C90.0568 176.552 89.2757 176.757 88.4778 176.858C90.7849 175.746 93.0456 174.575 95.2601 173.345Z" fill="white"/>
<path fill-rule="evenodd" clip-rule="evenodd" d="M130.158 175.564C130.958 175.422 131.779 175.401 132.624 175.502C131.804 175.717 130.983 175.736 130.158 175.564Z" fill="white"/>
<path fill-rule="evenodd" clip-rule="evenodd" d="M130.158 177.412C131.04 177.269 131.945 177.249 132.871 177.35C131.984 177.888 131.08 177.907 130.158 177.412Z" fill="white"/>
<path fill-rule="evenodd" clip-rule="evenodd" d="M130.158 227.573C130.179 227.864 130.221 228.151 130.281 228.436C129.994 228.456 129.728 228.538 129.48 228.682C129.406 228.864 129.467 228.987 129.665 229.052C129.778 228.975 129.901 228.934 130.035 228.929C130.242 228.903 130.365 228.984 130.405 229.175C128.634 229.652 127.874 230.802 128.123 232.626C128.349 232.82 128.615 232.923 128.925 232.934C129.663 232.996 130.403 233.017 131.144 232.996C131.144 233.119 131.144 233.243 131.144 233.366C130.218 233.356 129.313 233.356 128.432 233.366C129.19 234.413 130.218 234.866 131.514 234.722C131.931 236.907 132.527 239.044 133.302 241.13C133.513 241.625 133.781 242.077 134.104 242.486C134.504 243.726 134.956 244.958 135.46 246.183C135.501 246.266 135.543 246.347 135.584 246.43C122.266 246.43 108.948 246.43 95.6301 246.43C95.6767 245.766 95.7795 245.107 95.9383 244.458C95.9589 243.636 95.9794 242.815 96 241.993C95.8647 239.311 95.6593 236.642 95.3834 233.982C95.3834 233.899 95.3834 233.818 95.3834 233.736C95.3381 233.362 95.4202 233.033 95.6301 232.75C95.6766 232.243 95.5532 231.792 95.2601 231.394C95.0052 227.847 94.8819 224.294 94.8902 220.733C94.9834 216.645 95.1067 212.557 95.2601 208.47C95.3167 205.637 95.0084 202.843 94.3353 200.089C93.4976 197.125 92.6344 194.167 91.7457 191.216C91.2914 189.602 90.9625 187.96 90.7592 186.286C90.5917 184.171 90.715 182.076 91.1291 180C91.3027 179.262 91.6522 178.626 92.1773 178.09C94.6517 177.813 97.118 177.895 99.5761 178.337C103.943 179.242 108.3 180.188 112.647 181.171C116.974 182.003 121.269 181.901 125.534 180.863C125.757 180.862 125.942 180.944 126.089 181.11C127.926 184.079 129.467 187.2 130.713 190.476C131.109 191.68 131.232 192.913 131.083 194.174C130.376 195.401 129.883 196.716 129.603 198.117C128.546 207.961 128.731 217.78 130.158 227.573Z" fill="#FF7A00"/>
<path fill-rule="evenodd" clip-rule="evenodd" d="M88.4778 182.589C88.7309 183.126 88.9159 183.702 89.0327 184.314C90.3393 190.178 91.3258 196.094 91.9922 202.062C92.2043 203.824 92.2865 205.59 92.2389 207.361C91.0592 199.088 89.8056 190.83 88.4778 182.589Z" fill="white"/>
<path fill-rule="evenodd" clip-rule="evenodd" d="M136.94 229.915C136.94 230.244 136.94 230.572 136.94 230.901C136.694 230.901 136.447 230.901 136.2 230.901C135.956 228.438 135.729 225.974 135.522 223.506C135.245 217.264 135.039 211.02 134.905 204.773C134.823 202.548 134.659 200.33 134.412 198.117C133.695 192.52 132.585 187.014 131.083 181.603C132.363 184.372 133.349 187.248 134.042 190.23C135.104 195.433 135.68 200.692 135.769 206.005C135.814 214.152 136.144 222.286 136.755 230.408C136.781 230.216 136.843 230.052 136.94 229.915Z" fill="white"/>
<path fill-rule="evenodd" clip-rule="evenodd" d="M89.9575 230.778C89.696 230.757 89.4493 230.798 89.2176 230.901C88.8966 222.72 88.465 214.544 87.9228 206.375C87.1759 197.409 86.3538 188.453 85.4565 179.508C86.7444 185.78 87.6488 192.106 88.1695 198.488C88.9297 209.25 89.5258 220.013 89.9575 230.778Z" fill="#FF7A00"/>
<path fill-rule="evenodd" clip-rule="evenodd" d="M148.902 202.061C149.411 201.941 149.946 201.899 150.505 201.938C150.505 202.842 150.505 203.746 150.505 204.65C151.245 204.65 151.984 204.65 152.724 204.65C152.724 203.746 152.724 202.842 152.724 201.938C153.258 201.938 153.793 201.938 154.327 201.938C154.327 204.239 154.327 206.539 154.327 208.84C153.793 208.84 153.258 208.84 152.724 208.84C152.724 207.895 152.724 206.951 152.724 206.005C151.984 206.005 151.245 206.005 150.505 206.005C150.505 206.909 150.505 207.813 150.505 208.717C150.011 208.717 149.518 208.717 149.025 208.717C149.066 206.477 149.025 204.259 148.902 202.061Z" fill="white"/>
<path fill-rule="evenodd" clip-rule="evenodd" d="M91.4373 234.352C91.56 232.772 91.6012 231.17 91.5606 229.545C91.3551 229.545 91.1496 229.545 90.9441 229.545C91.0936 229.251 91.1758 228.922 91.1907 228.559C90.905 222.106 90.5556 215.656 90.1425 209.21C89.3902 200.771 88.527 192.35 87.5529 183.944C88.6693 190.283 89.5737 196.65 90.2658 203.047C91.3616 216.46 91.8754 229.894 91.8072 243.349C91.6482 240.35 91.5249 237.352 91.4373 234.352Z" fill="#FF7A00"/>
<path fill-rule="evenodd" clip-rule="evenodd" d="M134.351 229.052C134.084 229.079 133.878 229.202 133.734 229.422C132.861 218.173 132.142 206.917 131.576 195.652C132.18 199.706 132.673 203.773 133.056 207.854C133.447 214.923 133.878 221.989 134.351 229.052Z" fill="white"/>
</g>
<defs>
<clipPath id="clip0_302_27482">
<rect width="246.628" height="202" fill="white"/>
</clipPath>
</defs>
</svg>
